<svg xmlns="http://www.w3.org/2000/svg" viewBox="0 0 19.25 19.26"><defs><style>.cls-1{fill:#255aa9;}.cls-2{fill:#65b72f;}.cls-3{fill:none;stroke:#231815;stroke-miterlimit:10;stroke-width:1.09px;}</style></defs><title>資產 6222</title><g id="圖層_2" data-name="圖層 2"><g id="圖層_2-2" data-name="圖層 2"><path class="cls-1" d="M11.72,3.72c.19.74,2.51.42,2.77.64s-3.38,1.32-2.79,3,.86,2.24,2.21,2.3,2.45-.07,2.52.41,1.39,3,1.46,3.31A9.08,9.08,0,0,1,7.81,18.53h0c0-.16.14-2.16,1-2.06s1.84-1.74,2.68-3.28S7.72,10,6.52,9.39s-1.71,1.13-1.9,1.46a7.65,7.65,0,0,0,1.16,4.32c.86,1-1.15,1.85-1.32,1.93h0A9.11,9.11,0,0,1,.54,9.63a7.93,7.93,0,0,1,.06-1A12.92,12.92,0,0,1,4.23,7.17,6.29,6.29,0,0,0,8,4.21c.33-.93-1.48-.53-2.87-.11a1.44,1.44,0,0,1-1.82-1A9,9,0,0,1,9.62.54a9.11,9.11,0,0,1,4,.91S11.52,3,11.72,3.72Z"/><path class="cls-2" d="M8.78,16.46c-.83-.1-1,1.9-1,2.06A8.78,8.78,0,0,1,4.46,17.1c.17-.08,2.18-.94,1.32-1.93a7.65,7.65,0,0,1-1.16-4.32c.19-.33.71-2.07,1.9-1.46s5.78,2.25,4.94,3.79S9.65,16.56,8.78,16.46Z"/><path class="cls-2" d="M11.7,7.33c-.59-1.65,3.05-2.74,2.79-3s-2.58.1-2.77-.64,1.87-2.27,1.87-2.27A9.09,9.09,0,0,1,18.7,9.63a8.88,8.88,0,0,1-.81,3.72c-.07-.29-1.4-2.85-1.46-3.31s-1.16-.36-2.52-.41S12.3,9,11.7,7.33Z"/><path class="cls-2" d="M8,4.21a6.29,6.29,0,0,1-3.74,3A12.92,12.92,0,0,0,.6,8.65,9,9,0,0,1,3.28,3.12a1.44,1.44,0,0,0,1.82,1C6.49,3.68,8.3,3.28,8,4.21Z"/><path class="cls-3" d="M4.45,17.1A9.11,9.11,0,0,1,.54,9.63a7.93,7.93,0,0,1,.06-1,9.06,9.06,0,0,1,9-8.11A9.07,9.07,0,0,1,18.7,9.63a8.88,8.88,0,0,1-.81,3.72A9.08,9.08,0,0,1,7.81,18.53"/><path class="cls-3" d="M7.81,18.52A8.78,8.78,0,0,1,4.46,17.1"/><path class="cls-3" d="M3.28,3.12a1.44,1.44,0,0,0,1.82,1c1.39-.42,3.2-.82,2.87.11a6.29,6.29,0,0,1-3.74,3A12.92,12.92,0,0,0,.6,8.65h0"/><path class="cls-3" d="M4.45,17.1h0c.17-.08,2.18-.94,1.32-1.93a7.65,7.65,0,0,1-1.16-4.32c.19-.33.71-2.07,1.9-1.46s5.78,2.25,4.94,3.79-1.81,3.38-2.68,3.28-1,1.9-1,2.06h0"/><path class="cls-3" d="M13.59,1.45S11.52,3,11.72,3.72s2.51.42,2.77.64-3.38,1.32-2.79,3,.86,2.24,2.21,2.3,2.45-.07,2.52.41,1.39,3,1.46,3.31v0"/></g></g></svg>