<svg xmlns="http://www.w3.org/2000/svg" viewBox="0 0 40.33 40"><defs><style>.cls-1,.cls-2{fill:none;}.cls-1{stroke:#231815;stroke-miterlimit:10;stroke-width:2px;}</style></defs><title>資產 2222</title><g id="圖層_2" data-name="圖層 2"><g id="圖層_1-2" data-name="圖層 1"><g id="圖層_2-2" data-name="圖層 2"><g id="圖層_2-2-2" data-name="圖層 2-2"><path class="cls-1" d="M7.5,9.67l26.62-.81a.92.92,0,0,1,.94.88A1,1,0,0,1,35,10L30,30.05a1.53,1.53,0,0,1-1.57,1.15L1.68,29.59A.72.72,0,0,1,1,28.83a.45.45,0,0,1,0-.16l5.3-18.13A1.21,1.21,0,0,1,7.5,9.67Z"/><path class="cls-1" d="M32.66,20l6.61,10.07a.37.37,0,0,1-.11.51.43.43,0,0,1-.22.06L30.12,30"/></g></g><rect class="cls-2" x="0.16" width="40" height="40"/></g></g></svg>