<?xml version="1.0" encoding="utf-8"?>
<!-- Generator: Adobe Illustrator 24.0.1, SVG Export Plug-In . SVG Version: 6.00 Build 0)  -->
<svg version="1.1" id="svg2600" xmlns="http://www.w3.org/2000/svg" xmlns:xlink="http://www.w3.org/1999/xlink" x="0px" y="0px"
	 viewBox="0 0 808.1 1112.6" style="enable-background:new 0 0 808.1 1112.6;" xml:space="preserve">
<style type="text/css">
	.st0{fill:none;}
</style>
<title>Taiwan</title>
<path id="小琉球" d="M314.8,964.6l-3.5,6.2l1,0.9l1.3,0.4l2.7-0.8l0.5-1.1l3-3.2l2.9-1.8l0.5-1l-0.3-1.1l-1.1-0.5l-0.5-0.9
	l-0.9-0.7l-1.3,0.1l-2,1l-0.7,0.8l-0.9,0.5l-0.5,0.9L314.8,964.6L314.8,964.6z"/>
<g id="澎湖縣">
	<path id="path2464" d="M77.8,546.5L77.8,546.5z"/>
	<path id="path2466" d="M95.6,540.1l0.7-2.5l2-0.7l-0.9,1.4l-0.5,2.3L95.6,540.1L95.6,540.1z"/>
	<path id="path2468" d="M104.4,533.1l2.3-0.4l-0.5,1.8L104.4,533.1z"/>
	<path id="path2470" d="M61.9,580.8l-0.2,2.5l2.2-0.9L61.9,580.8L61.9,580.8z"/>
	<path id="path2472" d="M65.6,587l-4.3,2.3l-1.6-0.7l0.4,2.3l5.3-0.3l4.1-2.5l-0.3-1.3l-2.5-0.4L65.6,587L65.6,587z"/>
	<path id="path2474" d="M58.7,541.7l-0.6,1.2l-0.2,0.8l0.8,0.9l-1.5,1.4l0.4,1.1l1.1,0.5l0.8,0.7l0.4,0.8l-0.9,0.5l-0.7,2.1l0.4,1.2
		l-1.2,0.4h-1.3l-1.1,0.7l0.4,1l1.4,0.3l1.8,2.3v1.3l-0.5,1.1l-1,0.7l-0.7,0.9l-1,0.7l-1,0.3l-1.8-1.6l-1.3,0.5l-0.9,0.7l-0.6,1
		l-1.5,1.3l-0.6,0.9l0.9,0.5h1.4l0.6-0.8h4l0.7-0.6l0.9-0.4l2.6,0.4l1.2,0.5h1.3l1.2-0.5l-0.4-1.2l-0.7-0.9l-0.4-1l-0.1-1.3l1.5-1.4
		l-1.1-2.9l3.7-3.3l-0.4-0.9l-1-0.7l-0.2-1.2l0.6-2.2l-0.6-1.1l-0.6-0.8l-0.3-1.1l0.3-1l1-0.6h2.7l2.3-0.6l1-0.6l0.2-1.3l-0.7-0.6
		l-1.1,1l-1.1,0.3l-1.3-0.6l-2.1-2.4l0.3-1.2l-0.3-1l-1.1,0.1l-0.8,0.7l-2.2,4.1L58.7,541.7L58.7,541.7z"/>
	<path id="path2476" d="M73.5,531.2l-1,1l0.1,1.2l3,2.1l0.6,1.1l0.6-0.6l0.9-2.1l0.9-0.6l2.8,0.1l0.5,1.2v1.3l0.7,0.8l0.4,1l2.2,2.3
		l0.4,1.3l0.9,0.2l0.8-1l0.2-1.3l2.2-1.3l1.3-0.2l0-1.2l-1.3-1.2l-0.5-0.8l0.8-1.4l-1.4-0.1l-1.7-3.1l-0.7-0.2l-0.8,0.5l-2.1-0.6
		l-0.3-1.1l-1.3-0.2l-1.3,0.5l-0.5,1.1l-1.3,0.3l-2.3-0.3l-1.1-0.5l-0.3-0.6L73.5,531.2L73.5,531.2z"/>
	<path id="path2478" d="M85.7,542.7l-1.4,1.9l1.8,1.7h1.3l1-0.6l0.1-1.3l1.7-2.1l-0.8-0.5h-1.3l-1.3,0.3L85.7,542.7L85.7,542.7z"/>
	<path id="path2480" d="M89,546.6l-1.2,0.5l-0.3,1l0.3,1.1l1.1,0.5h1.3l1.3-0.3l0.4-1.2l-0.7-0.9l-1.2-0.6L89,546.6L89,546.6z"/>
	<path id="path2482" d="M82,555.4l-3,2.5l-1.2,0.4h-1.3l0.6,1.2v1.3l-0.3,1.3l-1.8,1.5l-0.2,1.3l1,0.5l2.4-1.1l1-0.7l1.4,0.1
		l0.9,0.6l0.8,0.9l-2.7,2.9l-1.3,0.2l-2.7-0.5l1.5,1.7l2,0.9l1.6-0.2l1.2-0.7l4,0.1l0.8,1.1l0.4,1.2L86,574l-0.2,0.7l1.2,0.8l-0.1,1
		l-1.1,1.1l-1.2-0.1l-0.8-0.7l-1.1-0.5l-1.3,0.2l-1.6,3.4l-1.5,1.6l0.6,1.1l2.6,0.3l1.4-0.2l1.8-0.6l1.5-0.1l1.6,1.8l1.2-0.3
		l0.2-1.2l1.1-1l0.1-1.3l0.4-1.3l-1.1-0.6l-0.2-1l0.9-1l0.6-1.2l4.5-3.5l1.2-0.2l2.2-2.8l0.4-1.1l1-0.8l6.2-0.2l1.9-0.9l0.8,0.6
		l0.3,1.3l0.6,1.2l1.1,0.7l1.3-0.3l1-0.5h1.4l0.5-0.8l-3.1-3.3l-0.8-3l0.4-1.1v-1.3l-0.5-1.2l-2.4-2.6l-0.6-2l-0.7,0.8l-0.4,2.5
		l-1.3-0.2l-0.6-1.3l-0.8-0.9l0.4-0.8l0.7-0.5l-1.7-1.5l-1.2-0.4l-0.8,0.8l-1.7,3.1l-1-0.2l-0.9,0.3l-1.5,1.5l-0.3,1.1l-0.7,0.2
		l-0.1-4l1-2.1l-1.5,0.2l-0.8,0.5l-5.2,0.9l-0.8,0.6l0.1,1.3l0.7,1v1.3l-0.5,0.9l-1.3,0.3l-0.8,1v2.8l-0.7,0.8l-1.3-0.6l-1-0.9
		l0.2-1.8l-1.4-0.2l-0.2-1.3l0.7-1.2l0.1-0.8L82,555.4L82,555.4z"/>
	<path id="path2484" d="M71.7,568.2l-0.5,1.3l-1,0.4l-0.4,1.2l0.1,2.6l1.5,0.7l0.4,0.7l0.9,0.8l0.3-0.9l-0.7-0.9l1.2-1.1l-0.7-0.8
		l-0.3-2.9l-0.9-0.7"/>
	<path id="path2486" d="M74,576.3v1.4l4.4,0.1l0.5-0.8l-0.7-0.9l-1.1-0.8l-0.5-0.8l-0.3,1L74,576.3L74,576.3z"/>
	<path id="path2488" d="M89.2,504.8l-1.9,3.2l0.4,1.6l1.3,0.5l1.1-1.8l1.3-1l1.7,0.3l1.3-0.6l1.1-1.1l-4.1-2.9l-1,0.1L89.2,504.8
		L89.2,504.8z"/>
	<path id="path2490" d="M2,614.3l-1.4,3.1l1.4,0.9l1.6-0.4l1.4-0.9v-1.3L2.8,614L2,614.3L2,614.3z"/>
	<path id="path2492" d="M53.5,619.4l0.9,1.9v8.7l-0.4,1.6l-1.5,0.6l0.9,1.3l5.6,0.1l0.4-0.9l-0.6-1.4l0.6-1.3l1.6-0.5l1.2,1.4
		l1.3,0.9l1.5-0.5l0.9-1h1.9l1.1-0.8l-0.5-1.6l-0.8-1.3l-1.7,0.6l-2,2.3l-4.6-2.7l-0.5-1.4v-3.8l-1,0.3l-1.9-0.1L53.5,619.4
		L53.5,619.4z"/>
	<path id="path2494" d="M63.5,659.8l0.3,1.9l1.7,0.1l-1-1.4L63.5,659.8L63.5,659.8z"/>
	<path id="path2496" d="M67.1,662.5l-0.5,2l-1,1.4l1.7-0.5l1.8-2.3L67.1,662.5L67.1,662.5z"/>
	<path id="path2498" d="M106.6,664.1l-0.9,1.9l0.8,1.1v1.3l1.1,1.1l0.8-0.1v-1.9l1.3-1.4l0.6-1.3l-1-0.9l-1.9-0.1L106.6,664.1
		L106.6,664.1z"/>
	<path id="path2500" d="M35,676.8l-3.2,1.1l-0.4,1.5l0.4,1.8l1.1,0.9v1.9l1.8,2.4l0.6,0.3l0.1-1.8l1.5-1l1.5-0.4l0.4-3.7l1.3-1.1
		l-2.5-2L35,676.8L35,676.8L35,676.8z"/>
</g>
<path id="龜山島" d="M787.7,147.4l1.5,0.9l1.3-0.1l0.3-1.6l1.8-0.1l1.8,0.3l0.5,1.6l1.6,1l-0.6,1l-1.6,0.6l-3.7-0.1l-2-1.9
	L787.7,147.4L787.7,147.4z"/>
<path id="綠島" d="M649.6,857.8v2.7l2.3,1.6l0.7,2.5v2.7l1.1,1.3l2.5,0.4l2.5,3l2.5,0.7l1.8-0.4l-1.7-1.7l-0.2-2.1l2.8-4.1v-2.7
	l-0.5-2.3l-1.6-1.3l-2.7,0.2l-2.3-1.1l-5.2,0.9L649.6,857.8L649.6,857.8z"/>
<path id="蘭嶼" d="M679.4,1072.4l1.4,2l1.6,1.4h2.7l2.5,0.5l1.3-0.3l0.7-2l1.3-1.6l0.4-2.3l-2.3-1.1l-1.6-1.6l-2-0.5l-4.3-3.8
	l-0.7-2l0.2-2.5l2.5-0.2l-0.2-2.1l-1.4-1.4l-0.3-2.3l1.3-1.4l-1.1-1.6l-9.8,0.2l-2,0.7H664l-1.6-1.1l-1.6,0.4v1.8l2,1.3v7.9l1.1,1.6
	l2.5,0.9l5,6.3h5.3l2.2,1.4L679.4,1072.4L679.4,1072.4z"/>
<path id="嘉義縣" d="M251.5,647.6l-0.2-1.7l-1.6-0.6h-3.8l-0.4-1.5l0.2-5.1l3-6.9l1.4,0.1l3.6-1.5l1.3-5l1-1.7l-0.3-3.5l-0.6-0.9
	l-1.4,1.3l-1.3-1l-0.8-1.5l-0.1-1.9l1-3.2v-1.7L251,611l0.1-1.8l2.2-4.2h-1.7l-1.6-0.9l-0.4-2l0.8-1.5v-2l0.9-1.1l0.5-1.8l0.8-1.4
	v-2l-1.4-0.6l-5.7,0.4l-1.8-0.6l-0.9-1.5l0.4-9.1l1.6-0.9l3.9,0.1l5.8,2.3h3.8l1.5,2.3h3.8l2.8-1.3l6.3,2.3l3.8,0.5l2.3-1.8l1.8-2.3
	l0.3-3.5l-0.8-3l2-2h3.3v3.3l3.5,1.3l1-2.8l4.8-2.8l0.8-3.5l1.8-2l6.3-2.5l2.8,1.5l1.8-6.1l1.5-2.5l4,0.3l2.5-1.3l1-3l5.8-1.8l1-2.8
	l2.3-1.8l1.8-2.3l2.8,1.3l2.3,1.8l2.8,1l5.8-2.3h7.6l5.3-2.8l5,1.3l1.5,5l4.3,3.5l1.5,2.3l2.5,1.5l3.5,0.3l2.3,1.8l3,1l13.9,1.5
	l2.8-1.5l1.8-2l5.6,0.3l-0.5,3.8l2,3.3l2-2l3.3-0.8l2,2l3-0.3l2.8-1l3.5,0.3l2.8,1.5l3.5,0.5l1.3-2.5v-3.5l-0.8-3l-1.5-2.3l1.6-2.4
	l6.4-0.6l11.6,4.3h3.8l3.3,0.8l1.3,2.5l0.3,8.6l-0.8,3.3l-2.8,2.3v3.8l1.5,2.5l2.3,2l0.5,7.3l2.5,5.8l2,2.3l11.4,1.3l5.5-2.3l11.1,1
	l2.8,1l8.5,0.2l-1.2,0.3l-2.5,1.3l-6.6,1l-2.3,1.5l-6.3,1.3l-4.3,3.5l-1.5,2.5l-2.8,1.3l-2.3,1.8l-3.3,0.5l-2.3,2.5l-1.8,4.3
	l-1.8,1.5l-1,2.8l-1.8,2l-0.3,3.5l-2.8,1h-3.8l-2,2l-1.2,2.5l-4,4l-7.1,0.5l-2.3,5.9l-5,2.5l-1,2.8l-6.6,0.5l-1.3,6.6l-8.1-0.3
	l-2.3-2l-7.8-0.3l-1.3,11.6l1.3,2.8l2,2.5v3.8l-2,1.8l-2.5-1.3l-6.3,1.3l-3-1l-3.5-2.5l-3.8,5.5l-3,0.8l-3.3-0.3l-4.3-3l-6.1-1.8
	l-1-2.5l3.3-4.8l-0.8-2.5l-2-3.3l-0.5-2.5l1.3-2.5l-1-2.8l-0.3-3.5l1.5-2.8l2.3-1.8l0.3-3l-1-2.8l-3.5-0.3l-3.8-1.3l-1-2.3l2.4-1.9
	l-0.3-3.3l-7.8-0.5v-3.2l2.5-1.8l1.5-2.3l-2-1.8l-2.3,1.2l-3-0.8l-2.5-2l-3.3-1l-1.8-2.3l-3.8-1l-0.3,0.5l-2.3,1.5l-3.3,0.3l-2-2
	l-3.3,0.5l-5.3,2.5h-7.6l-6.1,3.5l-0.3,0.3l-1.5,2.5l-6.3-0.3l0.3,3l-7.1,0.5l-0.5,3.3l-1.3,2.5l-1.8,1.5l-2.5-1.5l-2,2l1,2.8
	l-0.5,1.8l-9.6,4.8l-0.8,3l-3.3,4.8l-3,1.3l-4.5-1.3l-1.3-2v2.9l-2.5-0.3l-2.3-2l-1-3l-3.8-0.8L251.5,647.6L251.5,647.6L251.5,647.6
	z"/>
<path id="嘉義市_1_" d="M324.3,588.8l0.5,3.3l3,3l-2,4.5l10.1,1.5l1,2.8l2,2.8l2.5,1.3l2.5-1.5l1.3-2.5l4.5-3.5l2,1.8l4.5,1.5
	l0.8-2.5l3.5-4.3l-2-2l-0.8-3l-3-0.8l-1.3-2.5l-2.3-1.5l-2.8,1l-2-1.8l-1.8-2.5l-2.5-1.3l-3,0.8l-7.1,5.1l-3-0.8L324.3,588.8
	L324.3,588.8z"/>
<path id="台中縣" d="M396.9,281l-1.8,0.4l-0.3,2.3l-9.1,12.6l-1.9,4.6l0.3,3.8l-0.1,0.5l-1.3,1.6l-0.5,1.4l-2.8,1.3l-1,1.8
	l-4.7,3.1l0.1,1.4l0.5,1.1l0.1,2.1l-0.9,1l-2.4-0.8l2.8,1.3l0.5,1.3l-1,1.4l-0.9,0.8l-2.3-2.9l-0.9,0.5l-1.1,1.3l-2.1,1.2l0.1,1.8
	l-0.8,1.3l-2.8,1.6l-0.9,1.4l4.1,5.7l-0.1,1.6l-0.9,1.3l-0.4,1.5l-1-1.9l0.1-1.6l-1.6,1.7l-1.5-0.1l-0.4-1.9l0.9-1.8l-0.1-1.8
	l-1.3,1.3l-2.2,6.4l1.6,1.3l0.6,1.4l0.6,0.5l0.1-0.3l1.8,1.1v2l-0.6,1.5l-3.9,5.7l-1.2,0.9l-1.5,3.8l0.1,2l4.4,2l2.2,3.4l0.3,2.3
	l1.1,2.7l0.4,2.7l3.2,3.4l-1.3,1.6l-0.2,2.5l1.3,1.5l1.8,1.3h0.5l1.4,2.3l2,0.9l1.6,1.3l2.2,0.5l1.9,1.1l10.2,2.4h2.5l1.6,1.3
	l0.3,0.9v5.4l1.6,2.1l1.8,1.4v2.8l-0.9,2l1.4,7l2.5,0.2l1.6,1.4l3.6-0.4l1.1-0.7l5.7,4.9l8.9,3.2l2.1-0.6h5.4l2.5,0.6l1.8,1.6
	l2.1-0.2l4.3-1.4l6.4-6.9l3.8-9.9l3.2-3.2l4.4-1.3l1.3-1.6l-0.4-6.6l3.8-7.5l1.6-1.1l2.3,0.7l1.1,1.6l4.7,0.9l1.6,1.4v5.3l1.1,0.6
	l0.7-1.6l1.4-1.3l0.9-1.8l1.1-4.3l1.6,1.4l0.4,0.5l2.8,1.4l2.5,0.4l2.5-0.5l6.1-5.2l2.3-0.3l1.4,1.3l2.3,0.5l5.2-0.2l1.8-1.1
	l2.7-2.7l2-6.3l1.4-1.4l2.5-0.5l4.3,0.5l1.6-1.1h4.1l3.9-2l1.3-2l2-1.3l1.3-1.6l1.8-1.1l1.3-2l0.6-2.2l1.8-0.9l10.5-0.2l1.4-1.3
	l1.3-2l0.7-2l2.5-0.2l1.3-1.6l1.6-1.1l2,0.9l1.3,1.4l4.3,1.3l0.9-1.8l1.8-1.1h2.7l4.1-1.8l1.6,1.1l2.5,0.9l2-0.7l1.3-2.1l0.5-2.2
	l2.3-3.8h0.9l3.2,2.4l1.1,1.6l4.7,1.1h2.7l1.1-1.6l4.8,0.5l1.3,1.3l6.4,1.8l1.8-1.4l0.9-1.8l-0.2-2.5l3.8-1.6l1.1-1.6l2.7,0.2
	l1.4-1.3l0.6-2.3l-0.9-4.7l1.3-2l2.3-0.9l1.6-1.1l1.8-4.1l1.4-1.6h2.7l1.8-1.3l1.4-1.8l2.2-4.3l0.7-7.3l0.9-2l2.3-1.3l1.3-1.4
	l-1.3-2.1l-1.6-1.1l-1.1-1.8l-2.2-1.1l-7.1,0.9l-1.8,0.9l-2.3,0.4l-1.6,1.3l-1.3,1.6l-2.7,0.4l-1.8-0.9l-4.1-7h-4.8l-2-0.7l-2.7-2.6
	l0.9-7.2l-0.5-2.1l-0.9-1.8l-1.3-1.4l-0.4-0.2l-1.7,0.9l-0.7,1.4l-1.3,0.8l-5.8-0.1l-1.3,0.7l-6.5-0.3l-0.1,0.8l-1.9,1.1l-2,1.6
	l-1.4,1.8l-0.2,2.5l-3.4,5.5v2.6l-2.2,0.6h-2.7l-1.8-2.5l0.9-1.4l-2.7-1.1l-2,0.9l-0.7,2.2l-1.3,1.8l-2.3,0.7l-4.8,6.8l-2,0.7h-5.3
	l-1.8,1.3l-0.7,2l-0.7,0.1l-2,2.2l-0.4,2.5l-2.1,0.5l-3.4,2.8l-2.1,0.6l-5-0.6l-4.5,1.6l-5.4,6.8l-2.7,0.2l-2-1.1l-3.2-3l-0.3-2.5
	l-1.8-1.3l-2.7-3.9l-1.6,0.3h-2.7l-1.9-0.9l-5-0.3l-6.1-2.2l-4.8-0.1l-2.2,0.9l-1.4,1.5v2.7l0.9,2l0.4,5l-0.9,1.9l-1.8,1.4l-2.2,0.7
	l-10.3-0.3l-2,0.9h-5.4l-5.2-1.6l-3.2-3l-1.1-2l-1.6-1.3l-11.3-2.2l-3.4-2.8l-2.5-0.7l-1.4-2l-3.6-2l-1.4-1.6l-2.1-0.7l-1.3-1.6
	l-0.9-0.4l-3-0.3l-1.3-1.8l-3.2-2.1l-7.5-9.7h-0.4l-0.9-1.8l-4.5-1.7l-2.3-3.8l-0.4-2L396.9,281z"/>
<path id="基隆市" d="M748.1,55.5l0.1-1.2l-1.1-1.1l0.5-3.4l-1.8,0.1l-2.4,1.5l-2.2-2l-1.9-0.2l-0.9-0.6v-2.1l-1.6-0.4l-0.8,1.4
	l-1.5,0.4l-0.4-1.5H733l0.5,1.5l1.4,2l-1.8,2.3l-2.8,2l-1.3,0.1l2.3-2.2l-0.8-1.4v-3.1l-1.5-0.1l-1.4-0.8l-1.8-0.3l-2-2H720
	l-1.1-0.8l0.3-1.4l-0.4-0.9l-1.8,1.2l-2,0.7l-1.1,1.6l-2.3,0.5l-1.3,1.6l-4.1,1.8l-2.5,0.2l-2,0.7l-1.8,1.3l-4.8,0.5v2.7l1.1,2
	l2.3,0.7l1.4,1.6l0.2,2.5l3,6.8l2.3,1.6l1.6,2.2l2.3,0.5l1.4-1.3v2l1.6,1.8l7,1.8l5.4,4.6l5.2,0.4l4.6-2.3l2.5-0.2l1.1-1.8l0.7-2.1
	l-4.6-4.5v-4.8l-0.5-2.1L736,63l2.9-3l2.5,0.5l1.8,1.3L744,62l1.8-2.8l1.4-1.4L748.1,55.5L748.1,55.5z"/>
<path id="屏東縣" d="M476.4,999.1l-3,1l-2,1.8l-3.3,1.3l-2.8-4.8l-3-0.8h-4l-1.3-2.8l-2.8-1l-2.3-1.5l-4.3,0.3l-0.5-2.3l0.8-3.3
	l1.8-1l-2.8-1l-1-2.5l-4.8-2.8l1.8-2.3l2.5-1.3l-0.3-7.6l-2.5-1.5l-1.3-2.5h-2.8l-3.8-4l-3.5-1.8l4.8-14.6l6.6-1l1.3-2.8l-0.8-3.3
	l-2.8-2l-2.5-5.3l-4-2.5l-0.3-3l-1-3l4.3-3.3v-3.8l-4-8.1l-0.5-4.3l-1.8-1l-1-3l0.5-3.5l2.8-5.1l-1.3-2.8l1.5-2.3l1-2.8l-0.3-3.5
	l1-2.5l2-2l0.8-3l1.8-2l0.3-1l4-5.6l0.3-3.5l1.8-2.3l0.3-2.5l3.3,0.5l3.5-1.8l6.1-1.3l3-6.3l11.1-0.5l2-2.3l0.3-3.5l1.8-2l0.5-9.8
	l2-2l-1-2.3V818l-1-3.3l-2.5-1.3l-3.3-0.3l-2.8-2.5l-0.8-1.5l-1-8.3l-3.8-2.5l-2.3,0.8l-0.3-1.3l-2.7-1.3l-1-0.3h-3.3l-1.5,2.3
	l-5,2.5l-1.8,2.3l-2.8,1.5l-2.8-1.5l-6.3-7.6l-8.5-5.4h-3.8l-3,0.8l-3.3,4.8l-3,0.8l-1,1h-2.9l-2.8-1.3v-3.8l-1.8-2l-3-1.3l-3,0.8
	l-2.8,2l-3.5,0.3l-6.6,4.5l-1.3,0.5l-4,3.3l-0.3,1.3l-2.6,3.3l-2.3,1.8l-3.5,0.3l-6.1-1.5l-2.8,1.3h-3.8l-1.5-2.3l-4.5-0.3l-1.8-0.8
	l-2.5,1.3l-1.5,9.8l-1.3,2.5l-0.5,3.3l-1.3,2.8l0.3,15.2l-0.8,1.3l0.3,4.5l-1.8,6.8l-1.8,2.3l-2,6.1l-0.3,18.2l3.5,4.3l-2.8,16.4
	l-1.3,2.8l-2.5,2.2l-0.2,1.8l-0.8,1.1l-0.1,3.8l-0.5,1.3l0.8,1.8l0.1,9.1l2.9,0.3l2,1.9l-0.1,1.8l-0.9,0.3l1.8,2.4l5,3.7l0.9,1.3
	l1.4,0.6l0.6,0.1h-0.1l0.1,0.4l3,1.3l1.2,1.3l1.5,1l2.9,1l1.1,1l1.5,0.8l1,0.9l1.7,0.8l1.1,1l9.6,5.2l1.1,1.4l1.7,0.5l10.8,8.7
	l0.9,1.3l2,5.4l-0.4,0.8l5.4,3.7l5.8,7.3l0.5,1.5v4.8l1.8,2.9l0.8,3.4l-0.1,1.8l-0.5,1.5l0.1,1.5l4,3.4l0.9,1.3l1.3,1l0.8,1.3l1,3.5
	l3.3,3.4l-0.9,1.8v1.9l0.4,1.8l1.1,1.3l1.6,4.9l0.1,5.6l1,3.3v1.9l0.7,1.3l0.5,2.2l1.3,1.1l0.8,1.3l0.3,1.8l1.4,1.4l0.3,3.6l0.8,1.3
	l-0.1,1.9l-0.8,1.3l-5.2,1.5l0.3,1.7l1.8,0.4l0.5,1.3l-0.1,0.6l0.4,1.6l0.6,1.3l-0.6,1.3l-0.9,1l-2.5,1.5l-0.3,1.6l1,1.2l-3.8,3.5
	v3.7l1.5,0.9v1.9l1.3,1.1l-0.4,1.5l3.9,3.4l0.4,1.4l1.3,1.3l0.8,1.3l0.5,2.5l-0.9,3l0.1,5.9l-1.1,2.7l0.9,1.1l1.8,0.3l0.9,3.3l1,1.7
	l3.9,0.4l1.5-2.4l1.1-0.9l0.3-1.7l-0.8-3.2l0.6-1.4l1.4-0.6l2-2.2l1.3-0.6h1.9l0.5,1.4l4.2,2.9l0.5,0.1l2.3-0.1l1.6,0.4l0.6,1.3
	l1.5,0.4l1.4,0.9l1.9,0.6l1.9,0.1l3.8,3.8l0.1,1.8l1.9,0.6l0.9,0.8l0.6,1.3l0.1,1.8l2.7,2.5h1.9l1.3-0.9l-0.3-1.7l-1-0.9l-0.4-1.6
	l0.1-1.8l-0.5-1.4l-4.9-7.5v-7.3l0.5-1.4l-0.6-1.4l0.5-3l1-0.4l0.1-1.7l3.4-0.5l1.7-0.6l0.6-1.3l1.5-0.4l1.3-1l0.5-1.5l0.1-1.8
	l0.9-1l1.8-0.1l0.4-3.4l3.7-2.4l0.4-1.4l-2-2.5l-0.1-9.3l-1.2-1.7v-2l2.7-4.5l1-1.1v-1.5l-1.5-0.6l-2-2.2l-0.6-1.6l-0.3-4.8l0.3-0.7
	l0.9-0.1l0.5-0.6l0.7-0.5l0.3-0.7l-0.9-1.4l0.1-3.7l-0.9-1.3l0.3-0.6l0.5-0.6l0.3-0.6l0.2-0.8l-0.2-0.8v-1.9l-0.3-1l-0.4-0.6
	l0.1-1.1l-0.6-0.8l-0.3-0.8l0.2-1.6l1.4-1.2l0.4-0.6l0.2-0.7l0.1-1.8l-0.3-0.8v-0.7l0.2-0.5l-0.9-1l0.8-3.3l1-1.1l0.5-1.4l-1-1.2
	l-0.2-0.9"/>
<path id="台北市" d="M651.3,50.4l-1.3,2.7l-1.3,1.3l-0.4,0.7l-1.3,1.4v2.7l-1.8,1.1l-0.4,2.3l0.7,2.3l1.8,1.3l5.7,0.7l3.6,3.4
	l1.4,2.7l0.2,8.2l-2.7,3.8l-1.8,1.6l-0.9,2l0.5,5.2l1.1,2.1l2.2-0.2l2-1.1l1.3-1.8l1.3-0.2l2.9,1.3l1.6,1.3l0.7,2v2.7l1.3,2.1
	l2.3,1.6l2.5,0.2l1.1,4.3l3.8,2.5l10,1.1l2.2-0.9h2.8l0.2-1.8l-4.9-2.4l-0.4-2.5l0.2-2.1l-1.3-4.1v-2.3l1.3-2l1.8-1.1l5,0.4l1.6-1.1
	l2.2-0.5l6.8,0.4l0.5-1.4l-1.6-0.7l-2.3,0.7l-3.9-1.8l-4.8-3.6l-0.9-2l1.3-1.6l-0.4-2l-1.4-1.4l1.1-1.3l2.3-4.8l-0.5-4.7l-7.7-6.6
	l0.5-2.3l1.4-1.6l-0.5-1.8l-2.9-2.5l-1.1-1.6l-0.2-5.2l-2.8-2.9v-2.5l0.7-2v-2.6l-4.6,0.3l-2-3.6l-1.4-1.6l-2.5,3.9l-2,0.9l-0.9,2
	l-3.8,2.2l-0.9,2.3l-1.6,1.1l-2.5,0.2l-2,0.9l-3,3.6l-0.9,2.3L651.3,50.4L651.3,50.4z"/>
<path id="新北市" d="M805.8,92.3l-1.4,0.1l-1.1,1.1l-1.2-2.1l-1.4-0.5l-0.9-1l-1.5-0.3l-1.8,0.1l-0.8,0.8l-1.7,1.1l-4-0.4l-4.9-4
	l-0.4-1.4v-5.7l-0.6-0.8l1.4-1l-0.3-0.6l-4.2-4.2l-1.3-3l1.5-4.5l1.5-1l0.4-1.5l-0.6-1.3l-1-0.9l-0.6-0.9l0.8-1.3l1.3-0.8v-2
	l-1.8-0.1l-1.7,0.4l-1,1l-3.4,1.2h-1.9l-6-1.3l-1.5,0.6l-1.4-0.6l-4.4-0.1l-2.9-0.9l-1.4,0.8l-1.3,1.3h-1.6l-1-1.3l0.4-1.6l0.8-1.3
	l0.6-0.6h-1.9l-1.6,0.6h-1.8v1.2l-0.9,2.1l-1.4,1.4l-1.8,2.9l-0.9-0.2l-1.8-1.3l-2.5-0.5l-2.8,3l-2.3,0.5l0.5,2.1v4.9l4.7,4.5
	l-0.7,2.2l-1.1,1.8l-2.5,0.2l-4.6,2.3l-5.2-0.4l-5.4-4.6l-7-1.8l-1.6-1.8v-2l-1.4,1.3l-2.3-0.5l-1.6-2.1l-2.3-1.6l-3-6.8l-0.2-2.5
	l-1.4-1.6l-2.3-0.7l-1.1-2v-2.7l4.8-0.5l1.8-1.3l2-0.7l2.5-0.2l4.1-1.8l1.2-1.5l2.3-0.5l1.1-1.6l2-0.7l1.4-1.2l-2.9-2.1l-1.5-0.5
	l-1.6-1.1l-0.5-1.3l0.7-1.5l2.9-1.4l-0.3-0.8l-1.1-1l1-1.1l1.4-0.8l1.3-1.1l-0.4-1.1l-4.5,3.9l-6.3,0.4l-4.9-5.1l-0.2-1.3l1.3-1.3
	l-0.6-1.3h-2l-1.4-0.6l-2-2l0.5-3.8l-0.4-1.8l-0.7-1.3l-1.1-1l-3.7-5.2l-3.2-1l-1.8-2.3l-1.4-0.8h-1.9l-1.4-0.9l-1-1.1l-1.3-0.8
	l-0.4-0.1l-1.3,0.2l-1,1.1l-0.5,1.5h-6.1l-1.9-2l-1.1,0.8V4l-1.1,0.8l-5.1,0.8L660,3.9l-0.6,0.6l-0.3,1.8l-1.4,1.1l-3.4,0.9l-1.4,1
	l-1.7,0.5l-3.5,7.4l-0.6,0.1l-3.7-0.5l-1.3,1l-0.1,1.8l-1,1.1l-0.4,1.5l-1.3,2.5l-0.2,1.9l-0.9,1.3l-1.3,0.8l-2.1,2.2l-0.3,1.9
	l-2,3.9l-1.9,0.5l-1.1-0.1l0.3,1.1l3.3,3.2l1.9,0.1l3.5,1.7l1.5,2.6l1.4,1l1,1.3l2.2,4.4L645,60l-0.9,0.8l-0.3-1.6l-0.8-1.7
	l-0.3-1.6l-2-2.7l-0.1-1.8l-0.7-1.8l-2.3-2.3l-5.8-3.8h-1.9l-1.1,1l-0.6,2.4l-3.7,3.5l-1.6,0.5l-2.8,1.7l-1.5,0.4l-4.2,2.8l-5.2,1.6
	l-1.3,0.9l-12,0.1l-2.4,2.3l-1,1.4l1.8,2.5l1.3,0.4l1.3,1.6l5,0.5l9.3,4.5l-0.5,3.6l2,1.8l5.2,1.3h5.4l1.3,0.9l1.8,2.2l0.5,2.3v0.7
	l-0.9,1.8l0.4,2.3l1.3,1.4l2.3,1.6l-0.9,1.6l-2,1.3l-2,0.7l2.1,1.6l0.2,2.1l-1.6,1.1l-2.1,0.7l-2,3.6l-2.9,2l-11.3-0.4l-1.8,0.9
	l-0.5,2.1l1.1,2l-0.5,5l-1.4,1.4l-0.9,2l1.3,2.3l2.2,0.2l1.6,1.3l-2.1,1.4l-1.3,1.4l-0.9,2l0.9,4.3l4.5,2.7l3.4,5.2l-1.3,1.6
	l0.3,2.1l0.2,0.2l2.5,1.6l-1.6,1.3l-4.7,0.9l-0.2,2.1l2.5,0.4l1.6-1.3l1.6,1.6l1.8,1.1l2.9,0.7l2.7-0.2l2-1.1l5.4-0.4l1.3,0.7
	l0.3,0.9l1.4,1.4l0.7,2l2.8,2.9l1.6,0.9l1.6,1.8l0.2,2.5l0.9,2.5l2.3,0.7v2.7l-1.6,1.1l-1.1,1.6l-3.2,2.7l-1.1,2l0.3,2.3l0.9,1.8
	v1.1l2,5l3.2,3l-0.5,2l2.5,1.1l0.2,1.8l2.5,0.7l1.4,2l2,1.4l0.5,5l1.5,0.6l4.8,0.3l2.3-1.4l4.6-0.7l5.2-3.4l0.5-2.5l5.9-3.2l2.7-0.2
	l2.1-0.7l1.1-1.6l1.6-1.3l2.3-0.4l1.4-4.3v-2.7l-0.7-2.1l-1.4-1.4l-0.4-2.5l2-1.6l0.3-2.3l-0.2-2.5l0.9-2l2.1-0.5l1.8-1.1l2.5,0.7
	l2.3-1.8l0.5-2.1l-1.4-1.3l10.5-1.3l3.6-1.8l1.6,1.8l0.7-2l2.1-0.7l1.1-1.8l1.8-1.6l0.5-1.7l4.9-2.7l2.7-3.2l2-1.1l2.3-0.4l7.5,1.1
	l1.8-0.9l2.5-0.5l-0.2-1.3l0.2-2.1l1.4-1.8l0.2-2.1l-0.5-2.3l2.5-3.2l3-2.5l2.3-0.4l5.3,0.4l5.9-3.9l1.4-4.3l-4.1-5.9l0.9-1.8
	l0.5-2.1l1.8-1.4l5.2,0.4l2.3,0.9h2.9l1.4-1.6l6.8-4.8l5.4-0.4l6.3-2.3l2.5-0.2l3.7,0.7l0,0l1.1-0.5l0.8-1.5l1.8-0.1l0.8-1.1
	l2.8-1.3l0.8-1.3l1.9-0.2l0.7-1.4l0.1-1.5L805.8,92.3z M704.9,91.4l-6.8-0.4l-2.2,0.5l-1.6,1.1l-5-0.4l-1.8,1.1l-1.3,2v2.3l1.3,4.1
	l-0.2,2.1l0.4,2.5l4.8,2.3l-0.2,1.8h-2.8l-2.2,0.9l-10-1.1l-3.8-2.5l-1.1-4.3l-2.5-0.2l-2.3-1.6l-1.3-2.1v-2.7l-0.7-2l-1.6-1.2
	l-2.9-1.2l-1.3,0.2l-1.3,1.8l-2,1.1l-2.2,0.2l-1.1-2.1l-0.5-5.2l0.9-2l1.8-1.6l2.7-3.8l-0.2-8.2l-1.4-2.7l-3.6-3.4l-5.7-0.7
	l-1.8-1.3l-0.7-2.3l0.4-2.3l1.8-1.1v-2.7l1.3-1.4l0.4-0.7L650,53l1.3-2.7l0,0l2.3-0.7l0.9-2.3l3-3.6l2-0.9l2.5-0.2l1.6-1.1l0.9-2.3
	l3.8-2.2l0.9-2l2-0.9l2.5-3.9l1.4,1.6l2,3.6l4.6-0.3v2.7l-0.7,2v2.7l2.8,2.9l0.2,5.1l1.1,1.6l2.9,2.5l0.5,1.8l-1.4,1.6l-0.5,2.3
	l7.7,6.6l0.5,4.6l-2.3,4.8l-1.1,1.3l1.4,1.4l0.4,2l-1.3,1.6l0.9,2l4.8,3.6l3.9,1.8l2.3-0.7l1.6,0.7L704.9,91.4z"/>
<path id="宜蘭縣" d="M651,204.7l-0.5,1.1l-1.6,0.5l-3.5,0.3l-1.3,0.8l-1.8,2.4l-0.6,5.1l-2.3,3l-0.4,1.5l-0.6,1.3l-0.4,1.5
	l-3.4,5.3l-0.3,1.6h-1.8l-1.4,0.6l-1.1,0.9l-0.4,0.7l-0.8,0.9l0.1,0.6l1.1,0.8l0.6,1.4l0.1,1.8l0.5,1.4l-1.3,1.1l-0.5,0.3l-0.5,0.8
	l-1.3,0.8l-1.4,1.5l-0.4,1.6l0.6,1.3l0.1,7.3l-0.8,1.8l-1.1,1.4l-1.4,1l-1.6,2.5l-1.8,1.4l-0.5,1.3l-1.4-0.1l-3.4,4.9l-1.3,0.8
	l-1.9-0.4l-1.4,2.8l-1.4,0.8l-1.1,2.9l-0.9,1.1l-1.5,1.3l-1.3,2.5l0.1,1.6l-0.7,1l1.4,1.7l0.9,1.8l0.5,2.1l-0.9,7.1l2.7,2.7l2,0.7
	h4.8l4.1,7l1.8,0.9l2.7-0.4l1.3-1.6l1.6-1.3l2.3-0.4l1.8-0.9l7.1-0.9l2.2,1.1l1.1,1.8l1.6,1.1l1.3,2.1l12,7.7h8.1l3,1.3l4,0.5
	l8.1,5.6l8.3,1l3-0.8l-3-2.5l0.8-3l3.3-0.8l2.3-1.5l2.3,1l2-1.8l-0.8-1.5l-2-1.8l0.3-3.3l2-0.8l4.3,3.8l4.8,1.5l4.5,3.5l9.1,3.8
	l7.3,0.5l8.1,4l4.1,0.5l-0.2-4l-0.8-1.3l0.1-3.7l2.5-4.8l0.4-1.5l1.5-2.5l0.5-10.9l0.5-1.6l0.9-1.2v-2.1l1-3.5l1.8-2.4l0.5-1.8
	l2.7-1.6l1-1.1l1.3-2.6l0.1-1.8l4.5-4.3l4.6-1.9h1.9l0.5-0.3l-1.4-0.8l-1-1l-0.8-1.3v-1.9l-2.5-1.5l-0.5-4.9l1.8-1.1l0.9-1.3
	l3.3-0.6l2.8-1.8l1.7-0.4l0.5-1.7l-0.1-1.5l-0.6-1.8l-0.1-1.8l-0.8-1.1l-0.3-3.5l0.8-1.1l-0.9-1.4l0.7-1.5h1.9l-0.3-1.4l-1-0.9
	l-0.3-0.5l1.5-0.6l-1.3,0.3l-1.8-0.7l-0.1-1.3l-2.4-2.1l0.4-1.6l1.8-0.1l1.5,0.9l0.3,1.8l1.8-0.1l1.5-0.8l-3.7-3.7l-3-1l-0.4-0.8
	l-0.5-0.2l-1.6-2.3l-0.1-1.3l-3.7-9.1l-0.1-3.8l-0.8-1.1l0.4-0.6v-2l-0.5-1.7l0.5-10.2l-2.9-3.1l-0.9-1.5v-1.7l-1.3-1.7l-0.6-3.4
	l0.1-1.8l-1-1l0.5-14l0.7-2.2v-1.9l1.3-2.8l-0.3-3.7l1-3l0.1-1.8l2.4-5.2l0.3-1.8l1.3-2.1l1.5-0.8l1-2.9l0.9-1.1l1.4-0.5l3.8-4.4
	l1.3-0.6l3.2-3.6l0.3-3.5l0.5-1.5l2.8-1.6l1.5-0.4l1.5-2.2l1.2-0.9l1.2-0.6l2.5-3.5l0.3-1.9l1.8-1l1.8-0.3l1.2-0.5l1.1-1.1l1.7-0.3
	l1.3-0.8l1.9-0.1l2.7-1.2l-3.6-0.7l-2.5,0.2l-6.3,2.3l-5.4,0.4l-6.8,4.8l-1.4,1.6h-2.9l-2.3-0.9l-5.2-0.4l-1.8,1.4l-0.5,2.1
	l-0.9,1.8l4.1,5.9l-1.4,4.3l-5.9,3.8l-5.4-0.4l-2.3,0.4l-3,2.5l-2.5,3.2l0.5,2.3l-0.2,2.1l-1.4,1.8l-0.2,2.1l0.2,1.3l-2.5,0.5
	l-1.8,0.9l-7.5-1.1l-2.3,0.4l-2,1.1l-2.7,3.2l-4.8,2.6l-0.5,1.7l-1.8,1.6l-1.1,1.8l-2.1,0.7l-0.7,2l-1.6-1.8l-3.6,1.8l-10.5,1.3
	l1.4,1.3l-0.5,2.1l-2.3,1.8l-2.5-0.7l-1.8,1.1l-2.2,0.5l-0.9,2l0.2,2.5l-0.4,2.3l-2,1.6l0.3,2.5l1.4,1.4l0.7,2.1v2.7l-1.4,4.3
	l-2.3,0.4l-1.6,1.3l-1.1,1.6l-2.1,0.7l-2.7,0.2l-5.9,3.2l-0.5,2.5l-5.2,3.4l-4.6,0.7l-2.3,1.4L651,204.7L651,204.7z"/>
<path id="桃園縣" d="M651.1,204.7l-0.5,1.2l-1.6,0.5l-3.5,0.3l-1.3,0.8l-1.8,2.4l-0.6,5l-2.3,3l-0.4,1.5l-0.6,1.3l-0.4,1.5
	l-3.4,5.3l-0.3,1.6h-1.8l-1.4,0.6l-1.1,0.9l-1.5,1.9l-0.8,0.5l-1.8,0.4l-3.7-0.5l-1.5-0.9l-1.3-1.9h-0.9l-0.8-1l-0.5-1.5l-1.4-0.5
	v-3.9l0.8-1.4l0.4-1.8l-1.5-0.8L614,219l-1.3-0.8l-0.1-3.8l1-1l0.1-1.9l0.5-1.5l-0.3-1.9l-1.6-0.8h-1.9l-0.6-1.3l-0.3-1.8l-0.8-1.3
	l-1.1-0.9l-2.3-2.9l-2.9-1.4l-3,1l-1.4-0.5v-3.8l1.1-1.1l0.6-1.3v-3.8l-2.1-0.4l0.1-4.4l0.5-1.4l0.9-1.3l0.4-1.6l-1.3-1.3l-0.6-1.5
	l-1.8-0.4l-1.3-1.3l-1.4-0.5l-1.8-0.1l-0.5-0.8h-0.3l-1.6-0.9l-1-1.3l-1.5-0.9l-0.4-0.6l-0.1-1.1l-0.9-2.4l-1.5-0.6l-2.2-0.4v-1.9
	l-1.5-0.5l-3.9,1.8h-1.7l-5.7-4.5l-1.4-0.6l-1.1-1.1l-2-0.8v-1.4l-1.9-0.3l-1.8-0.6l-3.5-2.8l-0.6-0.9l-3-1.9l0.4-1.6l1.8-2.8
	l-0.5-5.6l-1.4-1l-11.7-1l-0.8-1.5l-0.3-1.9l1-0.9l-1.4-0.8l-1.3,0.9l-1.7,0.6l-1.9,0.1l-1.7-1.3l-2-0.6h-1.9l-1.3-1.4l-3-1.1
	l0.1-3.7l0.6-1.5l-1.1-3l-0.1-1.8l-1.8-0.1l-2.2-2.1l-3.7-0.3l-4.3,1.3l-2.4-1.6l-4.3,2.5l-3.1-0.8l0.5-0.8l1.3-1l3-4l0.6-1.4
	l1.3-1.3l1.3-0.8l1.8-1.9v-3.7l-0.9-1.3l0.1-1.8l3-3.8l1-2.9l1.1-0.9l2.4-3.5l4.7-4.1l3.9-1.8l1.6-0.3l1.2-1.2l1.5-0.5l2.5-1.6
	l1.3-1.4l1.7-1l1.8-0.5l2.8-2.2l1.5-0.6h2l12.1-3.2l1.5-1.3l3.5-1.6l3.7-3.7l1.7-1l2.1-0.1l8.3-3.4h1.9l1-1L586,59l1.5,0.5l2.5,2
	l2.3,0.1l0.8,1.9l1.3,1.4l1.3,0.4l1.3,1.6l5,0.5l9.3,4.5l-0.5,3.6l2,1.8l5.2,1.3h5.4l1.3,0.9l1.8,2.2l0.5,2.3v0.6l-0.9,1.8l0.3,2.3
	l1.3,1.4l2.3,1.6l-0.9,1.6l-2,1.3l-2,0.7l2.1,1.6l0.2,2.1l-1.6,1.1l-2.2,0.7l-2,3.6l-2.9,2l-11.3-0.4l-1.8,0.9l-0.5,2.1l1.1,2
	l-0.5,5l-1.4,1.4l-0.9,2l1.3,2.3l2.2,0.2l1.6,1.3l-2,1.3l-1.3,1.4l-0.9,2l0.9,4.3l4.5,2.7l3.4,5.2l-1.3,1.6l0.4,2.1l2.7,1.8
	l-1.6,1.3l-4.7,0.9l-0.2,2.1l2.5,0.4l1.6-1.3l1.6,1.6l1.8,1.1l2.9,0.7l2.7-0.2l2-1.1l5.4-0.4l1.3,0.7l0.4,0.9l1.4,1.4l0.7,2l2.8,2.8
	l1.6,0.9l1.6,1.8l0.2,2.5l0.9,2.5l2.3,0.7v2.7l-1.6,1.1l-1,1.6L636,175l-1.1,2l0.4,2.3l0.9,1.8v1.1l2,5l3.2,3l-0.5,2l2.5,1.1
	l0.2,1.8l2.5,0.7l1.4,2l2,1.4l0.5,5l1.2,0.6L651.1,204.7z"/>
<g id="新竹市">
	<polygon class="st0" points="511.9,160.3 508.5,157.4 504.8,157 504.8,157.1 508.5,157.4 511.9,160.3 513.8,163 517,174.1 
		517,177.9 515.5,178.8 515.6,178.9 517.1,177.9 517.1,174 513.8,162.9 	"/>
	<polygon points="473.3,184.9 473.3,184.9 473.3,184.9 	"/>
	<path d="M630.9,236.9l-0.1-1.8l-0.6-1.4l-1.4-1l-2.6,0.7l-3.7-0.5l-1.5-0.9l-1.3-1.9h-0.9l-0.8-1l-0.5-1.5l-1.4-0.5v-3.9l0.8-1.4
		l0.4-1.8l-1.5-0.8l-1.6-0.3l-1.3-0.8l-0.1-3.8l1-1l0.1-1.9l0.5-1.5l-0.3-1.9l-1.6-0.8h-1.9l-0.6-1.3l-0.3-1.8l-0.8-1.3l-1.1-0.9
		l-2.3-2.9l-2.9-1.4l-3,1l-1.4-0.5v-3.8l1.1-1.1l0.6-1.3v-3.8l-2.2-0.4l0.1-4.4l0.5-1.4l0.9-1.3l0.4-1.6l-1.3-1.3l-0.6-1.5l-1.8-0.4
		l-1.3-1.3l-1.4-0.5l-1.8-0.1l-0.5-0.8h-0.3l-1.6-0.9l-1-1.3l-1.5-1l-0.4-0.6l-0.1-1.1l-0.9-2.4l-1.5-0.6l-2.2-0.4v-1.9l-1.5-0.5
		l-3.9,1.8h-1.8l-8.2-6.3l-2-0.8v-1.4l-1.9-0.3l-1.8-0.6l-3.5-2.8l-0.6-0.9l-3-1.9l0.4-1.6l1.8-2.8l-0.5-5.6l-1.4-1l-11.7-1
		l-0.8-1.5l-0.3-1.9l1-0.9l-1.4-0.8l-1.3,0.9l-1.6,0.6l-1.9,0.1l-1.6-1.3l-2-0.6h-1.9l-1.3-1.4l-3-1.1l0.1-3.7l0.6-1.5l-1.1-3
		l-0.1-1.8l-1.8-0.1l-2.1-2.1l-3.7-0.3l-4.3,1.3l-2.3-1.5l-4.3,2.5l-3.1-0.8l-5.5,7.9l0.4,1.9l0.8,1.5l-5.6,6.9l-0.6,3.4l-1,0.9
		l-0.5,1.8l-2,2.5l-0.6,1.5l1.6,1.3l0.5,1.4l1.9,2.7l7.7,1.9h1.9l1.4,0.9l0.5,1l0,0.1l0-0.1l-0.5-1l-1.4-0.9h-1.9l-7.7-1.9l-1.9-2.6
		l-0.5-1.4l-1.6-1.2l-1,0.8l-1.5,0.6l-5.1,7l-1.3,1.1l0.6,3l-0.3,1l0.5,0.5l1.9,0.1l0.3,1.6l-0.8,1.5l-0.4,3.5l-0.8,1.1l-0.1,3.9
		l-1.9,2.5l-0.5,1.5l1.4,1.1l-0.8,1l-0.6,1.8l-2.3,2.1l-1.8,1l-1.6,0.5l0.2,1l1.3,0.6h2l1.4-0.5l1.1-0.9l1.4,0.5l1.9,2.3l0.5,1.6
		v1.5l4.9,1.3l0.7-0.5l2-2.4l0.4-3.7l1.3-2.9l1.6-0.4l1-1.5l1.5-0.6l1.1-0.9l0.5-1.5l0.9-1.4l5.4-1.3l-0.5-1.4l1.1-1.8l1.5-0.5h1.9
		l0,0h-1.9l-1.5,0.5l-1.1,1.8l0.5,1.4l-5.4,1.3l-0.9,1.4l-0.5,1.5l-1.1,0.9L495,181l-1,1.5l-1.6,0.4l-1.3,2.9l-0.4,3.7l-2.5,3.1
		l1,1.2l1.5,0.8h2.9l0.9,1.1l1.5-0.6l1.3-1l3.5-0.3l-0.9,1.1l1.4,0.8l-1,1.3l-0.3,1.6l-0.9,1.4l-0.4,1.3l2,0.8l0.3,1.8l1.6,2.9
		l1.4,1.4l0.9,1.5l3.3,2.1l1.8,0.3l1.1,1.3l0.1,1.8l1.8,0.8l1.8,0.3l2,3.2l1.3,0.9l1.6,0.4l0.9,1.5l2.4,1.9l1.5-0.9l2-0.5l0.9,0.4
		l1.4,3.2l1.9,0.5l1.1,3.4l1.4,0.8l-0.4,1.6l-0.9,1.3l-0.1,1.8l-1.1,1.4l-1.1,4.2l-2,3.3l2.7,2.1l1.5,2.9l0.1,1.9l-0.5,1.5l-2.1,2.3
		l-0.8,1.5v2l0.9,1.9v2.2h5.9l3.5,0.8l3.4-1.4l2.1-1.9h1.9l1.5,0.4l1.4-0.5l7.6,0.4l1.3,1.1h1.9l1.4-0.8h4.3l2.7-1.8l1.5-0.5
		l3.7,0.3l1.2,1.5l-0.3,2.9l0.5,1.3l1.7,0.9l0.8,1.1l1.5,0.8l0.6,1.5l2.2,2.4l0.6,1.5l1.1,1.3l1.5,0.9l0.9,1.3v3.8l0.6,0.8l-0.3,1.3
		l0.1,2.1l0.9,1l5.7,0.1l1.3-0.6l5.8,0.1l1.3-0.8l0.6-1.4l1.7-0.9l0.1,0l0.7-0.9l0.1-1.8l1.3-2.5l1.5-1.3l0.9-1.1l1.1-2.9l1.4-0.8
		l1.4-2.8l1.9,0.4l1.3-0.8l3.4-4.9l1.4,0.1l0.5-1.3l1.8-1.4l1.6-2.5l1.4-1l1.1-1.4l0.8-1.8l-0.1-7.3l-0.6-1.3l0.4-1.6l1.4-1.5
		l1.3-0.8l0.5-0.8l0.5-0.3l1.3-1.1L630.9,236.9z M517.1,177.9l-1.5,1l0,0L517.1,177.9l0-3.8l-3.3-11.1l-1.9-2.7l-3.4-2.9l-3.7-0.4
		l0-0.1l3.7,0.4l3.4,2.9l1.9,2.6l3.3,11.1V177.9z"/>
</g>
<path id="苗栗縣" d="M489.2,193.8l1.5,0.8h2.9l0.9,1.1l1.5-0.6l1.3-1l3.5-0.3l-0.9,1.1l1.4,0.8l-1,1.3l-0.3,1.6l-0.9,1.4
	l-0.4,1.3l2,0.8l0.3,1.8l1.6,2.9l1.4,1.4l0.9,1.5l3.3,2.1l1.8,0.3l1.1,1.3l0.1,1.8l1.8,0.8l1.8,0.3l2,3.2l1.3,0.9l1.6,0.4l0.9,1.5
	l2.4,1.9l1.5-0.9l2-0.5l0.9,0.4l1.4,3.2l1.9,0.5l1.1,3.4l1.4,0.8l-0.4,1.6l-0.9,1.3l-0.1,1.8l-1.1,1.4l-1.1,4.2l-2,3.3l2.7,2.1
	l1.5,2.9l0.1,1.9l-0.5,1.5l-2.2,2.3l-0.8,1.5v2l0.9,1.9v2.1h5.9l3.4,0.8l3.4-1.4l2.1-1.9h1.9l1.5,0.4l1.4-0.5l7.6,0.4l1.3,1.1h1.9
	l1.4-0.8h4.3l2.7-1.8l1.5-0.5l3.7,0.3l1.1,1.5l-0.3,2.9l0.5,1.3l1.6,0.9l0.8,1.1l1.5,0.8l0.6,1.5l2.2,2.4l0.6,1.5l1.1,1.3l1.5,0.9
	l0.9,1.3v3.8l0.6,0.8l-0.3,1.3l0.1,3.9l-1.8,0.9l-2,1.6l-1.4,1.8l-0.2,2.5l-3.4,5.5v2.7l-2.2,0.5h-2.7l-1.8-2.5l0.9-1.4l-2.7-1.1
	l-2,0.9l-0.7,2.1l-1.3,1.8l-2.3,0.7l-4.7,6.8l-2,0.7h-5.4l-1.8,1.3l-0.7,2l-0.7,0.2l-2,2.1l-0.3,2.5l-2.2,0.5l-3.4,2.9l-2.1,0.5
	l-5-0.5l-4.5,1.6l-5.4,6.8l-2.7,0.2l-2-1.1l-3.2-3l-0.4-2.5l-1.8-1.3l-2.7-3.9l-1.6,0.4h-2.7l-2-0.9l-5-0.4l-6.1-2.1l-4.8-0.2
	l-2.1,0.9l-1.3,1.3v2.7l0.9,2l0.4,5l-0.9,2l-1.8,1.3l-2.1,0.7l-10.4-0.4l-2,0.9h-5.4l-5.2-1.6l-3.2-3l-1.1-2l-1.6-1.3l-11.3-2.1
	l-3.4-2.9l-2.5-0.7l-1.4-2l-3.6-2l-1.4-1.6l-2.1-0.7l-1.3-1.6l-0.9-0.4l-3-0.4l-1.3-1.8l-3.2-2.1l-7.5-9.6h-0.4l-0.9-1.8l-4.5-1.7
	l-2.3-3.8l-0.4-2l-3.8-4.7l1.6-0.7l3.8-3.1l3-3.9l0.6-1.4l5.2-6.8l1.3-3.1l1.4-1.9l9.5-28.2l2.3-2.9l0.1-0.8l1.2-1.3l3.2-0.8
	l2.6,2.3l1.1,1.6l0.4-1.5l-0.4-2l2.6-1.6h1.4l1,0.3l-0.1-1.7l-1.6-0.8l-1.5-1.1l1-0.9l0.6-3.3l3-5.3l1.7-0.3l2-2.4l5.6-0.3l4.4-2
	h2.4l3.9,1.4l1,1l2.3,0.5l1.3-0.8l-0.8-1l-1.9-0.3l-1.5-0.7l-0.8-1.6l-1.8-0.3l0.1-1.8l1-1.1l1.5-0.8l5.5-4.7l0.5-1.6l0.9-1.2
	l0.4-1.5V191l1.3-2.8l1.3-1.1l0.9-1.3l1.9-0.8l0.5,1l1.3,0.6h2l1.4-0.5l1.1-0.9l1.4,0.5l1.9,2.3l0.5,1.6v1.5l4,1.1l2,1.5
	L489.2,193.8z"/>
<path id="彰化縣" d="M285.8,478.9l6.3,2.3l3.8,0.3l5.8,1.8l16.2-0.8l2.8-1l14.6,0.3l2.5-1.3l5,2.8l0.8,1.3l4.3,0.5l8.1,4l6.3,1.5
	l7.3-0.3l3-0.8l30.6,5.1l5.8-1.8l2-1.8l1.3-2.5v-3.3l-2-0.5l-2.5,1.3h-3.3l-2.5-1.3l-7.3-7.8l0.3-2.3l1.3-2.5l-1.8-2l1.5-2.5
	l0.5-3.3l1.3-2.5l1.3-9.6l-0.5-2.8l0.5-2.3l-1-5.6l1.5-2.3l2-1.8l1.3-2.5l0.3-3.5l-1.3-2.8l-1.8-2l-0.5-0.3l0.3-3.8h7.5l4-2.3
	l-5.8-4.8l-1.1,0.7l-3.6,0.4l-1.6-1.5l-2.5-0.2l-1.4-7l0.9-2v-2.9l-1.8-1.4l-1.6-2.1v-5.4l-0.4-0.9l-1.6-1.3h-2.5l-7.5-2.1l-2.7-0.2
	l-2-1.1l-2.1-0.5l-1.6-1.3l-2-0.9l-1.4-2.3h-0.5l-1.7-1.2l-1.3-1.6l0.2-2.5l1.3-1.6l-3.2-3.4l-0.4-2.7l-1.1-2.6l-0.4-2.3l-2.1-3.4
	l-4.4-2l-1.5,0.4l0.5,1.5l0.6,0.9l-1.5,0.8l-3.2,4.2v0.1l-2.7,4.3l-1.3,0.8l-5.6,0.1l0.3,1.5l1.5,1.3l-0.1,3.7l-1,0.9l-0.6,1.4
	l-0.4,1.8l-0.9,1.3l-0.1,3.8l-0.1,0.4l-1,1.5v1.9l0.6,1.3l-0.3,1.9l-1.4,1.3l-3,1.2l-0.8,1.8l-2.3,2.4l-0.3,3.5l-0.6,1.4l-2.6,0.5
	l-1.4,1.1l-1.6,0.3l-2.4,1.8l-1.4,0.5l-0.4,1.6l-4.1,3l-0.8,3v2.2l-0.9,1.5l-0.3,1.6l-1.3,0.9l-0.6,3.3l-2.4,0.1l-1.9-0.4l-1.4,1.1
	l-1,4.9l0.4,1.2h3.8v0.9l-4.9,7.2l-0.3-0.1l-0.4,2l-0.9,1.1l-0.4,1.5l-1,1L301,454l-2.1,2.4l-0.5,1.8l-1.9,2.5l-0.6,1.5l-0.9,1
	l-0.3,2.2l-1.3,0.7l-1.1,1l-1.4,0.8l-0.9,1.3l-1.4,0.8v1.4l0.9,1.3l-0.6,0.5H287l-0.9,1.3l-0.3,3.7l-0.4,1"/>
<path id="雲林縣" d="M427.2,552.4v-3l-2.3-2l-3.3-0.5l-1,2.8l-2.8,0.5l-3.3-0.8l-0.8,3l-3,0.5l-3.5-0.3l-2.3-1.5l-1.5-2.8l-0.8-3
	l-4.8,3.5l-0.3-7.3l2-5.8l0.3-0.3l1.8-4l0.5-3.3l-0.3-3.5l-1.5-2.5l-0.3-7.3l0.8-3l2.8,0.5l0.5-7.1l-5-10.8l-20.7-3l-3.8-1.5l-2-0.3
	l-10.4,1l-14.4-5.6l-4.3-0.5l-0.8-1.3l-5.1-2.9l-2.6,1.2l-14.6-0.2l-7.6,2l-11.4-0.3l-5.8-1.7l-3.8-0.3l-6.4-2.2l-3.9,0.1l-1.3-0.7
	l-1.4-0.3l-0.5,1.5l-1.8,0.1l-6.1,10.8l-0.1,0.7l-2.1-0.1l-1.3,0.8l-2,2.4l-0.6,1.6l-0.3,3.8l-1,1.2l-0.3,1.6l1.7,2.4l-0.3,1.8
	l-1.7,2.4l-3.2,0.1l-0.4,1.5v1.9l-2.2,1.2v2.4L257,516l-0.5,0.3l-0.4,1.6v1.9l0.5,1.4l1.9,0.1l1.4,2l-2.3,2.8l-1.4,2.8l-0.4,1.5
	l-1.9,3.2l-1,3.5l-1.3,1.9l-2.6,7.5l0.3,7.5l-0.4,1.5l0.1,1.4l1.8,0.9l-0.1,1.7l-1.5,0.6l-2.2,1.6l0.5,2.2l1.1,0.6l1.5,0.3l0.1,1.9
	l-1,1.3v3.8l1.3,0.9l2,2.8l1.4,1.1l-1.3,0.8l-0.9,1.7l-1.8,0.1l-0.5-1.4l-1-0.9l-1.5,0.9l-2.2,2.5l3.9,0.1l5.8,2.3h3.8l1.5,2.3h3.8
	l2.8-1.3l6.3,2.3l3.8,0.5l2.3-1.8l1.8-2.3l0.3-3.5l-0.8-3l2-2h3.3v3.3l3.5,1.3l1-2.8l4.8-2.8l0.8-3.5l1.8-2l6.3-2.5l2.8,1.5l1.8-6.1
	l1.5-2.5l4,0.3l2.5-1.3l1-3l5.8-1.8l1-2.8l2.3-1.8l1.8-2.3l2.8,1.3l2.3,1.8l2.8,1l5.8-2.3h7.6l5.3-2.8l5,1.3l1.5,5l4.3,3.5l1.5,2.3
	l2.5,1.5l3.5,0.3l2.5,1.7l3,1l13.9,1.5l2.8-1.5l1.8-2l5.6,0.3l-0.5,3.8l2,3.3l2-2l3.3-0.8l2,2l3-0.3l2.8-1l3.5,0.3l2.8,1.5l3.5,0.5
	l1.3-2.5v-3.6l-0.8-3l-1.5-2.3l1.5-2.3L427.2,552.4z"/>
<path id="花蓮縣" d="M656.6,611.4l-3.3-1l-2.3-1.8l-3-0.8h-3.8l-2.8,1l-4.3,3.5l-7.3,13.1l-0.3,0.3l0.5,4.5l2,2.3l3.3,1.8v0.3
	l-12.1,18.4l-0.5,8.8l-1.8,2.3l-2.3,1.5l-1.3,2.5l-1.5,6.1l-2.3,1.8v3.8l-1.5,2.8l-0.3,2.8l-3,5.8l-4.3,3.5l-1,2.8l0.8,3.5v11.3
	l-1,2.8l-9.8,1.5l-2.5,1.8l-2-0.3l-0.3-3.5l-1.9-3.3l-2-1.8l-4.6-0.2l-1-0.8l-1.8-2.3l-3-1l-2.5-1.5v-2.8l-3.8-5.3v-4.3l-1.3-2.8
	l-1.8-2.3l-5.1-3.3l-5.3,2.5l-0.5,1.3h-1l-2.8-1.3l-1.3-2.5l-3.5-4l-3.5-0.3l-5.3-3.3h-4.3l-1.3-2.5l-0.8-0.8l-3.8-9.1l0.3-3.8
	l-3.8-4.8l-0.8-2.5l0.8-3l-0.3-3.5L507.5,635l-3-0.8l1-3.5l1.8-2.5l3.3-1l-0.5-2.3l1.5-2.3l3.3-0.5l1.5-2.3v-7.1l-2.3-1.5l-0.5-1.7
	l1.3-1.1l3-0.8l3-2l3-0.8l0.8-3.5l-1-3l-2.3-1.8l1.8-2l0.8-3.3l2-2.3l2.4-1.7l0.8-3l2.3-1.5l3.5,0.3l2.8-1.3h3.8l1.3-0.5l2.5,1.5
	l3,0.8l4.8-4v-7.6l0.8-3l2.3-1.5l-2.3-6.3l2.5-1.3l3.8,1l2.8-1.3l1.5-2.3l3.3-1.5l4.5-0.3l3.8-8.3l1.3-10.4l1.3-2.5v-3.8l2-5.5v-9.3
	l-2.5-2.3l-0.3-3.5l0.8-2.8l-8.1-5.8l0.3-3.5l3.3-0.8l3-2.3v-1.5l-0.8-3l0.5-3.5l2.3-1.5l1-3.3l0.3-3.8l1-3l2-2.5l0.3-3.8l2.3-2.3
	l3-0.8l-0.5-5.5l-1.8-3l4.3-3.8l-0.3-3l-1-3.3v-3.8l0.8-2v-7.6l-2-2.5l-1-0.3v-3.5l6.1-12.9l0.3-7.3l2.3-2.3l2.5-1.3l1.5-2.5
	l2.5-1.3l2-3.5l0.8-2.5l0.3-3.5l-1.5-2.3l-3.5-0.6l-1-2.8l-1.8-2l-3.8-1.2l-0.8-1l-0.3-6.3l2.8-6.6l3-0.8l2-1.8l2.8-1.3l3.8-3.8h3.8
	l1.5-2.3l-1.8-5.6l2-1.5l0.9-1.8l-0.2-2.5l3.8-1.6l1.1-1.6l2.7,0.2l1.4-1.3l0.5-2.3l-0.9-4.6l1.3-2l2.3-0.9l1.6-1.1l1.8-4.1l1.4-1.6
	h2.7l1.8-1.3l1.4-1.8l2.2-4.3l0.7-7.3l0.9-2l2.3-1.3l1.3-1.5l12,7.7h8.1l3,1.3l4,0.5l8.1,5.6l8.3,1l3-0.8l-3-2.5l0.8-3l3.3-0.8
	l2.3-1.5l2.3,1l2-1.8l-0.8-1.5l-2-1.8l0.3-3.3l2-0.8l4.3,3.8l4.8,1.5l4.5,3.5l9.1,3.8l7.3,0.5l8.1,4l4.2,0.5l-0.1,1.3l-0.6,1.3
	l-1.5,0.6l-0.9,1.5l-2.3,2l-2.7,3.9l-0.1,5.6l-1.2,0.9l-1,2.8l-1.5,0.6l-0.8,1.9l-0.3,0.1l-3.5,0.4l-3,5.4l-1.3,1l-1.7,0.3l-3.3,3
	l-1.5,0.4l-0.9,1.1l-1.3,0.8l-3.9,5.3l-1,3.3v5.7l2.4,4.3L707,377l-0.5,5.2l-0.3,0.5l-0.4-0.3l-1.4,2.4l-1.4,0.5l-3.2,3.7l-1.5,0.8
	l-4.3,4.7l-0.6,1.4l0.1,11.9l0.6,1.3l0.5,3.3l7.2,7.5v1.9l-1,3.4l-1.4-0.4l-0.4,1.7l0.7,1.3l-1.5,0.5l-1.1,2.5h1.6l-0.8,3l-1.9,0.1
	l-0.8-1.1h-1.5l-1,0.9l-0.6,1.7l-1.1,1.1l-1,3l1.4,3l0.1,5.6l-1,3.4l-0.1,5.3l-0.5,1.6l-0.1,5.6l-0.6,1.3l-0.4,3.4l-1.9,4.3v1.9
	l-0.6,1.4l-0.3,1.6l-1.9,3.9l-0.3,1.8l-3.3,4.8l-0.6,2.1v10.5l0.5,1.4l-1.4,6.4l-3.5,5.4l-1.7,1.1v1.8l-0.6,1.4l-0.1,1.8l0.9,0.6
	l0.8,2.5l-0.9,1.1l-0.3,1.7l-0.6,1.3l-0.9,6.9l-0.9,1l0.1,1.3l0.8,1.2l-1,1.1l-1.5,0.6l-0.5,3.4l-1.4,1.6l-0.1,12.8l-0.9,1.8
	l-0.1,3.9l-0.9,3l-1.4,1.3l-0.4,1.7l-1.6,2.4l-0.2,1.9l-1.3,3.3l-0.1,3.7l-0.9,1.4l-0.3,2.1l0.5,0.4l0.6,1.7v3.8l1.7,2.5l-0.1,3.7
	l-0.5,1.5l-1,1.1l-1.5,0.6l-1.8,0.1l0.4,0.5l1.7,1l-0.8,1.5v1.9l-0.9,3.3v1.9l-0.6,1.5L656.6,611.4L656.6,611.4z"/>
<path id="南投縣" d="M399.1,494.3l5.1,10.9l-0.5,7.1l-2.8-0.5l-0.8,3l0.3,7.3l1.5,2.5l0.3,3.5l-1.5,6.1l-0.8,1.3l-0.3,0.3l-2,5.8
	l0.3,7.3l4.8-3.5l0.8,3l1.5,2.8l2.3,1.5l3.5,0.3l3-0.5l0.8-3l3.3,0.8l2.8-0.5l1-2.8l3.3,0.5l2.3,2l0.1,3l6.5-0.7l11.6,4.3h3.8
	l3.3,0.8l1.3,2.5l0.3,8.6l-0.8,3.3l-2.8,2.3v3.8l1.5,2.5l2.3,2l0.5,7.3l2.5,5.8l2,2.3l11.4,1.3l5.6-2.3l11.1,1l2.8,1l11.9,0.8
	l6.3,2.3h0.5l2.5,1.8l1.3,6.3l1,0.5l1.3-1.3l3-0.8l3-2l3-0.8l0.8-3.5l-1-3l-2.3-1.8l1.8-2l0.8-3.3l2-2.3l2.4-1.5l0.8-3l2.3-1.5
	l3.5,0.3l2.8-1.3h3.8l1.3-0.5l2.5,1.5l3,0.8l4.8-4v-7.6l0.8-3l2.3-1.5l-2.3-6.3l2.5-1.3l3.8,1l2.8-1.3l1.5-2.3l3.3-1.5l4.5-0.3
	l3.8-8.3l1.3-10.3l1.3-2.5v-3.8l2-5.6v-9.3l-2.5-2.3l-0.3-3.5l0.8-2.8l-8.1-5.8l0.3-3.5l3.3-0.8l3-2.3v-1.5l-0.8-3l0.5-3.5l2.3-1.5
	l1-3.3l0.3-3.8l1-3l2-2.5l0.3-3.8l2.3-2.3l3-0.8l-0.5-5.6l-1.8-3l4.3-3.8l-0.3-3l-1-3.3v-3.8l0.8-2v-7.6l-2-2.5l-1-0.3v-3.5l6.1-13
	l0.3-7.3l2.3-2.3l2.5-1.3l1.5-2.5l2.5-1.3l2-3.5l0.8-2.5l0.3-3.5l-1.5-2.3l-3.5-0.5l-1-2.8l-1.8-2l-3.8-1.2l-0.8-1l-0.3-6.3l2.8-6.6
	l3-0.8l2-1.8l2.8-1.3l3.8-3.8h3.8l1.5-2.3l-1.7-5.6l-1.4-0.8l-4.8-1.1l-1.3-1.3l-4.8-0.5l-1.1,1.6l-5.2-0.4l-2.1-0.7l-1.1-1.6
	l-3.2-2.3h-0.9l-2.3,3.8l-0.5,2.1l-1.3,2.1l-2,0.7l-2.5-0.9l-1.6-1.1l-4.1,1.8h-2.7l-1.7,1.1l-0.9,1.8l-4.3-1.3l-1.3-1.4l-2-0.9
	l-1.6,1.1l-1.3,1.6l-2.5,0.2l-0.7,2l-1.3,2l-1.4,1.3l-10.5,0.2l-1.8,0.9l-0.5,2.1l-1.3,2l-1.8,1.1l-1.3,1.6l-2,1.3l-1.3,2l-3.9,2
	h-4.1l-1.6,1.1l-4.3-0.5l-2.5,0.5l-1.4,1.3l-2,6.3l-2.6,2.6l-1.8,1.1l-5.2,0.2l-2.3-0.5l-1.4-1.3l-2.3,0.4l-6.1,5.2l-2.5,0.5
	l-2.5-0.4l-2.8-1.5l-0.4-0.5l-1.6-1.4l-1,4.3l-0.9,1.8l-1.5,1.2l-0.7,1.6l-1.1-0.5v-5.4l-1.6-1.4l-4.6-0.9l-1.1-1.6l-2.3-0.7
	l-1.6,1.1l-3.8,7.5l0.4,6.6l-1.3,1.6l-4.5,1.3l-3.2,3.2l-3.8,9.8l-6.4,7L434,425l-2.1,0.2l-1.8-1.6l-2.5-0.5h-5.4l-2.1,0.5l-9-3.3
	l-3.9,2.3h-7.6l-0.3,3.8l0.5,0.3l1.8,2l1.3,2.8l-0.3,3.5l-1.2,2.5l-2,1.8l-1.5,2.3l1,5.6l-0.5,2.3l0.5,2.8l-1.3,9.6l-1.3,2.5
	l-0.5,3.3l-1.5,2.5l1.8,2l-1.3,2.5l-0.3,2.3l7.3,7.8l2.5,1.3h3.3l2.5-1.3l2,0.5v3.3L411,491l-2,1.8l-5.8,1.8L399.1,494.3
	L399.1,494.3z"/>
<path id="台東縣" d="M656.5,611.4l-2.2,6.8v1.9l-1.4,0.9l-1.8,7l-0.1,5.8l-1.8,3.8l0.1,5.5l-1.1,5.6l-1.5,1h-1.9l-1.5,0.4l-1.3,1
	l-1.1,3.2l-0.8,1.3l-1.4,1.3l-0.6,1.4l-0.1,1.7l-1.2,1.1l-0.4,4.1l-1,1.3L633,676l0.9,1.1l0.5,1.4l-0.8,1.3l-1.5,1.2l-1.4-0.3
	l-0.9-1.4l-1.1,0.5l1,1l0.1,1.4l-3,2l0.3,7.9l1.9,3.8l0.4,1.8l-0.3,3.7l-1.4,1.4l0.1,5.4l3,3.2l-0.9,2.9l-3.7,0.1l-1.3,1l-2.2,4.2
	l-1.3,0.6l-3.8,0.1l-0.9,1.2l-1.4,0.8v1.9l-0.8,1.3v1.9l-2,2.9l-1.4,4.9l-1,1.4l-0.9,5.7l-1.2,1.7l-0.2,1.7l-1.1,0.8l-1,1.1l-1,2.9
	l-1,1.6l-1.3,5.1l-0.8,0.9l-0.5,1.5v1.9l-3.3,3.4l-0.5,1.4l-1.8,0.1l-1.1,1l-0.9,1.5l-0.7,0.3l-0.3,3.2l-3.4,7.4l-2.2,2l-2.1,4.4
	l-0.6,3.2l-1.2,1l-1.5,0.4l-2.4,2.5l-0.1,3l-3.2-0.8l-1.4,0.5l-3.4,0.5l-5.8,4.8l-0.8,1.2l-0.3,1.6l0.6,1.3l1.8,2l0.4,1.3h-1.9
	l-0.8,1.3l0.6,1.3l1.3,0.7l1,1.1l-0.4,1.8l1.1,2.8l-0.5,1.7l-2.1,1.9l-1.7,0.3l-1.4,1.4l-1.3,8l-2.2,2l-2.8,1.2l-1.2,1l-0.8,1.3
	l-2.5,2l-0.8,1.1l-1.1,0.8l-1.5,0.6l-3.8,4.5l-2.7,1.5l-1.5,0.4l-1,0.9l-1.4,0.6l-1.9,0.3l-1,1l-1.8,0.1l-0.9,1.1l-2.4,1.4l-1,1
	l-2.7,1.3l-0.4,1.5l-1,1.3l-1.8,0.1l-1.1,1l-4.1,1.8l-1.1,1l-1.7,2.6l-0.9,3.2l-1.1,1.3l-0.3,1.6l-0.9,1.2l-0.1,1.8l-0.7,1.5
	l0.1,1.8l-0.2,0.6l-0.2,5.2l-0.8,1.5l-0.1,1.4l-2,2.8l-3.5,3.2l-0.9,1.3l-1.7,0.9l-0.8,1.3l-0.3,1.7l-0.9,1.3l-0.1,1.8l-0.7,1.6v1.9
	l-1.3,0.8v2.5l-2.9,6.8v1.9l-0.9,0.9v3.8l-2.1,4.2l0.1,2.1l-1.3,1.7l-0.5,3.5l-0.9,1.1l-0.3,3.5l-1,1.3l-0.4,1.8l-1.9,2.5l-0.5,1.4
	l-0.9,1.1l-3.6,10.1l-0.9,1.3l-0.5,5l-2.5,2.5l-2.9,9.1v3.5l-0.6,1.4l0.3,5.4l1.3,1.7v7.8l0.9,3.2l0.1,4.7l-3.5,1.2l-2,1.8l-3.3,1.3
	l-2.8-4.8l-3-0.8h-4l-1.3-2.8l-2.8-1l-2.3-1.5l-4.3,0.3l-0.5-2.3l0.8-3.3l1.8-1l-2.8-1l-1-2.5l-4.8-2.8l1.8-2.3l2.5-1.3l-0.3-7.6
	l-2.5-1.5l-1.3-2.5h-2.8l-3.8-4l-3.5-1.8l4.8-14.7l6.6-1l1.3-2.8l-0.8-3.3l-2.8-2l-2.5-5.3l-4-2.5l-0.3-3l-1-3l4.3-3.3v-3.8l-4-8.1
	l-0.5-4.3l-1.8-1l-1-3l0.5-3.5l2.8-5l-1.3-2.8l1.5-2.3l1-2.8l-0.3-3.5l1-2.5l2-2l0.8-3l1.8-2l0.3-1l4-5.6l0.3-3.5l1.8-2.3l0.3-2.5
	l3.3,0.5l3.5-1.8l6.1-1.3l3-6.3L473,844l2-2.3l0.3-3.5l1.8-2l0.5-9.8l2-2l-1-2.3v-3.8l-1-3.3l-2.6-1.6l-3.3-0.3l-2.8-2.5l-0.8-1.5
	l-0.8-3v-3.8l0.5-1l0.7-6.8l-2.9-3.9l-5.4-0.3l-2.9-8.6l0.4-5l-1.4-1.4l-1.8-3.9v-5.4l1.1-4.3l10-12.9l0.7-1.8v-3.9l6.4-4.7
	l-1.4-4.3l-2.5-2.5l1.8-4.3l3.6-3.9l-1-22.5l3.2-2.1l2.1-5l3.6-1.8l-1.1-3.9v-3.9l1.4-3.9l-0.4-1.8l-1.1-0.7l2.9-3.6l3.6-1.4
	l6.8-5.7l5-6.4h3.9l7.9-2.1l2.9-2.9l8.4-3.6l0.9,2.5l3.8,4.8l-0.3,3.8l3.8,9.1l0.8,0.8l1.3,2.5h4.3l5.3,3.3l3.5,0.3l3.5,4l1.3,2.5
	l2.8,1.3h1l0.5-1.3l5.3-2.5l5.1,3.3l1.8,2.3l1.3,2.8v4.3l3.8,5.3v2.8l2.5,1.5l3,1l1.8,2.3l1,0.8l4.5,0.3l2,1.8l1.8,3.3l0.3,3.5
	l2,0.3l2.5-1.8l9.8-1.5l1-2.8v-11.3l-0.8-3.5l1-2.8l4.3-3.5l3-5.8l0.3-2.8l1.5-2.8v-3.8l2.3-1.8l1.5-6.1l1.3-2.5l2.3-1.5l1.8-2.3
	l0.5-8.8l12.1-18.4v-0.2l-3.3-1.8l-2-2.3l-0.5-4.5l0.3-0.3l7.4-13.2l4.3-3.5l2.8-1h3.8l3,0.8l2.3,1.8L656.5,611.4L656.5,611.4z"/>
<path id="台南市" d="M338.8,616.8l-0.3,0.5l-2.3,1.5L333,619l-2-2l-3.3,0.5l-5.3,2.5h-7.6l-6,3.5l-0.3,0.3l-1.5,2.5l-6.3-0.3
	l0.3,3l-7.1,0.5l-0.5,3.3l-1.3,2.5l-1.8,1.5l-2.5-1.5l-2,2l1,2.8l-0.5,1.8l-9.6,4.8l-0.8,3l-3.3,4.8l-3,1.3l-4.6-1.3l-1.3-2v2.9
	l-2.5-0.3l-2.3-2l-1-3l-3.8-0.8l-2.8-1.8l-0.8-1l-7.2-1.3l-3.9,6.8l0.6,1.3l1,0.1l-0.6,1.9l-1.3,0.9l-0.3,1.8l2.8,1.7l1.2,0.3
	l1.6-0.5l-2.2,3.2l-3.4,1.3l-0.9,1.3l0.3,1.8l0.8,1.5l-2.5,2.4l-0.5,1.6l-0.8,1.4l-2.4-0.6l-0.6,1.3l-0.8,3.4l0.1,3.8l-4.9,9.2
	l-0.5,3.5l-1.5,2.5l1.1-1.4l1.5-0.6l1.5-0.1l0.6,8l1.2,0.9l1.5,0.6l-0.9,5.3l-3.2,1.3H228l-3.5,1.2l-3.2,2.9l-3.3,1.5l-0.3,3.5
	l0.3,0.5l0.3,3.7l0.8,0.9h1.9l-0.1,5.9l0.8,2.4l2.1,2.5l0.3,0.8l1.9-0.7l1.3-0.9l1-1.1l0.3,1.6l-0.2,1.8l4.7,2.8l0.9,0.3l1.8,1.6
	l3.2,1.7l3.9,4.2l1.5,0.8l5.3,4.9l0.1,0.5l3.4,3.3l2.4,3.7l1.6-0.4l2.3-2.1l1.4-0.8l-1,2.2l-0.9,1.1v1.3l3.3,0.9l-1.6,1.4l-1.9-0.1
	l-1-1.4l-0.9-0.5l0.8,1.9l1.1,1.5l0.5,1.7l-0.5,9.6l-0.5,1.4l1,2l1.3-0.8l2-2l1.5-0.6h0.1l8.5,3.1l2.5-1.3l1.8,1l3.8,4h3.5l0.5-0.8
	l2.8,1.3l2,0.3l1.5-2l17.9,4.1l3.8-0.3l6.3-5.8l1.8-2.5l3-1l3.5-0.3l2.5,1.5h3l1.5-6.3l1.5-0.8l1-1.3l0.5-3.3l3.8-8.8l3-0.8l1-3
	l0.3-3.5l5.6-0.3l0.3-3.5l9.1-6.6l3.5-5.6l10.4-7.1l2.3-2.5l3.8-2.3l0.5-3l0.3-0.3l1.3-0.8l0.5-3.5l1.3-2.5l0.3-3.6l5.6-6.8l1.8-0.3
	l8.1-10.9l0.3-3.8l4-5.1l0.8-3l-2.3-1.8l-0.3-0.5l-1,0.8l-2.5-1.3l-6.3,1.3l-3-1l-3.5-2.5l-3.8,5.6l-3,0.8l-3.3-0.3l-4.3-3l-6.1-1.8
	l-1-2.5l3.3-4.8l-0.8-2.5l-2-3.3l-0.5-2.5l1.3-2.5l-1-2.8l-0.3-3.5l1.5-2.8l2.3-1.8l0.3-3l-1-2.8l-3.5-0.3l-3.8-1.3l-1-2.3l2.5-1.8
	l-0.3-3.3l-7.8-0.5v-3.3l2.5-1.8l1.5-2.3l-2-1.8l-2.4,1.2l-3-0.8l-2.5-2l-3.3-1l-1.8-2.3L338.8,616.8L338.8,616.8z M272.9,726.9
	l6.3,2.8l0,0L272.9,726.9L272.9,726.9z"/>
<path id="高雄市" d="M314.5,911.9l6.8,5.6l1.8,0.8l2.8,2.5l5.4,1.6l0.3-0.6l-0.9-14.5l0.9-2.9l0.9-1.1l1.9,0.4l2.5-2.2l2-5.8
	l0.3-3.5l1.8-6.1v-3.8l-3.5-4.3l0.3-18.2l2-6.1l1.8-2.3l1.8-6.8l-0.3-4.5l0.8-1.3l-0.3-15.2l1.3-2.8l0.5-3.3l1.3-2.5l1.5-9.8
	l2.5-1.3l1.8,0.8l4.5,0.3l1.5,2.3h3.8l2.8-1.3l6.1,1.5l3.5-0.3l2.3-1.8l2.5-3.3l0.3-1.3l4-3.3l1.3-0.5l6.6-4.5l3.5-0.3l2.8-2l3-0.8
	l3,1.3l1.8,2v3.8l2.8,1.3h2.8l1-1l3-0.8l3.3-4.8l3-0.8h3.8l8.6,5.3l6.3,7.6l2.8,1.5l2.8-1.5l1.8-2.3l5-2.5l1.5-2.3h3.5l1,0.3
	l2.5,1.3l0.3,1.3l2.3-0.8l4.5,3l0.7-6.8l-2.9-3.9l-5.4-0.4l-2.9-8.6l0.4-5l-1.4-1.4l-1.8-3.9v-5.3l1.1-4.3l10-12.8l0.7-1.8v-3.9
	l6.4-4.6l-1.4-4.3l-2.5-2.5l1.8-4.3l3.6-3.9l-1.1-22.5l3.2-2.2l2.1-5l3.6-1.8l-1.1-3.9v-3.9l1.4-3.9l-0.4-1.8l-1.1-0.7l2.9-3.6
	l3.6-1.4l6.8-5.7l5-6.4h3.9l7.8-2.2l2.9-2.8l8.5-3.6l0.8-3l-0.3-3.5L507.5,635l-3-0.8l1-3.5l1.8-2.5l3.3-1l-0.5-2.3l1.5-2.3l3.3-0.5
	l1.5-2.3v-7.1l-2.3-1.5l-0.6-1.8l-0.9-0.3l-1.3-6.3l-2.5-1.8h-0.5l-9.8-2.8l-1,0.3l-2.5,1.3l-6.6,1l-2.3,1.5l-6.3,1.3l-4.3,3.5
	l-1.5,2.5l-2.8,1.3l-2.3,1.8l-3.3,0.5l-2.3,2.5l-1.8,4.3l-1.8,1.5l-1,2.8l-1.8,2l-0.3,3.5l-2.8,1h-3.7l-2,2l-1.6,2.5l-4,4l-7.1,0.5
	l-2.3,5.9l-5,2.5l-1,2.8l-6.6,0.5l-1.3,6.6l-8.1-0.3l-2.3-2l-7.8-0.3l-1.3,11.6l1.3,2.8l2,2.5v3.8l-1.1,1.1l0,0l0.3,0.4l2.3,1.8
	l-0.8,3l-4,5l-0.3,3.8l-8.1,10.9l-1.8,0.3l-5.6,6.9L384,713l-1.3,2.5l-0.5,3.5l-1.3,0.8l-0.3,0.3l-0.5,3l-16.4,11.9l-3.6,5.6
	l-9.1,6.6l-0.3,3.5l-5.6,0.3l-0.3,3.5l-1,3l-3,0.8l-3.8,8.8l-0.5,3.3l-1,1.3l-1.5,0.8l-1.5,6.3h-3l-2.5-1.5l-3.5,0.3l-3,1l-8.1,8.3
	l-3.8,0.3l-10.1-3.3l-7.8-0.8l-1.5,2l-2-0.3l-2.9-1.2l-0.5,0.8h-3.5l-3.8-4l-1.8-1l-2.5,1.3l-8.5-3.2l-1.6,0.7l-3.2,3l1.2,1.4
	l0.8,4.2l3,6.3v1.9h0.7l0.3-1.6l0.6-1.3l1.9-0.1l2.1,5.1l-0.3,1.6l-1.9,0.3l-1.4-0.9l-0.8-1.3l-0.4,0.9l0.1,1.8l0.8,2.3l0.1,1.8
	l1.8,3.4v1.4l8.9,21.1l0.1,1.8l1.5,3.4l1.4,1.8l3.1,6.6l1.7,3.8l4.5,5.6l-2.1,2.5l-3.9-3.9l2.5,6.1l-4,3.9l-0.3,4.2l-0.5,1.6
	l0.5,1.8l2.8,2.5l0.9,1.4v1.9l0.9,1l-0.1,1.9l-1.1,0.8l0.8,1.1l1.5,0.8l1.3,3.4l2.6,2.6l0.6,1.4l1.3,1.8l1.1,0.8l1,1.1l0.7,1.4l1,1
	l2.8,4.5l-2.6,0.5l-0.5,0.7v0.6l1.6,0.4l3.3-0.1l0.6,0.1l3.3,3.5l1.4,0.8l2.3,2.5l0.6,1.4l3.9,3.3L314.5,911.9"/>
<path id="嘉義市" d="M324.5,589l0.5,3.3l3,3l-2,4.5l10.1,1.5l1,2.8l2,2.8l2.5,1.3l2.5-1.5l1.3-2.5l4.5-3.5l2,1.8l4.5,1.5l0.8-2.5
	l3.5-4.3l-2-2l-0.8-3l-3-0.8l-1.3-2.5l-2.3-1.5l-2.8,1l-2-1.8L345,584l-2.5-1.3l-3,0.8l-7.1,5l-3-0.8L324.5,589L324.5,589z"/>
<path id="東沙群島" d="M41.3,1024.2l1.1-0.7l1.3,0.1l2,1.2l2.2,0.5l0.9,0.9l1.1,2.3l-2.2-0.1l-3-0.9l-2.8-0.9l-1.4-0.9l1.2-0.1
	l2.1,1.3l2.8-0.4l-0.6-1l-2.8-0.5l-0.7-0.4l-1.3,0.2L41.3,1024.2L41.3,1024.2z"/>
<path id="南沙群島" d="M42.9,1086l3-1l1.8-0.2v0.7L45,1087l-2.3-0.2L42.9,1086L42.9,1086z"/>
<g id="金門縣">
	<path id="path2643" d="M64.6,282.4l-0.8,0.5l-0.7,0.7l-2.5-0.4l-0.9,0.5l-0.5,1v2.8l-0.5,0.9l-0.1,1.3l-0.8,0.6h-1.4l-0.9,0.5
		l0.3,1.4l0.7,0.9l-0.5,1l-0.8,0.8l-1,0.4h-0.4l0.6,1.1l2.6,0.2l0.5,1.2l1.3-0.1l2-2.7l1.1-0.3l1.2,0.3l0.6,0.8l1-0.5l0.6-0.9l0-1.3
		l0.6-0.9l2.7-0.1l1.2-0.4l0.6-0.7l1.5-4.2l-0.2-1.2l-3-1.8l-0.7-0.8l-0.9-0.5l-1.3-0.3L64.6,282.4L64.6,282.4z"/>
	<path id="path2645" d="M36.9,300.9l0.5,1.1l0.6,0.9l-0.4,0.7l1.4,0.1l0.9,0.5l0.8-0.6l-0.2-0.6l-1.4-0.1l-0.6-2.1L36.9,300.9
		L36.9,300.9z"/>
	<path id="path2647" d="M35.6,304.6l-0.7,0.8l2.3,0.5l0.7-0.5L35.6,304.6z"/>
	<path id="path2651" d="M123.6,264.4l-0.4-1.3l-0.6-0.9v-1.4L122,260l0.6-0.6h-1.2l0.1-0.7l-0.9-0.1l-0.7,0.2l-0.4-0.6l-1.6,1.8
		l-0.5-0.9l0.9-0.5l-0.8-0.5l-0.9,0.5l-0.6,0.8l1,0.8l0.7,1l-0.4,1.1l-1.2,0.2l-1.6,1.2l-1.2,0.2l-1.2-0.1l-0.5,0.3l-0.3,0.9
		l0.5,0.7l0.1,1.3l1.3-1.4l1,0.5h1.4l-0.1,0.7h-1.4l0.9,0.8l0.5,0.9l-0.8,0.5v1.4l-0.9-0.3l-1.2-1.6l-0.7-0.6l-0.2,0.9l0.6,0.9v0.3
		l-0.9,1l-0.9,0.5l-0.6,0.8l-0.9,0.5h-1.4l1.3,1.2l-0.4,0.5l0.6,2.4l-0.3,0.7h-0.5l-1.7,1.4l-0.6,0.9l-8.1-1.1L87,270.9l-1.2-0.3
		l-0.4-0.3l-0.7,0.7l-1.3,0.2l-2.1,2.1l-1.2,0.2l-2,3.8l2.2,1.3l1.2,0.3l-0.2-0.9l-0.7-0.8l0.9-0.5l2.8,0.1l0.5-1.1l0.9-0.5l0.7,0.8
		l-0.1,1.7l-0.7,0.7l-2.4,0.5l-0.5,1.2v1.8l0.4,0.3l0.7,1.2l0.7,2.4v2.8l0.2,0.7l1.6,0.2l0.7,0.7l-0.1,1.3l-1,0.4l-0.6-1.8l-0.5,0.9
		l-2.2,0.3l-0.1,2.3l-0.8,0.6l-4,0.1l-0.6-0.5l0.1-1.3l-0.8,1.7l-1.1-0.2l-0.3,0.9l1,0.7L77,296l1.7,2.2l1.4,1.2l0.6,1l2.7,0.2
		l1,0.5l0.6,1.1l1.3,0.5l1.5,0.2l2,1.3l0.5-0.8l1.6-0.3l0.4-1l0.7-0.6l0.6-2.4l3-4.3l0.7-0.6l0.6-0.9l0.8-0.6l0.2-0.5l1.2-0.2
		l0.8-0.5l1.2-0.3l0.7-0.6l0.9-0.5l1.3-0.1l2-0.8l7.9-0.5l1.5,0.5l1.6,1.4l0.9,0.5h1.4l2.3,0.9l2.4,2.4l-0.1,1.1L124,296l-0.8,0.5
		l-0.6,0.2l1.1,0.5h1.5l1-0.4l0.8-0.6l1.2-0.3l0.6-0.9l2.3-0.5l0.4-1l-0.5-0.8l0.3-1l0.8-0.4l1.4,0.3l0.6-0.7l0.4-0.8l-1.4-1.6
		l-0.2-1l1.8-1.1l1-0.1l0.6,0.6l1-0.8l-0.4-0.8l0.1-0.9l0.4-0.7l-0.9-0.5h-1.4l-0.3-0.7l-0.7-0.7l-0.7-3.4v-2.2l1.5-0.9l0.4-1.1
		l-0.6-0.7l-2,0.7l-0.9-0.3l-0.4-0.9l-0.6-2.3l0.2-1.2l-0.6-0.5l-0.9-0.5l-0.2-3.4L123.6,264.4L123.6,264.4z"/>
	<path id="path2655" d="M125.9,259.5l-1.1,0.4l0.5,0.5h1.4L125.9,259.5z"/>
	<path id="path2657" d="M132.4,294.6l-0.6,0.5l1.3-0.1L132.4,294.6z"/>
</g>
<g id="烏坵嶼">
	<path id="path4338" d="M198.4,240.5l-0.5,2.5l1.4,1.4l1.6,0.7v-2.7l-1.3-1.4L198.4,240.5L198.4,240.5z"/>
	<path id="path4340" d="M205.4,244.8l-1.3,2.1l1.8,1.1l1.8-1.3l-1.3-1.4L205.4,244.8L205.4,244.8z"/>
</g>
<g id="連江縣">
	<path id="path2671" d="M40.4,153.9h6l-2,3.2l-4.4-0.4L40.4,153.9L40.4,153.9z"/>
	<path id="path2673" d="M55.5,155.9l-4,9.5l1.6-0.4l7.6-5.2l-4-1.6L55.5,155.9L55.5,155.9z"/>
	<path id="path2675" d="M35.6,86.7l-0.4,4.4l0.8,4.8l-0.8,2.8l6.4,0.8l4.8-1.2l6.4-5.2l-2.8-3.6l-3.2,2.8l-4.4,0.8L40,89.9
		L35.6,86.7L35.6,86.7z"/>
	<path id="path2677" d="M55.1,89.1l1.2,2.4L55.1,89.1z"/>
	<path id="path2679" d="M53.5,71.2l0.4,9.5l0.8-4.4l3.2-2l4.8-0.4l3.6-2.4l2.8,3.2l0.8-2l-3.6-6L53.5,71.2L53.5,71.2z"/>
	<path id="path2681" d="M59.9,50.5l-2.4,4.8l1.7,0.7l1.9-1.5L59.9,50.5L59.9,50.5z"/>
	<path id="path2683" d="M65.8,61.3l-2.8,2.8l4-0.8L65.8,61.3L65.8,61.3z"/>
	<path id="path2685" d="M230.8,20.5l-0.1,1.5l-0.8,0.9l-0.4,1.2l1.2,0.8l4.1-1.3l1.4-2.2l1.2,0.3l1.3-0.4l-0.6-1.1l-1.4-0.5l-2-1.8
		l-1.1-0.2l-0.6,1.7l-1,1.2L230.8,20.5L230.8,20.5z"/>
	<path id="path2687" d="M227.6,16.2l-2.4,2.1l0.2,0.7l4.2,0.3l-0.2-1.2L227.6,16.2L227.6,16.2z"/>
</g>
</svg>
