<svg id="圖層_1" data-name="圖層 1" xmlns="http://www.w3.org/2000/svg" viewBox="0 0 203.88 307.91"><defs><style>.cls-1{fill:#d5dca4;}.cls-2{fill:#c2c6a1;}.cls-3{fill:#aaaf86;}.cls-4{fill:#e0eaea;}.cls-5{fill:#f0e6ee;}</style></defs><title>剪石布</title><path class="cls-1" d="M169.94,248.85l-.33,2.94-1,.46c-2.34-1.45-2.68.64-2.94,1.93a23.13,23.13,0,0,0,0,4.78,1,1,0,0,1-.13.81c-5,.41-3.9,4-3.71,7.17l-.06.11c-2.71,0-3.59,1.12-2.31,3.64,0,1.35-.52,2.75.31,4a1.18,1.18,0,0,1-.54-.17l-1,.59,1,.57c.2,1.29.4,2.57.59,3.85-1.48,4.31.6,8.92-1.12,13.21q-33.93-.06-67.87-.12c-9.54,0-9.54,0-12.18-8a32.2,32.2,0,0,0-3.19-11.92L75,271.66c-.49-.62-1-1.25-1.48-1.87,0-2.3-1.11-3.23-3.39-2.65a.6.6,0,0,1-.56-.29,1.07,1.07,0,0,0-1.14-1h0c.24-2.24-.79-3.18-3-2.91l-.07-.07c.61-3-1.27-4.31-3.71-5.17l0,0c.11-1.36-.6-2-1.87-2.06a.91.91,0,0,1-.32-.67c.21-1,0-1.8-1.06-2.15a.72.72,0,0,1-.24-.58c.72-2.06-.24-3.13-2.15-3.64-.11-.63-.22-1.25-.32-1.88,2-5.1-1.24-8.79-3.42-12.77l-.34-1.54c.73-2.42.48-4.48-2.11-5.67-.13-.55-.25-1.1-.37-1.64.09-2.55,1.3-5.59-2.81-6.26l-1-5c1.69-3.17-1-4.39-2.69-6-.17-.69-.33-1.37-.5-2.06l.58-.4-.7-.12v-.13a8.36,8.36,0,0,0-.19-5.79c.06-3.85,3.43-6.09,4.59-9.41,3.31-.41,3.16-2.74,2.85-5.15.31-2.06,2.26-3.1,3-4.88a1.07,1.07,0,0,0,.75-1.35L55.05,176c.17-.38.33-.76.5-1.15a4.78,4.78,0,0,1,1.88-3C61.05,169,61,165.66,58.79,162c-.09-1-.19-2-.29-2.94,2.15-5.07,1.21-10.26.38-15.37-.39-2.36.78-5.61-2.81-6.72-.16-1.94-.33-3.89-.49-5.83,1.92-5.27.73-11.9-2.71-15l-1.11-1.94-.32-2c1.27-2.37.19-4.92.56-7.36.9-4.8,1.57-9.57-2.21-13.61l-.21-1.83a2.86,2.86,0,0,0-.68-3.13c-.08-.65-.17-1.3-.25-2,2-3.39.3-5.44-2.56-7.08l-.78-1.77c.1-1,.21-2.07.31-3.11a2.61,2.61,0,0,0,.89-3.09,38.74,38.74,0,0,1-1.59-18.5L47,47.09l1.71,3.36c.44,3-2.18,5.94,0,8.9-.07,4-1.67,8.46,2.8,11.43.25.17.09,1,.12,1.44.45,3.38-1,6.94,1,10.16a3,3,0,0,0,2,2.91c1.29,5.59-.07,11.34,1,16.95,2.07,8.93,2.4,18.4,8,26.68,1.66-2.53.61-4.95,1.27-7.1l2.49,2.27.43-3c2.27.45,2.14,3.16,3.87,4.11l-.27,3.21c-2.77-.08-1.09,3.7-3.46,4-3.69-2-3.08,1.58-3.18,2.9-.32,4.46,0,9-.2,13.43a8.32,8.32,0,0,0,3.21,7.39l.06,2.68c-.25,1.46-.62,2.93.52,4.22q0,4-.05,8c-4,2.65-4.28,7.91-7.64,11,.34,2.89-1.88,4.65-3.52,6.17C55,190.27,54,192.42,55,195.09s3.23,4,6.22,3.93c3.27,0,4.8,1.63,4.43,5-.18,1.63-.2,3.27-.3,4.91-2.12-.84-1.38-2.72-1.53-4.26S64,201,61.6,201c-2.05,0-4,.79-4.7,2.91-.42,1.35-.7,3.2-.11,4.35,2,3.91,3.73,8.09,7.06,11.46.76-1.57,1.32-2.71,1.88-3.85,2.93.15,3.08-1.86,2.89-3.91a25.25,25.25,0,0,1,3-14c2.66-.58,4.76.71,6.85,2-2.09,6,.88,11.95.12,17.93l-.91,4a3.09,3.09,0,0,1-.85.14c-1.5.38-1.07,2.3-2.32,2.88-1.92-1-1.88-2.89-2.11-4.69a2.21,2.21,0,0,0-2.71-2.17c-1.35.21-1.79,1.29-1.93,2.52-.21,1.75.12,3.36,1.68,4.35a4.37,4.37,0,0,1,2.27,4.54c-2,.54-2.26,2.07-2.21,3.83.15,4.75.25,9.5.37,14.25-2.63-.09-2-2.08-2.11-3.63-.11-2.65-.11-5.29-.2-7.94,0-.84-.28-1.71-1.29-1.82a1.59,1.59,0,0,0-1.2.59c-1.48,1.8-.2,13.09,1.64,14.59,2.34,1.89,3.94,2,3.85-1.69h4l.83,1.15a2.73,2.73,0,0,0-.11.81c-3.74,3-.53,5.83.59,8.27,1.61,3.49,4.51,6,8.79,6,4,.18,4.13,2.58,3.47,5.73-.52,2.52-1.93,5.4,1.43,7.24.87,6.43,4.41,10.13,11,10.72,1.5,3.48,4,3.72,6.69,1.65,1.51-1.16,2.48-1.27,3.74.1s3,1.09,4.65,1.16c4.87.18,9.57-1.11,14.57-1,10.12.2,15.88-6.65,16.42-16.88.86-3.43,2.71-7-1.08-9.9.45-1.76-1.78-3.64-.23-5.13,3-2.87,2-6.35,2-9.7.27-.59.37-1.45.83-1.73,5.84-3.6,5.37-10.84,9.12-15.64.56-.73.14-1.92-.6-2.72-.44-2.39.33-4.65.7-7,.78-1.77,3.18-2.61,2.88-5l.12-6.91c.78-1.76,3.21-2.29,3.14-4.79-.17-5.69,3.12-10.1,5.89-14.67,2.15-3.56,6.21-7.14,3.59-11.4-2-3.29-2-6.82-3.34-10.06a32,32,0,0,0,.63-10.86c-.07-1.79,1.06-3.88-1.24-5.13l-.56-1.39c-1.24-4.68-6.39-6.55-9.44-3.24s-5.74,6.95-8.58,10.45c-.32,2.72-.65,5.44-1,8.17l-1.95,0c-.66-.92-1.31-1.85-2-2.77l.31-1.15c1.9-.91,1.57-1.6-.22-2.14l-1.15-1-.15-5c0-1,.06-2,.08-2.95,1.8-3.05.92-6.4,1-9.62.09-2.79.94-4.78,3.91-5.36.93,2.22-1,4.58.32,6.79-.11,2.66,1.78,2.38,3.37,2.09,2.11-.39,3.66-1.48,3.3-4l1.48-.6a16.67,16.67,0,0,0,10.22-.08c1.63.49,2.33,2,3.32,3.13l.86.77.8,1.35c-.92,2.32.35,3.2,2.37,3.59l1.06,4c-.75,5.66.08,11.31.39,16.94.1,1.83-.24,4.42,1.92,5.83l.42,4.55c-.17,5.16-.36,10.32-.47,15.48,0,.37.58.74.89,1.12-.29,1.71-.58,3.42-.86,5.14-4.75,1.75-3.2,5.64-3.09,9a1,1,0,0,1-.17.75,3,3,0,0,0-2.94,2.72c-.94,4.63-2.54,9.21-2.77,13.86-.17,3.4-2.84,6.86-.25,10.32C170,242.14,168.88,245.53,169.94,248.85ZM54.76,205.69a17.72,17.72,0,0,0,0-2.36c-.23-1.34.73-3.63-1.22-3.72-2.3-.09-1.67,2.32-1.84,3.85a5.71,5.71,0,0,0,0,1.49c.37,2.14-1,6,1.51,6C56.39,211,53.78,207.19,54.76,205.69Z"/><path class="cls-1" d="M91.19,81.25c.23-3.62.45-7.24.68-10.86,2.68-6.14,3.66-12.44,1.79-19,1.22-7.62,0-16,7-21.82a5.45,5.45,0,0,1,4.9.06c1.28,3.05-2.4,3.56-2.92,5.69-4,3.52-1.21,8.09-1.92,12.12-1.7.84-3,2-3,4.06-.82,12.31.62,24.65-.84,37-.33,2.75-1,5.92-.53,8.38,2.36,13.12,1.38,26.17.44,39.27-2.62,5-.8,10,0,15-1.09,5.19-5.67,4.84-9.34,5.68s-6.27-.25-5.83-4.75c1.77-4.56-1.17-11.33-6.94-15.95v-11c.38-2.93.85-5.89-2.11-7.94,1.06-5.48-2.52-10.4-1.94-15.83.32-1.89-.85-3.49-1-5.26-.53-4.71-4.7-8.35-3.85-13.46.54-3.27-1-5.35-4.05-6.35l0-9.94L65,66.28a.43.43,0,0,1,.23.51c-.74,2.48-1.1,4.8,2.28,5.61a1.61,1.61,0,0,1,.25.83c-.8,1.52-2.39,3.14.51,4.21.13.62.26,1.24.4,1.86-1.71,2.85-1.22,4.88,2.16,5.84v0c-.51.94-1.62,2,.63,2.21a1.46,1.46,0,0,1,.51-.22c0,1-.07,2-.1,3.07-1.89,2.61-1.5,4.35,1.9,4.93v0a2.91,2.91,0,0,0,.6,3.09c.17,1,.33,2,.49,2.93-1.48,3.43-1.58,6.43,2.54,8.11.17,1.28.35,2.56.53,3.84-.8.44-1.31,1.21-.94,2,3.12,6.76,2.76,14.75,7.37,21l.44,1.92c-1.53,3,.66,4.18,2.78,4.87s3-.71,3.23-2.69c1.07-7.69,1.55-15.36-.08-23l.54-10,.15-1.24,0-2.72c1.52-1.3,1.53-2.64.12-4C91.37,93.24,92.27,87.23,91.19,81.25Z"/><path class="cls-2" d="M143.53,124c3.29,3.38,8.29,5.93,5.87,12.08-3,.58-3.82,2.57-3.91,5.36-.11,3.22.77,6.57-1,9.62-3-.43-3.47-3.24-5-5.09.15-1,.31-1.91.47-2.86,2.88-3,1.26-6.5,1.23-9.83l-1.58.76c-2.77-.41-4.56,1.1-6.1,3.1L131.8,135c-.91,2.47.67,5.09-1.3,7.09-1.83-2.72-.51-7.67-5.7-8-1.13-2.5,2.13-3.67,1.8-5.93h0a1,1,0,0,0,1-1.05h0l6.9-3.24,2.94-.29a2.08,2.08,0,0,0,2.26,0Z"/><path class="cls-2" d="M65,66.28l-3.31.08A2.61,2.61,0,0,0,59,68.83c-.42,3.38-2.09,4-5.07,2.85-.61-.24-1.54.34-2.33.54,0-.49.13-1.27-.12-1.44-4.47-3-2.87-7.38-2.8-11.43,1.74.15,3-.36,3-2.35a5.67,5.67,0,0,1,2.15-4.27c.69-.64,1.75-1.32,1.24-2.44-.61-1.34-2-.95-3.08-.82a18,18,0,0,0-3.27,1L47,47.1c.28-1.2,1.27-1.55,2.26-1.9l9.28,1.29,0,0c0,1.48.28,2.78,2.18,2.81l.47.12.48-.09c.16.64.33,1.27.49,1.91-.13.68-.25,1.37-.38,2.05-1.11,3.3.19,5.86,2.48,8.12C64.53,63.06,64.75,64.67,65,66.28ZM55.6,58.11c.43,1.35-.86,3.68,1.7,3.84,1.49.09,1.31-1.64,1.31-2.73,0-1.59.47-3.85-1.57-4.15S55.93,56.94,55.6,58.11Z"/><path class="cls-3" d="M91.37,46.41c1.54-3.94.74-8.38,3-12.27,1.53-2.65,3-4.65,6.28-4.57-7,5.78-5.75,14.2-7,21.82l-1.74.07C91.73,49.78,91.55,48.09,91.37,46.41Z"/><path class="cls-2" d="M91.92,51.46l1.74-.07c1.87,6.56.89,12.86-1.79,19A75.42,75.42,0,0,1,91.92,51.46Z"/><path class="cls-3" d="M42.32,53.45l2.6-2.7a38.74,38.74,0,0,0,1.59,18.5,2.61,2.61,0,0,1-.89,3.09c-1.63-1.28-1.2-3.85-3.12-4.94Z"/><path class="cls-3" d="M48.65,84.3c-2.16-1.41-1.57-4.28-3.18-6l.62-1.09C49,78.86,50.66,80.91,48.65,84.3Z"/><path class="cls-3" d="M69,75.26c-.24.73-.48,1.46-.73,2.18-2.9-1.07-1.31-2.69-.51-4.21a7.47,7.47,0,0,0,.94.09Z"/><path class="cls-3" d="M70.81,85.17l1,.09-.42,2.12C69.19,87.22,70.3,86.11,70.81,85.17Z"/><path class="cls-3" d="M159.26,275.72l-1-.57,1-.59Z"/><path class="cls-3" d="M147.33,247.9c-.05,3.35,1,6.83-2,9.7-1.55,1.49.68,3.37.23,5.13-1.62,2.15-4.73-1.87-6.07,1.46-1.77.16-2.66,1.54-3.74,2.67-2.49-.49-3.12,4.38-6.27,2.12-3.61-2.58-7.5-4.89-8.5-9.72.16-4.47,1-9-.41-13.38.71-3.44.17-5.38-4.16-4.38-2.51.57-5.23.21-7.85.27-3.66,1.24-.78,5.58-3.5,7.37-.85.56-1,2.29-2.4,2s-1-1.86-1.51-2.8c.05-1.08.1-2.17.14-3.26a7.1,7.1,0,0,1,2.83-5.32c4-3.3,8.49-2,12.7-2.16,2.7-.08,4-.69,4.78-3l9.93-.8,2,.93c.13,2.24-.58,3.84-3.13,3.91-1.94.05-3.88,0-5.81.05-.51.25-1.34.4-1.46.78-.31,1,.63,1.14,1.3,1.41,0,.92,0,1.84,0,2.77a2.55,2.55,0,0,0-.79,2.73c1.74,3.85,2,7.91,2.17,12,0,.47.83.92,1.28,1.38.13,1,.25,2,.38,3,.64,2.44,2.83,2.16,4.37,1.93,1.15-.17.64-1.93.65-3,1.15-.92,1.08-2.92,2.89-3.26a1.8,1.8,0,0,0,2.27-1.38l1.9-.24c2.84,1.6,4.21,1,3.72-2.45l.15-4.66C144.6,248.89,145.48,247.38,147.33,247.9Z"/><path class="cls-2" d="M145.59,163.29c.65.92,1.3,1.85,2,2.77a7,7,0,0,0-1.11,4c-1.26.08-2.63.59-2.58,1.84.17,4-1.9,7.23-3.05,10.78-.29.87-.67,2.14.62,2.51,1.1.32,2.16-.94,2.2-1.56.17-2.88,2.72-4.3,3.73-6.62l2.37-1c1.25,1.14.31,3.79,2.81,4.06-.08,2.27-1.35,4.54.05,6.79l-2.9.13c-3.87-1.28-5.79,1-7.38,4l-4.75-1c-1.23-.88-1.1-3.16-3.23-3.1q3.3-9.39,6.59-18.79c.4-1.14,1.94-2.37.55-3.52-1.17-1-2.87-.75-4.29-.19a35.42,35.42,0,0,0-3.48,1.87c-1.1-1.14-2.45-1.7-2.92.27s-1.05,4.56,2.53,4.5c.15,2.16-1.15,2.84-3,2.94-3-2.16-3.11-5.33-2.9-8.58l.12-13.16c3-2.4,6.65-4.39,6.14-9.15,1.68.49,3.43.88,3.91,3-1,1.19-2.2,2-.86,4,1.1,1.66,2.76,3.76.76,6-.44-1.22-.62-2.63-1.36-3.61-1.69-2.21-4.08-2.29-5,.27-1.06,2.82-1.82,6.75.52,8.79,1.91,1.67,2.68-2.58,4.68-3.19a6,6,0,0,0,.87-.46c-.51,2.59-1.12,5,3.21,4.32C142,161.9,143.83,162.88,145.59,163.29Z"/><path class="cls-2" d="M147.33,247.9c-1.85-.52-2.73,1-3.91,1.86-2.67-1.63-7.1-.44-7.94-5,3.34-2.68,4.7-5.71,4.38-10.4-.26-3.83-2-7-2.51-10.57,8.17-3.81,8.36-12.74,11.76-19.41,1.49-2.91,1.75-6.76,4.31-9.47l2.18.17a18,18,0,0,1-1,4.23c-1.6,5-2.83,10.08-4.2,15.13-3.39,3.72-4.44,8.8-7.35,12.76-1.51,2.06-1.7,4.2-1.69,6.56s.27,5,3,5.69,3.6-1.75,4.66-3.62c2.46-1.33,1.69-5.08,4.6-6.07,1.52.1,2-1.4,3.09-2,.73.8,1.15,2,.59,2.72-3.75,4.8-3.28,12-9.12,15.64C147.7,246.45,147.6,247.31,147.33,247.9Zm1-5.36c-5.37-1.51-7.27,1-9.52,3.58C143,247.85,144.49,244.28,148.29,242.54Z"/><path class="cls-2" d="M61.62,76.3c3.1,1,4.59,3.08,4.05,6.35-.85,5.11,3.32,8.75,3.85,13.46.2,1.77,1.37,3.37,1,5.26-2.18,2.54-6,4.55-2.91,8.83-4.95.41-6.42,2.68-4.27,7A12.5,12.5,0,0,1,65,121.82c-.66,2.15.39,4.57-1.27,7.1-5.61-8.28-5.94-17.75-8-26.68l2.09-1,1.82,1.08c1.4,1.14,2.79,2.64,4.77,1.43s.45-2.94.65-4.42c.77-5.79-4.31-9.83-4.28-15.33,0-3.46-1.79-5.77-4.77-7.3.13-2.32.8-3.66,3.08-1.52A4,4,0,0,0,61.62,76.3Z"/><path class="cls-3" d="M146.62,272.63c-.54,10.23-6.3,17.08-16.42,16.88-5-.09-9.7,1.2-14.57,1-1.64-.07-3.39.23-4.65-1.16s-2.23-1.26-3.74-.1c-2.69,2.07-5.19,1.83-6.69-1.65a2.19,2.19,0,0,0,1.12-2l5.83-.29c1.87.68,2.89-.64,4-1.72,1.27.72,1.41,2.6,3,2.94,3.36.72,5.19-.94,6.16-3.94,1.52,1,2.29,3.85,4.94,1.9l1.94,1.08a3.81,3.81,0,0,0,5,.33c5.85-3.93,11.77-7.88,11.39-16.19A3,3,0,0,1,146.62,272.63Z"/><path class="cls-3" d="M75.27,249.62a2.73,2.73,0,0,1,.11-.81c0-.4.07-.81.1-1.21h0c3.06-.74,5.67-1.91,5.4-5.77.26-5.27-4.44-7.15-7.12-10.41A2.19,2.19,0,0,0,72,229.67l-.2-.19A4.37,4.37,0,0,0,69.48,225c-1.56-1-1.89-2.6-1.68-4.35.14-1.23.58-2.31,1.93-2.52a2.21,2.21,0,0,1,2.71,2.17c.23,1.8.19,3.66,2.11,4.69.21,1.23-.38,2.75,1.1,3.53a1.67,1.67,0,0,0,2.18-.63,3,3,0,0,0-.12-4.05,8.4,8.4,0,0,1-.84-1.73,3.09,3.09,0,0,0,.85-.14c2.81-1,2.58,2.65,4.52,3-.06.91-.11,1.82-.17,2.73-1.49.72-1.62,1.49-.07,2.31,1.18,3.74,3.7,5.41,7.62,4.9a2,2,0,0,1-2,1.95c-2.56.54-2.75,2.19-2.37,4.44.49,2.94-5.55,10-8.45,10.05C75.78,251.33,75.65,250.3,75.27,249.62Z"/><path class="cls-2" d="M169.66,168c1.36,3.24,1.3,6.77,3.34,10.06,2.62,4.26-1.44,7.84-3.59,11.4-2.77,4.57-6.06,9-5.89,14.67.07,2.5-2.36,3-3.14,4.79l-3-.26q3-9.27,6.05-18.57c1.84-1.23,2.21-3.05,2.05-5.08,3.54-1.72,5.22-3.91,1.82-7.35.36-4.46-2-8-4-11.68,0-1,.1-2,.14-3l1.89-2c1.27,1.14.95,2.67.95,4.08C166.34,167.43,167.41,168.36,169.66,168Z"/><path class="cls-3" d="M71.66,198a25.25,25.25,0,0,0-3,14c.19,2.05,0,4.06-2.89,3.91-.13-2.32-.27-4.64-.4-7,.1-1.64.12-3.28.3-4.91.37-3.34-1.16-5-4.43-5-3,0-5.21-1.27-6.22-3.93s0-4.82,2.24-6.91c1.64-1.52,3.86-3.28,3.52-6.17l4.45,1c-.13.37-.24.75-.36,1.12l-1,1.13A36.72,36.72,0,0,1,61,189.14c-3,3.23-.07,5,2,5.84,1,.4,3.25,1.75,4.82,0C72.08,192.19,71.51,195.54,71.66,198Z"/><path class="cls-3" d="M158.73,292.78c-.42,2.39-2.35,2-3.91,2-23.87,0-47.73,0-71.6,0-3.4,0-4.94-1.34-4.78-4.7.09-1.81.16-3.62.24-5.43,2.64,8,2.64,8,12.18,8Q124.79,292.73,158.73,292.78Z"/><path class="cls-4" d="M73.77,231.42c2.68,3.26,7.38,5.14,7.11,10.41-2.45,1.32-4.49,3-5.39,5.77h0a2.9,2.9,0,0,0-.93.06h-4a5.46,5.46,0,0,1-.69-.1c-.12-4.75-.22-9.5-.37-14.25-.05-1.76.18-3.29,2.21-3.83l.2.18C71.73,231.1,72.34,231.69,73.77,231.42Z"/><path class="cls-2" d="M150.47,157.85c2.84-3.5,5.53-7.14,8.58-10.45s8.2-1.44,9.44,3.24c-2.5,1.91.73,6-2.88,7.49-.09-1.63-.13-3.27-.26-4.9-.19-2.54-2.11-2.39-3.61-1.84-3.32,1.23-5.7,8.44-4,11.53a6.78,6.78,0,0,1-4.12,1C153.39,161.48,153.71,158.74,150.47,157.85Z"/><path class="cls-2" d="M75.27,249.62c.38.68.51,1.71,1.53,1.69,2.9-.05,8.94-7.11,8.45-10.05-.38-2.25-.19-3.9,2.37-4.44-.6,2.73,1.11,4.79,2,7.08-2,3.47-6.21,4.72-8.34,8.24s-1.63,6.07,2.36,7.34a15.77,15.77,0,0,0,3.91.25c-.15,1.67-1.35,1.8-2.69,1.94-3.36.32,0,1.51-.26,2.26-4.28-.05-7.18-2.55-8.79-6C74.74,255.45,71.53,252.61,75.27,249.62Z"/><path class="cls-4" d="M68,132.33c2.37-.26.69-4,3.46-4,.11,2.88.21,5.76.32,8.65-1.87,3.15,1.13,3.3,2.69,4.34-.58,3.56,3.26,7.44-.79,10.74a2.33,2.33,0,0,0-2.07,1.09l-1.88-.08-.6-2.15C67.4,144.83,68.13,138.56,68,132.33Z"/><path class="cls-4" d="M65.33,208.9c.13,2.32.27,4.64.4,7-.56,1.14-1.12,2.28-1.88,3.85-3.33-3.37-5-7.55-7.06-11.46-.59-1.15-.31-3,.11-4.35.67-2.12,2.65-2.92,4.7-2.91,2.44,0,2,2,2.2,3.65S63.21,208.06,65.33,208.9Z"/><path class="cls-2" d="M71.66,198c-.15-2.41.42-5.76-3.79-2.94a14.11,14.11,0,0,1,3.66-11.07c1.57,2,3.37,3.68,3.26,6.67s1.95,2.14,3.64,1.35c1.73,1.66,3.63,3.24,2.87,6.07-1.49-.16-2.56.29-2.79,1.94C76.42,198.66,74.32,197.37,71.66,198Z"/><path class="cls-3" d="M145.59,163.29c-1.76-.41-3.6-1.39-5.25-1.13-4.33.7-3.72-1.73-3.2-4.32.1-.6.21-1.2.32-1.8,2-2.27.34-4.37-.76-6-1.34-2-.11-2.86.86-4h1.94c1.49,1.85,2,4.66,5,5.09,0,1-.05,2-.08,2.95-2.44,1.72-2.88,3.39.15,5l1.15,1c.07.72.14,1.43.22,2.14Z"/><path class="cls-3" d="M84.65,263.93c.21-.75-3.1-1.94.26-2.26,1.34-.14,2.54-.27,2.69-1.94l0,0a1.86,1.86,0,0,0,1.94-2.06c1.87-1.06,2.16-4.15,5-3.91,3,2.25.88,3.65-.78,5.28-1,1-4,1-2.1,3.7q0,6.46,0,12.92l-2.19,1.26c-3.36-1.84-2-4.72-1.43-7.24C88.78,266.51,88.69,264.11,84.65,263.93Z"/><path class="cls-3" d="M68,132.33c.11,6.23-.62,12.5,1.13,18.63l-.51,2.41a2.79,2.79,0,0,1-.79,2.68,8.32,8.32,0,0,1-3.21-7.39c.15-4.48-.12-9,.2-13.43C64.94,133.91,64.33,130.35,68,132.33Z"/><path class="cls-3" d="M61.62,76.3A4,4,0,0,1,59,75.15c-2.28-2.14-2.95-.8-3.08,1.52l.18,5.46-3.47.26c-2-3.23-.59-6.79-1-10.17.79-.2,1.72-.78,2.33-.54,3,1.18,4.65.53,5.07-2.85a2.61,2.61,0,0,1,2.63-2.47Q61.65,71.33,61.62,76.3Z"/><path class="cls-3" d="M78.51,200c.23-1.65,1.3-2.1,2.79-1.94q.11,7.91.19,15.81c-1.43,1-.23,3.88-2.86,4.06C79.39,211.92,76.42,206,78.51,200Z"/><path class="cls-2" d="M65.19,183l-4.45-1c3.36-3.12,3.61-8.38,7.64-11,1.73.32,2.37-1.33,3.58-2C71.79,174.68,68.26,178.72,65.19,183Z"/><path class="cls-3" d="M175.53,211.9c-2.86,8.78-2.44,18.27-6,26.9-2.59-3.46.08-6.92.25-10.32.23-4.65,1.83-9.23,2.77-13.86A3,3,0,0,1,175.53,211.9Z"/><path class="cls-2" d="M89.55,276.9l2.19-1.26c2.89,2.38,3.74,6.74,7.81,8a1.91,1.91,0,0,0,2.13,1.94v.11a2.19,2.19,0,0,1-1.12,2C94,287,90.42,283.33,89.55,276.9Z"/><path class="cls-3" d="M58.5,159.08c-2.27-7.2-2.6-14.62-2.43-22.09,3.59,1.11,2.42,4.36,2.81,6.72C59.71,148.82,60.65,154,58.5,159.08Z"/><path class="cls-3" d="M69.91,247.57a5.46,5.46,0,0,0,.69.1c.09,3.67-1.51,3.58-3.85,1.69-1.84-1.5-3.12-12.79-1.64-14.59a1.59,1.59,0,0,1,1.2-.59c1,.11,1.26,1,1.29,1.82.09,2.65.09,5.29.2,7.94C67.86,245.49,67.28,247.48,69.91,247.57Z"/><path class="cls-4" d="M65,121.82a12.5,12.5,0,0,0-1.57-4.61c-2.15-4.33-.68-6.6,4.27-7,.19,2.92.39,5.84.58,8.76-.12.69-.24,1.39-.35,2.09-.14.92-.27,1.84-.44,3Z"/><path class="cls-3" d="M165.61,158.13c3.61-1.48.38-5.58,2.88-7.49.19.46.38.93.56,1.39-.49,1.93-1.33,3.94,1.24,5.13a32,32,0,0,1-.63,10.86c-2.25.34-3.32-.59-3.31-2.89,0-1.41.32-2.94-.94-4.08l0-2.09A2.92,2.92,0,0,1,165.61,158.13Z"/><path class="cls-3" d="M48.71,50.45a18,18,0,0,1,3.27-1c1.07-.13,2.47-.52,3.08.82.51,1.12-.55,1.8-1.24,2.44A5.67,5.67,0,0,0,51.67,57c0,2-1.22,2.5-3,2.35C46.53,56.39,49.15,53.42,48.71,50.45Z"/><path class="cls-3" d="M57.77,101.21l-2.09,1c-1-5.61.33-11.36-1-16.95l3.23-.2a5.42,5.42,0,0,1,.19.89C57.25,91,57.76,96.13,57.77,101.21Z"/><path class="cls-3" d="M176.5,153.05c2,1.6,2.32,3.86,2.33,6.16,0,5.54,0,11.08,0,16.61-2.16-1.41-1.82-4-1.92-5.83C176.58,164.36,175.75,158.71,176.5,153.05Z"/><path class="cls-2" d="M78.63,217.9c2.63-.18,1.43-3,2.86-4.06,3.93,3.45,2.06,7.29.75,11.09-1.94-.36-1.71-4-4.52-3C78,220.58,78.33,219.24,78.63,217.9Z"/><path class="cls-2" d="M146.62,272.63a3,3,0,0,0-2.65-2.87c-.27-2.85-.76-5.52-4.5-5.57,1.34-3.33,4.45.69,6.07-1.46C149.33,265.66,147.48,269.2,146.62,272.63Z"/><path class="cls-3" d="M71.8,137c-.11-2.89-.21-5.77-.32-8.65l.27-3.21c.93-2.27,1.9-1.87,2.87,0q0,5.49,0,11l-2,.85Z"/><path class="cls-3" d="M179.23,180.37c3.2,5.45,3.75,11,.42,16.6-.31-.38-.9-.75-.89-1.12C178.87,190.69,179.06,185.53,179.23,180.37Z"/><path class="cls-2" d="M74.62,125.14c-1-1.85-1.94-2.25-2.87,0-1.73-1-1.6-3.66-3.87-4.11l.36-2.09c1.88.53,2.9-1,4.27-1.76C75.47,119.25,75,122.21,74.62,125.14Z"/><path class="cls-3" d="M54.76,205.69c-1,1.5,1.63,5.33-1.56,5.28-2.55,0-1.14-3.88-1.51-6a5.71,5.71,0,0,1,0-1.49c.17-1.53-.46-3.94,1.84-3.85,1.95.09,1,2.38,1.22,3.72A17.72,17.72,0,0,1,54.76,205.69Z"/><path class="cls-2" d="M160.26,215.85c.3,2.39-2.1,3.23-2.88,5l-3.84-1v-2c3.07-.9.75-5,3.6-6C157.56,213.64,157.12,216.12,160.26,215.85Z"/><path class="cls-3" d="M72,169c-1.21.63-1.85,2.28-3.58,2q0-4,.05-8L75.56,164c.2,1.4-1,1.84-1.78,2.57A2.48,2.48,0,0,0,72,169Z"/><path class="cls-3" d="M55.58,131.16c-.86-5-2.73-9.87-2.71-15C56.31,119.26,57.5,125.89,55.58,131.16Z"/><path class="cls-3" d="M146.44,170.08a7,7,0,0,1,1.11-4l1.95,0h0a2.26,2.26,0,0,0,1.86,2.23l0,.29c-1.9,2.18-1.68,4.84-1.66,7.44l-2.37,1C147.84,174.61,146.49,172.43,146.44,170.08Z"/><path class="cls-3" d="M153.54,219.89l3.84,1c-.37,2.31-1.14,4.57-.7,7-1.08.58-1.56,2.08-3.08,2-.09-2.69-.17-5.38-.26-8.07Z"/><path class="cls-3" d="M52,104.83c-2.59-4.23-2.32-8.93-2.21-13.61C53.57,95.26,52.9,100,52,104.83Z"/><path class="cls-3" d="M150.47,157.85c3.24.89,2.92,3.63,3.15,6.08l-2.15,2.15-2-.05h0Z"/><path class="cls-3" d="M55.65,246.76A24.22,24.22,0,0,1,52.23,234C54.41,238,57.66,241.66,55.65,246.76Z"/><path class="cls-3" d="M157.87,140.33c3.39-2.69,6.79-3.18,10.22-.08A16.67,16.67,0,0,1,157.87,140.33Z"/><path class="cls-3" d="M160.26,215.85c-3.14.27-2.7-2.21-3.12-4,.1-1,.19-2.09.28-3.14l3,.26Z"/><path class="cls-2" d="M76.87,222.06a8.4,8.4,0,0,0,.84,1.73,3,3,0,0,1,.12,4.05,1.67,1.67,0,0,1-2.18.63c-1.48-.78-.89-2.3-1.1-3.53C75.8,224.36,75.37,222.44,76.87,222.06Z"/><path class="cls-2" d="M67.91,158.73l3.43,1a3.39,3.39,0,0,0,2.44,2.59L75.56,164,68.43,163C67.29,161.66,67.66,160.19,67.91,158.73Z"/><path class="cls-3" d="M165.57,259.77c.44,3.25-2.07,5-3.72,7.16C161.67,263.81,160.52,260.18,165.57,259.77Z"/><path class="cls-3" d="M149.72,142.86c3,2.09,4.22-2.06,6.67-1.93.36,2.54-1.19,3.63-3.3,4C151.5,145.24,149.61,145.52,149.72,142.86Z"/><path class="cls-3" d="M168.65,252.25c.08,2.71-1.66,4.61-3,6.71a23.13,23.13,0,0,1,0-4.78C166,252.89,166.31,250.8,168.65,252.25Z"/><path class="cls-3" d="M178.79,202.11c.23,3.44-2.15,6-3.09,9C175.59,207.75,174,203.86,178.79,202.11Z"/><path class="cls-3" d="M57.43,171.85c1.41-3.15,1.18-6.52,1.36-9.83C61,165.66,61.05,169,57.43,171.85Z"/><path class="cls-2" d="M58,85.09l-3.23.2a3,3,0,0,1-2-2.91l3.47-.24C57.82,82.46,57.88,83.78,58,85.09Z"/><path class="cls-3" d="M45.58,213.89c-1.5-1.75-3.35-3.34-2.69-6C44.59,209.5,47.27,210.72,45.58,213.89Z"/><path class="cls-3" d="M51.89,232.45c-2.18-1.34-2.75-3.28-2.11-5.67C52.37,228,52.62,230,51.89,232.45Z"/><path class="cls-3" d="M65.34,262.93c-2.35-.93-3.28-2.87-3.71-5.17C64.07,258.62,66,259.89,65.34,262.93Z"/><path class="cls-3" d="M49.41,225.14c-1-2.07-2.59-3.85-2.81-6.26C50.71,219.55,49.5,222.59,49.41,225.14Z"/><path class="cls-2" d="M144.53,159c-3-1.57-2.59-3.24-.15-5Z"/><path class="cls-2" d="M170.29,157.16c-2.57-1.19-1.73-3.2-1.24-5.13C171.35,153.28,170.22,155.37,170.29,157.16Z"/><path class="cls-3" d="M42.28,205.14c-1.92-1.88-2.36-3.79-.18-5.79A8.42,8.42,0,0,1,42.28,205.14Z"/><path class="cls-3" d="M46.68,189.94c-.19-2.34,1.67-3.56,2.85-5.15C49.84,187.2,50,189.53,46.68,189.94Z"/><path class="cls-3" d="M161.8,267.05a6,6,0,0,1-2.31,3.63C158.21,268.17,159.09,267,161.8,267.05Z"/><path class="cls-3" d="M173.07,145.5c1.5.73,2.58,1.74,2.37,3.59C173.42,148.7,172.15,147.82,173.07,145.5Z"/><path class="cls-3" d="M68.41,265.91a3.53,3.53,0,0,1-3-2.91C67.62,262.73,68.65,263.67,68.41,265.91Z"/><path class="cls-3" d="M58.12,252.28c-1.51-.75-2.57-1.76-2.15-3.64C57.88,249.15,58.84,250.22,58.12,252.28Z"/><path class="cls-3" d="M73.52,269.79a5.29,5.29,0,0,1-3.39-2.65C72.41,266.56,73.5,267.49,73.52,269.79Z"/><path class="cls-2" d="M145.9,162.14c-.08-.71-.15-1.42-.22-2.14C147.47,160.54,147.8,161.23,145.9,162.14Z"/><path class="cls-3" d="M61.61,257.74a1.94,1.94,0,0,1-1.87-2.06C61,255.78,61.72,256.38,61.61,257.74Z"/><path class="cls-3" d="M49.58,89.39a2.83,2.83,0,0,1-.68-3.13A2.86,2.86,0,0,1,49.58,89.39Z"/><path class="cls-3" d="M59.42,255a2.24,2.24,0,0,1-1.06-2.15C59.46,253.21,59.63,254,59.42,255Z"/><path class="cls-3" d="M75.49,272.72a.67.67,0,0,1-.49-1.06Z"/><path class="cls-3" d="M171.41,143.38c.62-.12.89.16.86.77Z"/><path class="cls-3" d="M42.39,205.79a.31.31,0,0,1-.12-.52l.7.12Z"/><path class="cls-3" d="M52.56,179.91l.75-1.35A1.07,1.07,0,0,1,52.56,179.91Z"/><path class="cls-3" d="M69.57,266.85l-1.14-1A1.07,1.07,0,0,1,69.57,266.85Z"/><path class="cls-2" d="M74.55,247.66a2.9,2.9,0,0,1,.93-.06c0,.4-.06.81-.1,1.21Z"/><path class="cls-3" d="M55.05,176a.77.77,0,0,1,.5-1.15C55.38,175.26,55.22,175.64,55.05,176Z"/><path class="cls-2" d="M113.69,40.68c1,15.77,2.49,31.53,2.81,47.32.29,14.67,1.63,29.33.89,44a19.41,19.41,0,0,0-6.71,1.07c-.62-6-1.11-11.91-.28-18,.48-3.52,1.92-8-2.29-10.83-.2-.67-.39-1.35-.58-2,3.72-2,4.41-8.33,1.44-12.8-1.8,2.29,1.52,6.11-2.33,7.85-.27-3.07.87-6.35-.83-9.2-3.4-5.69-1.07-11.39-.19-17,.24-1.55,1.76-3.11-.1-4.33s-2.88.79-4.15,1.67c-2.5-2.68,1.19-5.38,0-8.07,1.62,1.09,3.5,1.09,5.33,1.31,0,1.7.12,3.63,2.38,3.44,2.09-.17,1.42-2.19,1.52-3.54s-.07-2.61,0-3.91c.22-3.17-1.45-3-3.62-2.15-1.64-1.39-3.33-2.53-5.5-1-1.09-1.21-1.23-3.62-3.78-3,0-2.11,1.29-3.22,3-4.06,2,.54,4.44,2.85,5.86.93,2.25-3,1-7,.79-10.59-.19-2.7-2.84-2.21-4.73-2.46.52-2.13,4.2-2.64,2.92-5.69,4.83,1.29,6.11,5.73,8.32,9.34C113.79,39.54,113.74,40.11,113.69,40.68Z"/><path class="cls-3" d="M97.7,51.5c2.55-.66,2.69,1.75,3.78,3,0,2-.09,3.92-.13,5.87,1.21,2.69-2.48,5.39,0,8.07q0,14.42,0,28.83c-.09.13-.27.36-.26.37a6,6,0,0,0,.65.48c1.65,0,3.4.55,4.84-.78,3.85-1.74.53-5.56,2.33-7.85,3,4.47,2.28,10.77-1.44,12.8-5.23-1.94-6-1.39-6.14,4-.17,9.91.61,19.82-.19,29.73a1.76,1.76,0,0,0-1.4,2.36,2,2,0,0,1-.14.81c-2,0-1.87-2.08-2.88-3,.93-13.1,1.91-26.15-.45-39.27-.44-2.46.2-5.63.53-8.38C98.32,76.15,96.88,63.81,97.7,51.5Z"/><path class="cls-3" d="M72.52,157c.44-2.2,2.45-1.75,4.26-2.12-1.75-1.42-3.88-.13-5.15-1.64a2.33,2.33,0,0,1,2.07-1.09c3,.57,4.09-2.25,6-3.78.72,1.47,1.26,2.61,1.81,3.75-.44,4.5,2.13,5.6,5.83,4.75s8.25-.49,9.34-5.68l2-2c-.05,1.5.1,2.85,2.1,2.86-3.18,5.15,1.56,3.79,3.74,4.53,0,.94-.09,1.88-.14,2.82-6,1.31-12.1.56-18.17.65-2,0-4.46-.88-5.44,2l-2.21,0C79.08,157.27,76,156.84,72.52,157Z"/><path class="cls-3" d="M102.61,35.32c1.89.25,4.54-.24,4.73,2.46.24,3.55,1.46,7.56-.79,10.59-1.42,1.92-3.89-.39-5.86-.93C101.4,43.41,98.65,38.84,102.61,35.32Z"/><path class="cls-3" d="M84.77,138.06c3.5,1.88,3.51-.87,3.7-2.94.44-4.6.65-9.23,1-13.84.12-1.42-.28-3,1.21-4.08,1.63,7.68,1.15,15.35.08,23-.28,2-1.23,3.35-3.23,2.69S83.24,141.08,84.77,138.06Z"/><path class="cls-2" d="M81.55,152.07c-.55-1.14-1.09-2.28-1.81-3.75-1.95,1.53-3,4.35-6,3.78,4-3.3.21-7.18.79-10.74.36-1.9-1.33-2.9-1.92-4.39l2-.85C80.38,140.74,83.32,147.51,81.55,152.07Z"/><path class="cls-3" d="M72.51,117.2c-1.37.73-2.39,2.29-4.27,1.76-.19-2.92-.39-5.84-.58-8.76-3.09-4.28.73-6.29,2.91-8.83C70,106.8,73.57,111.72,72.51,117.2Z"/><path class="cls-2" d="M98.68,149.14l-2,2c-.75-5-2.57-10,0-15,1,1,.87,3,2.89,3-.1,2.38-.42,4.79,1,7Z"/><path class="cls-3" d="M77.9,113.15a68.85,68.85,0,0,1,6.43,23c-4.61-6.23-4.25-14.22-7.37-21C76.59,114.36,77.1,113.59,77.9,113.15Z"/><path class="cls-3" d="M74.83,101.2c1.6,2.47,2.76,5.07,2.54,8.11C73.25,107.63,73.35,104.63,74.83,101.2Z"/><path class="cls-3" d="M68.64,79.3a5.87,5.87,0,0,1,2.16,5.84C67.42,84.18,66.93,82.15,68.64,79.3Z"/><path class="cls-3" d="M71.85,90.23a5.48,5.48,0,0,1,1.9,4.93C70.35,94.58,70,92.84,71.85,90.23Z"/><path class="cls-3" d="M65.2,66.79a6.2,6.2,0,0,1,2.28,5.61C64.1,71.59,64.46,69.27,65.2,66.79Z"/><path class="cls-3" d="M91.42,103.26a3.18,3.18,0,0,1,.12-4C93,100.62,92.94,102,91.42,103.26Z"/><path class="cls-3" d="M73.74,95.18a2.62,2.62,0,0,1,.6,3.09A2.91,2.91,0,0,1,73.74,95.18Z"/><path class="cls-3" d="M91.24,107.22a4.78,4.78,0,0,1-.18-.9c0-.11.22-.23.33-.34Z"/><path class="cls-1" d="M110.68,133.1a19.41,19.41,0,0,1,6.71-1.07,20,20,0,0,0,.93,3.29,4,4,0,0,0,3.58,2.3c2.2.06,2.11-2.16,2.9-3.49,5.19.32,3.87,5.27,5.7,8-1.2,3.28-4.22,6-3,10l-.12,13.15c-5.31.82-3,4.89-2.25,7a19.8,19.8,0,0,1,1.44,7.57,2.21,2.21,0,0,0,1,2.1l0,1.89c-2.23,1.08-2.07,3.1-2,5.08-2.71,7.79-1.88,15.88-2,23.9-4-.16-2.74,2.83-2.91,4.94-1.35.67-2.93,1.09-3.19,2.93l-1.83,0c-.07-1.1,0-2.24-1.09-3,0-11.45-.09-22.89,0-34.33,0-4.58.9-9.16-1-13.59,0-.58,0-1.16,0-1.74,2.89-1.68,4.61-3.37,0-5.09l0-3c2.24-4.94.26-8.37-4-11l0-1.87a23.48,23.48,0,0,0,2.13-1.22c1.67-1.19,3.42-2.83,2-4.78-1.58-2.12-2.49,1.37-4.06,1.16-1.06-1.25-2.44-2.34-2-4.29C111,137.86,110.47,135.24,110.68,133.1Z"/><path class="cls-3" d="M113.69,40.68c0-.57.1-1.14.16-1.71C114.66,39.62,114.62,40.19,113.69,40.68Z"/><path class="cls-4" d="M139.5,146h-1.94c-.48-2.07-2.23-2.46-3.91-3h0a2.71,2.71,0,0,0-.19-.93c0-1.65.06-3.3.1-5,1.54-2,3.33-3.51,6.1-3.1q.16,4.54.35,9.07C139.81,144.05,139.65,145,139.5,146Z"/><path class="cls-3" d="M133.52,137.13c0,1.65-.07,3.3-.1,5-.11.11-.34.3-.32.32a7.49,7.49,0,0,0,.51.61h0c.51,4.76-3.12,6.75-6.14,9.15-1.23-4,1.79-6.76,3-10,2-2,.39-4.62,1.3-7.09Z"/><path class="cls-1" d="M140,143.1q-.18-4.53-.35-9.07l1.58-.76C141.23,136.6,142.85,140.13,140,143.1Z"/><path class="cls-3" d="M55.6,58.11c.33-1.17-.48-3.32,1.44-3s1.56,2.56,1.57,4.15c0,1.09.18,2.82-1.31,2.73C54.74,61.79,56,59.46,55.6,58.11Z"/><path class="cls-3" d="M49.26,45.2c3.63-3.43,6.61-2.2,9.28,1.29Z"/><path class="cls-3" d="M61.82,53.34c1.85,2.39,3.29,4.91,2.48,8.12C62,59.2,60.71,56.64,61.82,53.34Z"/><path class="cls-3" d="M58.58,46.54a2.73,2.73,0,0,1,2.18,2.81C58.86,49.32,58.6,48,58.58,46.54Z"/><path class="cls-2" d="M91.72,262.72c-1.91-2.69,1.1-2.71,2.1-3.7,1.66-1.63,3.79-3,.78-5.28,1.57-2.53,4.74-3.1,6.53-5.36.52.94.06,2.55,1.51,2.8s1.55-1.48,2.4-2c2.72-1.79-.16-6.13,3.5-7.37.58,3.39-1.59,6.59-.72,10l-.45,2c-1.19-.07-2.24,0-2.81,1.38a7.42,7.42,0,0,1-1.68,2.34c-2.28,2.26-1.19,3.73,1.32,3.89,3,.2,1.8-3.43,3.4-4.71l.93,1a2.36,2.36,0,0,0,.06,1c3,6.52,7.23,6.7,12.36.55,1,4.83,4.9,7.14,8.51,9.72,3.15,2.26,3.78-2.61,6.27-2.12-.6,1.95-1.43,3.58-3.7,4.18s-3.31,2.8-4.81,4.51c-3.35,3.82.41,6.75.37,10.07l-2-1.08c-2.23-3.4-3.14-6.91-.89-10.68.54-.9,1-1.89,0-2.61a2,2,0,0,0-3,.54l-1.33,2a1.62,1.62,0,0,1-.77-.39c-2-4.89-4-2.54-6,0l-2,.33c-1.61-.21-3.24-.5-4.41,1.09-3.48-1.26-3.33-4.66-4.25-7.35C100.41,260,98.47,259.15,91.72,262.72Zm26.59,2c-1.1.1-2.45,0-2.47,1.57,0,1.41,1.27,1.78,2.34,2a1.75,1.75,0,0,0,2.08-1.53C120.56,265.27,119.62,264.75,118.31,264.69Z"/><path class="cls-4" d="M130.29,173.9c1.87-.1,3.17-.78,3-2.94.13-1.59.26-3.18.38-4.77a35.42,35.42,0,0,1,3.48-1.87c1.42-.56,3.12-.77,4.29.19,1.39,1.15-.15,2.38-.55,3.52q-3.27,9.41-6.59,18.79c-1.55,1.49-.64,3.37-.8,5.08-1,5.61-3,11-3,16.84-.05,3.45.51,6.56,3,9.14q.06,6.94.11,13.9a3.06,3.06,0,0,0-2.05,2.08l-9.93.8L120,233.59c.26-2.56-1.26-5.34.94-7.66,2.3.45,1.43,2.67,2.17,4,1,1.78,2.47,1.94,4.19,1.81a2.15,2.15,0,0,0,2.18-2.18c.3-2.6,1-5.19.88-7.77-.08-2.43-.81-5-4.16-2.34a15.77,15.77,0,0,1-2.6,1.39c0-.67-.09-1.35-.14-2,.13-.87.26-1.75.38-2.62,1.64-.5,1.83-1.81,1.85-3.23,1-.75,1-1.86,1-3a1.84,1.84,0,0,0,.66-2.21l.11-15.86c3.45-1.93,1.76-5.2,2.09-8a1.48,1.48,0,0,0,.39-1.84c0-.78.05-1.56.07-2.35Z"/><path class="cls-4" d="M127.59,285.62c0-3.32-3.72-6.25-.37-10.07,1.5-1.71,2.44-3.89,4.81-4.51s3.1-2.23,3.7-4.18c1.08-1.13,2-2.51,3.74-2.67,3.74.05,4.23,2.72,4.5,5.57.38,8.31-5.54,12.26-11.39,16.19A3.81,3.81,0,0,1,127.59,285.62Z"/><path class="cls-4" d="M101.13,248.38c-1.79,2.26-5,2.83-6.53,5.36-2.88-.24-3.17,2.85-5,3.91a1.9,1.9,0,0,0-1.94,2.06l0,0a15.77,15.77,0,0,1-3.91-.25c-4-1.27-4.51-3.79-2.36-7.34s6.3-4.77,8.34-8.25c2.51-1,4.81-2.88,7.82-2,.36,2.13,2.28,2.47,3.78,3.28C101.23,246.21,101.18,247.3,101.13,248.38Z"/><path class="cls-5" d="M108.53,257.72l-.93-1c-.08-1-.15-1.93-.23-2.9l.45-2c2.75-5.17,6.94-7.26,12.73-5.89,1.4,4.42.57,8.91.41,13.38-5.14,6.15-9.32,6-12.37-.55.11-.1.34-.24.33-.29A6,6,0,0,0,108.53,257.72Z"/><path class="cls-4" d="M135.47,244.79c.85,4.53,5.28,3.34,7.95,5l-.15,4.66c-1.35.64-2.89,1-3.72,2.45l-1.9.24a1.63,1.63,0,0,0-2.27,1.38c-1.81.34-1.74,2.34-2.89,3.26l-5,1.1c-.13-1-.25-2-.38-3a52,52,0,0,0,.35-6.33c-.28-4.63,1.94-7.36,6.13-8.79Z"/><path class="cls-2" d="M101.27,245.12c-1.5-.81-3.42-1.15-3.78-3.28.53-2.64-.92-5.33.19-8,2.14,0,2.64-2.13,4-3.11l.46,0,.44.09c2.52,1.86,5.36.69,8.07.85a2,2,0,0,1,.91.11c2.06,4.14,5.15,3.4,8.43,1.79l1.58,1.07c-.8,2.29-2.08,2.9-4.78,3-4.21.13-8.74-1.14-12.7,2.16A7.1,7.1,0,0,0,101.27,245.12Z"/><path class="cls-4" d="M120.55,245.88c-5.79-1.37-10,.72-12.73,5.89-.87-3.41,1.3-6.61.72-10,2.62-.06,5.34.3,7.85-.27C120.72,240.5,121.26,242.44,120.55,245.88Z"/><path class="cls-2" d="M133.57,244.72c-4.19,1.43-6.41,4.16-6.13,8.79a52,52,0,0,1-.35,6.33c-.45-.46-1.26-.91-1.28-1.38-.18-4.11-.43-8.17-2.17-12a2.55,2.55,0,0,1,.79-2.73l3,0C129.51,244,132.12,240.81,133.57,244.72Z"/><path class="cls-1" d="M127.47,243.73l-3,0c0-.93,0-1.85,0-2.77.06-.73.11-1.46.16-2.19,1.93,0,3.87,0,5.81-.05,2.55-.07,3.26-1.67,3.13-3.91l2.11-.1c1.78,5.08,1.41,5.8-3.39,6C130,240.84,127.87,240.87,127.47,243.73Z"/><path class="cls-2" d="M127.47,262.85l5-1.1c0,1.1.5,2.86-.65,3C130.3,265,128.11,265.29,127.47,262.85Z"/><path class="cls-2" d="M139.55,256.87c.83-1.44,2.37-1.81,3.72-2.45C143.76,257.85,142.39,258.47,139.55,256.87Z"/><path class="cls-2" d="M135.6,234.69l-2.11.1-2-.93a3.06,3.06,0,0,1,2.05-2.08A3.19,3.19,0,0,1,135.6,234.69Z"/><path class="cls-2" d="M124.55,238.75c0,.73-.1,1.46-.16,2.19-.67-.27-1.61-.45-1.3-1.41C123.21,239.15,124,239,124.55,238.75Z"/><path class="cls-2" d="M135.38,258.49a1.63,1.63,0,0,1,2.27-1.38A1.8,1.8,0,0,1,135.38,258.49Z"/><path class="cls-1" d="M153.42,194.94c-2.56,2.71-2.82,6.56-4.31,9.47-3.4,6.67-3.59,15.6-11.76,19.41-.29-2.67-.59-5.35-.88-8a30,30,0,0,1,1.74-17.74c.61-1.4.88-3.33-1.34-4.12l.69-4,4.75,1c1.25,2.05,3.2,2.14,5.27,1.86,1.26,0,1.83-.61,1.77-1.85.11-1.33.22-2.66.34-4l2.9-.13C152.87,189.54,153.14,192.24,153.42,194.94Z"/><path class="cls-4" d="M137.46,156c-.11.6-.22,1.2-.32,1.8a6.72,6.72,0,0,1-.88.46c-2,.61-2.77,4.86-4.68,3.19-2.34-2-1.58-6-.52-8.79,1-2.56,3.35-2.48,5-.27C136.84,153.41,137,154.82,137.46,156Z"/><path class="cls-3" d="M130.29,173.9c-.09,2-.19,3.93-.28,5.89l-3.43.13a19.8,19.8,0,0,0-1.44-7.57c-.78-2.15-3.06-6.22,2.25-7C127.18,168.57,127.25,171.74,130.29,173.9Z"/><path class="cls-3" d="M153.42,194.94c-.28-2.7-.55-5.4-.83-8.1-1.4-2.25-.13-4.52-.05-6.79l.09-.11c2.26.65,2.67,2.47,2.83,4.46.11,1.35-.4,3,1.53,3.57,0,2,0,3.95,0,5.92l-1.4,1.22Z"/><path class="cls-1" d="M146.44,170.08c.05,2.35,1.4,4.53.92,6.95-1,2.32-3.56,3.74-3.73,6.62,0,.62-1.1,1.88-2.2,1.56-1.29-.37-.91-1.64-.62-2.51,1.15-3.55,3.22-6.8,3.05-10.78C143.81,170.67,145.18,170.16,146.44,170.08Z"/><path class="cls-4" d="M149.73,176c0-2.6-.24-5.26,1.66-7.44,4.75,1.09,5.86,3.63,3.15,7.52-.84,1.22-1.93,2.25-1.91,3.87l-.09.11C150,179.78,151,177.13,149.73,176Z"/><path class="cls-3" d="M147.58,192.8c-2.07.28-4,.19-5.27-1.86,1.59-2.93,3.51-5.25,7.38-4-.12,1.32-.23,2.65-.34,4A1.79,1.79,0,0,0,147.58,192.8Z"/><path class="cls-3" d="M137.56,189.92l-.69,4c-.68,1.05.51,3.07-1.7,3.36-1.38-1.6.09-4-1.64-5.4.16-1.71-.75-3.59.8-5.08C136.46,186.76,136.33,189,137.56,189.92Z"/><path class="cls-4" d="M153.54,219.89c-.07.61-.13,1.22-.2,1.83A29,29,0,0,0,149,235.86c-1.06,1.87-2,4.3-4.66,3.62s-2.94-3.22-3-5.69.18-4.5,1.69-6.56c2.91-4,4-9,7.35-12.76,2,.28,2,2.34,3.11,3.39Z"/><path class="cls-1" d="M153.54,217.86c-1.12-1.05-1.13-3.11-3.11-3.39,1.37-5.05,2.6-10.15,4.2-15.13a18,18,0,0,0,1-4.23l1.41-1.22c3.89,1.7,4.15-2.79,6.46-3.78q-3,9.3-6.05,18.57c-.09,1-.18,2.09-.28,3.14C154.29,212.85,156.61,217,153.54,217.86Z"/><path class="cls-3" d="M136.47,215.8c.29,2.67.59,5.35.88,8,.55,3.57,2.25,6.74,2.51,10.57.32,4.69-1,7.72-4.38,10.4l-1.91-.07c-1.45-3.91-4.06-.71-6.1-1,.4-2.86,2.54-2.89,4.74-3,4.8-.24,5.17-1,3.39-6a3.19,3.19,0,0,0-2-2.91q0-6.94-.11-13.9C134.52,217.27,135,215.8,136.47,215.8Z"/><path class="cls-1" d="M149,235.86a29,29,0,0,1,4.34-14.14c.09,2.69.17,5.38.26,8.07C150.69,230.78,151.46,234.53,149,235.86Z"/><path class="cls-3" d="M148.29,242.54c-3.8,1.74-5.26,5.31-9.52,3.58C141,243.49,142.92,241,148.29,242.54Z"/><path class="cls-4" d="M58,85.09c-.07-1.31-.13-2.63-1.81-3L56,76.67c3,1.53,4.79,3.84,4.77,7.3,0,5.5,5.05,9.54,4.28,15.33-.2,1.48,1.23,3.28-.65,4.42s-3.37-.29-4.77-1.43a42.28,42.28,0,0,0,.09-6C59.26,92.88,61,89.07,58.14,86A5.42,5.42,0,0,0,58,85.09Z"/><path class="cls-1" d="M58.14,86c2.9,3.09,1.12,6.9,1.54,10.36a42.28,42.28,0,0,1-.09,6l-1.82-1.08C57.76,96.13,57.25,91,58.14,86Z"/><path class="cls-4" d="M91.72,262.72c6.75-3.57,8.69-2.72,11.24,4.72.92,2.69.77,6.09,4.25,7.35.1,3.52.19,7,.29,10.57l-5.83.29v-.09a1.9,1.9,0,0,0-2.13-1.95c-4.07-1.23-4.92-5.59-7.81-8Q91.74,269.17,91.72,262.72Z"/><path class="cls-4" d="M111.62,273.7l2-.32,6,0a1.63,1.63,0,0,0,.76.39c-.25,3-.75,5.93.33,8.85-1,3-2.8,4.66-6.16,3.94-.24-2.62.61-5.71-3-6.9C111.59,277.69,111.6,275.7,111.62,273.7Z"/><path class="cls-1" d="M111.51,283.64l.06-4c3.59,1.19,2.74,4.28,3,6.9C112.92,286.24,112.78,284.36,111.51,283.64Z"/><path class="cls-4" d="M82.24,224.93c1.31-3.8,3.18-7.64-.75-11.09q-.09-7.91-.19-15.81c.76-2.83-1.14-4.41-2.87-6.07.94-4.6-1.69-8.21-3.34-12.09a5.13,5.13,0,0,0,3.14-2.28c1.71-2.23,2.92-1.33,3.24.8.75,5,3.06,9.73,2.24,15-.25,1.65-.64,3.74,1.48,4.85l.16,1.88c.31,1.83-.62,4.18,2.14,4.94l.22,3.78.05,1.08.1,1.84c-.35,1.53-.32,2.86,1.64,3.2h0c0,1.43.29,2.66,1.78,3.25.07.91.13,1.82.19,2.73q1.53,2.49,3,5c.68,4.25.22,7.87-4.9,9-3.92.51-6.44-1.16-7.61-4.9l.06-2.31C82.13,226.75,82.18,225.84,82.24,224.93Z"/><path class="cls-2" d="M75.49,247.6c.9-2.75,2.94-4.45,5.39-5.77C81.16,245.69,78.55,246.86,75.49,247.6Z"/><path class="cls-2" d="M82.07,227.66,82,230C80.45,229.15,80.58,228.38,82.07,227.66Z"/><path class="cls-1" d="M73.77,231.42c-1.43.27-2-.32-1.82-1.75A2.19,2.19,0,0,1,73.77,231.42Z"/><path class="cls-5" d="M157,188q.22-3.5.47-7c1.13,0,2.39.24,3.38-.15,4.55-1.81,4.86.87,4.68,4.19.16,2-.21,3.85-2.05,5.08-2.31,1-2.57,5.48-6.46,3.78C157,191.92,157,189.94,157,188Z"/><path class="cls-4" d="M163.37,166c-3,1-2.9-3.61-5.63-3.08-1.7-3.09.68-10.3,4-11.53,1.5-.55,3.42-.7,3.61,1.84.13,1.63.17,3.27.26,4.9a2.92,2.92,0,0,0-.17.83c-2,.7-3.35,1.73-1.93,4.06C163.47,164,163.42,165,163.37,166Z"/><path class="cls-4" d="M165.52,185c.18-3.32-.13-6-4.68-4.19-1,.39-2.25.11-3.38.15-.21-2.29.88-3.2,3.12-3.16s4.51-.09,6.76-.14C170.74,181.12,169.06,183.31,165.52,185Z"/><path class="cls-1" d="M163.51,163c-1.42-2.33-.09-3.36,1.93-4.06l0,2.09Z"/><path class="cls-4" d="M72,169a2.48,2.48,0,0,1,1.81-2.45c2.53,1.05,4.15,2.73,4,5.66-3.58,1.27-3,4.32-3,7.1-4.55-.86-2.73,2.65-3.17,4.61A14.11,14.11,0,0,0,67.87,195c-1.57,1.72-3.82.37-4.82,0-2.09-.83-5-2.61-2-5.84a36.72,36.72,0,0,0,2.83-3.91l1-1.13c.12-.37.23-.75.36-1.12C68.26,178.72,71.79,174.68,72,169Z"/><path class="cls-2" d="M64.83,184.1l-1,1.13Z"/><path class="cls-1" d="M72.57,137c.59,1.49,2.28,2.49,1.92,4.39-1.56-1-4.56-1.19-2.69-4.34Z"/><path class="cls-1" d="M69.75,153.11l-1.11.25.51-2.4Z"/><path class="cls-3" d="M71.53,183.94c.44-2-1.38-5.47,3.17-4.61a.74.74,0,0,0,.38.54c1.66,3.88,4.29,7.49,3.35,12.09-1.69.79-3.76,1.72-3.64-1.35S73.1,185.92,71.53,183.94Z"/><path class="cls-2" d="M87.62,259.71a1.9,1.9,0,0,1,1.94-2.06A1.86,1.86,0,0,1,87.62,259.71Z"/><path class="cls-1" d="M99.55,283.61a1.9,1.9,0,0,1,2.13,1.95A1.92,1.92,0,0,1,99.55,283.61Z"/><path class="cls-4" d="M78.56,162l-4.78.32a3.39,3.39,0,0,1-2.44-2.59c.11-1,.07-2.15,1.18-2.75C76,156.84,79.08,157.27,78.56,162Z"/><path class="cls-2" d="M151.47,166.08c0,.73-.07,1.45-.1,2.18a2.26,2.26,0,0,1-1.86-2.23Z"/><path class="cls-4" d="M107.63,138c-.47,1.95.91,3,2,4.28a2.57,2.57,0,0,0-.14.61c-2.38.25-5.25-.44-5.91,3.08l-2.91.12c-1.4-2.17-1.08-4.58-1-7a2,2,0,0,0,.14-.81c1.18-.37,1.81-1.06,1.4-2.36.8-9.91,0-19.82.19-29.73.09-5.41.91-6,6.14-4,.19.67.38,1.35.58,2C107,115.51,107.6,126.77,107.63,138Z"/><path class="cls-4" d="M101.41,97.22q0-14.41,0-28.83c1.27-.88,2.26-2.92,4.15-1.67s.34,2.78.1,4.33c-.88,5.65-3.21,11.35.19,17,1.7,2.85.56,6.13.83,9.2-1.44,1.33-3.19.76-4.84.79A2.24,2.24,0,0,0,101.41,97.22Z"/><path class="cls-3" d="M107.63,138c0-11.26-.62-22.52.48-33.77,4.21,2.85,2.77,7.31,2.29,10.83-.83,6.1-.34,12,.28,18C110.47,135.24,111,137.86,107.63,138Z"/><path class="cls-3" d="M107,55.47c2.17-.9,3.84-1,3.62,2.15-.09,1.3.08,2.61,0,3.91s.57,3.37-1.52,3.54c-2.26.19-2.36-1.74-2.38-3.44C107.84,59.62,106.46,57.5,107,55.47Z"/><path class="cls-4" d="M107,55.47c-.52,2,.86,4.15-.3,6.16-1.83-.22-3.71-.22-5.33-1.31,0-2,.09-3.91.13-5.87C103.65,52.94,105.34,54.08,107,55.47Z"/><path class="cls-2" d="M101.2,136c.41,1.3-.22,2-1.4,2.36A1.76,1.76,0,0,1,101.2,136Z"/><path class="cls-2" d="M101.41,97.22a2.24,2.24,0,0,1,.39.86,7.89,7.89,0,0,1-.65-.49S101.32,97.35,101.41,97.22Z"/><path class="cls-4" d="M86.43,172.88c-2.28-3.42-5.51-6.34-5.66-10.87,1-2.89,3.47-2,5.44-2,6.07-.09,12.15.66,18.17-.65,2.24,1.19,2.72,2.38-.1,3.34-3.11,1.07-6.43,1.66-8.93,4.06l-1,1.07C91.37,168.92,88.36,170.05,86.43,172.88Z"/><path class="cls-2" d="M95.35,166.75c2.5-2.4,5.82-3,8.93-4.06,2.82-1,2.34-2.15.1-3.34.05-.94.09-1.88.14-2.82l4.14-.29c-2,5.92,2.75,3.19,4.9,3.78l0,3c0,1.7,0,3.39,0,5.09,0,.58,0,1.16,0,1.74L111,170c-2.25-4.55-6.31-3-9.93-2.95Z"/><path class="cls-4" d="M108.66,156.24l-4.14.29c-2.18-.74-6.92.62-3.75-4.53,1-1.79,2.91-1.76,4.56-2.25l2,.39C106.27,152.5,111.18,153.57,108.66,156.24Z"/><path class="cls-3" d="M111,170l2.63-.14c1.86,4.43,1,9,1,13.59-.13,11.44,0,22.88,0,34.33l-4,0-.26-6.74c.47-8.41.89-16.81-.45-25.19Q110.44,178,111,170Z"/><path class="cls-3" d="M120,233.59c-3.28,1.61-6.37,2.35-8.43-1.79,3.74-1.79,1.7-5.26,2.32-8l1.75-3.06h1.83l3.1,1.07c.12,1.36.25,2.73.37,4.09C118.74,228.25,120.26,231,120,233.59Z"/><path class="cls-3" d="M126.69,210c0,1.1,0,2.21-1,3l-2.15-.1,0,0c.11-8-.72-16.11,2-23.91l1.9,3q-.06,7.94-.11,15.86C125.54,208.06,126.22,209.06,126.69,210Z"/><path class="cls-3" d="M108.66,156.24c2.52-2.67-2.39-3.74-1.31-6.1L109.6,149c4.22,2.62,6.2,6.05,4,11C111.41,159.43,106.68,162.16,108.66,156.24Z"/><path class="cls-2" d="M127.46,191.93l-1.9-3c-.06-2-.22-4,2-5.07l2,.07C129.22,186.73,130.91,190,127.46,191.93Z"/><path class="cls-2" d="M115.64,220.78c-.58,1-1.17,2-1.76,3.06-1.76-1.63-3.58-3.23-3.3-6l4,0C115.62,218.54,115.57,219.68,115.64,220.78Z"/><path class="cls-3" d="M109.45,145.79c0-.44,0-.88,0-1.32v-1.55a2.57,2.57,0,0,1,.14-.61c1.57.22,2.48-3.27,4.06-1.15,1.46,2-.29,3.59-2,4.78a23.48,23.48,0,0,1-2.13,1.22Z"/><path class="cls-2" d="M120.57,221.84l-3.1-1.07c.26-1.85,1.84-2.27,3.19-2.94l2.8,1c.05.68.09,1.36.14,2A3.55,3.55,0,0,1,120.57,221.84Z"/><path class="cls-3" d="M123.46,218.81l-2.8-1c.17-2.11-1.14-5.1,2.91-4.94l0,0,.3,3.33C123.72,217.06,123.59,217.94,123.46,218.81Z"/><path class="cls-3" d="M113.58,168.15c0-1.7,0-3.39,0-5.09C118.19,164.78,116.47,166.47,113.58,168.15Z"/><path class="cls-2" d="M109.45,145.79l.12,1.37,0,1.87-2.25,1.11-2-.39A5.53,5.53,0,0,1,109.45,145.79Z"/><path class="cls-2" d="M126.58,179.92l3.43-.13c0,.79,0,1.57-.06,2.35l-2.42-.12A2.21,2.21,0,0,1,126.58,179.92Z"/><path class="cls-3" d="M127.53,182l2.42.12a1.49,1.49,0,0,1-.4,1.84l-2-.07Z"/><path class="cls-2" d="M133.61,143a7.49,7.49,0,0,1-.51-.61s.21-.21.32-.32A2.71,2.71,0,0,1,133.61,143Z"/><path class="cls-3" d="M107.37,253.82c.08,1,.15,1.93.23,2.9-1.6,1.28-.36,4.91-3.4,4.71-2.51-.16-3.6-1.63-1.32-3.89a7.42,7.42,0,0,0,1.68-2.34C105.13,253.82,106.18,253.75,107.37,253.82Z"/><path class="cls-3" d="M118.31,264.69c1.31.06,2.25.58,2,2.05a1.75,1.75,0,0,1-2.08,1.53c-1.07-.23-2.35-.6-2.34-2C115.86,264.67,117.21,264.79,118.31,264.69Z"/><path class="cls-1" d="M119.62,273.4l-6,0C115.62,270.86,117.63,268.51,119.62,273.4Z"/><path class="cls-4" d="M108.53,257.72a6,6,0,0,1,.39.7c0,.05-.22.19-.33.29A2.36,2.36,0,0,1,108.53,257.72Z"/><path class="cls-2" d="M136.47,215.8c-1.49,0-1.95,1.47-3,2.08-2.45-2.58-3-5.69-3-9.14.08-5.8,2-11.23,3-16.84,1.73,1.42.26,3.8,1.64,5.4,2.21-.29,1-2.31,1.7-3.36,2.22.79,1.95,2.72,1.34,4.12A30,30,0,0,0,136.47,215.8Z"/><path class="cls-5" d="M120.57,221.84a3.55,3.55,0,0,0,3-1,15.77,15.77,0,0,0,2.6-1.39c3.35-2.63,4.08-.09,4.16,2.34.09,2.58-.58,5.17-.88,7.77a2.15,2.15,0,0,1-2.18,2.18c-1.72.13-3.19,0-4.19-1.81-.74-1.33.13-3.55-2.17-4C120.82,224.57,120.69,223.2,120.57,221.84Z"/><path class="cls-2" d="M123.84,216.19l-.3-3.33,2.15.1C125.67,214.38,125.48,215.69,123.84,216.19Z"/><path class="cls-2" d="M126.69,210c-.47-.94-1.15-1.94.66-2.21A1.84,1.84,0,0,1,126.69,210Z"/><path class="cls-4" d="M110.58,217.85c-.28,2.76,1.54,4.36,3.3,6-.61,2.7,1.43,6.17-2.31,8a2,2,0,0,0-.91-.11c-2.39-3.13-5.24-1.95-8.07-.85l-.44-.09-.46,0c-.14-2.61-.29-5.22-.43-7.83l1.36-1.22c.87,0,2,.34,2.33-.81.21-.69-.49-1-1.09-1.15l-.19.06.24-37.79.59-2.06c1.29-1.68,1.74-3.16-1-3.87l-2.71-3.27c.08-1.91.15-3.83.23-5.75,3.62-.07,7.68-1.6,9.93,2.95q-.56,8-1.13,15.89a3.18,3.18,0,0,0-2.19,3c-.45,7,1.16,13.94,1.3,20.94,0,.44.87.87,1.34,1.3Z"/><path class="cls-3" d="M101.25,222.94q.23,3.92.44,7.83c-1.37,1-1.87,3.1-4,3.11-.78-.21-2.17-.71-1.6-1.34,2.32-2.59-.22-4.54-.54-6.76C95.79,221.53,98.3,221.78,101.25,222.94Z"/><path class="cls-1" d="M102.59,230.84c2.83-1.1,5.68-2.28,8.07.85C108,231.53,105.11,232.7,102.59,230.84Z"/><path class="cls-2" d="M147.58,192.8a1.79,1.79,0,0,1,1.77-1.85C149.41,192.19,148.84,192.82,147.58,192.8Z"/><path class="cls-2" d="M104.5,180c-.2.68-.39,1.37-.59,2.06-2.28-.35-2.12,2-3.28,2.93-2.13-3.19-2.72-7-3.94-10.49-.37-1.08-.54-2.84-2-1.72-2.69,2-7.11,2.56-7.14,7.25-2.58.64-1.85,2.76-1.92,4.44-.2,4.6-.29,9.2-.43,13.8-2.12-1.11-1.73-3.2-1.48-4.85.82-5.27-1.49-10-2.24-15-.32-2.13-1.53-3-3.24-.8a5.13,5.13,0,0,1-3.14,2.28.72.72,0,0,1-.39-.54c0-2.78-.53-5.83,3-7.1,1.19,2,3.37,2.74,5.34,3.29,1.64.46,4.39.94,3.35-2.64,1.92-2.83,4.93-4,8-5.06,1.66,1.66,4,2.54,4.45,5.5.21,1.53,1.22-.58,2-.49l2.71,3.27C103.68,177.43,103.3,178.89,104.5,180Z"/><path class="cls-3" d="M91.47,220.94l-.18-2.74c.38-1.62.55-3.12-1.79-3.24h0c.15-1.42.07-2.73-1.64-3.2,0-.61-.07-1.22-.1-1.84.1-.11.31-.25.29-.33a4.21,4.21,0,0,0-.34-.75l-.21-3.78c0-1.05.07-2.09.1-3.14a4.72,4.72,0,0,1,3.69,4.1c.6,4.9,3.14,9.13,4.24,13.83A6.93,6.93,0,0,1,91.47,220.94Z"/><path class="cls-3" d="M85.19,198.24c.14-4.6.23-9.2.43-13.8.07-1.68-.66-3.8,1.92-4.45a41.93,41.93,0,0,1,.09,20l-2.28.12Z"/><path class="cls-2" d="M91.47,220.94a6.93,6.93,0,0,0,4.06-1.09,4.27,4.27,0,0,0,5.16-3c1.11.89.83,3.14,3,3l.18-.06-1.23,2-1.36,1.22c-3-1.16-5.47-1.41-5.72,2.84l-1,.14Q93,223.43,91.47,220.94Z"/><path class="cls-2" d="M85.35,200.12l2.28-.12,0,1.92c0,1.05-.07,2.09-.1,3.14C84.73,204.3,85.66,202,85.35,200.12Z"/><path class="cls-2" d="M89.5,215c2.34.12,2.17,1.62,1.79,3.24C89.79,217.62,89.46,216.39,89.5,215Z"/><path class="cls-2" d="M87.86,211.76c1.71.47,1.79,1.78,1.64,3.2C87.54,214.62,87.51,213.29,87.86,211.76Z"/><path class="cls-2" d="M87.71,208.84a4.21,4.21,0,0,1,.34.75c0,.08-.19.22-.29.33C87.75,209.56,87.73,209.2,87.71,208.84Z"/><path class="cls-2" d="M109.46,142.92v1.55L103.55,146C104.21,142.48,107.08,143.17,109.46,142.92Z"/><path class="cls-1" d="M110.32,211.11c-.47-.43-1.34-.86-1.34-1.3-.14-7-1.75-13.91-1.3-20.94a3.18,3.18,0,0,1,2.19-3C111.21,194.3,110.79,202.7,110.32,211.11Z"/><path class="cls-3" d="M103.67,219.82c-2.15.16-1.87-2.09-3-3L100.63,185c1.16-.91,1-3.28,3.28-2.93Z"/><path class="cls-1" d="M104.5,180c-1.2-1.08-.82-2.54-1-3.87C106.24,176.81,105.79,178.29,104.5,180Z"/><path class="cls-1" d="M102.62,221.72l1.23-2c.61.16,1.31.46,1.1,1.15C104.59,222.06,103.49,221.69,102.62,221.72Z"/><path class="cls-1" d="M100.63,185l.06,31.88a4.27,4.27,0,0,1-5.16,3c-1.1-4.7-3.64-8.93-4.24-13.83a4.72,4.72,0,0,0-3.69-4.1l0-1.92a41.93,41.93,0,0,0-.09-20c0-4.68,4.45-5.2,7.14-7.24,1.47-1.12,1.64.64,2,1.72C97.91,178,98.5,181.77,100.63,185Z"/></svg>