<svg id="圖層_1" data-name="圖層 1" xmlns="http://www.w3.org/2000/svg" viewBox="0 0 302.92 215.33"><defs><style>.cls-1{fill:#b8b7b6;}.cls-2{fill:#090909;}.cls-3{fill:#525150;}.cls-4{fill:#898888;}.cls-5{fill:#c11e21;}.cls-6{fill:#ebb0aa;}.cls-7{fill:#dc6b66;}.cls-8{fill:#a1413b;}</style></defs><title>VS</title><path class="cls-1" d="M85.42,193.92c-2.28,2.66-5.57,0-8.07,1.53l-2.86-1.4a8.3,8.3,0,0,1-.14-.87c0-.35,0-.7.05-1.05,1.8.06,1.38-.95,1-2,1.24-.06,2.08-.52,2-1.94l3-.11,2.11-1c1.42,1.92,2.51-2.1,4.06-.05-.83.72-4.09.56-1.29,2.9C86.53,191.05,85.58,192.58,85.42,193.92Zm-.63-.4a20.23,20.23,0,0,1-3-1.85c-1.16-1.19-2.88-2.79-3,.08C78.67,193.61,81.45,193.77,84.79,193.52Z"/><path class="cls-1" d="M71.62,192.24c.09,2.26-.77,3.49-3.24,3L67.43,194v-1.87l3.8-.09Z"/><path class="cls-2" d="M85.42,193.92c.16-1.34,1.11-2.87-.2-4-2.8-2.34.46-2.18,1.29-2.9-1.55-2.05-2.64,2-4.06.05-.62-1.84-2-.87-3.1-.82a3.67,3.67,0,0,0-.92-.3l.06-2.75,0,0c3.42-1.67,7.51-.59,10.83-2.66,1.18.12,2.6,1.13,3.15-1,.17-.66.9-1.91,1.5-1.07,2.51,3.49,4.32.21,6.4-.42l.5.06.49-.06,1.52,1.77c1-3.34,4.86-2.15,6.62-4.27l.84-.25c1-.33,2.3.22,2.85-1.16a.56.56,0,0,0,.33-.65l.35,0h.35c.24.47.83.6,1,.2.29-1,.63-2.1-.79-2.62a3.57,3.57,0,0,1,.09-.8,125.54,125.54,0,0,1,22.74-4.33c2.21-.21,3.07-1.61,3.25-3.62,5.86,0,10.49-3.54,15.69-5.42l1.09-.65h0c3,.65,5.65-1.59,8.64-1.13,3.6.55,6.12-1.09,8.07-3.92,8-3.59,15.74-7.59,19.76-15.85,1.75-3.58,4.42-4.44,7.78-5.28,4.8-1.22,10-1.78,11.11-8.62a13.52,13.52,0,0,1,5.05-7.72,6.86,6.86,0,0,0,2-8c-1.06-2.47-4.2-1.6-6.59-1.23L203,106.6c-4.61.35-9.31-1-13.85.66a1.73,1.73,0,0,0-2.09-.36,12.19,12.19,0,0,0-6.05.48c-4.26.37-8.43-3.72-12.76-.25-.09.07-.53-.3-.81-.47-3.64-2.4-7.43-4.61-10.2-8.1-3.82-2.39-3.77-7-5.84-10.34.53-4.59-1.64-9.53,1.81-13.74a15.93,15.93,0,0,0,3-2.38C162.47,64,169.86,57,176.88,49.59a2.46,2.46,0,0,0,1.51-1.8,141.05,141.05,0,0,0,18.45-18l1.44-1.93c4.8-5.18,10.75-9.7,10.43-17.86l9.35-3.51a1.57,1.57,0,0,0,2,0L221.31,6,224,5.82l1.06.8.11.13A55.53,55.53,0,0,1,233.7,13c5.38,4.59,6.74,11.66,11.06,16.84.2,1.78.31,3.58.61,5.35,1,6.11-2.2,10.63-8.39,11.64-1.38-.12-2.55-1.08-4.18-.37-5.2,2.26-10.51,4.27-15.78,6.38-5.94,3.77-12,7.34-17.08,12.31l-.07,0-2.73.82c-2.56,3.9-4.67-.74-7-.38l.14-.33c-.23-.72-.43-1.7-1.45-1.17s-.4,1.29,0,1.94l-1.36.89c-.37-.84.2-2.26-.9-2.52s-1.53.89-1.79,1.86c-.29.3-.62.63-.09,1,.09,0,.42-.27.65-.42l2.11.2-1.52,1.51a8.83,8.83,0,0,1-2.69,1c-3.28.07-4.33,1.29-4.07,5.11,1.56,4,5.61,1.12,8,2.9l8.68,1.21c7.34,1.39,15,.31,22.19,2.87,6.18,2.71,12.36,5.42,19,7,1.89,1.06,3.94,1.76,6,.88,3.17-1.33,5.59.29,7.38,2.25,1.66,1.81,3.73,3.08,5.32,4.91l1.57,2.92.67.92c.95,3.54,4.49,5.52,5.48,9,1.12,1.71.56,3.78.12,5.24-1.63,5.36-2.15,10.93-8.7,14.14-6.13,3-11.94,7.07-17.8,10.82-4,3.2-8.63,5.55-11.82,9.7l-.13.11-1,.84a57.6,57.6,0,0,1-13.95,18.93L208,171.55c-.59-.18-.88-.06-.61.61l-.34,1.11-1,.91c-2.46,0-3.06,3.75-5.93,2.89l-1.78-1c-.33-.76-.86-.88-1.55-.47h-.08c-1.59.81-3.16,1.65-4.76,2.42a65,65,0,0,0-15.72,11.14l-1.26.69-1,.21c-2.44.71-4.27.36-6.78-1a7.71,7.71,0,0,0-10,2.22c-5-.64-10,1.8-14.9-.22-3.63-2-7.34-1.07-11.06-.36a10.07,10.07,0,0,1-4.88.09l-1.15-.57c-1-.32-2,1-3,.09-.16-4.6-4.14-2.23-6.87-4.75,1,2.85,2.38,4,2,5.72h0c-3-.23-1.83,1.35-1.19,2.71l-.92.52c-.61-.23-.9.08-1.05.63l-1,.45-.84.61c-3.12,1.78-6.54,2.07-10,1.91l-1.07-.52-1-.45C95.71,194.46,91.06,191.87,85.42,193.92ZM192.71,64.38c1.66.2,2.74-.18,3.2-2.11C194.33,62.5,193.14,62.7,192.71,64.38ZM113,191.06l.79-.43c-.25-.15-.52-.45-.73-.41s-.6.35-.89.54Z"/><path class="cls-3" d="M116.21,193.94c-.64-1.36-1.77-2.94,1.19-2.71l-.15,2.76Z"/><path class="cls-3" d="M117.37,191.24c.36-1.7-1-2.87-2-5.72,2.73,2.52,6.71.15,6.87,4.75C120.59,190.57,119.3,192.5,117.37,191.24Z"/><path class="cls-3" d="M131.21,190.66c3.72-.71,7.43-1.64,11.06.36a9.82,9.82,0,0,0-5,.17Z"/><path class="cls-3" d="M125.18,190.18l1.15.57Z"/><path class="cls-1" d="M71.31,186.15l-.21,3L68.66,189c-1.51-.57-1.43-1.78-1.24-3a6.55,6.55,0,0,0,.89,0l1.33-.19a1.08,1.08,0,0,1,.64.08Z"/><path class="cls-3" d="M70.61,190.23c1,.3.77,1.06.62,1.77l-3.8.09a2.89,2.89,0,0,1,.07-.83Z"/><path class="cls-1" d="M70.61,190.23l-3.11,1c.3-.38.61-.75.92-1.13Z"/><path class="cls-4" d="M77.32,188.22c.12,1.42-.72,1.88-2,1.94l-.24.08c-.12-.41-.25-.82-.37-1.23a.41.41,0,0,0,.45-.21l2.16-.64Z"/><path class="cls-1" d="M157.18,156.25c0-2.36,1.6-3.06,3.59-3,2.23.06,3.39-.81,3.31-3.1l3.31.07c.16.6.34.83.61,0l1-.77c.77,3.08,3.26,1.18,4.91,1.71-1.95,2.83-4.47,4.47-8.07,3.92C162.83,154.66,160.2,156.9,157.18,156.25Z"/><path class="cls-1" d="M101.31,178.07l-.12-2.61c1-2.63-1.21-.64-1.69-1.14-.08-.35-.16-.69-.25-1,1.75-.66,4.81,1.4,5-2.42.58-2.42,2.41-1.71,4-1.61.92,2-1.55,4.63,1.14,6.32-1.76,2.12-5.66.93-6.62,4.27Z"/><path class="cls-3" d="M185.92,68.52c-3.07.12,4.18,5.23-1.89,3.89-.53-.84-.73-.39-.9.22-.83,1.64-2.33,1.94-4,2-.26-3.82.79-5,4.07-5.11A8.83,8.83,0,0,0,185.92,68.52Z"/><path class="cls-4" d="M213.05,104.45c-1.24,3.65-7.46,5-10.09,2.15Z"/><path class="cls-1" d="M113.47,173.51c-.69-1.6-3.75-1.27-3.17-3.9l1.9-.28,2.22.94a3.57,3.57,0,0,0-.09.8c0,.81-.11,1.62-.16,2.42h-.35Z"/><path class="cls-3" d="M192.71,64.38c.43-1.68,1.62-1.88,3.2-2.11C195.45,64.2,194.37,64.58,192.71,64.38Z"/><path class="cls-3" d="M187.46,66.93l0,.07-2.11-.19-.56-.55c.26-1,.73-2.09,1.79-1.85S187.09,66.09,187.46,66.93Z"/><path class="cls-3" d="M190.24,65.27l-1.42.77c-.43-.65-1-1.45,0-1.94S190,64.55,190.24,65.27Z"/><path class="cls-1" d="M110.29,175.32c.55-1.36,1.73-1.19,2.85-1.16C112.59,175.54,111.26,175,110.29,175.32Z"/><path class="cls-3" d="M113,191.06l-.83-.3c.29-.19.57-.49.89-.54s.48.26.73.41Z"/><path class="cls-1" d="M156.1,156.9a.76.76,0,0,1,1.09-.65Z"/><path class="cls-3" d="M185.33,66.81c-.23.15-.56.47-.65.42-.53-.33-.2-.66.09-1C185,66.44,185.15,66.63,185.33,66.81Z"/><path class="cls-5" d="M113.38,49.76c.53-1.78,2.37.41,3-1l1.84,1.12c-.91,2.51,3.44.69,2.84,3.79s2.4,2.28,4,1.57c3.34-1.5,4.73-4.82,6.4-7.8s.68-4.65-2.78-4.64c-1.6,0-2-1.07-2.33-2-.83-2.31-1.44-4.71,0-7.07,3.94-1.4,6.27-4.39,8-8,.74-.08,1.65.31,2-.74,4.38-1.08,7.31,3.72,11.64,2.89a24,24,0,0,0,9.17,7c3.23,4.43,6.43,8.88,6.26,14.75-1.05,3.17-1.44,6.36-5.37,8.12-2.32,1-4.19,4.14-5.22,6.73-1.49,3.74-5.67,3.22-7.67,5.83-1.14,1.84-3.6,1-4.94,2.38a.64.64,0,0,0-.85,0,1.5,1.5,0,0,0-1-.07c-1.12-.34-2-1.3-3.36.19-1.63,1.79-3.9,3-5.9,4.46L122.37,91.7l-2.08-.11c-.16-1.32,0-2.83-1.86-3.14,3.81-3.67,2.52-9.54,5.9-13.51,1.21-1.44-.58-2.71-2-3.19-2-.67-2.15,1-2.24,2.25a28.18,28.18,0,0,1-3.25,10.2c-1.09,2.24-3.06,6.21-3.56,6.38-7.9,2.6-6.4,9.71-8.55,14.65,1.83,2,2.06-3.58,3.68.19,0,.66,0,1.32.08,2-.74,5.38-3,10.47-3.17,16a2,2,0,0,0-1.07,1.86c-2.72,1.77-6.84,2.75-6.33,6.85.35,2.87-.62,5-1.51,7.41-.82.53-1.53,1.06.07,1.48l.33.17c-.54,1.66-2,3.15-1,5.11a.51.51,0,0,0-.28.59c-1.33.68-1.91,2.17-2.77,3.19-1.67,2-4.67,3.8-3.23,7.29a25.79,25.79,0,0,0-2.34,4.24c-1.27,3.66-3.49,6.39-8.15,4.59-2.11-.81-4.54.32-6.66-.8-5.13-1.65-9.59-4.63-14.3-7.1l-5-4.91c-3.88-2.23-7.37-6.16-7.33-9.78.11-9.05-6-15.34-8.37-23.17.68-1.63,1.34-3.26.12-4.94q-.51-4.53-1-9.06c-1.85-5.92-2.48-12.17-5-17.91-.7-6.15-2.69-12-4.35-17.89-.68-7.21-5.42-10.74-11.7-12.87-1.24-2.77-3.94-4.76-4.28-8-.65-2.26-.11-3.69,2.4-4.38a73.43,73.43,0,0,0,6.92-2.64l1.05-.34a2.1,2.1,0,0,0,2.11-.48c4.58-.26,9.17-1.23,13.76,0l19.88,5.81a4.57,4.57,0,0,0,3.08,2l5,5,0,25.48c1.07,2.47-1.78,4.88-.13,7.36l.19,1.94c-2.85,1.15-3.9,3.76-5.07,6.26-2.14-.35-2.77,1-3.07,2.73-1.43,1.47-2.5,3.42-1.72,5.22,1.72,4,1.47,8.31,3,12.23,1.49.52,2.15-2.52,4.22-.65,1.75,1.58,2.77-.33,3.46-1.87l12.81-18c2.8-3.27,4.32-7.26,6.26-11,5.25-3.77,7.34-9.82,10.75-14.91l1.31-1.71a47.13,47.13,0,0,0,13-14.11A7.29,7.29,0,0,0,113.38,49.76ZM129,63.45c-2.45,1.77-4.76,2.73-3.62,7.25.87,3.49,2.76.91,3.91,2.25-2.8-1.47-1-2.9-.86-4.47.19-1.94,2.48-2.79,1.92-4.82,1.08-.36.93,2.28,2,1.07,2.13-2.52,2.09-5.83,2.23-8.91,0-.85-1.1-1.36-2.15-.25C130.24,57.81,128.26,60,129,63.45Z"/><path class="cls-6" d="M97.47,149.35c-.06.29-.12.59-.19.89-2,.35-3.57,1-4.3,3.31-.52,1.59-1.39,3.34-3.44,3.76C88.1,153.82,91.1,152,92.77,150c.86-1,1.44-2.51,2.77-3.19a1.5,1.5,0,0,0,1.72,1.52Z"/><path class="cls-4" d="M97.32,169.08l7,1.78c-.24,3.82-3.3,1.76-5,2.42l-.43,0-.43.06-1.12,0C94.45,171.89,98.41,170.52,97.32,169.08Z"/><path class="cls-4" d="M99.5,174.32c.48.5,2.66-1.49,1.69,1.14C100.59,175.14,99.69,175.25,99.5,174.32Z"/><path class="cls-2" d="M183.13,72.63c.17-.61.37-1.06.9-.22A1.37,1.37,0,0,1,183.13,72.63Z"/><path class="cls-1" d="M108.91,168.08c-.22-.77.23-1.05.88-1.19,0,.4,0,.8.07,1.2h-.48Z"/><path class="cls-6" d="M119.32,96.55c-.15,1.85-.41,3.64-2.19,4.73-2.47.15-5.18-.44-5.37,3.62-.08,1.73-2.22.25-3.37.52-1.62-3.77-1.85,1.86-3.68-.19,2.15-4.94.65-12,8.55-14.65.5-.17,2.47-4.14,3.56-6.38A28.18,28.18,0,0,0,120.07,74c.09-1.29.24-2.92,2.24-2.25,1.44.48,3.23,1.75,2,3.19-3.38,4-2.09,9.84-5.9,13.51-1.47.63-1.2,1.87-1.07,3.06l0,2C116.91,95.22,117.6,96.22,119.32,96.55Z"/><path class="cls-6" d="M125.19,31.93a1.93,1.93,0,0,0,1.1,1.79c-1.4,2.36-.79,4.76,0,7.07.33.94.73,2,2.33,2,3.46,0,4.42,1.71,2.78,4.64s-3.06,6.3-6.4,7.8c-1.56.71-4.54,1.41-4-1.57s-3.75-1.28-2.84-3.79q.54-2.61,1.06-5.22l0,0c2.54-.08,2.1-2,2.1-3.52C121.38,37.54,123.27,34.74,125.19,31.93Z"/><path class="cls-6" d="M60.41,105.37c1.25,1.5,3.09,2.4,2.18,5.23s1.52,3.12,3.74,2.81c-.69,1.54-1.71,3.45-3.46,1.87-2.07-1.87-2.73,1.17-4.22.65-1.54-3.92-1.29-8.28-3-12.23-.78-1.8.29-3.75,1.72-5.22,1.59,1.61,1,3.64,1.09,5.54C58.51,105.39,58.79,106.3,60.41,105.37Z"/><path class="cls-6" d="M129,63.45c-.71-3.42,1.27-5.64,3.39-7.88,1-1.11,2.18-.6,2.15.25-.14,3.08-.1,6.39-2.23,8.91-1,1.21-.88-1.43-2-1.07Z"/><path class="cls-6" d="M97.58,64.89c1.86-.69,3.57-1.43,4.46-3.49a14,14,0,0,1,8.43-7.7,47.13,47.13,0,0,1-13,14.11Z"/><path class="cls-7" d="M138.35,72.68c-2.63,6.35-2.75,6.41-9.25,4.65,2-1.46,4.26-2.67,5.89-4.46C136.35,71.38,137.23,72.34,138.35,72.68Z"/><path class="cls-7" d="M129,63.45l1.35.21c.56,2-1.73,2.88-1.92,4.82-.16,1.57-1.94,3,.86,4.47-1.15-1.34-3,1.24-3.91-2.25C124.21,66.18,126.52,65.22,129,63.45Z"/><path class="cls-8" d="M65.41,54.71a2.16,2.16,0,0,1,1.14,2c-.56,7.79.75,15.62-.46,23.4v.05a1.2,1.2,0,0,0-.65,0Z"/><path class="cls-8" d="M60.41,105.37c-1.62.93-1.9,0-2-1.35-.08-1.9.5-3.93-1.09-5.54.3-1.71.93-3.08,3.07-2.73A33.7,33.7,0,0,1,60.41,105.37Z"/><path class="cls-7" d="M117.36,91.5c-.13-1.18-.4-2.42,1.07-3,1.87.31,1.7,1.82,1.86,3.14l0-.07Z"/><path class="cls-6" d="M122.37,91.7c.06.62.11,1.24.17,1.87l-1.13.73c-.87.14-1.68.09-2.13-.84l1.06-1.94,0,.07Z"/><path class="cls-6" d="M96.79,141.13c2.08,2.16-1.1,3.33-1,5.12C94.76,144.28,96.25,142.79,96.79,141.13Z"/><path class="cls-6" d="M96.39,139.48c0,.49,0,1,.07,1.48C94.86,140.54,95.57,140,96.39,139.48Z"/><path class="cls-6" d="M119.3,44.66l-.35-.2.32.22Z"/><path class="cls-7" d="M119.28,93.46c.45.93,1.26,1,2.13.84.12,1.52-1,1.9-2.09,2.25-1.72-.33-2.41-1.33-2-3.06Z"/><path class="cls-5" d="M119.28,93.46l-2,0,0-2h3Z"/></svg>