<svg id="圖層_2" data-name="圖層 2" xmlns="http://www.w3.org/2000/svg" viewBox="0 0 256.72 246.64"><defs><style>.cls-1{opacity:0.2;}.cls-2{fill:#efefef;}.cls-3{fill:none;stroke:#efefef;stroke-linecap:round;stroke-miterlimit:10;stroke-width:2px;}.cls-4{fill:#727171;}.cls-5{fill:#232424;}.cls-6{fill:#c0c0bf;}.cls-7{fill:#151717;}.cls-8{fill:#090808;}</style></defs><title>藍紅_右</title><g class="cls-1"><path class="cls-2" d="M77.57,994.39a23.31,23.31,0,0,1-18.21-37.85L630,241.76a23.31,23.31,0,0,1,36.44,29.09L95.8,985.63A23.31,23.31,0,0,1,77.57,994.39Z"/></g><g class="cls-1"><path class="cls-2" d="M240.61,517.31c8-11.25,15.52-22.64,22.39-34,16.24-21.15,31.31-42,42-63.09,4.53-9.4,12.41-21,19.94-32.88s14.65-24.1,17.38-35a60.34,60.34,0,0,0-4.23,4.68,69.65,69.65,0,0,0,3.1-8.31c9.78-13.67,19.78-27,30.27-40S393,283,404.69,270.43c3.46-3.74,4.9-7.48,8.44-11.15s7-7.46,10.47-11.15c-.07-.08-.2-.1-.38-.06,3.57-3.85,7.19-7.62,10.77-11.43s7.22-7.56,10.92-11.3c7.33-7.54,14.86-15,22.78-22.57,7.58-6.94,15.82-13.35,24-19.83,3.09-2.4,3.79-1.83,6-3.34,8.94-5.83,15.4-10.41,24.67-17.61l.22.18c1.35-1.16,2.62-2.15,3.66-3-1.88,2-5.21,5.53-6.61,7.39s-.85,2,4.65-3h0l-1.5,1.68-.18.18h0a36.42,36.42,0,0,0-4.59,6.11c1.5-1.65,3-3.29,4.52-4.94-.16.41-.22.71.06.64l-.32.5-1.2,1.37a3.32,3.32,0,0,0-.25.73c-3.39,4.76-8.8,12.19-7.1,11.3,1.14-.83,3.47-4.42,6.33-8.33.23-.19.47-.43.71-.67-1.91,2.54-1.69,2.71-1.3,2.62s1-.45-.11,1.14c-3,4.1-5.86,8.32-8.86,12.43C498.25,205,488,219.11,476.74,236.17l-1.49,2.24c-5.49,8.23-10.94,15.78-17,23.26.12-.69.29-1.38.47-2.08a182.27,182.27,0,0,0-13.89,18.74c-10.16,16.47-20,33-32,49.43-12.73,17.09-24.51,33.93-36.59,52,4.53-7.69,9.16-15.3,14.48-22.65,2.58-3.15,5.14-6.29,7.47-9.46-2.66,3.09-5.14,6.24-7.47,9.46-9.93,12.1-20.6,24.15-24,36.92-1.21.7-1.66.34-2.47,1.31-5.65,6.87-11.8,13.33-14.92,20.6.45.37-2,3.27-.32,3-2.26,3.08-4.84,6.3-7.37,9.57s-5,6.54-7.12,9.76a40.87,40.87,0,0,0-4.48,9.09c-8,11.08-16.17,21.89-24.87,32.63S287.21,501.38,277,512c-5.17,5.2-11.54,10.88-17.25,15.76,7.49-7.92,15-16.24,22.44-24.87,8.22-7.54,15.85-15,20-22.81,1.05-1.75,2.11-3.48,3.19-5.21-7.61,9.6-15.39,19-23.18,28l-7.4,6.69c-2.5,2.22-5,4.47-7.38,6.73l.22-.32c3.39-3.87,6.82-7.75,10.18-11.74,7.27-6.74,14-13.42,18.36-20.32.54-.86,1.06-1.72,1.51-2.59,1-1.75,2.1-3.5,3.17-5.23q-7,8.91-14.14,17.55c-3,3.56-5.91,7.11-8.9,10.59q-3.19,3-6.49,6c.15-.27.31-.56.43-.83a11.21,11.21,0,0,0,1.57-5.56c.06-2-.57-3.61-2.35-2.61-6.7,7.16-14.5,16-20.85,22.8-3.15,3.43-6,6.37-7.94,8.46l-2.38,2.41a4.47,4.47,0,0,1-.91.83c-.44,0,.67-1.44,2.53-3.72s4.45-5.38,7-8.48c5.15-6.2,10.2-12.49,9.63-12.14-1.42,1.27-2.81,2.57-4.18,3.87,1-1.49,1.95-3,2.76-4.37,2.29-3,6-6.58,7.1-9A78.34,78.34,0,0,1,271.6,490a118.39,118.39,0,0,0,8.73-12.34c3.06-5.71,6.45-12.75,9.71-19.91-.77-.63,2-3.28.44-2.92,4.5-5.59,9.74-12,9.26-16.36l.26-.46a7.56,7.56,0,0,0,.91-1.82c7.86-9,10.71-17.39,15.71-27.26,2.08-3.1,4.28-6.18,6.69-9.24-1.58,2-4.38,4.63-5.52,7L316.62,409c-5.39,8-9.93,16.18-14.71,24.1-.22.79-.58,2-1,3.16-.43.5-.87,1-1.33,1.49a5.53,5.53,0,0,1,.16.79c-4.29,7.81-10.09,15.88-13.67,22.6-7.59,12-17.78,23.07-27,34.09q6-9,11.45-17.91L256.72,498l-2.31,2.86-4.82,5.91q2.43-2.61,4.78-5.22l-7.87,11.66c-7.54,10.28-15.6,20.4-24,30.3s-17.15,19.56-25.86,29.09l1-1.43c8.11-9.42,16.35-18.73,22-27.28-4.54,5.55-7.46,9.57-11.89,14.89-.06-.06-.19-.08.14-.56-2.7,3.52-5.93,7.56-9.17,11.4.89-1.35,1.86-2.88,2.78-4.46,1.41-2.13,3.73-5.15,6-8.26l14.51-19.42c4.78-6.4,9.52-12.78,14.15-19.48,8.86-11.43,17.82-22.76,26.46-34C254.75,495.89,247.61,506.78,240.61,517.31Zm264-334.69c-.85,1-1.71,2-2.56,3.07l.54-.34a13.18,13.18,0,0,0,2-2.73Zm-21,21.27c6.44-6,13.87-14.77,21.59-22.8a.25.25,0,0,0,0-.17C498.34,187.36,490.67,195.89,483.65,203.89Zm-30.37,20.24.25-.06-.15-.1ZM363.55,350.64c4.14-9.73,12.21-19.54,19.43-30,2.44-2.93,3.12-7.27,6.39-11.16,3.66-5.22,5.29-8.8,8.16-13l-3.34,2.2c6.2-6.43,7-12.28,13.77-18.27-.41-.33-.39-2,.46-2.89,3.84-5.07,8.91-9.15,11.56-13.54,3.89-5,8.25-9.65,11-14,.88-.93,1.54-3.65,3-5.77,2-2.36,4.1-4.67,6.2-7h-.54A52.59,52.59,0,0,0,434.5,243c-4.65,6-10,13.15-14.8,19.07-12.2,14.64-22.34,29.34-32.13,44.29-2,3.25-3.61,6.88-5.62,10.15-2.79,5.1-6.51,10.27-9.76,15.19s-6,9.67-6.79,13.91C365,346.94,363.5,348.89,363.55,350.64Zm10.82,27a203.74,203.74,0,0,1,23.13-33.85,126.09,126.09,0,0,0,12.18-19.56c3.58-7.31,5.41-13.59,1.25-13.69.74,8.7-12.16,25.27-23.53,39.65s-21,26.7-13,27.48Zm-61,87a114.78,114.78,0,0,1,9.94-13.2q-4.89,6.68-9.92,13.2Zm18.08-55c-7.35,15.28-18.28,29.31-27.36,43.21-3.53,5.32-8.06,10.23-12.31,15.16s-8.21,9.9-10.76,15.19l1,.86.49-1.24c3.17-3.17,6.16-5.37,9-7.92l-.34.57.69-.89a34.64,34.64,0,0,0,5.32-6.08L299.4,465c9.8-12.49,19.85-25.44,26.35-38.68,4.41-7.87,7-15.55,11.31-23.53-1.56,2-4.42,4.59-5.56,6.92Z"/></g><line class="cls-3" x1="372.76" y1="226.11" x2="-62.6" y2="763.77"/><line class="cls-3" x1="595.87" y1="232.99" x2="160.51" y2="770.65"/><path class="cls-4" d="M194.94,221.61c-8.76-.08-18.15-.12-30.44-.12H103.8c-11.89,0-21,0-29.52.07h-.22a22.7,22.7,0,0,1-15.35-5.22c-6.27-5.28-13.21-10.82-21.83-17.46-6.64-5.11-8.27-12.38-4.36-19.45,3-5.37,2.43-8.36-2.34-12.78a75.64,75.64,0,0,1-9.69-11.51c-1.48-2-2.87-3.91-4.31-5.63a14,14,0,0,1-1.59-16.45c15.2-28.4,30.25-56.61,44.73-83.84A19.49,19.49,0,0,1,66.9,41.6c1.72-1,3.44-2,5.1-2.89a73.36,73.36,0,0,0,10.27-6.44,32.32,32.32,0,0,1,21-7.25,54.13,54.13,0,0,1,10,1.05c7.45,1.42,15.47,2.63,23.84,3.61a19.41,19.41,0,0,1,12,5.75c1.75,1.76,3.52,3.5,5.29,5.23,3.57,3.51,7.27,7.15,10.8,11C170.37,57.29,177,61.55,184,66.05c2.63,1.69,5.35,3.44,8,5.29,4.73,3.25,9.69,6.48,14.48,9.6,4.47,2.92,9.1,5.93,13.63,9a18.5,18.5,0,0,1,7.58,10.3c4.44,15.3,9.15,30.83,13.71,45.84l1.85,6.09c1.63,5.36.78,10.39-2.6,15.39-10.42,15.37-20.77,31.12-30.42,45.86a17.1,17.1,0,0,1-15.09,8.19Z"/><path class="cls-5" d="M133.62,214.17c-20.31,0-40.62-.06-60.93.05a12.5,12.5,0,0,1-8.63-3q-11.54-9.54-23.38-18.69c-3-2.33-4.35-4.94-2.39-8.35,5.42-9.44,3.26-17.1-4.37-24.43-4.76-4.54-8.35-10.31-12.65-15.41-1.94-2.33-2.19-4.37-.72-7.12Q43.13,95.13,65.49,53A14,14,0,0,1,71,47.49C76.91,44.06,83,40.87,88.45,36.87c6.38-4.66,12.94-5.61,20.55-4.11,8.94,1.77,18,2.69,27.09,4,2.48.36,5,.85,6.71,2.83C162.58,63,189.17,77.59,214,94.37a16.75,16.75,0,0,1,7.26,10q7.14,25.08,15,50a9.27,9.27,0,0,1-1.35,8.77q-15.85,23.53-31.52,47.23a7.87,7.87,0,0,1-7.36,3.88C175.27,214.12,154.43,214.17,133.62,214.17Zm.51-2.66c20.3,0,40.6-.09,60.9.1a7.15,7.15,0,0,0,6.86-3.67c10.08-15.37,20.2-30.72,30.49-46,1.55-2.3,2.1-4.3,1.31-6.89-5.26-17.33-10.55-34.65-15.59-52a8.71,8.71,0,0,0-3.61-4.83c-9.3-6.34-18.88-12.27-28.15-18.65-9.76-6.71-20.4-12.23-28.58-21.16-5-5.51-10.55-10.62-15.82-15.94a9.47,9.47,0,0,0-6-2.86c-8.21-1-16.41-2.17-24.53-3.71s-15.78-1.51-22.89,4.18c-5,4-10.94,6.8-16.49,10.08a9.37,9.37,0,0,0-3.84,3.7q-22.32,42-44.74,83.87c-1.06,2-1.13,3.43.44,5.31C28.36,148.38,32,154.59,37,159.27c8.14,7.53,9.52,15.52,4.3,25C39.7,187.17,40.49,189,43,191c7.49,5.77,14.92,11.64,22.17,17.72a12.65,12.65,0,0,0,9.08,2.94c19.92-.15,39.89-.1,59.86-.1Z"/><path class="cls-6" d="M134.13,211.51c-20,0-39.94,0-59.9.06-3.47,0-6.32-.61-9.08-2.94-7.25-6.08-14.68-12-22.17-17.72-2.53-1.94-3.32-3.78-1.71-6.68,5.22-9.44,3.84-17.43-4.3-25-5-4.68-8.65-10.89-13.12-16.23-1.57-1.88-1.5-3.33-.44-5.31Q45.83,95.78,68.15,53.82A9.37,9.37,0,0,1,72,50.12C77.54,46.84,83.49,44,88.48,40c7.11-5.69,14.63-5.74,22.89-4.18s16.32,2.75,24.53,3.71a9.47,9.47,0,0,1,6,2.86c5.27,5.32,10.77,10.43,15.82,15.94,8.18,8.93,18.82,14.45,28.58,21.16,9.27,6.38,18.85,12.31,28.15,18.65a8.71,8.71,0,0,1,3.61,4.83c5,17.39,10.33,34.71,15.59,52,.79,2.59.24,4.59-1.31,6.89-10.29,15.24-20.41,30.59-30.49,46a7.15,7.15,0,0,1-6.86,3.67C174.73,211.42,154.43,211.51,134.13,211.51ZM94.65,153.63c-2,0-4,0-6,0-1.21,0-2.51.43-2.27,2s1.48.84,2.41.71c5.16-.74,10.13.14,15.24,1,6.67,1.13,13.9,1.7,20.19-.69,7.56-2.88,14.71-2.55,22.19-1a10.19,10.19,0,0,0,6.27-.85c1.16-.5,1.69-1,1.29-2.13s-1.31-.5-2-.17c-3.43,1.73-6.75.16-10.07-.36-5-.78-10.21-1.42-14.74.7-4.26,2-8.64,1.59-12.89,2.54-6.77,1.53-13-2.59-19.62-1.7Zm2.7-72.18c-.2-3.13-1.9-5.58-6-5.75-3.78-.16-5.86,1.87-6.24,5.51-.42,4,1.78,6.2,5.58,6.68s6.44-2.11,6.66-6.44Zm39.56,6.49c4.05-.1,6.67-2.85,6.34-6.49s-2.26-5.79-6.09-5.76c-4,0-6.07,2.25-6.09,6.2,0,4.12,2.59,5.69,5.84,6Z"/><path class="cls-7" d="M94.65,153.63c6.67-.89,12.85,3.23,19.66,1.7,4.25-1,8.63-.54,12.89-2.54,4.53-2.12,9.75-1.48,14.74-.7,3.32.52,6.64,2.09,10.07.36.66-.33,1.52-1.09,2,.17s-.13,1.63-1.29,2.13a10.19,10.19,0,0,1-6.27.85c-7.48-1.53-14.63-1.86-22.19,1-6.29,2.39-13.52,1.82-20.19.69-5.11-.86-10.08-1.74-15.24-1-.93.13-2.18.71-2.41-.71s1.06-1.91,2.27-2C90.66,153.58,92.66,153.63,94.65,153.63Z"/><path class="cls-8" d="M97.35,81.45c-.22,4.33-3,6.89-6.62,6.44-3.8-.48-6-2.65-5.58-6.68.38-3.64,2.46-5.67,6.24-5.51C95.45,75.87,97.15,78.34,97.35,81.45Z"/><path class="cls-8" d="M136.91,87.94c-3.25-.36-5.87-1.93-5.84-6,0-4,2-6.16,6.09-6.2,3.83,0,5.76,2.16,6.09,5.76S141,87.84,136.91,87.94Z"/><g class="cls-1"><path class="cls-2" d="M-379.15,301.89A17.87,17.87,0,0,1-390.37,298a18,18,0,0,1-2.83-25.29h0l440.7-552a18,18,0,0,1,25.3-2.84h0a18,18,0,0,1,2.83,25.3h0l-440.72,552A17.89,17.89,0,0,1-379.15,301.89Z"/></g></svg>