<svg id="圖層_1" data-name="圖層 1" xmlns="http://www.w3.org/2000/svg" viewBox="0 0 210.01 263.4"><defs><style>.cls-1{fill:#ca90bb;}.cls-2{fill:#be96b4;}.cls-3{fill:#a687a3;}.cls-4{fill:#f0e6ee;}</style></defs><title>剪石布</title><path class="cls-1" d="M168.12,100.66c.23.65.47,1.29.7,1.93-.22.69-.45,1.37-.67,2.06-1.07.89-.86,2-.7,3.2a76.12,76.12,0,0,1-.83,27.12c-.9,3.94-4,7.66-2,12.1l-.06,1c-.09.52-.17,1-.25,1.55h0a2.72,2.72,0,0,0-3.13,1.89c-2,6-3.89,12-5.82,18.07-.61,3.64-4.14,6-4.39,9.78l-2.8.08-2.93-5.05.93-2c2.78-1.3,2.78-2.62,0-4l-1-1c-4.72-6.42-1.79-13.93-2.94-20.87a7,7,0,0,1,1-4.18c2.38-4.93,5.15-9.79,5-15.54.13-1.06.26-2.12.4-3.19,3-2.51,5.91-6.51,5.13-9.4-1.47-5.43,1.37-9.46,2.85-13.56,1.28-3.53,2.78-8.79,8.5-9,0,1.8.43,3.25,2.72,3a5.8,5.8,0,0,1,.18,3.94c-.49.26-1.35.46-1.41.81C166.45,100.51,167.31,100.64,168.12,100.66Z"/><path class="cls-2" d="M37.67,83.39a1.54,1.54,0,0,1,.75-.63c3-.37,4-2.37,4.07-5.07,3.83,3,5,2.71,6.89-2.29.6-1.56,1.33-2.52,3-2.62-.09,1.84-2,3.8.34,5.49-2,1.88-.74,6.18-4.82,6.55-4.34-2.08-5,2.36-6.86,4.18-1.44,1.39.11,2.54,1.67,3-1.95,3-3.65,6.29-7.82,6.71-3.63.8-4.9,4.43-3.21,9.21a12.9,12.9,0,0,0-.61,7.2c.81,5.75,5.44,8.77,8.41,12.92a35.28,35.28,0,0,1,6.86,19.47,7.78,7.78,0,0,0-2,.22c-5.7,2.23-5.87,2.25-5.95-3.68-.05-4.23-2.45-5.32-6-5.47-.89-1.54-1.92-2.91-3.87-3.13a.7.7,0,0,1-.58.21c.11-.7.23-1.39.34-2.09.28-2.64-3.65-11.34-5.89-13a1.1,1.1,0,0,0-.94,0c-.18-.94-.35-1.88-.53-2.82.22-1.06.43-2.13.65-3.19,1.5-2.78.73-5.65.36-8.51l.48-1.37c3-.65,4.44-2.33,3.45-5.5l.33.13L26,99.19a27.12,27.12,0,0,0,11.53-13.3C37.94,85.09,38.43,84.28,37.67,83.39Zm-2.08,42.48c-1.88,2.61-1.88,2.61,1,7.69.67,1.19,1,3.49,2.83,2.45s1.45-3.47,0-4.59C37.46,130,37,127.7,35.59,125.87ZM43.46,142c-.2-1.05.39-2.72-1.13-2.88s-2.16,1.43-2.27,2.73.47,3,1.9,3.06C44,145.05,43.18,143.11,43.46,142Z"/><path class="cls-3" d="M80.93,21.5a.91.91,0,0,0,.54-.46c2-.13,4.11.24,5.77-1.33l2-.32a24.6,24.6,0,0,0,9.25-.08l1.91.43c5.35,3.21,8.78,7.59,8.63,14.15-3.73-1.68-4.89-.39-4.82,3.55a133.05,133.05,0,0,1-.7,20.24c-.47,3.52-2.22,7.44-1.29,10.49,2,6.47,2.08,12.87,2,19.42-2.62.43-4-.43-3.85-3.33a41,41,0,0,0-.27-4.82l.09-5.46c-.24-.4-.47-.81-.71-1.22-.33-.93-.16-2.08-1.17-2.73l-1.57-1.5c1.64-6.46-1.12-13.56,2.88-19.71.75-1.14-.14-2.16-1-3.06-2.85-3.15-7-2.63-9.88,1.29-2.93.11-1.67-4-4.32-4.22-.06-.65-.11-1.3-.17-1.95.18-1.74-.46-4.3,2.89-2.92l1.45,2.15c-.19,1.48,0,3,1.93,2.41a18.88,18.88,0,0,1,8.23-.08c-.11-2-2.29-1.58-2.62-2.95,3.46-1.44,4.68-7,2.14-10a6,6,0,0,0-5.19-2.42c-2.5.16-2.66,2.05-2.88,3.9a2.48,2.48,0,0,1-1.71,2.22c-2.52-7.72-3.7-8-9-2.55-.2.2-.6.21-.91.31,0-2.74,2.43-4.87,2-7.74Z"/><path class="cls-2" d="M165.15,91.72c-5.72.18-7.22,5.44-8.5,9-1.48,4.1-4.32,8.13-2.85,13.56.78,2.89-2.17,6.89-5.14,9.41-.76-1.18.68-4.33-2.77-3.09-.12-.3-.42-.69-.32-.89,4.06-8.76,5.42-18.62,10.65-26.84,2.15-3.38,2.14-6.77,2-10.38l1-1.73c2.45.22,3.12-1.11,3.1-3.3-.07-5.75-.11-11.5,0-17.25,0-2.59-1-3.65-3.58-3.27a2.5,2.5,0,0,1-2.56-1c1.43-1.5,2.85-3-.86-3-2,0-4,0-5.94,0L148.63,49l.82-1.19c2.44-.28,4.94-1,7.31-.77,8,.89,13.22,6.8,13.49,15.18.14,4.17-.74,8.45.92,12.51l-.13,2c-3.73,1.2-4.87,3.45-2.85,7l.77,2.1c-.36,1.29-.72,2.57-1.07,3.86C166.46,89.66,166.18,91.2,165.15,91.72Z"/><path class="cls-2" d="M84.4,42.83c2.65.17,1.39,4.33,4.32,4.22,1.27,4.87,3.73,9.43,3.76,14.63a8.52,8.52,0,0,0-2.7,1c-2.25,2-2.08,5-2.2,7.59-.08,1.72,1.83,1.38,3.09,1.43,3.44,1.52,3.71,4.13,1.58,6.62-2.6,3-1.81,5.54.23,8.23-1.94.23-2.17,1.68-2.3,3.2-1.89-.11-2.12-1.94-2.75-3-1.8-3.16-4-4-7.1-2-.35-1-.71-2.09-1.06-3.14,2-3.34,5.88-1.35,8.56-2.91,1.24-.71,2.49-1.07,1.88-2.82S88,74.13,86.53,74.7c-5.71,2.24-11,.4-16.22-1.83-.07-2.84.34-6-4-6-2.55-3-2.08-6.59-1.87-10.11,4.5-3.85.75-8.56,1.68-13.09-2.7,3.12-5.39,1.75-8.05.86.85-2,4-2.73,3.16-5.66a3.41,3.41,0,0,0,2.92-4.66c-1.59-4.79.7-4.44,3.94-3.53.54.15,1.23-.25,1.85-.4l-.25.4.29-.37c-.63,2.15-.14,3.78,2.12,4.6l1.3-.06c.12.7.25,1.39.37,2.09-.53.72-.54,1.33.37,1.75a1,1,0,0,0,.2.49c0,4,1.85,2.11,3.43,1.09.38,5-3.19,3.53-5.66,3.2-2-.26-3.65-1-3.6,2A100.45,100.45,0,0,1,68.3,56.8c-.49,4.84,1.63,8.55,5.84,9.6,3.54.88,8.87,2.59,10.08-4.07.11-.58,1.13-1.27,1.83-1.41,2.33-.46,1.61-1.64,1.29-3.25C86.35,52.72,83.94,48.05,84.4,42.83Z"/><path class="cls-1" d="M32.49,138.61c3.52.15,5.92,1.24,6,5.47.08,5.93.25,5.91,5.95,3.68a7.78,7.78,0,0,1,2-.22c.06.61.13,1.21.2,1.82-3.31.95-4.37,2.52-1.32,5.06a6.3,6.3,0,0,1,2.07,3.29c1.35,4.75,4.43,8.3,8.06,11.47,2.25,2,4.14,2,5.34-1.13l3.54.06c0,3,.38,5.14,4,2.61.46-.33,1.28-.13,1.94-.18l.07,3.88c-2.12,2.9.84,5.68.21,8.62-.39,1.81-.16,4.08-2.54,4.15s-4.24,1.79-6.48,2.29l-.17-.07c-.47-3-2.41-3.85-5.17-3.48l-.26-.18c.13-.67-.14-.93-.81-.77l-.23-.25c.68-3.28-2.37-2.17-3.68-3.12a.68.68,0,0,1-.33-.63c.54-1.63.2-2.54-1.75-2.13l-.1-.07c.46-2.42-.45-3.43-2.92-2.85l-.14-.11c.95-2.27,0-4.36-1.1-6.12a49.4,49.4,0,0,1-6.62-16.18c-.77-3.57-.85-8.37-5.66-10l-1.05,0-.12-2.94C32.28,140.26,32.38,139.44,32.49,138.61Z"/><path class="cls-1" d="M84.4,42.83c-.46,5.22,1.95,9.89,2.94,14.84.32,1.61,1,2.79-1.29,3.25-.7.14-1.72.83-1.83,1.41C83,69,77.68,67.28,74.14,66.4c-4.21-1.05-6.33-4.76-5.84-9.6a100.45,100.45,0,0,0,.18-11.25c0-3.09,1.63-2.31,3.6-2,2.47.33,6,1.81,5.67-3.19-.3-1.08.26-2.36-.78-3.26l.15-2.31,1.19,0c2.43.61,4.78,1.21,4.24,4.63-.14.9.85,1.28,1.68,1.49Z"/><path class="cls-1" d="M151.6,193.44l.18,1.88c-2.55,1.13-1.23,3.33-1.43,5.11l-.23.83c-.48.32-1.22.55-1.38,1-.25.7.31,1.1,1.06,1.06l.12,0c.32,5.52-1.66,11-.3,16.54a2.93,2.93,0,0,0-1.22,2.5c-4.87,1.54-7.15-1-8.12-5.29-.31-1.39-.43-2.62-2.13-2.86a28.09,28.09,0,0,0,.77-3.82c.41-5.63,1.67-11.57-4.72-15.09l.12-5.8c3,.19,4-1.95,5-4.13,3.16.17,5.64-2.65,8.91-2l0,2c-4.29,2.58.51,3.34,1,5C149.4,191.87,149.87,193.14,151.6,193.44Z"/><path class="cls-3" d="M69.91,30.31c-.62.15-1.31.55-1.85.4-3.24-.91-5.53-1.26-3.94,3.53A3.41,3.41,0,0,1,61.2,38.9c-.38-1.81.35-4.25-2.26-4.89-1.72-.41-3.73-.75-5.12.69a7.39,7.39,0,0,0-2.48,4.14c-2.1,1.48.61,5.3-3,6l-.93-.07c-.54-3.76-3.43-2.84-5.82-2.9-.84-2.33,0-4.71-.19-7.05A1.49,1.49,0,0,0,42,32.64c1.83-4.66,5.71-6.28,10.24-7,1.54.49,3,.86,4.13-.85L60,24.61a1.69,1.69,0,0,0,2.4,1.19l4.76,1.53a1.67,1.67,0,0,0,2,1.56Z"/><path class="cls-3" d="M168.36,140.56c-2.06,1.7-1.44,4.92-3.69,6.51-2-4.44,1.05-8.16,2-12.1a76.12,76.12,0,0,0,.83-27.12c-.16-1.18-.37-2.31.7-3.2,2.2,4.72,2.17,9.77,2.28,14.81,0,1.69-.8,3.64,1,5,0,.73,0,1.47,0,2.21a9.27,9.27,0,0,0-2.33,7.84C168.81,136.53,168.59,138.55,168.36,140.56Z"/><path class="cls-3" d="M149.45,47.85c4.57-4.68,14.08-2.58,18.63,3,.6.74.85,1.82,2,1.93l1.53,2c-.07.14-.25.34-.2.42A4.24,4.24,0,0,0,172,56l.69,3.7q0,6.57,0,13.16l-.36,2-1.11,0c-1.66-4.06-.78-8.34-.92-12.51C170,53.88,164.79,48,156.76,47.08,154.39,46.81,151.89,47.57,149.45,47.85Z"/><path class="cls-3" d="M42.49,77.69c-.1,2.7-1.07,4.7-4.07,5.07,0-.69,0-1.38,0-2.07,1.25-.63,1.15-1.92,1.38-3,1.71-8.18.31-16.47.85-24.69.13-2.07-.72-4.34,1-6.16h.47l.47,0Z"/><path class="cls-3" d="M37.48,85.89A27.12,27.12,0,0,1,26,99.19c.46-.91.91-1.82,1.37-2.74,3.09-2.31,4.75-5.78,7-8.76A2.89,2.89,0,0,0,35,87Z"/><path class="cls-2" d="M41.61,46.83c-.21-.68-.41-1.35-.61-2l.63-2.88c2.39.06,5.28-.86,5.82,2.9-2.11-.47-3.1,1.75-4.9,2l-.47,0Z"/><path class="cls-3" d="M165.15,91.72c1-.52,1.31-2.06,2.74-2a6.6,6.6,0,0,1,0,5C165.58,95,165.17,93.52,165.15,91.72Z"/><path class="cls-3" d="M22.51,104.67c-.41-2,2.46-2.87,1.88-5L26,99.17C27,102.34,25.55,104,22.51,104.67Z"/><path class="cls-3" d="M32.49,138.61c-.11.83-.21,1.65-1.16,2l-1-.06a2.6,2.6,0,0,0-1.84-3c.05-.7.1-1.39.16-2.09C30.57,135.7,31.6,137.07,32.49,138.61Z"/><path class="cls-3" d="M150.35,200.43c.2-1.78-1.12-4,1.43-5.11a5,5,0,0,1,.1,4.38Z"/><path class="cls-3" d="M72.07,34.94c-2.26-.82-2.75-2.45-2.12-4.6l1.68.5c-.1.58.11.9.75.84l.14.24Z"/><path class="cls-3" d="M151.6,193.44c-1.73-.3-2.2-1.57-2.36-3.08l1.8-.12.8.79A2.4,2.4,0,0,1,151.6,193.44Z"/><path class="cls-3" d="M168.12,100.66c-.81,0-1.67-.15-1.48-1.18.06-.35.92-.55,1.41-.81A1.65,1.65,0,0,1,168.12,100.66Z"/><path class="cls-2" d="M148.27,126.84c.17,5.75-2.6,10.61-5,15.54a7,7,0,0,0-1,4.18c1.15,6.94-1.78,14.45,2.94,20.87-2.12.27-2,2.13-2.49,3.51-1.46-1-1.47-2.56-1.79-4q-2-5.29-4-10.58c2.54-3.79,1.09-6.81-1.85-9.55,4.05-.52,5.84-2.44,4.11-6.56,1.6-2.59,3.23-5.07,3.53-8.32a12.36,12.36,0,0,1,3.05-6.63Z"/><path class="cls-2" d="M148.21,183.39c-3.27-.64-5.75,2.18-8.91,2-.22-2-1.71-2-3.17-2.15,2.37-3.68,3.09-8.31,6.6-11.32.65,1-.09,3.53,2.58,2.49l2.93,5.05Z"/><path class="cls-3" d="M164.38,149.65c-1.95,7.12-3.68,14.33-8.95,20,1.93-6,3.83-12.06,5.82-18.07A2.72,2.72,0,0,1,164.38,149.65Z"/><path class="cls-3" d="M145.31,174.42c-2.67,1-1.93-1.44-2.58-2.49a2.54,2.54,0,0,0,0-1c.53-1.38.37-3.24,2.49-3.51l1,1,0,4Z"/><path class="cls-3" d="M148.21,183.39l0-3.92,2.8-.08a7.4,7.4,0,0,0,.25,6l-3,0Z"/><path class="cls-3" d="M148.27,126.84l-2.52-1.57c.05-1.57.09-3.14.14-4.7,3.45-1.24,2,1.91,2.77,3.09Z"/><path class="cls-2" d="M146.24,172.42l0-4C149,169.8,149,171.12,146.24,172.42Z"/><path class="cls-3" d="M164.61,148.09c.49.61.48,1.14-.25,1.55C164.44,149.12,164.52,148.61,164.61,148.09Z"/><path class="cls-4" d="M46.56,149.36c-.07-.61-.14-1.21-.2-1.82a35.28,35.28,0,0,0-6.86-19.47c-3-4.15-7.6-7.17-8.41-12.92a12.9,12.9,0,0,1,.61-7.2c2.17-.06,4.4-.71,6.41.69,1,3.94,2,7.88,3,11.83.35,1.41.33,3,2.21,3.47l.71.75a14.46,14.46,0,0,0,2.34,6.11c2.95,5,7.86,7.83,11.65,11.85-.47,4.45-4.11,6.27-7.14,8.6l-3.43-.83Z"/><path class="cls-1" d="M42.55,46.85c1.8-.28,2.79-2.5,4.9-2l.93.07c-.06,1.47,1.32,2,2,2.93l0,2v3c.42,2.11-1.22,4.88,1.94,6.14l.06,13.79v0c-1.69.1-2.42,1.06-3,2.62-1.91,5-3.06,5.32-6.89,2.29Z"/><path class="cls-4" d="M47.92,84.82c4.08-.37,2.8-4.67,4.82-6.55,1.24-.61,2.49-1.21,3.74-1.8.86,2,2.52,3.71,1.74,6.15C57.14,84.21,56.05,85.8,55,87.4c-4.29,1.09-5.21,4.89-6.68,8.26l-.16,3.66-.75,1.33-2.28,4.72-3.62.06c-2.53-1.9-6.2-2.67-6.57-6.69,4.17-.42,5.87-3.71,7.82-6.71C44.67,89.78,47.9,88.46,47.92,84.82Z"/><path class="cls-3" d="M56.48,76.46l-3.74,1.81c-2.37-1.69-.43-3.65-.34-5.49v0c2.19-1.92,3.83-3.69,2.38-7.19-.79-1.91-.72-5.07,2.85-5.6Q59,63.89,60.32,67.8C59.64,71,56.62,73.07,56.48,76.46Z"/><path class="cls-3" d="M35.59,125.87c1.37,1.83,1.87,4.1,3.78,5.55,1.48,1.12,1.88,3.54,0,4.59s-2.16-1.26-2.83-2.45C33.71,128.48,33.71,128.48,35.59,125.87Z"/><path class="cls-3" d="M47.92,84.82c0,3.64-3.25,5-5.19,7.21-1.56-.49-3.11-1.64-1.67-3C43,87.18,43.58,82.74,47.92,84.82Z"/><path class="cls-3" d="M28.38,133.6c-3.24-3.76-5.58-7.93-5.89-13C24.73,122.26,28.66,131,28.38,133.6Z"/><path class="cls-3" d="M43.46,142c-.28,1.11.56,3.05-1.5,2.9-1.43-.1-2-1.71-1.9-3.06s.69-2.9,2.27-2.73S43.26,140.94,43.46,142Z"/><path class="cls-3" d="M21.67,114.55c-1.79-2.92-2.15-5.77.37-8.51C22.4,108.9,23.17,111.77,21.67,114.55Z"/><path class="cls-1" d="M109,33.89c.13.67.25,1.35.38,2-.94.37-1.9.91-1.55,2.05s1.83,1.23,2.84,1.41c2,.37,2.48-.95,2.43-2.62.79-1.69,2.61-2,4-3,2.24,1.49.2,4.57,2.28,6.12.06,1.07.13,2.13.19,3.19v1.81H118.3a1.81,1.81,0,0,0-2,2c0,.65-.08,1.3-.11,2-3,2.64-2.91,5.3,0,8,0,1.36.07,2.72.1,4.08,0,.27,0,.53,0,.8-.08,3.66-.16,7.33-.23,11-2.57,3.24-2.52,9.06.09,12.08q.06,7,.11,13.92c-3.35,1.11-1.46,3.92-1.94,6-2.63,2.94-2.46,6.42-1.94,10a13,13,0,0,0-8.37-.07c-.66-2.31-.21-4.88-1.72-7,.13-6.7-.45-13.48,1.87-20,.12-6.55,0-13-2-19.42-.93-3,.82-7,1.29-10.49a133.05,133.05,0,0,0,.7-20.24C104.12,33.5,105.28,32.21,109,33.89Z"/><path class="cls-4" d="M92.48,86.57c-2-2.69-2.83-5.19-.23-8.23,2.13-2.49,1.86-5.1-1.59-6.62-.11-1.22.61-1.79,1.66-2.11,1.88,1.5,3.79,2.59,5.93.42,1,.65.84,1.8,1.17,2.73.23.41.47.82.71,1.22L100,79.44c-3.51,3.52-2.84,8.38-3.15,12.5C96.37,99,94.2,106.7,100,113c0,1.08.08,2.16,1,2.92l1.92,1.85c0,6.43,1.29,12.92-.78,19.27l-9.83.77c-1.64-1.36-3.14-2.82-3.54-5,1.06-2.23-.1-4.19-.83-6.16-.65-1.75-1.11-3.43-.19-5.22,1.61-3.15,3.18-6.31,4.77-9.46C94.38,103.43,93.41,95,92.48,86.57Z"/><path class="cls-4" d="M92.48,61.68c0-5.2-2.49-9.76-3.76-14.63,2.91-3.92,7-4.44,9.88-1.29.82.9,1.71,1.92,1,3.06-4,6.15-1.24,13.25-2.88,19.72a3.55,3.55,0,0,1-2.94-.84Z"/><path class="cls-2" d="M100,113c-5.83-6.25-3.66-13.94-3.14-21,.31-4.12-.36-9,3.15-12.5a41,41,0,0,1,.27,4.82c-.16,2.9,1.23,3.76,3.85,3.33-2.32,6.5-1.74,13.28-1.87,20C99.26,108.42,100.85,111.19,100,113Z"/><path class="cls-4" d="M88.57,40.11,87.12,38c.46-1.59,1.56-3,1.35-4.77A2.48,2.48,0,0,0,90.18,31c.22-1.85.38-3.74,2.88-3.9a6,6,0,0,1,5.19,2.42c2.54,3.05,1.32,8.56-2.14,10Z"/><path class="cls-2" d="M88.47,33.19c.21,1.78-.89,3.18-1.35,4.77-3.35-1.38-2.71,1.18-2.89,2.92-.83-.21-1.82-.59-1.68-1.49.54-3.42-1.81-4-4.24-4.63L78.55,31c.31-.1.71-.11.91-.31C84.77,25.14,86,25.47,88.47,33.19Z"/><path class="cls-2" d="M93.74,67.7a3.55,3.55,0,0,0,2.94.84L98.25,70c-2.14,2.17-4,1.08-5.93-.42A2.1,2.1,0,0,1,93.74,67.7Z"/><path class="cls-2" d="M100.13,74c-.24-.4-.48-.81-.71-1.22C99.66,73.17,99.89,73.58,100.13,74Z"/><path class="cls-4" d="M145.89,120.57c0,1.56-.09,3.13-.14,4.7a12.36,12.36,0,0,0-3.05,6.63c-.3,3.25-1.93,5.73-3.53,8.32l-2.93.32a7.84,7.84,0,0,0-3.88-2.18.76.76,0,0,0-.59-.2c-1-1.93.43-3.76.25-5.65.14-1.29.27-2.58.4-3.87l1.11-1.95c6-5.84,8.71-13.46,11.58-21,.16-2.22.33-4.44.49-6.66,3.28-2.48,3.62-6,3.61-9.74,0-8.06,1-8.76,9-6.82.14,3.61.15,7-2,10.38-5.23,8.22-6.59,18.08-10.65,26.84C145.47,119.88,145.77,120.27,145.89,120.57Z"/><path class="cls-4" d="M156.12,55.88a2.5,2.5,0,0,0,2.56,1c.1.84.19,1.68.29,2.52-.2.46-.4.93-.59,1.4-1.51,3.13-3.61,6.11-2.74,9.89L153,72.25,151.79,71c.24-3.33-1.37-4.87-4.65-4.78-1.34-2.25-.84-4,1.37-5.36l3-2.82.9-1.8a3.88,3.88,0,0,0,.82-.32Z"/><path class="cls-3" d="M155.64,70.72c-.87-3.78,1.23-6.76,2.73-9.89l.6-1.4c-.1-.84-.19-1.68-.29-2.52,2.54-.38,3.61.68,3.58,3.27-.08,5.75,0,11.5,0,17.25,0,2.19-.65,3.52-3.1,3.3-.22-.82-.43-1.63-.65-2.44-.15-1.13-.32-2.26-.48-3.38C158.39,72.86,157.9,71.28,155.64,70.72Z"/><path class="cls-1" d="M145.26,48.74l3.36.3c.24,1.29.47,2.57.7,3.85-.37,1.3-.73,2.61-1.09,3.92-4,.8-5.83-3.09-9-4a20.54,20.54,0,0,1,1.06-7.89c1.52.91.32,3.77,2.85,3.95Z"/><path class="cls-3" d="M148.23,56.81c.36-1.31.72-2.62,1.09-3.92,2,0,4,0,5.94,0,3.71,0,2.29,1.53.86,3l-2.86,0c-.62-.79-.79-.42-.82.32l-.9,1.8Z"/><path class="cls-3" d="M171,76.73c.36,2.86-1.28,4.91-2.85,7C166.17,80.18,167.31,77.93,171,76.73Z"/><path class="cls-1" d="M80.33,84.71c3.11-1.94,5.3-1.15,7.1,2,.63,1.11.86,2.94,2.75,3,.89,7.33-1.38,14.54-.84,21.85-3.23.77-3.23,6.66-8,5-2.37-3.24-4.63-6.48-5.26-10.67-.26-1.72-1.86-.48-2.88-.27a2.9,2.9,0,0,1-1.88-2c2.44.11,3.08-1.27,3-3.43a60.87,60.87,0,0,1,.06-7.4C74.74,89,76.32,85.94,80.33,84.71Z"/><path class="cls-4" d="M70.31,72.87c5.23,2.23,10.51,4.07,16.22,1.83,1.48-.57,2.6-.49,3.18,1.14s-.64,2.11-1.88,2.82c-2.68,1.56-6.54-.43-8.56,2.91L76.35,82l-1.1.68c-2.61,3-6.16,3.07-9.73,3-1-2,.63-4,.06-6.16C63.84,73,63.91,73,70.31,72.87Z"/><path class="cls-4" d="M66.28,66.9c-1.79,1.62-3.69,2.5-6,.9Q59,63.89,57.64,60c-1.52-4-4-8.34,2.63-10.34,1.85.36,3.28,1.18,3.58,3.25.14.37.27.74.41,1.12l.15,2.79C64.2,60.31,63.73,63.88,66.28,66.9Z"/><path class="cls-3" d="M66.79,88c-1.37-.26-2.07-.88-1.27-2.32,3.57,0,7.12,0,9.73-3l1.1-.68,2.92-.39c.35,1.05.71,2.1,1.06,3.14-4,1.23-5.59,4.3-5.92,8.13a60.87,60.87,0,0,0-.06,7.4c.06,2.16-.58,3.54-3,3.43-.32-3.07-.64-6.13-1-9.2,0-.84,0-1.68.07-2.52l.16-1.32c.08-.11.25-.25.23-.3a4.85,4.85,0,0,0-.39-.61C69.38,88.78,68.41,87.71,66.79,88Z"/><path class="cls-4" d="M51.34,38.84a7.39,7.39,0,0,1,2.48-4.14c1.39-1.44,3.4-1.1,5.12-.69,2.61.64,1.88,3.08,2.26,4.89.81,2.93-2.31,3.66-3.16,5.66l-4.57,1.08C51.83,43.67,54.49,40.34,51.34,38.84Z"/><path class="cls-3" d="M53.47,45.64,58,44.56c2.66.89,5.35,2.26,8.05-.86-.93,4.53,2.82,9.24-1.68,13.09L64.26,54c-.14-.38-.27-.75-.41-1.12-.3-2.07-1.73-2.89-3.58-3.25l-9.86.2,0-2A3.2,3.2,0,0,0,53.47,45.64Z"/><path class="cls-3" d="M89.34,111.62c-.54-7.31,1.73-14.52.84-21.85.13-1.52.36-3,2.3-3.2.93,8.43,1.9,16.86.1,25.3Z"/><path class="cls-3" d="M93.74,67.7a2.1,2.1,0,0,0-1.42,1.91c-1,.32-1.77.89-1.66,2.11-1.25,0-3.16.29-3.08-1.43.12-2.63,0-5.57,2.2-7.59a8.52,8.52,0,0,1,2.7-1Z"/><path class="cls-2" d="M61.71,206.37c-.13-1.69-.26-3.38-.38-5.07,2.28-3.92-.63-7.89.11-11.82,2.24-.5,4-2.21,6.48-2.29s2.15-2.34,2.54-4.15c.63-2.94-2.33-5.72-.2-8.62,1.13.91,2,2.3,3.82,1.84a.71.71,0,0,1,.34.63c.16,2.22-.7,4.51,1,6.61a9.14,9.14,0,0,1,1.94,8.95l-3.69,1.29c-.66-1.33.52-3.64-1.9-4-.87-.13-1.35.9-1.33,1.77.08,5.09-.91,10.33,1.76,15.38,1.74-1.6.74-3.45,1.41-4.89,3.28,2.79,2.86,6.71,3.16,10.41-3.08,0-3.19,2.38-3.33,4.51s0,4.27-.84,6.32c-.44,1.14-.1,2.92-2.08,2.75-1.61-.14-2.17-1.44-2.14-2.85,0-2.56-1.57-3-3.56-3q-.24-3.48-.46-7C65.44,210.17,64.93,207.75,61.71,206.37Z"/><path class="cls-4" d="M64.25,168.11l-3.54-.06c-1.55-1.41-3.18-2.74-4.61-4.26-1.91-2-4.93-3.45-4.21-7.06a1.44,1.44,0,0,0,.62-.3c1.56.17,2.67-.19,2.5-2.08l1.16-.59c1.52.53,2,.06,1.46-1.48.21-.38.43-.75.64-1.12,5.14-.74,8.29-4.8,12.33-7.36l11.79-.64-.06.39c1,1.84.58,4.26,2.31,5.83-.13,1-.25,2.07-.37,3.1l-6,1.18c-7-2.32-10.57,0-10.75,6.81l-.33,1.91c-.09.12-.27.25-.25.36a5.53,5.53,0,0,0,.24.79l-.11,2.76A3.51,3.51,0,0,0,64.25,168.11Z"/><path class="cls-3" d="M51.89,156.73c-.72,3.61,2.3,5,4.21,7.06,1.43,1.52,3.06,2.85,4.61,4.26-1.2,3.1-3.09,3.1-5.34,1.13-3.63-3.17-6.71-6.72-8.06-11.47a6.3,6.3,0,0,0-2.07-3.29c-3.05-2.54-2-4.11,1.32-5.06l.86,1.07c.52,1.57,1.16,3,3.11,3.21C50.5,154.89,50.64,156.05,51.89,156.73Z"/><path class="cls-3" d="M45.88,175.82c-6-5.76-8.13-13.44-10.08-21-1-3.82-2.57-7.43-3.3-11.29,4.81,1.64,4.89,6.44,5.66,10a49.4,49.4,0,0,0,6.62,16.18C45.88,171.46,46.83,173.55,45.88,175.82Z"/><path class="cls-3" d="M74.09,176.26c-1.79.46-2.7-.93-3.83-1.84,0-1.29-.06-2.59-.08-3.88.34-1.79-1.91-2.38-1.87-4,1.37-.7,2.37-2.09,4.06-2.16.09,1.18-.08,2.47,1.33,3.08Z"/><path class="cls-2" d="M68.31,166.51c0,1.65,2.21,2.24,1.87,4-.66.05-1.48-.15-1.94.18-3.61,2.53-4,.36-4-2.61a3.48,3.48,0,0,1,2.84-1.81Z"/><path class="cls-3" d="M61.27,189.41a2.69,2.69,0,0,0-.82.34l-4.35-3.82C58.86,185.56,60.8,186.39,61.27,189.41Z"/><path class="cls-3" d="M54.8,184.73c-1.51-.7-3.11-1.31-3.68-3.12C52.43,182.56,55.48,181.45,54.8,184.73Z"/><path class="cls-3" d="M48.94,178.78A4.07,4.07,0,0,1,46,175.93C48.49,175.35,49.4,176.36,48.94,178.78Z"/><path class="cls-3" d="M50.79,181A2.75,2.75,0,0,1,49,178.85C51,178.44,51.33,179.35,50.79,181Z"/><path class="cls-3" d="M55.84,185.75,55,185C55.7,184.82,56,185.08,55.84,185.75Z"/><path class="cls-2" d="M134.32,189.53l-.12,5.8c-1.55.21-4-.45-4.24,1.5-.37,2.61,2.66.82,3.66,2a7.67,7.67,0,0,1,.74,1.24c-2.92-.09-5.53,1-8.15,2.09l-1-3.71c1-1.17,3-3.13.67-3.66-3.28-.75-6.61-1.43-9.93-2.12-1.83-.38-1.55,2.87-3.6,2.7.31-4.14-2.84-1.7-4.4-2.3l4.87-8.78c2.37,4,3.16,1.44,4-.94,1.1.26,1.52,1.16,2,2.06,1.87,3.81,5.59,5.12,9.54,3.29,2.06-.95,3.51-3.06,6-3.21C134.41,186.82,132.53,188.18,134.32,189.53Z"/><path class="cls-2" d="M138.15,214.24c1.7.24,1.82,1.47,2.13,2.86,1,4.3,3.25,6.83,8.11,5.29l.21,5.57-1.38,3.32c-10.87.31-10.86.31-11.19-10.51-.05-1.73.53-3.78-1.93-4.49-.17-3.17.86-6.08,1.92-9C138.5,209.07,136.15,212.32,138.15,214.24Z"/><path class="cls-3" d="M138.15,214.24c-2-1.92.35-5.17-2.13-7l.06-1.71c-.11-1.87,1.37-4.18-1.48-5.29l-.24-.26a8,8,0,0,0-.74-1.23c-1-1.15-4,.64-3.66-2,.28-2,2.69-1.29,4.24-1.5,6.39,3.52,5.13,9.46,4.72,15.09A28.09,28.09,0,0,1,138.15,214.24Z"/><path class="cls-3" d="M134.32,189.53c-1.79-1.35.09-2.71,0-4.07l0,0,1-1,0,0,.87-1.11,0-.06c1.46.12,3,.2,3.17,2.15C138.31,187.58,137.29,189.72,134.32,189.53Z"/><path class="cls-2" d="M148.24,185.4l3,0c.11.34.23.68.34,1-.63,1.22-1.19,2.44-.59,3.84l-1.8.12C148.75,188.74,144,188,148.24,185.4Z"/><path class="cls-3" d="M150.12,201.26c-.1.68-.2,1.37-.31,2.05-.76,0-1.32-.36-1.07-1.06C148.9,201.81,149.64,201.58,150.12,201.26Z"/><path class="cls-4" d="M76.77,212.42c-.3-3.7.12-7.62-3.16-10.41,0-1.44,0-2.88,0-4.32a1,1,0,0,0,0-1.67c0-.76.07-1.52.11-2.28l3.69-1.29c2.27,0,2.79,2.6,4.68,3.19,1.6,4.19,5.71,4.45,9.13,5.81l.07,0c3,3.15,6.7,1.3,10.12,1.33l1.22.47c1.31,4.78-4.39,5.52-5.23,9.06-7.34,4.15-6.26,11.4-6.7,18.1-.7.8-2.38.63-2.24,2.26l-10.08-.2a2.26,2.26,0,0,0-1.64-2.07A62.75,62.75,0,0,0,76.77,212.42Z"/><path class="cls-4" d="M136.08,205.58l-.06,1.71c-1.06,2.91-2.09,5.82-1.92,9-1.47,3.23-1.34,6.76-1.47,10.15a8.84,8.84,0,0,1-2.39,6.12c-3.43-.3-7,.75-10.28-.73-.84-3.56-.57-7.17-.48-10.76.16-6.13-2.64-10.9-6.76-15.11l-.1-2.21,1-1.24H114l.3-.12,1.43-.84,1.52.15c1.58,1.12,3.34.71,5.07.61l3.93-.17c2.62-1.09,5.23-2.18,8.15-2.09l.23.25A11.56,11.56,0,0,0,136.08,205.58Z"/><path class="cls-2" d="M122.28,202.3c-1.73.1-3.49.51-5.07-.61-1.87-2.26-4.07-1.63-6.09-.47-1.76,1-2,2.84-1.69,4.74a2,2,0,0,0,1.4,1.82c1.31.24,1.44-1,1.89-1.83,4.12,4.21,6.92,9,6.76,15.11-.09,3.59-.36,7.2.48,10.76l-1.78,0c-.23-.36-.41-1-.72-1-.74-.21-1.1.33-1.19,1l-4.12.26c-.68-1.12-1.84-.76-2.83-.91.74-2.1,2.6-3.32,3.91-5,3.19-4,2.49-8-1.78-13.77-2.52-3.43-4.74-1.16-7.13-.17-.07-2.88-1.24-3.83-3.5-1.66a5.46,5.46,0,0,1-3.29,1.88l-.18-.17c.84-3.54,6.54-4.28,5.23-9.06,2.66.29.74,3.69,2.89,4.43,1.45-5.08,1.15-6.91-1.32-8.21-3.87-2.05-10-1.12-13,2-3.42-1.36-7.53-1.62-9.13-5.82.69-.33,2.11-.61,1.74-1.3-1.37-2.57-.78-3.93,2-4.73.38-.11.39-1.45.57-2.22a7,7,0,0,0,7.16-.15c2,1.25,3.35,4,6.42,2.75l1.44,2.41c-2.29,2.09-2.15,3.6,1.15,3.88,2.58.23,5.19.07,7.78.07,2.62,4.22,6.77,1,10,2C119.94,200.2,121.16,201.23,122.28,202.3Z"/><path class="cls-3" d="M76.77,212.42a62.75,62.75,0,0,1-.08,18c-1.36,0-3-.45-3.23,1.68l-2.21.21c-1.84-1.8-4-.83-6.14-.81-1.33-3.74-.81-7.53-.29-11.32,2,0,3.6.41,3.56,3,0,1.41.53,2.71,2.14,2.85,2,.17,1.64-1.61,2.08-2.75.8-2.05.7-4.19.84-6.32S73.69,212.46,76.77,212.42Z"/><path class="cls-2" d="M53.47,45.64a3.2,3.2,0,0,1-3.09,2.18c-.68-1-2.06-1.46-2-2.93,3.57-.75.86-4.57,3-6C54.49,40.34,51.83,43.67,53.47,45.64Z"/><path class="cls-2" d="M126.66,23.73c-.1,1.72-.21,3.45-.32,5.17-2.22.26-3.68,1.44-3.92,3.69s1.37,2.28,2.94,2.3c2.07,2.61.08,4.26-1.43,6-1.53-.38-2.6-2.72-4.59-1.05-2.08-1.55,0-4.63-2.28-6.12-1.53-2.95,2.35-4.17,2.14-6.7l1.2-1.2a1.67,1.67,0,0,0,1.93-1.63A7.24,7.24,0,0,1,126.66,23.73Z"/><path class="cls-3" d="M112.39,36.52a1.43,1.43,0,0,0,.72.23c0,1.67-.47,3-2.43,2.62-1-.18-2.45-.14-2.84-1.41s.61-1.68,1.55-2.05C110.36,36.23,111.21,37.18,112.39,36.52Z"/><path class="cls-3" d="M136.11,35.82c3.67.71,2.58-3,3.86-4.51,3.5,1.52,2,5.88,4.81,7.58.28,2,.62,4.06-.19,6-1.44,1.31-2.86-4.07-4.32,0a20.54,20.54,0,0,0-1.06,7.89c-1.26.9-3.1.74-4.08,2.17l-5.64,0c.84-1.93,2.18-3.78-.57-5.51-.68-.43-.59-2.07-.86-3.15.42-.89.83-1.79,1.24-2.68L133.2,46c.21,1-.23,2.59,1.49,2.29,1.27-.21,1.78-1.24.7-2.44C135.47,42.52,134.57,39.08,136.11,35.82Z"/><path class="cls-2" d="M140.27,44.92c1.46-4.05,2.88,1.33,4.32,0,0,.62,0,1.23.07,1.85-1.12.24-1.37,1.13-1.54,2.08C140.59,48.69,141.79,45.83,140.27,44.92Z"/><path class="cls-3" d="M143.12,48.87c.17-.95.42-1.84,1.54-2.08l.6,2Z"/><path class="cls-4" d="M134.3,185.46c-2.5.15-4,2.26-6,3.21-3.95,1.83-7.67.52-9.54-3.29-.44-.9-.86-1.8-2-2.07a7.26,7.26,0,0,1,1.71-5.8,1.85,1.85,0,0,0,1.7-2.1l.21-1.65c4.93.17,8.05-2.82,10.9-6.26a16.52,16.52,0,0,1,9.64-.59c.32,1.47.33,3.07,1.79,4a2.54,2.54,0,0,1,0,1c-3.51,3-4.23,7.64-6.6,11.32l0,.06-.87,1.11,0,0-1,1Z"/><path class="cls-4" d="M135.06,146.78c2.94,2.74,4.39,5.76,1.85,9.55-3.83,1.07-8,1.79-7.62,7.27a2.28,2.28,0,0,0-.06.64l-4.86,3.35-4.11-.09,0,0c-4.26-2.88-3.61-7.17-2.31-10.91a25.6,25.6,0,0,0,1.25-10,4.58,4.58,0,0,1,4.12-2.91c.63.83,1.29.8,2,.08C128.87,143.69,132.41,143.83,135.06,146.78Z"/><path class="cls-3" d="M123.29,143.62a4.58,4.58,0,0,0-4.12,2.91c-1.33-.07-3.37-.24-2.51-1.9,1.19-2.32-1-7.64,5-6.32,1.1.24,1.41-1.11,1.24-2.19l1-1.87c1.54.2,2.25-.39,1.9-2l.18-1.74c2.63-3.26.1-7.32,1.56-10.77.25,0,.51,0,.54.06,1.07,2.2,2.12,4.41,3.17,6.62a2.07,2.07,0,0,0,1.11,2.21c-.14,1.29-.27,2.58-.41,3.87-3,1.06-5.62,3.14-4.94,6.2.39,1.82,3-.49,4.69-.55a.76.76,0,0,1,.59.2c.31,2.48,1.08,4.13,3.88,2.18l2.93-.32c1.73,4.12-.06,6-4.11,6.56-2.65-2.95-6.19-3.09-9.79-3.08C124.65,142.67,124,142.59,123.29,143.62Z"/><path class="cls-3" d="M58,142.65c-3.79-4-8.7-6.8-11.65-11.85A14.46,14.46,0,0,1,44,124.69l1.51-.36c4,3,5.37,8.37,9.82,11,2.58,1.55,4.74,2.39,5-1.77.16-2.41,1.22-3.24,3.48-2.88.17,1.6.35,3.21.53,4.81l-.35.31.52.54a2.17,2.17,0,0,1,1.9,1.21l-2.2,1c-3.25-.55-4.11,1.23-3.95,4Z"/><path class="cls-3" d="M38.11,108.64c2.35.21,3.46-.87,3.37-3.21l3.62-.06,1.34.29c0,1.66,0,3.33,0,5l0,0c-3.73,2.22-2,5.12-1,7.94,0,1.31,0,2.62,0,3.92a2.23,2.23,0,0,0-2.08,1.4c-1.88-.43-1.86-2.06-2.21-3.47C40.1,116.52,39.1,112.58,38.11,108.64Z"/><path class="cls-2" d="M50.85,151.25c-.11.79-.21,1.59-.32,2.39-2-.19-2.59-1.64-3.11-3.21Z"/><path class="cls-2" d="M43.29,123.94a2.23,2.23,0,0,1,2.08-1.4c.05.6.09,1.2.14,1.79l-1.51.36Z"/><path class="cls-2" d="M50.41,49.83l9.86-.2c-6.61,2-4.15,6.29-2.63,10.34-3.57.53-3.64,3.69-2.85,5.6,1.45,3.5-.19,5.27-2.38,7.19L52.35,59c1-2.58,3-5.44-1.94-6.14Z"/><path class="cls-3" d="M50.41,52.83c4.93.7,3,3.56,1.94,6.14C49.19,57.71,50.83,54.94,50.41,52.83Z"/><path class="cls-1" d="M45.51,124.33c0-.59-.09-1.19-.14-1.79,0-1.3,0-2.61,0-3.92,2-2.44.61-5.3,1-7.94l0,0c3-1.67,3.07-3.34,0-5l-1.34-.29,2.28-4.72,1,0c.35,1.11-.68,3,1.2,3.17,1.17.08,1.48-1.59,1.63-2.7.2-1.47.18-3,.26-4.44,3.24-.62,6,.74,8.85,2l3.52.91c3.24.4,3.9,2.27,2.89,5.08-.84.06-1.94.19-2,1.05a78.36,78.36,0,0,0,0,17.72c0,.51,1.24.9,1.9,1.34.27,2.51-.95,4.34-2.73,5.91-2.26-.37-3.32.46-3.48,2.87-.29,4.16-2.45,3.32-5,1.77C50.88,132.7,49.48,127.38,45.51,124.33Z"/><path class="cls-2" d="M60.33,98.72c-2.82-1.27-5.61-2.63-8.85-2-.82-1.08-2-1-3.19-1,1.47-3.37,2.39-7.17,6.68-8.26,1.22,2.13,2.54,4.14,5.33,4.35,0,.67,0,1.33,0,2C60.34,95.4,60.33,97.06,60.33,98.72Z"/><path class="cls-3" d="M60.3,91.75c-2.79-.21-4.11-2.22-5.33-4.35,1.08-1.6,2.17-3.19,3.25-4.78C62.4,84.87,59.54,88.72,60.3,91.75Z"/><path class="cls-3" d="M48.29,95.66c1.16,0,2.37,0,3.19,1-.08,1.48-.06,3-.26,4.44-.15,1.11-.46,2.78-1.63,2.7-1.88-.13-.85-2.06-1.2-3.17-.09-.46-.17-.91-.26-1.36Z"/><path class="cls-2" d="M48.13,99.32c.09.45.17.9.26,1.36l-1,0Z"/><path class="cls-3" d="M116.06,72.69c.07-3.66.15-7.33.23-11a2.16,2.16,0,0,0,.33-.21,5.82,5.82,0,0,0-.33-.59c0-1.36-.06-2.72-.1-4.08,0-2.66,0-5.31,0-8,0-.66.07-1.31.11-2a1.94,1.94,0,0,0,2-2h1.23l3.41,1.44c-2.92,3.07-4.14,6.51-3.08,10.84s-2.34,9.52,2.06,13.5c.16.13-.21.89-.39,1.34-2,4.65-2,9.47-1.9,14.45.06,6.08-.77,12.18-1.22,18.27-3.53-1-1.58-4-2.15-6q-.06-7-.11-13.92Z"/><path class="cls-2" d="M103,117.72l-1.92-1.85,3-1.32a13,13,0,0,1,8.37.07l3.08,0c-2.37,2.8-1.59,7.62-5.92,9.15C107.26,121.89,106.84,118,103,117.72Z"/><path class="cls-3" d="M115.46,114.67l-3.08,0c-.52-3.55-.69-7,1.94-10,1.53,1.57.61,3.82,1.53,5.55C115.71,111.69,115.59,113.18,115.46,114.67Z"/><path class="cls-3" d="M104,114.55l-3,1.32c-1-.76-1-1.84-1-2.92.82-1.76-.77-4.53,2.26-5.38C103.8,109.67,103.35,112.24,104,114.55Z"/><path class="cls-2" d="M115.85,110.2c-.92-1.73,0-4-1.53-5.55.48-2-1.41-4.85,1.94-6,.57,2.06-1.38,5,2.15,6A6.49,6.49,0,0,1,115.85,110.2Z"/><path class="cls-2" d="M116.06,72.69l.09,12.08C113.54,81.75,113.49,75.93,116.06,72.69Z"/><path class="cls-2" d="M116.24,48.85c0,2.66,0,5.31,0,8C113.33,54.15,113.26,51.49,116.24,48.85Z"/><path class="cls-3" d="M124.75,42.6l-5.22.46c-.06-1.06-.13-2.12-.19-3.19,2-1.67,3.06.67,4.59,1.05C124.2,41.48,124.47,42,124.75,42.6Z"/><path class="cls-2" d="M118.3,44.88a1.94,1.94,0,0,1-2,2A1.81,1.81,0,0,1,118.3,44.88Z"/><path class="cls-2" d="M116.29,60.9a5.82,5.82,0,0,1,.33.59,2.16,2.16,0,0,1-.33.21C116.28,61.43,116.28,61.17,116.29,60.9Z"/><path class="cls-3" d="M84.26,152.48c.13-1,.25-2.07.37-3.1,3.47-3.6,1.37-5-2.3-5.83l.06-.39c0-1.82,0-3.65,0-5.47,1.33-6-.86-11.3-3.81-16.07-3.1-5-5.62-9.93-5.32-15.94,1-.21,2.62-1.45,2.88.27.63,4.19,2.89,7.43,5.26,10.67.18.46.33,1.32.53,1.33,4.71.25,3.69,3.19,3.7,6.43,0,2.85-.87,6.78,3.25,8.33.4,2.23,1.9,3.69,3.54,5-.44,3.71,1.42,4.89,4.91,4.89,2.35,0,4.94-1,7.08.93-.13.09-.26.2-.4.28-3.2,1.7-7.29-1.18-10.2,1.93s-.14,7.2-1.21,10.7H87.33C87.42,154.31,86.74,152.72,84.26,152.48Z"/><path class="cls-3" d="M103,117.72c3.86.23,4.28,4.17,6.56,6.1,0,2.24-.07,4.49-.1,6.73-2.58,3.78-5.44,7.51-1.21,12,.24.26,0,1,0,1.46l-2-.44c-.14-2.9-4.06-3.53-4-6.58C104.27,130.64,103,124.15,103,117.72Z"/><path class="cls-2" d="M88.83,132.71c-4.12-1.55-3.23-5.48-3.25-8.33,0-3.24,1-6.18-3.7-6.43-.2,0-.35-.87-.53-1.33,4.76,1.66,4.76-4.23,8-5l3.24.25c-1.59,3.15-3.16,6.31-4.77,9.46-.92,1.79-.46,3.47.19,5.22C88.73,128.52,89.89,130.48,88.83,132.71Z"/><path class="cls-2" d="M131.32,126.43c-1-2.21-2.1-4.42-3.17-6.62,0-.07-.29,0-.54-.06-1.46,3.45,1.07,7.51-1.56,10.78-.31-3.89.36-8.19-1.1-11.58-4-9.17-.54-17.62,1.2-26.31,2.09,1.52.12,4.44,2.08,6,0,3.8.06,7.6.05,11.4a4.17,4.17,0,0,0,2.61,3.91c1.73.75,2.52-1.08,3.41-2.21,2.93-3.75,2.19-8.63,3.85-12.79.44-1.12-.68-2.13-1.57-2.9-2.09-1.8-4.21-3.58-6.32-5.37a3.75,3.75,0,0,0-3.21-2.17,3.67,3.67,0,0,1,2-3.81c2.41,0,1.93-2.31,2.92-3.44.83-.94,1.52-2.54,3.06-2.15,1.69.44,1.09,2.14,1.26,3.39.22,1.54-.62,3.3,1,4.82l2-2.63,3,.86c-1,3.66,3,6.36,2,10-3.29,4.15-2.91,8.48.88,10.1-2.87,7.55-5.61,15.17-11.58,21Z"/><path class="cls-3" d="M145.11,105.68c-3.79-1.62-4.17-6-.88-10.1,1.16.87,1,2.27,1.37,3.44C145.44,101.24,145.27,103.46,145.11,105.68Z"/><path class="cls-4" d="M142.24,85.55l-3-.86c0-5-.13-10,5.78-12.21l3.49.2c.13,1.29.26,2.58.4,3.87C147.14,79.87,143.5,81.82,142.24,85.55Z"/><path class="cls-4" d="M152.7,77.7c.23-.92.46-1.84.7-2.76l4.66,0c.16,1.12.33,2.25.48,3.38C156.39,80.07,154.44,79.93,152.7,77.7Z"/><path class="cls-3" d="M145.06,72.48c-5.91,2.19-5.79,7.23-5.78,12.21l-2,2.63c-1.62-1.52-.78-3.28-1-4.82-.17-1.25.43-3-1.26-3.39-1.54-.39-2.23,1.21-3.06,2.15-1,1.13-.51,3.49-2.92,3.44a27.09,27.09,0,0,1,2.51-9.35c2-5,6.67-10,2.26-16l2.58-1.52c1.87.18,2.28,1.71,2.86,3.08-3.57,1.64-1.47,4-1.08,6.12,1.48-1.91.88-4.07,1.07-6.13,3.11.43,6.21-.89,9.31,0-2.21,1.34-2.71,3.11-1.37,5.35,0,1.47,2.1,3,0,4.4-.91-1.27-1.61-3-3.68-2.19-.88.35-1.85,1.19-1.62,2.17.42,1.8,2.06,1,3.23,1.08Z"/><path class="cls-2" d="M148.51,60.85c-3.1-.89-6.2.43-9.31,0h0c-.58-1.37-1-2.9-2.86-3.08-.41-.93-.81-1.87-1.22-2.8,1-1.43,2.82-1.27,4.08-2.17,3.19.91,5.06,4.8,9,4L151.54,58Z"/><path class="cls-2" d="M152.44,56.23c0-.74.2-1.11.82-.32A3.88,3.88,0,0,1,152.44,56.23Z"/><path class="cls-2" d="M159,59.43l-.6,1.4Z"/><path class="cls-4" d="M73.21,105.68c-.3,6,2.22,10.94,5.32,15.94,3,4.77,5.14,10.1,3.81,16.07l-15.9-.1a2.17,2.17,0,0,0-1.9-1.21,2.73,2.73,0,0,0-.17-.85c-.18-1.6-.36-3.21-.53-4.81,1.78-1.56,3-3.39,2.73-5.9l.18-1,.62-1.19c0-1,.09-1.93.14-2.9.55-.43.54-.88,0-1.34v-1.6a3.21,3.21,0,0,0-.09-4.23l-.71-7.87c1-2.81.35-4.68-2.89-5.08l-.18-4.85c.81-2.37.58-5.22,3.11-6.8,1.63-.27,2.6.8,3.65,1.74a1.53,1.53,0,0,0,.16.91c-.06.44-.11.88-.16,1.31-1.17.82-1.2,1.66-.07,2.53.33,3.07.65,6.13,1,9.2A2.9,2.9,0,0,0,73.21,105.68Z"/><path class="cls-2" d="M76.35,82l-1.1.68Z"/><path class="cls-3" d="M63.67,94.78l.18,4.85-3.52-.91c0-1.66,0-3.32,0-5Z"/><path class="cls-2" d="M63.85,52.88c.14.37.27.74.41,1.12C64.12,53.62,64,53.25,63.85,52.88Z"/><path class="cls-4" d="M93.48,187.22a7,7,0,0,1-7.16.16c-2-.37-3.37-1.82-5-2.68-3.42-1.75-3.64-6-6.85-7.81a.71.71,0,0,0-.34-.63q-.18-4.41-.38-8.83,1.36-3.44,2.74-6.89c.29-.37.58-.75.88-1.12,1.91-.54,4-.74,5.39-2.41L85,157c1.33,1.94,1.58,4.3,2.47,6.39,1.28,3,.93,6.72,3.82,9,2.71,2,2.92,5,2.86,8-1.15,1.29-.93,2.69-.33,4.13Z"/><path class="cls-3" d="M74.42,176.89c3.21,1.76,3.43,6.06,6.85,7.81,1.68.86,3.08,2.31,5,2.68-.18.77-.19,2.11-.57,2.22-2.75.8-3.34,2.16-2,4.73.37.69-1,1-1.74,1.3-1.89-.58-2.41-3.16-4.68-3.18a9.14,9.14,0,0,0-1.94-8.95C73.72,181.4,74.58,179.11,74.42,176.89Z"/><path class="cls-3" d="M73.67,193.74c0,.76-.07,1.52-.11,2.28v1.67c0,1.44,0,2.88,0,4.32-.67,1.44.33,3.29-1.41,4.89-2.67-5.05-1.68-10.29-1.76-15.38,0-.87.46-1.9,1.33-1.77C74.19,190.1,73,192.41,73.67,193.74Z"/><path class="cls-4" d="M101.34,192.39,99.9,190l.15-2.48-.33-1.3c-.08-2-.17-4-.25-6,1-1.22.72-2.56.37-3.9,1.64-4.33,5.64-1.88,8.43-2.92l1.78.26a2.28,2.28,0,0,0,2.2,1.82,26.61,26.61,0,0,1,.55,8.76L107.93,193Z"/><path class="cls-1" d="M120.29,198.38c-3.25-1.08-7.4,2.18-10-2l2.06-1c2,.17,1.77-3.08,3.6-2.7,3.32.69,6.65,1.37,9.93,2.12,2.3.53.29,2.49-.67,3.66Z"/><path class="cls-3" d="M112.33,195.34l-2.06,1c-2.59,0-5.2.16-7.78-.07-3.3-.28-3.44-1.79-1.15-3.88l6.59.65C109.49,193.64,112.64,191.2,112.33,195.34Z"/><path class="cls-3" d="M120.29,198.38l4.9,0,1,3.71-3.93.17C121.16,201.23,119.94,200.2,120.29,198.38Z"/><path class="cls-3" d="M148.6,228c2.75,2.43.68,2.87-1.38,3.32Z"/><path class="cls-2" d="M136.08,205.58a11.56,11.56,0,0,1-1.49-5.29C137.45,201.4,136,203.71,136.08,205.58Z"/><path class="cls-2" d="M134.32,185.42l1-1Z"/><path class="cls-2" d="M135.3,184.42l.87-1.11Z"/><path class="cls-2" d="M106.14,230.5l-15.5-.07c.45-6.7-.63-14,6.71-18.1l.17.17a2.47,2.47,0,0,0,.84,2.85l-1,1c-3.9,1.3-4.34,4.76-1,7.94.94,2.82,2.86,4.1,5.87,4C103.83,228.25,106,227.63,106.14,230.5Z"/><path class="cls-3" d="M91.17,201.45c2.94-3.08,9.11-4,13-2,2.47,1.3,2.77,3.13,1.32,8.21-2.15-.74-.23-4.14-2.89-4.43l-1.22-.47c-3.07-2.74-6.73-1-10.12-1.33Z"/><path class="cls-2" d="M91.24,201.47c3.39.36,7.05-1.41,10.12,1.33C97.94,202.77,94.26,204.62,91.24,201.47Z"/><path class="cls-2" d="M73.56,197.69V196A1,1,0,0,1,73.56,197.69Z"/><path class="cls-3" d="M112.72,206c-.45.81-.58,2.07-1.89,1.83a2,2,0,0,1-1.4-1.82c-.33-1.9-.07-3.73,1.69-4.74,2-1.16,4.22-1.79,6.09.47l-1.52-.15-1.43.84-.3.12h-.32a1.17,1.17,0,0,0-1,1.24Z"/><path class="cls-2" d="M114.26,202.38l1.43-.84Z"/><path class="cls-2" d="M112.62,203.74a1.17,1.17,0,0,1,1-1.24Z"/><path class="cls-1" d="M97.33,216.31l1-1c2.37-.27,4-1.9,6-3.07,2.39-1,4.61-3.26,7.13.17,4.27,5.8,5,9.79,1.78,13.77-1.31,1.65-3.17,2.87-3.91,5a3,3,0,0,1-3.18-.69c-.1-2.87-2.31-2.25-4-2.22-3,.07-4.93-1.21-5.87-4C97.58,221.72,98.23,219.11,97.33,216.31Z"/><path class="cls-3" d="M104.32,212.28c-1.92,1.17-3.59,2.8-6,3.07a2.47,2.47,0,0,1-.84-2.85,5.46,5.46,0,0,0,3.3-1.88C103.08,208.45,104.25,209.4,104.32,212.28Z"/><path class="cls-4" d="M124.75,42.6c-.28-.56-.55-1.12-.82-1.68,1.51-1.77,3.5-3.42,1.43-6a8.17,8.17,0,0,1,3-5h5.92a.8.8,0,0,0,1.07.7l.78,5.25c-1.55,3.26-.65,6.7-.73,10.07L133.2,46l-3.9-2.42C127.94,42.55,126.3,42.78,124.75,42.6Z"/><path class="cls-3" d="M128.35,29.86a8.17,8.17,0,0,0-3,5c-1.57,0-3.16-.18-2.94-2.3s1.7-3.43,3.92-3.69A2.17,2.17,0,0,1,128.35,29.86Z"/><path class="cls-3" d="M130.51,26.79c-.69-.1-1.42-.34-1.39-1.11s.88-.83,1.48-.69c.42.09,1,.4,1.12.73C132,26.64,131.17,26.7,130.51,26.79Z"/><path class="cls-3" d="M138.63,27.71c-.4.66-.39,1.68-1.51,1.67a.46.46,0,0,1-.33-.33c0-1.12,1-1.11,1.66-1.51Z"/><path class="cls-3" d="M135.34,30.57a.8.8,0,0,1-1.07-.7C134.62,30.11,135,30.34,135.34,30.57Z"/><path class="cls-4" d="M133.77,59.3c4.41,6-.22,11.07-2.26,16A27.09,27.09,0,0,0,129,84.7a3.67,3.67,0,0,0-2,3.81c-.3,1.38-.6,2.75-.91,4.13C124.41,101.33,121,109.78,125,119c1.46,3.39.79,7.69,1.1,11.58-.06.57-.12,1.15-.17,1.73a2.8,2.8,0,0,0-1.91,2l-1,1.88c-5.79,1.28-10.35-.44-13.48-5.58,0-2.24.07-4.49.1-6.73,4.33-1.53,3.55-6.35,5.92-9.15.13-1.49.25-3,.39-4.47a6.49,6.49,0,0,0,2.56-5.49c.45-6.09,1.28-12.19,1.22-18.27,0-5,0-9.8,1.9-14.45.18-.45.55-1.21.39-1.34-4.4-4-1-9.1-2.06-13.5s.16-7.77,3.08-10.84h5.12c.27,1.08.18,2.72.86,3.15,2.75,1.73,1.41,3.58.57,5.51-.17,1.26-.35,2.53-.52,3.79-.46.61-1.28,1.21-1.3,1.83,0,1,.91.52,1.45.4,1.37-.31,2.94-.23,3.71-1.79l.46.15Z"/><path class="cls-2" d="M133.2,46l2.19-.15c1.08,1.2.57,2.23-.7,2.44C133,48.63,133.41,47,133.2,46Z"/><path class="cls-3" d="M108.27,173.42c-.06-1.72-1.15-2.71-2.48-3.53,4.91-2,2.85-7,4.45-10.39,1.25.9,1.15,2.27,1,3.51-.32,3.52,1.63,3.11,3.86,2.35.76,2.95,3.2,1.87,5.09,2.11l0,0c0,.7,0,1.41,0,2.11,0,1.38.08,2.76.11,4.15l-.21,1.65-1.53-.68c-.13-.49-.27-1-.4-1.46.26-2.47-1.63-3.33-3.32-4.28-.67-.37-1.22,0-1.47.78-.62,1.83.94,2.57,1.81,3.66-.65,1-1.7,1.06-2.75,1.08a2.3,2.3,0,0,0-2.49-.83Z"/><path class="cls-2" d="M118.67,174.73l1.53.68a1.85,1.85,0,0,1-1.7,2.1C118.56,176.59,118.62,175.66,118.67,174.73Z"/><path class="cls-2" d="M120.23,167.47c-1.89-.24-4.33.84-5.09-2.11a22.19,22.19,0,0,0-1.94-12.84c-.2-1.7,2.91-4-.93-5-.07-1.73-.16-3.42-2.6-1.88a2,2,0,0,1-1.48-1.61c0-.49.28-1.2,0-1.46-4.23-4.49-1.37-8.22,1.21-12,3.13,5.14,7.69,6.86,13.48,5.58.17,1.07-.14,2.42-1.24,2.18-6-1.32-3.83,4-5,6.32-.86,1.66,1.18,1.83,2.51,1.9a25.6,25.6,0,0,1-1.25,10C116.62,160.3,116,164.59,120.23,167.47Z"/><path class="cls-2" d="M124.37,167.59c-1,1.36-2.53,1.7-4.07,2,0-.7,0-1.41,0-2.11Z"/><path class="cls-2" d="M123.29,143.62c.7-1,1.36-1,2,.08C124.58,144.42,123.92,144.45,123.29,143.62Z"/><path class="cls-2" d="M130.22,163.56l-1,.68a2.28,2.28,0,0,1,.06-.64A4.83,4.83,0,0,1,130.22,163.56Z"/><path class="cls-2" d="M124,134.25a2.8,2.8,0,0,1,1.91-2C126.22,133.86,125.51,134.45,124,134.25Z"/><path class="cls-2" d="M64.24,138.57l.3,3.89c-.43.42-.85.85-1.27,1.27-1.12,0-2.23-.12-3-1.14C60.13,139.8,61,138,64.24,138.57Z"/><path class="cls-1" d="M64.37,135.53a2.73,2.73,0,0,1,.17.85l-.52-.54Z"/><path class="cls-2" d="M46.43,110.68c-.41,2.64.93,5.5-1,7.94C44.38,115.8,42.7,112.9,46.43,110.68Z"/><path class="cls-2" d="M46.44,105.66c3.08,1.65,3,3.32,0,5C46.45,109,46.44,107.32,46.44,105.66Z"/><path class="cls-3" d="M63.27,143.73c.42-.42.84-.85,1.27-1.27l3.85,1.08c-1.44,1.48-3,2.19-5,1.05A8.08,8.08,0,0,1,63.27,143.73Z"/><path class="cls-3" d="M66.74,104.71c.24,2.62.48,5.25.71,7.87l.09,4.23v1.6l0,1.34c-.05,1-.1,1.94-.14,2.9l-.62,1.19-.18,1c-.66-.44-1.85-.83-1.9-1.34a78.36,78.36,0,0,1,0-17.72C64.8,104.9,65.9,104.77,66.74,104.71Z"/><path class="cls-4" d="M108.19,144a2,2,0,0,0,1.47,1.61c.16.91.32,1.83.47,2.74-.86,2.06-1.14,4.12.06,6.16,0,1.66,0,3.32,0,5-1.6,3.41.46,8.39-4.45,10.39-2.55,0-5.09-.79-7.63,0a1.76,1.76,0,0,0-1.76-1.51c-2.93-3.42-3.71-7.53-3.85-11.86,1.07-3.5-1.83-7.45,1.21-10.7s7-.23,10.2-1.93c.14-.08.27-.19.4-.28h1.81Z"/><path class="cls-1" d="M130.26,90.68c2.11,1.79,4.23,3.57,6.32,5.37.89.77,2,1.78,1.57,2.9-1.66,4.16-.92,9-3.85,12.79-.89,1.13-1.68,3-3.41,2.21a4.17,4.17,0,0,1-2.61-3.91c0-3.8,0-7.6-.05-11.4C129.63,96.17,128.54,93.07,130.26,90.68Z"/><path class="cls-3" d="M130.26,90.68c-1.72,2.39-.63,5.49-2,8-2-1.56,0-4.48-2.08-6l.9-4.13A3.75,3.75,0,0,1,130.26,90.68Z"/><path class="cls-1" d="M67.54,116.81l-.09-4.23A3.21,3.21,0,0,1,67.54,116.81Z"/><path class="cls-1" d="M67.51,119.75l0-1.34C68.05,118.87,68.06,119.32,67.51,119.75Z"/><path class="cls-1" d="M66.75,123.84l.62-1.19Z"/><path class="cls-2" d="M99.47,180.24c-1.72-1.48-1.58-2.78.38-3.9C100.19,177.68,100.49,179,99.47,180.24Z"/><path class="cls-2" d="M110.05,173.68a2.3,2.3,0,0,1,2.49.83c-.1.33-.19.66-.29,1A2.28,2.28,0,0,1,110.05,173.68Z"/><path class="cls-2" d="M100.05,187.5c-.11-.43-.22-.87-.34-1.3C99.83,186.63,99.94,187.07,100.05,187.5Z"/><path class="cls-2" d="M115.29,173.43c-.87-1.09-2.43-1.83-1.81-3.66.25-.73.8-1.15,1.47-.78,1.69.95,3.58,1.81,3.32,4.28Z"/><path class="cls-3" d="M97.33,216.31c.9,2.8.25,5.41-1,7.94C93,221.07,93.43,217.61,97.33,216.31Z"/><path class="cls-3" d="M96.4,168.35a1.76,1.76,0,0,1,1.76,1.51C96.41,170.7,96.43,169.51,96.4,168.35Z"/><path class="cls-3" d="M129,58.75l3.86.44c-.77,1.56-2.34,1.48-3.71,1.79-.54.12-1.48.62-1.45-.4C127.69,60,128.51,59.36,129,58.75Z"/><path class="cls-3" d="M113.2,152.52c-1.53-1.45-.82-3.31-.93-5C116.11,148.52,113,150.82,113.2,152.52Z"/><path class="cls-3" d="M110.13,148.36c1.92,2,1.73,4.09.06,6.16C109,152.48,109.27,150.42,110.13,148.36Z"/></svg>