<svg id="圖層_1" data-name="圖層 1" xmlns="http://www.w3.org/2000/svg" viewBox="0 0 200.41 307.91"><defs><style>.cls-1{fill:#91ced8;}.cls-2{fill:#92bcc3;}.cls-3{fill:#7da6ab;}.cls-4{fill:#e0eaea;}.cls-5{fill:#f0e6ee;}</style></defs><title>剪石布</title><path class="cls-1" d="M41.7,157.91l.57,2.16L42.18,162c-.15.29-.42.57-.44.87-.51,7.75,5.4,13.4,6.84,20.53.11.56,1,1.65,1.84.85.48-.45.37-1.51.53-2.3l.8-1.12a1.13,1.13,0,0,0,.66-.69c3.65-.89,4.66-2.75,2.17-5.89.22-1.07.45-2.14.67-3.21,2.42-.09,2.85-1.75,2.89-3.68,0-2.44.07-4.87.11-7.3,1.14-.55.62-3,2.48-2.48,1.48.42,2.19,1.81,2.43,3.41.28,1.79-.9,4.11,1.71,5.13.08,3.29.15,6.57.22,9.86-.66,3.63-.85,7.15,2.19,10,0,2.62,0,5.24.07,7.86-1,3.5,1.31,6.41,2.06,9.51,1.16,4.84-.47,9.91,1.71,14.53-.23,3.12,1.32,7-.65,9.2-2.5,2.83-2.18,5.68-2.37,8.73-1.24.61-2.13,1-3.16-.71-1.63-2.73-3.38-5.66-5.82-7.56-4-3.1-7.9-5.9-8.14-11.55,0-1-1-1.66-1.89-2.1l0-1.94a1.81,1.81,0,0,0-1.61-2.1l-.32-4a1.86,1.86,0,0,0-1.7-1.95l-2.17-3c2.13-2.24,1.68-4.4.49-7.1-1.32-3-4.6-4.91-4.51-8.5.1-3.84-1.67-4.56-4.9-3.23-2.42-2.29-2.68-5.29-2.06-8.18a16.84,16.84,0,0,0-.27-6.72,12.35,12.35,0,0,1,2.31.68c1.13.57,2.32,1.91,3.38.37s.08-3.08-1.23-4.25a4.55,4.55,0,0,0-3.23-.89l0,0c-.67-2.31,1.6-5.4-1.84-7l-.13-2c-.28-.48-.51-1.3-.87-1.36-1-.18-1,.77-1.15,1.48a3.52,3.52,0,0,1-.86,0,3.33,3.33,0,0,1-2.29-3l1.17-1a2.9,2.9,0,0,0,1.59-4.75c-2.87-3.16-2-8.21-7.36-11l6.34.43.27-.09.22.19c0,1.57.7,2.25,2.26,2.05,1.22,1,2.53,1.94,2.89,3.63l1,1.53c.57,4.09,5.16,6.69,4.19,11.35-.23,1.85-1.43,4.1,1.88,4.45Z"/><path class="cls-1" d="M53.58,269.16l-3.31-3.38h1.49c2.6-2.12,1.06-4.75,1.17-7.27-2-.21-3.07,1.7-4.8,1.24l-3.25-1.55-.13-.24c0-1.14.32-2.53-.2-3.36C38.26,244.53,34,233.48,28.64,222.94c2.77-.74-1.25-4.88,2.57-5.1v0c2.56,3.95,5,8,7.71,11.83,4.44,6.35,10.27,11.68,12.85,19.42.73,2.17,1.54,5.34,4.37,6.61.58.55,1.15,1.57,1.73,1.57,4.07,0,6.78,1.4,7,5.92,0,.25.79.46,1.22.7,2,4.95,5.59,7.64,11,7.8,2.35,2.17-1,6.49,3,8,1.05,3.75.9,8.53,6.92,8l1,2c1.22,1.84,5.52-.26,5,3.86l-23.83-.07a6.55,6.55,0,0,0-3.81-3.85l0-2.95c1.94-.56,2-1.6.76-3-.58-3.87,1.58-9.1-5-10L60,273c-.62-2.43-1.69-4.3-4.69-3.78Z"/><path class="cls-2" d="M83.55,100.22a37.42,37.42,0,0,0,.15-10.93l.06-1,.09-2a5.56,5.56,0,0,0,.1-5,77.31,77.31,0,0,0-.23-13.86,12.7,12.7,0,0,0,.06-7.15q.39-5.92.79-11.84c1.37-.43,1.56-1.1.41-2l.29-2c2.6-1.3,2.27-3.57,2-5.85l-.14-2.09.7-.84a12.3,12.3,0,0,0,2.28-.8c7.46-4.41,11.74-2.75,14.58,5.51.48,1.42-.2,3.5,1.94,4.18.32,2.59.65,5.19,1,7.79-.14.73-.27,1.46-.4,2.19-1.13,2.09-2,4.16.49,6l.27,8a1.62,1.62,0,0,0,0,2.82l0,14.16c-1.12.68-.7,2-1.19,2.92-2.18-.77-1.58-2.65-1.62-4.22-.06-3,.09-6-.08-8.94-.14-2.41-.9-4.39-4-2.79l-3-.06c0-1.3-.08-2.61-.11-3.91a2.07,2.07,0,0,0,1.11-2c2.06-1.2,2.75-2.64.82-4.56,1.2-2.93-2.37-4.62-1.92-7.35,1.84-.34,2.22-1.63,2.2-3.25,0-3.91,0-7.82,0-11.73,0-1.12.11-2.64-1.33-2.76-1.93-.17-1.51,1.69-1.83,2.85a4,4,0,0,0-3.46.85c-3.69,2.57-3.8,11.12-.19,14,.24,3.07-3.29,8,3.75,7.73L97,65.46a5,5,0,0,0-3.78,1.08c-1-1-1.76-.89-2,.49a35.17,35.17,0,0,0-.11,4.36c0,3.14-.07,6.29,0,9.43,0,1.69-.7,3.83,1.92,4.46.12,2,.37,4-2.06,5-4.61.29-4.65,3-3,6.16,1,2,1.48,3.61,0,5.44-1.25,1.59-.83,3.46-.88,5.25L85.1,108.2l-.9-.78C83.79,105,84.9,102.52,83.55,100.22Z"/><path class="cls-2" d="M125.9,92.23l.39-1.93a2.46,2.46,0,0,0,.4-3.12l.63-.85c2.69-2.85,3.26-6.3,2.85-10-.17-.69-.34-1.38-.52-2.06l.77-.85c.68-.42,1.88-.76,2-1.25.93-6.66,4.95-12.42,5.49-19.17l.77-.67c2.19-1.68,5-2.86,5.29-6.14l.2-.21.29,0,7.5.45.08.09c.06,2.15-.21,4.37.24,6.44.85,3.78,1.59,7.68.14,11.23a15.07,15.07,0,0,0-.4,11.06v0c-4.86,2.64-3.43,6.94-2.9,11l-.23,1.93-1.88.08-3-.08c-.8-1.72-2.26-2.08-4-2-.29-2.63,1.62-4.17,3-6,3.09,1.83,3.2-.85,3.68-2.57.81-2.87-.33-4.45-3.44-4.35a11.41,11.41,0,0,1,.22-1.95c.6-2,.38-4.37-1.58-4.5-2.8-.2-1.8,2.67-1.69,4.18.23,3.33-.11,6.25-3.16,8.25-1,.17-2.52-1.17-2.85.59a73.7,73.7,0,0,0-1,9.13c-.12,2,1.52,2.18,3.06,2.24l.72,2.93A2.87,2.87,0,0,0,134,97.16a4.1,4.1,0,0,1-.91.19c-1.11-1.64-2.6-2.91-2.89.2-.33,3.5-.59,6.83-2.54,9.92-1.21,1.92.06,2.68,2,2.61l.12,2.09c-1.46.67-5.68-.34-3.93,2,2.24,3,1.2,5.41,1.35,8.12l-.85,1.14c-.46-.67-.58-2.36-1.81-1.34-2.66,2.21-1.61,8.33,1.56,10.08a2.91,2.91,0,0,1-2.26,2.94c-2.12-1.16-3.72-1.25-3.77,1.84a2.88,2.88,0,0,1-2.87,3.19c-2.73-1.16-6.47-1-6.92-5.17,1.89-.45,4.57,1.5,5.56-1.77l.61-1.09c1.68-.62,1.72-1.6.6-2.82.34-1.45.68-2.89,1-4.33,1.43,0,2-.63,1.36-2,.32-1.22,1.64-2.36.27-3.7.24-1,.48-2,.71-3a5.41,5.41,0,0,0,2.18-6.25c.23-1.26.9-2.5.2-3.8l.62-1a1.51,1.51,0,0,0,.67-1.78l.27-2.16c2.58-1.79,2.11-4.37,1.81-6.91Zm16.39-30c1.65.5,2.58,2.64,4.71,2.07,1.83,1.25,1.93-.19,2-1.35.08-2.64,0-5.27,0-7.91,0-2.36-1-4-3.6-3.43-2.84.62-2.53,2.53-1.31,4.53a2.21,2.21,0,0,1-1.81,2.31c-.38-.5-1-1.5-1.11-1.44-1.89.79-1,2.53-1.07,3.87-.07,1-.54,2.47,1.1,2.8C141.44,63.76,141.91,62.77,142.29,62.26Z"/><path class="cls-2" d="M56.15,255.72c-2.83-1.27-3.64-4.44-4.37-6.61-2.58-7.74-8.41-13.07-12.85-19.42-2.7-3.86-5.15-7.88-7.71-11.83l.18-.37-.19.35c-3.82.22.2,4.36-2.57,5.1-2.79-2.94-3.16-6.71-3.31-10.44-.26-6.41-.16-12.83-.48-19.24-.13-2.64.27-5.76-2.94-7.27l-.42-1.73c.81-3.29,1.07-6.41-2.69-8.22-.13-.58-.27-1.16-.41-1.74a20.7,20.7,0,0,0-1.37-9l-.07-1.5v-.12c4.62-1.2,5.84-.28,5.7,5.17-.14,5.18,2.81,10.43,4.48,15.63.07.25.9.26,1.38.37,4.49,1.89,3.8,5.46,3,9.08-4.38,1.78-2.05,5.38-1.88,8.09.23,3.47,3.57,2.66,5.88,3.1.25,4.33-1.67,9,1.72,12.87l.77.78q6.28,9.42,12.58,18.84c3.42,5.17,6.78,10.38,8.12,16.57Z"/><path class="cls-2" d="M38.61,65.3l-.74-.87A5.62,5.62,0,0,0,38,59.32q.18-3.45.35-6.9a14.87,14.87,0,0,0,1-1.64c1.49-3.35,3.83-6.1,7.57-6.26s6,2.62,8,5.7c2.68,4.21,3.2,8.87,3.68,13.6-.42,1.33-.11,2.27,1.38,2.59l1.33,2.92c.12,1.3.23,2.6.35,3.89-.1,1.35-.19,2.71-.28,4.06-1.35,1-.89,1.62.39,2.11l.6,1.87q-2.12,3.52-4.22,7c-3.44-6.9-6-14-6-21.89,3.56-.64,3.69-3.18,2.52-5.61s-2.31-.12-3.4.56l-2.87.05c-1.29-.5-2.09-.48-2.23,1.3a49.11,49.11,0,0,1-1,5.7l-4.84,0C40.09,67.14,40.37,65.69,38.61,65.3Zm5.87-15c3.08,1.22,2.8,4.86,6,4.33,1-.16.85-2,.45-3.09C50,48.9,48,49.15,44.48,50.32ZM43.31,64.05c1.13-1.71,1.18-2.94-.28-4.34C42,61.35,41.84,62.59,43.31,64.05Z"/><path class="cls-2" d="M175.59,122.09c.08.35.17.7.26,1l-1.14,1c-2.54,1.69-4.86,3.48-2.86,7l-.3,2.94-2.73,2.11-2.61-.93A2.63,2.63,0,0,0,163.9,133c-.58-3,2.35-5,2.23-7.94.5,0,1.22.18,1.44-.08,4-4.57,4.4-10.81,7.24-15.95.5-.9-.79-1.63-1.85-1.81.19-2.47,3.58-4.46,1-7.69-1.7,1.32-2.53,3.65-4.89,3.76-1.48-.34-3.24.59-4.53-.94.47-1.39,1.84-2.4,1.43-4l3.27-6a4.44,4.44,0,0,0,3.6-3.93l.88-.52c2.5.25,3.88-1.42,5.25-3.1l2.91-.13c.32,1.55,1.54,1.67,2.79,1.72l.82,2.6c-.62,2.45-1.13,4.89.36,7.23l-.54,2.1-.29.87-.28,1.15c-3.6,4.66-6.34,9.69-6.66,15.74l-.19.37C174.76,117.32,173.72,119.1,175.59,122.09Zm5.84-24.71c.46-3.19,1.33-5.52-.52-7.65a1.38,1.38,0,0,0-1.26.2C178.3,92.42,179.21,94.57,181.43,97.38Z"/><path class="cls-2" d="M109.79,114.17c.28,2,.56,4,.83,6l-1.09-.13c-3.71-2.56-4.87,0-5.81,2.9-1.06,3.23-1.37,6.75-.12,9.72,3.18,7.56-.59,16,3.47,23.36-1.37,0-3.12.06-2.67,1.95,1.41,5.87,0,11.85,1,18.46,1.05-1.74.39-3.56,1.71-4.46a2.87,2.87,0,0,1,.57,3.63c-3.84,8.08-2.24,16.7-2.64,25.13-.14,3,1,6.24-1,9.09-1.38-1.35-.92-3.09-.93-4.7,0-4.95,0-9.92,0-14.88,0-1.71.58-3.82-2.06-4.35,2.68-10.4,2.18-21,2-31.57-.74-3.45,2.12-7.59-2-10.39l-.06-2.08-.89-5.75c1.71-2.5-.77-2.92-2-4,.39-4.68-1.61-9.25-.66-14,1.92-.16,1.47-3.16,3.64-3,1.69-.26,2-1.45,2-2.9.16-6.65-.71-13.34,1-19.92l2.8-1.14.51,11.85c-1.12.7-1.18,1.84-1.21,3a9.32,9.32,0,0,0-1,6l2.34-1C108.54,111.87,107.85,114,109.79,114.17Z"/><path class="cls-2" d="M146.45,112.29c-.25,1.62-.5,3.23-.76,4.84-2,0-2.36,2.09-3.61,3.05-2.49.79-4.44,1.86-4.34,5.07a12.57,12.57,0,0,1-1.06,5.8c-4.34,8.79-4.09,18.15-3.15,27.42.48,4.74,0,8.79-2.62,12.64L128,169.92c1.84-3.83,2.66-7.74.9-11.83-.69-1.62-2.22-2.91-1.86-4.92.56-1.63,3.47-.15,3.3-2.45,0-.36-1.61-.61-2.47-.91a3.69,3.69,0,0,0,2-4c-1.07-8.95,1.33-17.44,3.85-25.88a4.2,4.2,0,0,1,3-3c.5,1,.72,2.51,2.36,1.44,1-.67,1.14-10.91.07-11.5-.59-.33-1.57.07-2.38.14l.19-1.77c3.22-1.58,1.62-4.68,2.24-7.09,1.36.48,3.33,2.39,2.9-1.27a2.69,2.69,0,0,1,1-2.59c1.93,1.54,0,4.29,1.87,5.85l.12,2.13v1.1c.12,1.32-.4,2.77.83,3.85C146.29,108.87,145.44,110.69,146.45,112.29Z"/><path class="cls-1" d="M40.23,68.37l4.85,0c.85,3-1.81,6.81,2,9.17.4,1.81,1.85,1.72,3.22,1.77,0,.57.09,1.14.13,1.72C46,84.2,47.49,88.91,49.11,92s1.91,6.12,2.16,9.34q-.1,6.39-.2,12.78l-1.88.06-.92-3c1.1-2.43,1.25-4.52-2-5.4a.91.91,0,0,0-.78.26l-.72-1.78.63-2.05c.63-4.37,1.27-8.75-2.75-12.07l-.28-3c1.45-4.84-.24-9-2.79-13l-.35-3.89A2.1,2.1,0,0,0,40.23,68.37Z"/><path class="cls-2" d="M152.63,125.05l.42-1.85,1,.17c3.48-.05,3.17-1.9,2-4.17l-.41-2.14a.87.87,0,0,1,.57.21c2.54-.89,2.74-3.4,3.7-5.36.38-.77.74-1.56,1.67-1.45s1.25.92,1.31,1.79c.12,1.9-.24,4.17,2.88,3.81l.18,2.15,0,0c-1.18,0-2.37,0-3.15,1.11-1.77-.17-3.28.15-3.71,2.2a2.08,2.08,0,0,0,1.93,2.76c.15,2.31-2.83,2.65-3,4.76-3.58,3.13-4.15,5.29-1.92,7.21,0,2-.09,3.9-.14,5.85a5.8,5.8,0,0,0-2,4c-.28.78-.33,1.8-.87,2.29-2.77,2.53-1.59,8-6.58,8.8L145,156c.95-6.21,5.26-11.2,6.35-17.39.38-2.16,1.32-4.19-1-5.83l.31-1.57c2.31-.43,3.67-1.42,2.38-4Z"/><path class="cls-2" d="M64.87,166.12c-2.61-1-1.43-3.34-1.71-5.13-.24-1.6-.95-3-2.43-3.41-1.86-.53-1.34,1.93-2.49,2.48l-2,0-1.13,0c-.3-2.93,0-5.94-1.2-8.74l.66-1.54.59-3.64c3.93-2.27,1.08-6.1,2.09-9,2.53.39,2.93-1.42,3.31-3.23,3,4.29,3.12,9.12,2.17,14a7.12,7.12,0,0,0,.48,5.19c1.05,4,4.23,5.79,8.25,4.1,3-1.24,2.54.43,2.6,2.11a13,13,0,0,0-6.35,1C63.37,160.52,65.91,164.19,64.87,166.12Z"/><path class="cls-3" d="M165.81,116.06c-3.12.36-2.76-1.91-2.88-3.81-.06-.87-.38-1.68-1.31-1.79s-1.29.68-1.67,1.45c-1,2-1.16,4.47-3.7,5.36-.09-.7-.17-1.39-.26-2.08,3.17-3.76,4.51-8.38,6-12.9l0,0c1.63-1,1.77-3.49,4-3.94.41,1.62-1,2.63-1.43,4,1.29,1.53,3,.6,4.53.94-.25,2.81.86,4.28,3.85,3.93,1.06.18,2.35.91,1.85,1.81-2.84,5.14-3.23,11.38-7.24,15.95-.22.26-.94.06-1.44.08l-.12-6.85,0,0c4-.63,2.92-3.68,2.94-6.16,0-.86-.65-1.89-1.45-1.57C164.74,111.57,166.4,114.19,165.81,116.06Z"/><path class="cls-1" d="M57.27,137.05c-1,2.94,1.84,6.77-2.09,9-1.18-1.91.21-5.07-3-6a1.63,1.63,0,0,1-.66.19c.26-.72.51-1.44.76-2.16,1.15-1.13.73-1.76-.66-2.08l-.87-1.84.54-2.06c2.47-3.62-1-6.6-1.06-10,1.33-.86,1.44-8.43,4.38-.76.52,1.37,2.24,1.7,3.71,1.86l1.9,3.59C57,129.61,57.78,133.52,57.27,137.05Z"/><path class="cls-2" d="M139,295.34a37.86,37.86,0,0,1-10.84,0c0-.62,0-1.24,0-1.86a6.16,6.16,0,0,1,1.73-.81C142,291.29,142,291.3,142,279c0-.82-.06-1.65,0-2.46.26-2.84,0-5.88,2.77-7.84a4.73,4.73,0,0,0,1,.08l-.3,5.9c-2.34,3.05-2.59,6.07.16,9,.17,2.29.35,4.57.53,6.86C145.54,294.77,140.33,292.17,139,295.34Z"/><path class="cls-3" d="M159.27,195c-.07,1-.15,2-.22,3-1.45,1.27-.74,3-1.1,4.58-1.31,5.68-.42,11.64-2.21,17.26-1.59-6.26-.35-12.61-.59-18.91,1.56-2.23.59-4.76.85-7.14.3-2.83.11-5.81,2.7-7.85Z"/><path class="cls-3" d="M153.35,244.86c-.12.65-.23,1.29-.34,1.94-.13.07-.36.14-.36.2a4.79,4.79,0,0,0,.19.72l-.75,3c-2.57,1.21-1.41,4.35-3.11,6l-1-1c1.13-1.85-.68-3.91.49-5.78,2.73-4.37,2.58-9.47,3.74-14.24.91-3.69.52-7.83,3.23-11l.71,7.09-.11,2C155.05,237.47,153.06,240.89,153.35,244.86Z"/><path class="cls-3" d="M153,75.33,152,75.26a15.07,15.07,0,0,1,.4-11.06c1.45-3.55.71-7.45-.14-11.23-.45-2.07-.18-4.29-.24-6.44,3.3,1.39,2.19,5.3,4.25,7.41l-.09,6.89c-1.35,4.11-3.31,8.08-2.82,12.6Z"/><path class="cls-3" d="M168.44,146c1.54,4.43-2.7,7.88-2.08,12.15-.1.65-.21,1.3-.31,2-.33.55-.69,1.08-1,1.65-3.13,6.07-2.44,13.36-6.12,19.26-1-.74-.87-1.82-.83-2.86q3.88-13.87,7.76-27.76C166.34,148.65,166.28,146.67,168.44,146Z"/><path class="cls-3" d="M143.27,134.07a21,21,0,0,0-1.16,3.15c-.37,1.78-2.36,3.91-.49,5.28,1.53,1.12,2.73-1.84,4.55-1.94.1,2.5-1.83,3.75-3.33,5.19-2,1.88-3.54,1.11-3.7-1.29-.35-5.11-.87-10.37,3.39-14.45l.78,2.12Z"/><path class="cls-2" d="M58.37,123.28c-1.47-.16-3.19-.49-3.71-1.86-2.94-7.67-3-.1-4.38.76l-1.58-.09-.66-4.8c1.26-.71,1.07-2,1.15-3.12l1.88,0c.23,3,2.24,2.45,4.16,2C58.61,117.51,58.42,120.43,58.37,123.28Z"/><path class="cls-3" d="M137.86,53c-.54,6.75-4.56,12.51-5.49,19.17-.07.49-1.27.83-2,1.25L130,70.33c2.83-4.67,3.69-10.08,5.74-15a1.4,1.4,0,0,0,.32-.85Z"/><path class="cls-3" d="M73.41,118l1.86.76,2.63,4.45c0,1,0,2.07.07,3.1a2.1,2.1,0,0,0-.75.22C71.34,125.71,74.2,121,73.41,118Z"/><path class="cls-3" d="M41.72,91.3l1-1.13c4,3.32,3.38,7.7,2.75,12.07-2.05-2.24-1.12-5.77-3.4-7.91Z"/><path class="cls-3" d="M48.7,122.09l1.58.09c0,3.36,3.53,6.34,1.06,10-2.26-1.36-1.37-4.37-3.14-6Z"/><path class="cls-3" d="M56.26,160l2,0c0,2.43-.05,4.86-.1,7.3,0,1.93-.47,3.59-2.89,3.68l-.18-3C57.17,165.59,55.59,162.65,56.26,160Z"/><path class="cls-3" d="M49.19,114.17c-.08,1.15.11,2.41-1.15,3.12l-.5.07-.46-.18a10.63,10.63,0,0,0-2-6c.27-1.71-.46-3.5.44-5.15a.91.91,0,0,1,.78-.26c.19,2,.46,3.9,2,5.4Z"/><path class="cls-3" d="M146.08,120.17c-2.36,1.28-1.43,4.35-3.24,5.93-1.51-1.82-.51-3.95-.76-5.92,1.25-1,1.58-3,3.61-3.05Z"/><path class="cls-3" d="M52.23,140.09c3.16.93,1.77,4.09,3,6-.2,1.21-.4,2.42-.59,3.64L52,147.13C52.17,144.78,51.24,142.41,52.23,140.09Z"/><path class="cls-3" d="M64.08,278.65c.43-2.44-2.66-2.9-2.83-5,6.55.91,4.39,6.14,5,10h-1c-.32-.69-.65-1.37-1-2.05C64.17,280.63,64.12,279.64,64.08,278.65Z"/><path class="cls-3" d="M130.17,76.3c.41,3.73-.16,7.18-2.85,10-.14-1.36-.28-2.71-.41-4.07C128.63,80.62,128,77.72,130.17,76.3Z"/><path class="cls-3" d="M139,295.34c1.36-3.17,6.57-.57,7.23-4.8l.8,2.06a1.45,1.45,0,0,0-.43,2.18l-.54.84Z"/><path class="cls-3" d="M145.67,283.68c-2.75-3-2.5-6-.16-9l.87,3C146.14,279.63,145.91,281.66,145.67,283.68Z"/><path class="cls-3" d="M148.59,258.64c1.12,2.68-1.92,4.5-1.48,7-.05.66-.11,1.32-.16,2l-1.14,1.08a4.73,4.73,0,0,1-1-.08l1.14-7C147.22,261,146.76,258.84,148.59,258.64Z"/><path class="cls-3" d="M54.58,174.25c2.49,3.14,1.48,5-2.17,5.89a1.2,1.2,0,0,0-.65-.06l-.39-1.85,0-.17A5.14,5.14,0,0,0,54,173.22Z"/><path class="cls-3" d="M39.28,70.32l-1.06,0,.39-5c1.76.39,1.48,1.84,1.62,3.07A2.1,2.1,0,0,1,39.28,70.32Z"/><path class="cls-3" d="M51.67,136c1.39.32,1.81,1,.66,2.08H51.16Z"/><path class="cls-2" d="M49.09,213.86c.93.44,1.85,1.07,1.89,2.1.24,5.65,4.13,8.45,8.14,11.55,2.44,1.9,4.19,4.83,5.82,7.56,1,1.74,1.92,1.32,3.16.71,2.47,1.54,1.85-2.27,3.56-2,.21,2.82,1.84,5,3.44,7.12-1.27,1.8-4.22-.16-5.58,2.35,5.45,1.46,10.82,1.8,15.73,3.93l-7.79,2.91c-.53-2.05-1.71-2.88-3.53-1.47s-3.68,1.16-5.62,1.21c-.68-2.47,1.1-6-1.54-7.39-8-4.25-13.27-10.94-17.76-18.46a1.8,1.8,0,0,0-1.43-2.12l-.25-2.06c1.61-1.86-1.07-2.55-1.09-4C47.2,215.17,47.66,213.81,49.09,213.86Z"/><path class="cls-2" d="M16,152.23a54.72,54.72,0,0,1-4.67-9.8c-1.21-3.57-2.83-7.11.92-9.9s8.15-2.34,12.3-.69a5.48,5.48,0,0,1,3.25,2.94l-6.34-.43c5.4,2.81,4.49,7.86,7.36,11a2.9,2.9,0,0,1-1.59,4.75l-.07-.09c-1-5.35-3.49-9.61-8.75-11.83-.48-1.2,1.23-2.52-.14-3.63-.57-.46-1.58-.15-1.6.44-.12,2.82-2.29,6.11,1.57,8.18.8,1.73,3,2.61,3,4.83C18.45,148.1,18.92,152.26,16,152.23Z"/><path class="cls-4" d="M31.46,194c.84-3.62,1.53-7.19-3-9.08-.75-3.83,1.11-8.19-1.16-11.46-1.43-2.07-2.79-3.82-1.85-6.05,1.09-2.55,3.74-1,5.68-1.33l.85,1.05a16.84,16.84,0,0,1,.27,6.72c-.62,2.89-.36,5.89,2.06,8.18l.15,2.91c-.36,1.48-.21,2.71,1.54,3.15.91,3.76,4.88,6.13,4.76,10.36-1.76.31-3.92.08-5.19,1-3.31,2.49-3.39-.06-3.85-2.08A22.61,22.61,0,0,1,31.46,194Z"/><path class="cls-3" d="M31.17,166.06c-1.94.35-4.59-1.22-5.68,1.33-.94,2.23.42,4,1.85,6.05,2.27,3.27.41,7.63,1.16,11.46-.48-.11-1.31-.12-1.38-.37-1.67-5.2-4.62-10.45-4.48-15.63.14-5.45-1.08-6.37-5.7-5.17-1-3.78,1.23-7.82-.92-11.5,2.9,0,2.43-4.13,5.24-4.21,0,.75.1,1.5.16,2.25,1.53,2.17-.13,4.35,0,6.53-.19,2.27.84,3.27,3.11,3,4.51.31,3.72-3,3.83-5.63a3.52,3.52,0,0,0,.86,0l2-.12c.05.67.09,1.35.13,2-1.31,2.84-1,5.24,1.84,7l0,0C33.28,164.52,31.85,165,31.17,166.06Z"/><path class="cls-2" d="M71.12,217.85c-2.18-4.62-.55-9.69-1.71-14.53-.75-3.1-3-6-2.06-9.5,1.08-.19,2.45,2.74,3.26-.31a21.21,21.21,0,0,1,3.52,14.41c-2.37.39-1.85,2.27-2,3.83C71.87,213.8,72.86,216.05,71.12,217.85Z"/><path class="cls-3" d="M31.46,194a22.61,22.61,0,0,0,.3,3.4c.46,2,.54,4.57,3.85,2.08,1.27-1,3.43-.72,5.19-1l2.47,2.4,2.17,3L44,206.26l-1.77-.41c-1.11-2.82-2.46-4.63-5.1-1.26l-1.71.58c-2.31-.44-5.65.37-5.88-3.1C29.41,199.36,27.08,195.76,31.46,194Z"/><path class="cls-3" d="M71.12,217.85c1.74-1.8.75-4,1-6.1.18-1.56-.34-3.44,2-3.83.37,4.24,1.25,8.46.21,12.72l.07,1.36c.79,4.31-3.29,7.49-2.75,11.74-1.71-.23-1.09,3.58-3.56,2,.19-3.05-.13-5.9,2.37-8.73C72.44,224.81,70.89,221,71.12,217.85Z"/><path class="cls-2" d="M43.27,200.84l-2.47-2.4c.12-4.24-3.85-6.61-4.76-10.37.17-1.38.25-2.72-1.54-3.15L34.35,182c3.23-1.33,5-.61,4.9,3.23-.09,3.59,3.19,5.53,4.51,8.5C45,196.44,45.4,198.6,43.27,200.84Z"/><path class="cls-4" d="M21.43,156.8c-.14-2.18,1.52-4.36,0-6.53,2.36-.41,1.28-2.85,2.48-4.28.58,1.59-.16,3.63,1.94,4.21a5.09,5.09,0,0,0,.24,1,3.33,3.33,0,0,0,2.29,3c-.11,2.66.68,5.94-3.83,5.64A4.18,4.18,0,0,0,21.43,156.8Z"/><path class="cls-2" d="M67.28,186c-3-2.82-2.85-6.34-2.19-10l3-1a8.79,8.79,0,0,1,2.11,5.94C67.73,181.72,68.71,184.54,67.28,186Z"/><path class="cls-3" d="M68.1,175l-3,1c-.07-3.29-.14-6.57-.22-9.86,1-1.93-1.5-5.6,2.86-5.93C66.79,165.14,68.62,170,68.1,175Z"/><path class="cls-3" d="M67.28,186c1.43-1.41.45-4.23,2.93-5q.2,6.28.4,12.58c-.81,3.05-2.18.12-3.26.31C67.33,191.19,67.3,188.57,67.28,186Z"/><path class="cls-2" d="M31.17,166.06c.68-1,2.11-1.54,2.08-3a4.55,4.55,0,0,1,3.23.89c1.31,1.17,2.36,2.61,1.23,4.25s-2.25.2-3.38-.37a12.35,12.35,0,0,0-2.31-.68Z"/><path class="cls-3" d="M49.09,213.86c-1.43-.05-1.89,1.31-2.85,1.94-.36-.62-.72-1.24-1.09-1.86l-.1-4.11c1.64-.86.63-3.09,2.09-4,.1,1.34.21,2.68.31,4-.24,1.29.43,1.9,1.62,2.1Z"/><path class="cls-2" d="M33.22,163c-2.82-1.75-3.15-4.15-1.84-7C34.82,157.59,32.55,160.68,33.22,163Z"/><path class="cls-2" d="M47.14,205.79c-1.46,1-.45,3.18-2.08,4l-1-3.57,1.4-2.42A1.86,1.86,0,0,1,47.14,205.79Z"/><path class="cls-2" d="M38.61,153.44c2.07.88,2,2.66,1.88,4.45C37.18,157.54,38.38,155.29,38.61,153.44Z"/><path class="cls-2" d="M31.25,154l-2,.12c.12-.71.12-1.66,1.15-1.48C30.74,152.67,31,153.49,31.25,154Z"/><path class="cls-2" d="M28.31,134.88a2.2,2.2,0,0,1,2.26,2.05C29,137.13,28.26,136.45,28.31,134.88Z"/><path class="cls-2" d="M49.07,211.92c-1.19-.2-1.86-.81-1.62-2.1A1.81,1.81,0,0,1,49.07,211.92Z"/><path class="cls-2" d="M26.08,151.15a4.39,4.39,0,0,1-.23-1l1.33-.17.07.09Z"/><path class="cls-2" d="M33.46,140.56c.32.51.64,1,.95,1.53C34.1,141.58,33.78,141.07,33.46,140.56Z"/><path class="cls-2" d="M93.07,293.51c.54-4.12-3.76-2-5-3.86,3.06.14,6.15-.51,9.17.51,2.21.74,3.41-.23,3.83-2.39a7.83,7.83,0,0,0,6.54-2.34c.72,1.43-.17,3.76,2.44,4.15,2.26.34,3.19-1,3.89-2.78,2.35.38,4.68-2.37,7.05-.05-.58,1.53-4,0-3.2,2.52.59,1.85,2.65,1.28,4.26.82.93-.26,1.89-.38,2.84-.57.07,1.32.14,2.64.2,4Z"/><path class="cls-3" d="M93.07,293.51l32,0,3,0c0,.62,0,1.24,0,1.86q-29.67.12-59.34.23c-2,0-3.73-.49-3.33-3.13l.39-.24a5.32,5.32,0,0,0,3.39,1.2Z"/><path class="cls-3" d="M68.31,249.79c1.94,0,3.88.13,5.62-1.21s3-.58,3.53,1.46l-8.3,8.68c-3.27.41-1,4.06-3.06,5.19-.43-.24-1.21-.45-1.22-.7-.22-4.52-2.93-5.92-7-5.92-.58,0-1.15-1-1.73-1.57l2.5-1.48C63.33,255.93,65.63,252.45,68.31,249.79Z"/><path class="cls-3" d="M101.09,287.77c-.42,2.16-1.62,3.13-3.83,2.39-3-1-6.11-.37-9.17-.51l-1-2,2.11-1.14c3.56.56,5.59-.42,5.17-4.56-.17-1.71.4-3.5.64-5.25,1.93,1.21,0,5.38,3.86,5.1C98.63,284.17,99.74,286,101.09,287.77Z"/><path class="cls-2" d="M66.1,263.91c2-1.13-.21-4.78,3.06-5.19-1.41,4.17,3.2,5.44,4.1,8.5-.68,3.16,4,1.79,3.83,4.49C71.69,271.55,68.09,268.86,66.1,263.91Z"/><path class="cls-2" d="M89.17,286.54l-2.11,1.14c-6,.56-5.88-4.22-6.93-8,.13-1.41-.34-3,1-4.08C83.15,279.76,85.19,283.85,89.17,286.54Z"/><path class="cls-3" d="M81.14,275.63c-1.35,1.11-.88,2.67-1,4.08-4-1.51-.69-5.83-3-8,.14-2.7-4.51-1.33-3.83-4.49l4.27.38,2.91.3c0,1.5-.07,3-.1,4.51l.78,1.28Z"/><path class="cls-2" d="M51.76,265.78c-1.35-1.93-3.09-3.62-3.63-6,1.73.46,2.85-1.45,4.8-1.24C52.82,261,54.36,263.66,51.76,265.78Z"/><path class="cls-2" d="M69.24,293.44a5.32,5.32,0,0,1-3.38-1.19,1.71,1.71,0,0,0-.42-.62c-.87-.68-.56-1.36,0-2A6.55,6.55,0,0,1,69.24,293.44Z"/><path class="cls-3" d="M60,273a8.78,8.78,0,0,1-4.69-3.78C58.31,268.65,59.38,270.52,60,273Z"/><path class="cls-2" d="M65.19,283.67h1c1.27,1.38,1.18,2.42-.76,3Z"/><path class="cls-4" d="M97.91,68.41c0,1.3.07,2.61.11,3.91-1.93,6.2-.69,12.24.92,18.26l.26,5.79c-5.06,3.39-7.42,2.19-8.11-4.14-.08-.65-.06-1.31-.08-2,2.43-1,2.18-3,2.06-5,1.58-4.35,0-8.73.14-13.09V66.54A5,5,0,0,1,97,65.46v.05A4,4,0,0,0,97.91,68.41Z"/><path class="cls-1" d="M83.61,130c0-2,1.62-4.11-.66-5.81-.75-3.5,1.25-6.74.91-10.2,2.09-1.57.66-3.9,1.24-5.8l2.08-1.08v0c2,1.53.94,5.12,3.94,6q-.06,6.45-.11,12.89c-1.61.32-2,1.5-1.89,2.88.16,3-1.7,3.87-4.17,4.19C85,131.89,85.05,130.64,83.61,130Z"/><path class="cls-3" d="M91,90.27c0,.65,0,1.31.08,2,.69,6.33,3,7.53,8.11,4.13,1.66-.27,1.83-1.5,1.9-2.86.14-2.45,1.47-2,2.93-1.14-1.66,6.58-.79,13.27-1,19.92,0,1.45-.33,2.64-2,2.9l-.33-4.24a53.4,53.4,0,0,0-.41-5.39c-.73-4.09-4-5.73-8.21-4.29l-1,1,0,0c-1.26.94-1.19,2-.14,3,0,.65.08,1.3.13,2l-3.9,0v0c0-1.79-.37-3.66.88-5.25,1.43-1.83,1-3.47,0-5.44C86.36,93.31,86.4,90.56,91,90.27Z"/><path class="cls-4" d="M97.92,54.54c-.45,2.73,3.12,4.42,1.92,7.35l-2.79.37c-7,.23-3.51-4.66-3.75-7.73,1.34-4.66,1-9.34.19-14A4,4,0,0,1,97,39.64Q97.43,47.1,97.92,54.54Z"/><path class="cls-1" d="M104,92.36c-1.46-.84-2.79-1.31-2.93,1.14-.07,1.36-.24,2.59-1.9,2.86-.09-1.92-.17-3.85-.26-5.78a7.27,7.27,0,0,0,2.13-5.84c-.06-4.12,0-8.24,0-12.36,3.1-1.6,3.86.38,4,2.79.17,3,0,6,.08,8.94,0,1.57-.56,3.45,1.62,4.22,0,1,0,1.93.08,2.89Z"/><path class="cls-3" d="M101.05,72.38c0,4.12,0,8.24,0,12.36a7.27,7.27,0,0,1-2.13,5.84c-1.61-6-2.85-12.06-.92-18.26Z"/><path class="cls-3" d="M97.92,54.54q-.49-7.45-1-14.9c.32-1.15-.1-3,1.83-2.84,1.44.12,1.33,1.64,1.33,2.76,0,3.91,0,7.82,0,11.73C100.14,52.91,99.76,54.2,97.92,54.54Z"/><path class="cls-3" d="M93.49,40.5c.84,4.69,1.15,9.37-.19,14C89.69,51.62,89.8,43.07,93.49,40.5Z"/><path class="cls-3" d="M93.21,72.19c-.18,4.36,1.44,8.74-.14,13.09-2.62-.63-1.87-2.77-1.92-4.46-.08-3.14,0-6.29,0-9.43Z"/><path class="cls-3" d="M97.05,62.26l2.79-.37c1.93,1.92,1.24,3.36-.82,4.56l-2-.94v-.05C97,64.39,97,63.33,97.05,62.26Z"/><path class="cls-1" d="M93.21,72.19l-2.07-.8A35.17,35.17,0,0,1,91.25,67c.19-1.38,1-1.46,2-.49C93.2,68.43,93.21,70.31,93.21,72.19Z"/><path class="cls-1" d="M97,65.51l2,.94a2.07,2.07,0,0,1-1.11,2A4,4,0,0,1,97,65.51Z"/><path class="cls-1" d="M109.53,120.08c.18,1.09.37,2.17.55,3.25-1.72,3.9-.84,7.76.19,11.62.45,4.2,4.19,4,6.92,5.17-1.21,4.78,2,9.79-.85,14.56-.56.95.87,1.93,1.88,2.52l-1.82,2c-2.81-.4-3.36,1.19-3.33,3.56.11,10.12.15,20.23.22,30.35,0,3.28-.05,6.57-.07,9.85-1.53,4.85-1.74,10.06-3.91,14.75-.11.24.46.79.71,1.19l-.1,2.93c-2.3-.36-3.42,2.61-5.79,2,0-1.33,0-2.65,0-4a1.91,1.91,0,0,0,.81-2.12c.51-2.7-.79-5.21-.83-7.86,1.94-2.85.81-6.05,1-9.09.4-8.43-1.2-17.05,2.64-25.13a2.87,2.87,0,0,0-.57-3.63q0-8,0-15.95c-4.06-7.33-.29-15.8-3.47-23.36-1.25-3-.94-6.49.12-9.72C104.66,120.1,105.82,117.52,109.53,120.08Z"/><path class="cls-4" d="M136.7,116.9a4.2,4.2,0,0,0-3,3c-2.52,8.44-4.92,16.93-3.85,25.88a3.71,3.71,0,0,1-2,4q-.32,0-.63.06c-.74-2-1.65-3.81-4.31-3.37-2.84-1.49-2.42-3.71-.84-5.64a6.73,6.73,0,0,0,1.77-5.78,2.91,2.91,0,0,0,2.26-2.94c.08-2.91.17-5.82.25-8.74l.84-1.14c4.43-2.46,2.43-6.56,2.59-10.1l-.12-2.09a3.78,3.78,0,0,1,3.5-2.85,1.67,1.67,0,0,0,1.77,2A12.19,12.19,0,0,1,136.7,116.9Z"/><path class="cls-3" d="M127.21,149.88q.32,0,.63-.06c.86.29,2.44.54,2.47.9.17,2.3-2.74.82-3.29,2.45-3.8-.54-6.79.68-8.8,4-1-.59-2.44-1.57-1.88-2.52,2.81-4.77-.36-9.78.85-14.56a2.88,2.88,0,0,0,2.87-3.19c0-3.09,1.65-3,3.77-1.84a6.73,6.73,0,0,1-1.77,5.78c-1.58,1.93-2,4.15.85,5.64C123.18,149.11,124.88,149.89,127.21,149.88Z"/><path class="cls-4" d="M137,79.36c3.05-2,3.39-4.92,3.16-8.25-.11-1.51-1.11-4.38,1.69-4.18,2,.13,2.18,2.54,1.58,4.5a12.52,12.52,0,0,0-.23,1.95A19.17,19.17,0,0,0,143,80.3c-1.37,1.81-3.28,3.35-3,6-.45,2.34.39,4.82-.81,7.06l-2.27.91c-.23-1-.47-2-.71-2.93C137.72,87.42,136.63,83.34,137,79.36Z"/><path class="cls-3" d="M133.15,107.23a3.78,3.78,0,0,0-3.5,2.85c-1.92.07-3.19-.69-2-2.61,2-3.09,2.21-6.42,2.54-9.92.29-3.11,1.78-1.84,2.89-.2a41.16,41.16,0,0,0,.55,9.85A.72.72,0,0,0,133.15,107.23Z"/><path class="cls-3" d="M144.07,56.17c-1.22-2-1.53-3.91,1.31-4.53,2.57-.56,3.58,1.07,3.6,3.43,0,2.64.06,5.27,0,7.91,0,1.16-.13,2.6-2,1.35C146.8,61.33,147.55,58,144.07,56.17Z"/><path class="cls-3" d="M148.83,88.23a97.32,97.32,0,0,1-3,19c-1.23-1.08-.71-2.53-.83-3.85.12-.11.35-.25.33-.33a3.76,3.76,0,0,0-.34-.77l-.12-2.13c0-3.44.27-6.83,2-9.91a2.9,2.9,0,0,0,.38-.21,4.86,4.86,0,0,0-.35-.68l0-1Z"/><path class="cls-3" d="M137,79.36c-.38,4,.71,8.06-.81,12-1.54-.06-3.18-.21-3.06-2.24a73.7,73.7,0,0,1,1-9.13C134.49,78.19,136,79.53,137,79.36Z"/><path class="cls-3" d="M139.18,93.34c1.2-2.24.36-4.72.81-7.06,1.72-.13,3.18.23,4,2l-.93,6a2.69,2.69,0,0,0-1,2.59c.43,3.66-1.54,1.75-2.9,1.27Z"/><path class="cls-4" d="M133.64,107.2a41.68,41.68,0,0,1-.54-9.85,4.1,4.1,0,0,0,.91-.19c5.51,1,1.45,5.55,2.93,8l-.18,1.77a3.94,3.94,0,0,0-.84.19Z"/><path class="cls-1" d="M136.94,105.21c-1.48-2.5,2.58-7-2.93-8a2.87,2.87,0,0,1,2.91-2.91l2.26-.91v4.78C138.56,100.53,140.16,103.63,136.94,105.21Z"/><path class="cls-1" d="M129.77,112.17c-.16,3.54,1.84,7.64-2.59,10.1-.14-2.71.9-5.12-1.34-8.12C124.09,111.83,128.31,112.84,129.77,112.17Z"/><path class="cls-1" d="M144.07,56.17c3.48,1.83,2.73,5.16,2.93,8.16-2.13.57-3.06-1.57-4.72-2.07,0-1.26,0-2.52,0-3.78A2.21,2.21,0,0,0,144.07,56.17Z"/><path class="cls-3" d="M126.34,123.41c-.08,2.92-.17,5.83-.25,8.74-3.17-1.75-4.22-7.87-1.56-10.08C125.76,121.05,125.88,122.74,126.34,123.41Z"/><path class="cls-3" d="M143,80.3a19.17,19.17,0,0,1,.23-6.92c3.12-.1,4.26,1.48,3.45,4.35C146.18,79.45,146.07,82.13,143,80.3Z"/><path class="cls-1" d="M143,94.26l.93-6,3,.08,0,1c0,.3,0,.6,0,.89-1.77,3.08-2,6.47-2,9.91C143.07,98.55,145,95.8,143,94.26Z"/><path class="cls-3" d="M152,75.3q-1.46,5.49-2.9,11C148.53,82.24,147.1,77.94,152,75.3Z"/><path class="cls-3" d="M142.26,58.48c0,1.26,0,2.52,0,3.78-.37.51-.84,1.5-1.1,1.45-1.64-.33-1.17-1.79-1.1-2.8.1-1.34-.82-3.08,1.07-3.87C141.3,57,141.88,58,142.26,58.48Z"/><path class="cls-3" d="M138.63,52.3c.2-.91.41-1.82.61-2.73,1.61-1.07,2.45-3.19,4.68-3.41C143.59,49.44,140.82,50.62,138.63,52.3Z"/><path class="cls-3" d="M144.41,46c2.64-2.13,5.17-2.54,7.5.45Z"/><path class="cls-4" d="M68.31,249.79c-2.68,2.66-5,6.14-9.66,4.45-1.34-6.2-4.7-11.41-8.12-16.58Q44.26,228.23,38,218.82l-.77-.78c-3.39-3.92-1.47-8.54-1.72-12.87l1.71-.58,5.1,1.26,1.77.41,1,3.57.09,4.11c-.71,2.47-.18,4.49,2.18,5.82.08.69.17,1.37.25,2.06-.28,1.22.35,1.82,1.43,2.12,4.49,7.52,9.73,14.21,17.76,18.46C69.41,243.8,67.63,247.32,68.31,249.79Z"/><path class="cls-1" d="M31.21,217.84l.19-.35-.18.37Z"/><path class="cls-1" d="M37.18,218l.77.78Z"/><path class="cls-3" d="M17,165.35c-.64-.47-.9-1-.07-1.5C17,164.35,17,164.85,17,165.35Z"/><path class="cls-4" d="M50.44,81.06c0-.57-.09-1.14-.13-1.71-.06-1.42.4-3-.94-4.09-1-4.56-1.94-9.14-1-13.84l2.87-.05c.3,1.68.59,3.36.88,5.05-.09,7.86,2.52,15,6,21.89-1.54,4.55,3.51,7.34,3.11,11.55-.29,3,1.31,7.84-3.42,7.92-4.1.07-3.15-4.57-3.65-7.49C54.81,93.51,52.34,87.34,50.44,81.06Z"/><path class="cls-3" d="M54.09,100.29c.5,2.92-.45,7.56,3.65,7.49,4.73-.08,3.13-4.87,3.42-7.92.4-4.21-4.65-7-3.11-11.55q2.1-3.53,4.22-7c2.77,3.53,2.78,8.26,5.21,11.94-.06,1-.13,2-.19,3-1,.2-2.1.57-2,1.75.24,4.86-.07,9.49-4.22,12.9-5-1.58-6.08,1.14-5.8,5.32-1.92.41-3.93,1-4.16-2q.1-6.41.2-12.79Z"/><path class="cls-3" d="M48.34,61.42c-.91,4.7,0,9.28,1,13.84l-2.28,2.32c-3.82-2.36-1.16-6.15-2-9.17a50.69,50.69,0,0,0,1-5.69C46.25,60.94,47.05,60.92,48.34,61.42Z"/><path class="cls-3" d="M44.48,50.32C48,49.15,50,48.9,51,51.56c.4,1,.59,2.93-.45,3.09C47.28,55.18,47.56,51.54,44.48,50.32Z"/><path class="cls-3" d="M52.09,66.42c-.29-1.69-.58-3.37-.88-5.05,1.09-.68,2.25-3,3.4-.56S55.65,65.78,52.09,66.42Z"/><path class="cls-1" d="M43.31,64.05c-1.47-1.46-1.3-2.7-.28-4.34C44.49,61.11,44.44,62.34,43.31,64.05Z"/><path class="cls-3" d="M61.28,77.28a1.5,1.5,0,0,1,.39,2.11C60.39,78.9,59.93,78.25,61.28,77.28Z"/><path class="cls-3" d="M58.5,63.82a2,2,0,0,1,1.38,2.59C58.39,66.09,58.08,65.15,58.5,63.82Z"/><path class="cls-1" d="M168.44,146c-2.16.71-2.1,2.69-2.57,4.4q-3.85,13.89-7.76,27.75L154,176a9.24,9.24,0,0,0-.1-.92c2.84-2.71,1.42-6.32,2-9.5.44-2.41-1.4-2.57-3.12-2.69.52-1.93-.56-4.2,1.21-5.88,1.7.43,2.45,3.39,4.44,2.29S160,155.92,160,154c0-2.62,0-5.24,0-7.85h0c4.05.17,2.77-2.88,3-5,1.9-.16,2-1.52,2-3,.4-1,.8-1.94,1.19-2.91l2.61.93c.2,1.48.39,3,.59,4.45l-.24,1.45c-1.11.47-1.32,1.12-.41,2Z"/><path class="cls-1" d="M166,118.19l.12,6.85c.12,2.89-2.81,4.93-2.23,8-2.75.91-1.85,3.1-1.77,5a4.47,4.47,0,0,1-2.34,2.21l-1.8-6.09a4.37,4.37,0,0,0,.09-5.11c.17-2.1,3.15-2.44,3-4.75,2-1.16,1.86-3.06,1.78-5C163.64,118.16,164.83,118.19,166,118.19Z"/><path class="cls-1" d="M173,107.2c-3,.35-4.1-1.12-3.85-3.93,2.36-.11,3.19-2.44,4.89-3.76C176.54,102.74,173.15,104.73,173,107.2Z"/><path class="cls-3" d="M181.43,97.38c-2.22-2.81-3.13-5-1.78-7.45a1.38,1.38,0,0,1,1.26-.2C182.76,91.86,181.89,94.19,181.43,97.38Z"/><path class="cls-3" d="M162.13,138c-.08-1.91-1-4.1,1.77-5a2.61,2.61,0,0,1,2.31,2.24c-.39,1-.79,1.94-1.19,2.91Z"/><path class="cls-3" d="M174.71,124.1c.11,2.77-1.92,4.67-2.86,7C169.85,127.58,172.17,125.79,174.71,124.1Z"/><path class="cls-3" d="M169.41,140.61c-.2-1.48-.39-3-.59-4.45l2.73-2.11C172,136.61,171.77,139,169.41,140.61Z"/><path class="cls-4" d="M103,154.36c.22,10.58.72,21.17-2,31.57q0,19.45.1,38.9c.24,1,.49,2,.73,3-.63-.12-1.44,0-1.87-.39-2.78-2.34-3.81-1.85-5.4,1.67-1.68,3.73.12,6.58.44,9.82-4.09-2.51-5.17-5.53-2.92-9.37a17.23,17.23,0,0,0,2.25-6.46A183,183,0,0,0,96.09,190c-.13-3.4-.43-6.86-2-10A42,42,0,0,0,93,167c0-2,.81-4.25-1.84-5.31l0-4.37c2.12-.57,2.41-2.36,2.93-4.12,1-3.53,3.46-4.08,6-1.43C101.1,152.71,101.51,154.11,103,154.36Z"/><path class="cls-4" d="M91.09,107.19c0-.65-.09-1.3-.13-2,.05-1,.1-2,.14-3l0,0,1-1c4.24-1.44,7.48.2,8.21,4.29a53.4,53.4,0,0,1,.41,5.39c-4.71.78-3.48,4.27-3.31,7.27-1,4.71,1,9.28.66,14-1.5,2.4.89,2.86,2,4,.3,1.92.59,3.83.89,5.75a2.27,2.27,0,0,0-1.8,1.48A5.22,5.22,0,0,0,94,145.11h-2.9c1.35-10.61,2.79-21.2,2.1-31.93C93.46,110.83,93.42,108.61,91.09,107.19Z"/><path class="cls-3" d="M94,145.11a5.22,5.22,0,0,1,5.17-1.74l1.86.6c4.11,2.8,1.25,6.94,2,10.39-1.49-.25-1.9-1.65-2.79-2.56-2.59-2.65-5-2.1-6,1.43-.52,1.76-.81,3.55-2.93,4.12-.48-6.92-6.43-12.75-4.07-20.24,6.06-2,3.51-7,3.86-11q.06-6.45.11-12.89l2.05,0c.69,10.73-.75,21.32-2.1,31.93.13,1,.47,1.85,1.71,1.73C93.79,146.73,93.9,145.91,94,145.11Z"/><path class="cls-3" d="M101.14,224.83q0-19.44-.1-38.9c2.64.53,2,2.64,2.06,4.35.05,5,0,9.93,0,14.88,0,1.61-.45,3.35.93,4.7,0,2.65,1.34,5.16.83,7.86-1.11.39-2.21.78-.81,2.12,0,1.33,0,2.65,0,4Z"/><path class="cls-3" d="M107.07,156.06q0,8,0,15.95c-1.32.9-.66,2.72-1.71,4.46-1-6.61.43-12.59-1-18.46C104,156.12,105.7,156.08,107.07,156.06Z"/><path class="cls-1" d="M97.42,118.21c-.17-3-1.4-6.49,3.31-7.27l.33,4.24C98.89,115.05,99.34,118.05,97.42,118.21Z"/><path class="cls-1" d="M107.36,106.23l.06,4.86-2.33,1a9.32,9.32,0,0,1,1-6Z"/><path class="cls-1" d="M100.06,136.14c-1.09-1.11-3.48-1.57-2-4C99.29,133.22,101.77,133.64,100.06,136.14Z"/><path class="cls-3" d="M107.36,106.23l-1.23-.18c0-1.14.09-2.28,1.21-3l1.59,0,.3,2.14Z"/><path class="cls-1" d="M101,144l-1.86-.6a2.27,2.27,0,0,1,1.8-1.48Z"/><path class="cls-1" d="M142.08,120.18c.25,2-.75,4.1.76,5.92-.11,1.3-.21,2.6-.31,3.91-4.26,4.08-3.74,9.34-3.39,14.45.16,2.4,1.74,3.17,3.7,1.29,1.5-1.44,3.43-2.69,3.33-5.19.38-.79.75-1.57,1.12-2.36,2.1-.38,3-1.49,2.22-3.62.3-.61.61-1.22.91-1.84,2.27,1.64,1.33,3.67,1,5.83-1.09,6.19-5.4,11.18-6.35,17.39-2.23.46-2,2.19-2,3.81q0,4.13,0,8.25c-3.47.54-4.12,3-4,5.92-5,.85-3.06,5.06-3.85,7.95,1.2,6.88-2.59,13.24-2.08,20.05l0,9.93c-3.43.54-4,3.21-4,5.89a8.24,8.24,0,0,1-5.15,8.06c0-1,0-2,0-3,1.48-1.94,1.93-3.72-.74-5.05q-.08-3-.14-5.93c1.93-5.46,2-11.24,2.92-16.88,1.88-3.16.66-6.62.92-9.94l1.11-5c3.42-2.19,2.58-5.73,2.84-8.92,2.66-3.85,3.1-7.9,2.62-12.64-.94-9.27-1.19-18.63,3.15-27.42a12.57,12.57,0,0,0,1.06-5.8C137.64,122,139.59,121,142.08,120.18Z"/><path class="cls-4" d="M118.22,157.2c2-3.35,5-4.57,8.8-4-.37,2,1.16,3.3,1.85,4.92,1.76,4.09.94,8-.9,11.83-.35,2-.71,3.91-1.07,5.87-3.92,2.11-3.89,5.52-3,9.2l0,2.69-.6,1.31-.12,5.85c-2.83,5.36-2.8,11.11-2.34,16.92-1.08,7.09-.78,14.21-.65,21.33.13,7.91-.75,8.68-9,8.16l-.78-1.57c-.12-1-.25-1.91-.37-2.86l-.49-2.06.8-5.88c1.44-1,2.81-2,2.88-4q.15-3.48.32-7c1.2-2.22,2.85-4.26,2.68-7l.14-18.82c2.85-1.76,2.48-4.8,2.78-7.46,1-8.68-1.45-17-2.69-25.51Z"/><path class="cls-3" d="M135.92,107.17a3.94,3.94,0,0,1,.84-.19c.8-.07,1.78-.47,2.37-.14,1.07.59,1,10.83-.07,11.5-1.64,1.07-1.86-.46-2.36-1.44a12.19,12.19,0,0,0-1.78-7.68C135.25,108.54,135.59,107.86,135.92,107.17Z"/><path class="cls-3" d="M126.9,175.79c.36-2,.72-3.91,1.07-5.87l2.94,1.19c-.26,3.19.58,6.73-2.84,8.92C126.74,178.88,127.26,177.21,126.9,175.79Z"/><path class="cls-1" d="M145,102.24a3.76,3.76,0,0,1,.34.77c0,.08-.21.22-.33.33C145,103,145,102.61,145,102.24Z"/><path class="cls-2" d="M54.09,100.29l-2.82,1c-.25-3.22-.49-6.16-2.16-9.34S46,84.2,50.44,81.07C52.34,87.34,54.81,93.51,54.09,100.29Z"/><path class="cls-3" d="M42.42,87.21c-1.52-4.21-3.58-8.3-2.79-13C42.18,78.2,43.87,82.37,42.42,87.21Z"/><path class="cls-2" d="M48.27,111.21c-1.49-1.5-1.76-3.43-2-5.4C49.52,106.69,49.37,108.78,48.27,111.21Z"/><path class="cls-2" d="M47.09,77.58l2.28-2.32c1.34,1.13.88,2.67.94,4.09C48.94,79.3,47.49,79.39,47.09,77.58Z"/><path class="cls-4" d="M154,157c-1.77,1.68-.69,3.95-1.21,5.88-.92,1-1.85,2-2.77,3-6.14-1-3.27-5.46-3.45-8.76,5-.83,3.81-6.27,6.58-8.8.54-.49.59-1.51.87-2.29l1.34,2.1,0,1.91v1C154.6,153,153.62,154.87,154,157Z"/><path class="cls-3" d="M146.54,157.16c.18,3.3-2.69,7.79,3.45,8.76.47,1.23,2.78.72,2.54,2.44-.2,1.47-1.72,1.79-2.87,2.25a16.29,16.29,0,0,1-2.81.58,3.66,3.66,0,0,1-.79-.33A2.92,2.92,0,0,0,143,168q0-4.12,0-8.25c0-1.62-.24-3.35,2-3.81Z"/><path class="cls-4" d="M158,134.12l1.8,6.09a7.93,7.93,0,0,0,.07.84l-.31,2.83c-1.74.5-2.53-.86-3.53-1.8,0-2,.09-3.9.14-5.86A2,2,0,0,1,158,134.12Z"/><path class="cls-1" d="M165.81,116.06c.59-1.87-1.07-4.49,1.67-5.58.8-.32,1.46.71,1.45,1.57,0,2.48,1,5.53-2.94,6.16Z"/><path class="cls-1" d="M156,142.08c1,.94,1.79,2.3,3.53,1.8.15.74.29,1.48.43,2.22h0l-4.65,2.06-1.34-2.1A5.8,5.8,0,0,1,156,142.08Z"/><path class="cls-3" d="M158,134.12a2,2,0,0,0-1.83,2.1c-2.23-1.91-1.66-4.07,1.92-7.2A4.35,4.35,0,0,1,158,134.12Z"/><path class="cls-3" d="M162.86,119.3c.08,1.9.19,3.8-1.78,5a2.08,2.08,0,0,1-1.93-2.76C159.58,119.45,161.09,119.13,162.86,119.3Z"/><path class="cls-3" d="M154.09,123.37a4.72,4.72,0,0,1,2-4.17C157.26,121.47,157.57,123.32,154.09,123.37Z"/><path class="cls-3" d="M150.73,131.17c-.12-1.87,1.27-2.85,2.38-4C154.4,129.75,153,130.74,150.73,131.17Z"/><path class="cls-4" d="M70.61,193.51q-.19-6.3-.4-12.58a8.79,8.79,0,0,0-2.11-6c.52-4.95-1.31-9.84-.37-14.79a13,13,0,0,1,6.35-1l1.75,1.18c.54,2.92,1.07,5.85,1.6,8.77l.63,41.75c1.21,5.92,1.5,12.24,3.92,17.62,2.16,4.82,2.64,8.61-.22,12.88l-6.66-.52c-1.6-2.16-3.23-4.3-3.44-7.12-.54-4.25,3.54-7.43,2.74-11.74a.8.8,0,0,0-.06-1.36c1-4.26.16-8.48-.21-12.72A21.21,21.21,0,0,0,70.61,193.51Z"/><path class="cls-4" d="M55.23,116.16c-.28-4.18.78-6.9,5.8-5.32,3.45,1.47.6,6.08,3.83,7.64L65,125c-.54.45-.57.85.09,1.2l.13,1c0,2.19.41,4.24,2.1,5.82.12,2.82-.47,5.79,1.66,8.2,0,2.2.26,4.3,2,5.93,0,5.86-.35,6.16-7.75,5.8a7.12,7.12,0,0,1-.48-5.19c1-4.84.85-9.67-2.17-14-.1-2.31-.21-4.63-.31-6.95l-1.9-3.59C58.42,120.43,58.61,117.51,55.23,116.16Z"/><path class="cls-3" d="M63.23,153c7.4.36,7.8.06,7.75-5.8l2.19-1.23.11.14c1.5,2.47-2.35,6.14,1.81,8a3.69,3.69,0,0,1,2.16,2.9c-.07,1.29-.22,2.55-1.42,3.37l-1.75-1.19c-.06-1.68.35-3.35-2.6-2.11C67.46,158.76,64.28,156.93,63.23,153Z"/><path class="cls-3" d="M60.27,126.87c.1,2.32.21,4.64.31,6.95-.38,1.81-.78,3.62-3.31,3.23C57.78,133.52,57,129.61,60.27,126.87Z"/><path class="cls-1" d="M65.44,291.63a1.71,1.71,0,0,1,.42.62s-.4.23-.4.23A.72.72,0,0,1,65.44,291.63Z"/><path class="cls-1" d="M128.09,293.52l-3,0c-.06-1.32-.13-2.64-.2-4l.08,0a1.72,1.72,0,0,0,2-1.9l0,0a1.73,1.73,0,0,0,1.93-2l.23-1.87c3.42-1.55,1.21-4.62,1.87-6.92,3.52-1.54,1.36-4.73,2.06-7.09,1-1.51,2.21-3.13.92-4.91-2-2.81-.28-5.14.93-7.28,2.9-5.11,2-7-4.11-7.78l.11-1.06c5.47,1.2,8.42-3.22,8.63-6.56.53-8.86,1-17.64,3.4-26.23-1.07-8.16,3.89-14.67,6-22,3,1.45,2.93,5.69,6.16,7,.24,6.3-1,12.65.59,18.91-.1,1.63-.21,3.26-.32,4.9-2.71,3.17-2.32,7.31-3.23,11-1.16,4.77-1,9.87-3.74,14.24-1.17,1.87.64,3.93-.49,5.78-3.68,1-3.45,3.27-2,6l-1.14,7c-2.78,2-2.51,5-2.77,7.84-.08.81,0,1.64,0,2.46,0,12.34,0,12.33-12.21,13.75A6.16,6.16,0,0,0,128.09,293.52Z"/><path class="cls-3" d="M168.76,144.06c-.91-.88-.7-1.53.41-2C170,142.92,169.68,143.55,168.76,144.06Z"/><path class="cls-2" d="M155.15,200.89c-3.23-1.3-3.11-5.54-6.16-7-.34-2.4.85-5-1.12-7.18l1.52-4.83c1.37,0,1.24,1.76,2.28,2L154,176l4.14,2.09c0,1-.21,2.13.83,2.87l-.24,4.92c-2.59,2-2.4,5-2.7,7.85C155.74,196.13,156.71,198.66,155.15,200.89Z"/><path class="cls-2" d="M146,261.69c-1.45-2.7-1.68-5,2-6l1,1-.39,1.88C146.76,258.84,147.22,261,146,261.69Z"/><path class="cls-1" d="M77.25,157a3.69,3.69,0,0,0-2.16-2.9c-.69-2.66,1.72-6-1.81-8l-.11-.14c-.5-2,1.29-4.76-1.94-5.86l0-3a1.78,1.78,0,0,0-.07-3c-.31-3.87-1.83-3.41-3.87-1.09-1.69-1.58-2.1-3.63-2.1-5.83,2.09,0,3-1,2.93-3.07s0-4-.06-6c2.43-2.26-.5-6.07,2.38-8.19,1.23,2.57,2.66,5.07,2.93,8,.79,3-2.07,7.74,3.81,8.53l.34.09c.2.63.39,1.26.59,1.9.09,1.12.19,2.23.28,3.35,0,3.13,1.91,4.47,4.61,5.14l4.12.13c-2.36,7.49,3.59,13.32,4.07,20.24,0,1.46,0,2.91,0,4.38.79,1.78-4.57,3.48-.08,5.32l0,15.9c-.58,13.14,1,26.34-1,39.45-.25,1.57.26,3.73-2,3.93s-2.3-1.92-3.18-3.51c-2.44-4.41-.71-9.84-3.89-13.93-.41-14,1.06-28-.92-41.95l0-1.88,0-1C82.35,160.39,79.29,158.9,77.25,157Z"/><path class="cls-2" d="M70.48,110c-2.88,2.12,0,5.93-2.38,8.19-.64-.8-1.29-2.29-1.93-2.29-1.41,0-.81,1.73-1.31,2.61-3.23-1.56-.38-6.17-3.83-7.64,4.15-3.41,4.46-8,4.22-12.9-.06-1.18,1-1.55,2-1.75C66.46,101.22,71.39,104.92,70.48,110Z"/><path class="cls-3" d="M149.51,134.58c.79,2.13-.12,3.24-2.22,3.62C147,136.34,148.13,135.4,149.51,134.58Z"/><path class="cls-3" d="M83,137c-2.7-.67-4.65-2-4.61-5.14,2.19.67,3.33-1.59,5.18-1.83,1.44.63,1.41,1.88,1.35,3.15A6.46,6.46,0,0,0,83,137Z"/><path class="cls-4" d="M77.53,267.6l-4.27-.38c-.9-3.06-5.51-4.33-4.1-8.5l8.3-8.68,7.79-2.9,3.85.56,1.46,1.24,0,7.87c-2.46,1.41-6.19,0-7.74,3.45C80.63,262.41,76.59,263.23,77.53,267.6Z"/><path class="cls-3" d="M89.1,247.7l-3.85-.56C80.34,245,75,244.67,69.52,243.21c1.36-2.51,4.31-.55,5.58-2.35l6.67.52c2.53.9,3.9,3.73,7,3.91C90,245.37,89.42,246.8,89.1,247.7Z"/><path class="cls-1" d="M47.33,219.76c-2.36-1.33-2.89-3.35-2.18-5.82.37.62.73,1.24,1.09,1.86C46.26,217.21,48.94,217.9,47.33,219.76Z"/><path class="cls-1" d="M49,223.94c-1.08-.3-1.71-.9-1.43-2.12A1.8,1.8,0,0,1,49,223.94Z"/><path class="cls-1" d="M27.18,150l-1.33.17c-2.11-.58-1.37-2.62-2-4.21-1.2,1.43-.12,3.87-2.48,4.28-.06-.75-.11-1.5-.16-2.25,0-2.22-2.2-3.1-3-4.84.06-1.66.12-3.32.17-5C23.69,140.42,26.18,144.68,27.18,150Z"/><path class="cls-3" d="M18.43,138.2c-.05,1.66-.11,3.32-.17,5-3.86-2.06-1.69-5.35-1.57-8.17,0-.59,1-.9,1.6-.44C19.66,135.68,18,137,18.43,138.2Z"/><path class="cls-1" d="M34.5,184.92c1.79.43,1.71,1.77,1.54,3.15C34.29,187.63,34.14,186.4,34.5,184.92Z"/><path class="cls-2" d="M21.43,156.8a4.18,4.18,0,0,1,3.11,3C22.27,160.07,21.24,159.07,21.43,156.8Z"/><path class="cls-1" d="M42.27,205.85l-5.1-1.26C39.81,201.22,41.16,203,42.27,205.85Z"/><path class="cls-1" d="M74.34,220.64A.8.8,0,0,1,74.4,222Z"/><path class="cls-4" d="M121,286.75c-2.37-2.32-4.7.43-7.05.05l-1-1.14q0-4,0-8l.64-2.8c1.6-.44,3.78.71,4.68-1.69,1.7-.49,2.09-2.12,2.93-3.36.8-.11,1.46-.38,1.62-1.28l.09-.16c5.84-1.23,5.84-1.23,6.47,5.44l-.15,1.81c-1.83,1.2-3.56,2.45-2.29,5C126.18,283.88,123.55,285.27,121,286.75Z"/><path class="cls-4" d="M101.09,287.77c-1.35-1.76-2.46-3.6-2.25-5.94-1.6-3,0-5.38,1.36-7.84,2.83-.63,5.1,1,7.55,1.9,0,.57,0,1.14,0,1.71-1,1-.34,1.91.08,2.85l-.21,5A7.83,7.83,0,0,1,101.09,287.77Z"/><path class="cls-3" d="M121,286.75c2.54-1.48,5.17-2.87,5.9-6.1,2.09,0,2.18,1.54,2.28,3-.08.62-.15,1.25-.23,1.87a2,2,0,0,0-1.93,2l0,0a1.89,1.89,0,0,0-2,1.9l-.08,0c-1,.19-1.91.31-2.84.57-1.61.46-3.67,1-4.26-.82C117,286.71,120.43,288.28,121,286.75Z"/><path class="cls-3" d="M107.63,285.43l.21-5c3.75-.27,2.27,4.54,5.07,5.21l1,1.14c-.7,1.75-1.63,3.12-3.89,2.78C107.46,289.19,108.35,286.86,107.63,285.43Z"/><path class="cls-4" d="M80.34,272.41c0-1.5.07-3,.1-4.51l1.66-2.3,1.08-.79.07,0c2.8.42,6.71-2.18,7.82,2.85l.07,2.1c0,3,1.59,5.19,3.84,7-.24,1.75-.81,3.54-.64,5.25.42,4.14-1.61,5.12-5.17,4.56-4-2.69-6-6.78-8-10.91,0-.65,0-1.29,0-1.94Z"/><path class="cls-2" d="M80.34,272.41l.78,1.28Z"/><path class="cls-2" d="M83,137A6.46,6.46,0,0,1,85,133.16c2.47-.32,4.33-1.23,4.17-4.19-.07-1.38.28-2.56,1.89-2.88-.35,4,2.2,9-3.86,11Z"/><path class="cls-2" d="M93.18,113.17l-2.05,0c-3-.91-1.89-4.5-3.94-6l3.9,0C93.42,108.61,93.46,110.83,93.18,113.17Z"/><path class="cls-2" d="M91.1,102.24c0,1-.09,2-.14,3C89.91,104.19,89.84,103.18,91.1,102.24Z"/><path class="cls-2" d="M92.11,101.26l-1,1Z"/><path class="cls-2" d="M116.4,159.15c1.24,8.47,3.64,16.83,2.69,25.51-.3,2.66.07,5.7-2.78,7.46-1.45-1.07-1.83,1.23-3,.94-.07-10.12-.11-20.23-.22-30.35C113,160.34,113.59,158.75,116.4,159.15Z"/><path class="cls-2" d="M113.17,224.9c-.07,2-1.44,3-2.88,4-2.32-1.67-4.62.28-6.92,0l-1.5-1c-.24-1-.49-2-.73-3l3-1c2.37.57,3.49-2.4,5.79-2C110,223.91,110.9,225.09,113.17,224.9Z"/><path class="cls-2" d="M116.17,210.94c.17,2.74-1.48,4.78-2.68,7l-3.47.91c-.25-.4-.82-.95-.71-1.19,2.17-4.69,2.38-9.9,3.91-14.75C115.57,205.08,112,209.43,116.17,210.94Z"/><path class="cls-3" d="M116.17,210.94c-4.17-1.51-.6-5.86-3-8,0-3.28,0-6.57.07-9.85,1.19.29,1.57-2,3-.94Q116.24,201.54,116.17,210.94Z"/><path class="cls-3" d="M110,218.85l3.47-.91q-.17,3.48-.32,7c-2.27.19-3.22-1-3.25-3.12C110,220.8,110,219.83,110,218.85Z"/><path class="cls-2" d="M104.09,219.84c-1.4-1.34-.3-1.73.81-2.12A1.91,1.91,0,0,1,104.09,219.84Z"/><path class="cls-2" d="M127.21,149.88c-2.33,0-4-.77-4.3-3.37C125.56,146.07,126.47,147.88,127.21,149.88Z"/><path class="cls-1" d="M135.92,107.17c-.33.69-.67,1.37-1,2a1.67,1.67,0,0,1-1.77-2,.72.72,0,0,1,.5,0Z"/><path class="cls-2" d="M147,90.2c0-.29,0-.59,0-.89a4.86,4.86,0,0,1,.35.68A2.9,2.9,0,0,1,147,90.2Z"/><path class="cls-2" d="M155.33,148.17l4.65-2.06c0,2.61,0,5.23,0,7.85,0,2,.27,4.34-1.59,5.36s-2.74-1.86-4.44-2.29c-.35-2.16.63-4,1.31-6,.08-.1.24-.21.22-.3a3.43,3.43,0,0,0-.21-.69Z"/><path class="cls-2" d="M146.85,171.19a16.29,16.29,0,0,0,2.81-.58c1.15-.46,2.67-.78,2.87-2.25.24-1.72-2.07-1.21-2.54-2.44.92-1,1.85-2,2.77-3,1.72.12,3.56.28,3.12,2.69-.59,3.18.83,6.79-2,9.49l-4.53-1C148.47,173.14,147.07,172.67,146.85,171.19Z"/><path class="cls-3" d="M149.34,174.06l4.53,1c0,.31.08.62.1.93l-2.3,7.85c-1-.22-.91-2-2.28-2C149.37,179.28,149.36,176.67,149.34,174.06Z"/><path class="cls-3" d="M160,146.1c-.14-.74-.28-1.48-.43-2.22.1-.94.21-1.89.31-2.83l3.16.06C162.75,143.22,164,146.27,160,146.1Z"/><path class="cls-2" d="M163,141.11l-3.16-.06a7.93,7.93,0,0,1-.07-.84,4.47,4.47,0,0,0,2.34-2.21l2.89.14C165,139.59,164.92,141,163,141.11Z"/><path class="cls-2" d="M89.1,247.7c.32-.9.87-2.33-.36-2.41-3.07-.18-4.44-3-7-3.91,2.85-4.27,2.37-8.06.21-12.88-2.42-5.38-2.71-11.7-3.92-17.62,1.5.09,2.06-1.25,3-2,3.18,4.09,1.45,9.52,3.89,13.93.88,1.59.93,3.71,3.18,3.51s1.74-2.36,2-3.93c2-13.11.43-26.31,1-39.45,2,0,1.7-2.21,2.9-3,1.61,3.14,1.91,6.6,2,10a183,183,0,0,1-1.72,33.16,17.23,17.23,0,0,1-2.25,6.46C89.87,233.43,91,236.45,95,239l1,.9c2.75.77,5.84,2.65,6.81-2.16l.63-1.85c.66,4.2,2.44,6.41,6.88,3.83l.79,1.57c2.26,5,6.07,5.79,9.08,1.85,1-1.27,1.64-1.45,2.65-.2,2.89,3.54,3,.38,3.61-1.51,5.41,4.09,8.35,3,9.94-3.61.79-3.27.48-6.56.39-9.82a20.25,20.25,0,0,1,3.08-12.15l3.11.05c-2.39,8.59-2.87,17.37-3.4,26.23-.21,3.34-3.16,7.76-8.63,6.56-.05-2,2.29-1.4,3.05-2.78-3.85-.1-8-1.23-9.17,4.12-3.68-3.25-6.56-2.77-8.56,1.83-.06-5.91-3-3.57-5.7-2-3.61-3.46-8.08-2-12.19-1.87-3.72.09-1.11,4.36-3.17,5.78-1.24-.69-1.23-1.9-1.18-3.06.15-3.27-1.67-2.46-3.49-1.75Z"/><path class="cls-5" d="M96,239.86l-1-.9c-.32-3.24-2.12-6.09-.44-9.82,1.59-3.52,2.62-4,5.4-1.67.43.37,1.24.27,1.87.39l1.49,1c0,2.31.08,4.63.11,6.94l-.63,1.85C100.46,238.07,97.56,236.79,96,239.86Z"/><path class="cls-3" d="M94.05,180c-1.2.77-.86,3-2.9,3l0-15.91H93A42,42,0,0,1,94.05,180Z"/><path class="cls-2" d="M93,167H91.12c-4.49-1.83.87-3.53.08-5.31C93.85,162.78,93,165.05,93,167Z"/><path class="cls-1" d="M94,145.11c-.08.8-.19,1.62-1.19,1.72-1.24.12-1.58-.72-1.71-1.73Z"/><path class="cls-3" d="M126.48,241.39c-.62,1.89-.72,5.05-3.61,1.51-1-1.25-1.67-1.07-2.65.2-3,3.94-6.82,3.13-9.08-1.85,8.27.52,9.15-.25,9-8.16-.13-7.12-.43-14.24.65-21.33l2.31.09q.06,3,.14,5.93c-.09,1.73-.69,3.54.74,5.05,0,1,0,2,0,3-1.57,3.21,2.27,4.62,2.4,7.26C126.1,235.85,125.76,238.63,126.48,241.39Z"/><path class="cls-2" d="M126.38,233.08c-.13-2.64-4-4.05-2.4-7.26a8.24,8.24,0,0,0,5.15-8.06c0-2.68.52-5.35,4-5.89l1,1.06c-.33,2.59.17,5.77-1.17,7.65C130.15,224.5,131.47,230.5,126.38,233.08Z"/><path class="cls-2" d="M133.1,201.94c-.51-6.81,3.28-13.17,2.07-20.05q2,1.05,3.94,2.12c.67,6.88-1.47,13.35-2.89,19.93C135.1,203.4,134.61,201.88,133.1,201.94Z"/><path class="cls-2" d="M123.12,211.85l-2.31-.09c-.46-5.81-.49-11.56,2.34-16.92L126,195C125.13,200.61,125.05,206.39,123.12,211.85Z"/><path class="cls-3" d="M139.11,184q-2-1.06-3.94-2.12c.8-2.89-1.14-7.1,3.86-7.95l1.13.16Z"/><path class="cls-3" d="M126,195l-2.89-.13c0-2,.08-3.9.11-5.85.2-.44.41-.87.61-1.31l0-2.69,3.06,0C126.7,188.35,127.92,191.81,126,195Z"/><path class="cls-2" d="M127,185l-3.06,0c-.89-3.68-.92-7.09,3-9.2.36,1.42-.16,3.09,1.17,4.24Z"/><path class="cls-3" d="M133.1,201.94c1.51-.06,2,1.46,3.12,2-.79,3,1.86,6.76-2.11,9l-1-1.06Q133.1,206.91,133.1,201.94Z"/><path class="cls-2" d="M140.16,174.1l-1.13-.16c-.14-2.95.51-5.38,4-5.92a2.92,2.92,0,0,1,3.05,2.84C143.38,170.64,142.08,173,140.16,174.1Z"/><path class="cls-2" d="M124,222.83c-1.43-1.51-.83-3.32-.74-5.05C125.93,219.11,125.48,220.89,124,222.83Z"/><path class="cls-3" d="M103.47,235.85c0-2.31-.07-4.63-.11-6.94,2.31.24,4.61-1.71,6.93,0-.27,2-.53,3.93-.8,5.89-1.74,1.14-1,1.68.49,2.06.12,1,.25,1.91.37,2.86C105.91,242.26,104.13,240.05,103.47,235.85Z"/><path class="cls-2" d="M110,236.82c-1.45-.38-2.23-.92-.49-2.06C109.65,235.45,109.82,236.14,110,236.82Z"/><path class="cls-2" d="M123.87,187.68c-.2.44-.41.87-.61,1.31C123.47,188.55,123.67,188.12,123.87,187.68Z"/><path class="cls-1" d="M155.29,150.08a3.43,3.43,0,0,1,.21.69c0,.09-.14.2-.22.3C155.29,150.74,155.29,150.41,155.29,150.08Z"/><path class="cls-4" d="M140.16,174.1c1.92-1.15,3.22-3.46,5.9-3.24a3.66,3.66,0,0,0,.79.33c.22,1.48,1.62,1.95,2.49,2.87,0,2.61,0,5.22,0,7.83q-.75,2.42-1.52,4.83c-5,9.05-8.47,18.53-8,29.09A20.25,20.25,0,0,0,136.81,228c.09,3.26.4,6.55-.39,9.82-1.59,6.58-4.53,7.7-9.94,3.61-.72-2.76-.38-5.54-.1-8.31,5.09-2.58,3.77-8.58,6.56-12.5,1.34-1.88.84-5.06,1.17-7.65,4-2.23,1.32-6,2.11-9,1.42-6.58,3.56-13.05,2.89-19.93Z"/><path class="cls-3" d="M81.08,208.89c-1,.74-1.52,2.08-3,2l-.63-41.75,2.73-2.19C82.14,180.89,80.67,194.91,81.08,208.89Z"/><path class="cls-2" d="M80.16,166.94l-2.73,2.19c-.53-2.92-1.06-5.85-1.6-8.77,1.2-.81,1.35-2.07,1.42-3.36,2,1.9,5.1,3.39,2.87,7-.11.11-.33.24-.31.3a3.41,3.41,0,0,0,.33.73Z"/><path class="cls-3" d="M67.33,133c2-2.32,3.56-2.78,3.87,1.09,0,1,0,2,.07,3s0,2,0,3L69,141.24C66.86,138.83,67.45,135.86,67.33,133Z"/><path class="cls-3" d="M64.86,118.48c.5-.88-.1-2.59,1.31-2.61.64,0,1.29,1.49,1.93,2.29,0,2,0,4,.06,6s-.84,3.11-2.93,3.07c0-.33-.09-.67-.13-1L65,125Z"/><path class="cls-2" d="M69,141.24l2.24-1.16c3.23,1.1,1.44,3.86,1.94,5.86L71,147.17C69.25,145.54,69,143.44,69,141.24Z"/><path class="cls-2" d="M65,125l.09,1.2C64.44,125.85,64.47,125.45,65,125Z"/><path class="cls-2" d="M73.28,146.08c3.53,2,1.12,5.36,1.81,8C70.93,152.22,74.78,148.55,73.28,146.08Z"/><path class="cls-2" d="M129.35,273.79c-.63-6.67-.63-6.67-6.47-5.43.18-2,1.36-2.7,3.28-2.69,1.37,0,3.17.44,3.55-1.57.45-2.33-1.69-2.33-3.05-3,3.7-2.67,2.3-6.5,2.29-10a2.33,2.33,0,0,1,1.91-1.38c6.11.76,7,2.67,4.11,7.78-1.21,2.14-3,4.47-.93,7.28,1.29,1.78.06,3.4-.93,4.91-.69,0-1.59-2.41-2.05.12C130.78,271.29,131.47,273.11,129.35,273.79Z"/><path class="cls-3" d="M139.89,215.81c-.49-10.56,3-20,8-29.09,2,2.14.78,4.78,1.12,7.18-2.1,7.29-7.06,13.8-6,22Z"/><path class="cls-3" d="M130.86,249.71a2.33,2.33,0,0,0-1.91,1.38c-1.39-.28-2.9-.09-4.1-1.1,1.21-5.35,5.32-4.22,9.17-4.12-.76,1.38-3.1.8-3.05,2.78C130.93,249,130.9,249.36,130.86,249.71Z"/><path class="cls-2" d="M129.19,283.69c-.1-1.5-.19-3-2.28-3-1.27-2.6.46-3.85,2.29-5l1.86,1.17C130.4,279.07,132.61,282.14,129.19,283.69Z"/><path class="cls-3" d="M131.06,276.77l-1.86-1.17.15-1.81c2.12-.68,1.43-2.5,1.71-4,.46-2.53,1.36-.14,2.05-.12C132.42,272,134.58,275.23,131.06,276.77Z"/><path class="cls-2" d="M127,287.56a2,2,0,0,1,1.93-2A1.73,1.73,0,0,1,127,287.56Z"/><path class="cls-2" d="M125,289.5a1.89,1.89,0,0,1,2-1.9A1.72,1.72,0,0,1,125,289.5Z"/><path class="cls-2" d="M71.27,137.13c0-1,0-2-.07-3A1.78,1.78,0,0,1,71.27,137.13Z"/><path class="cls-3" d="M80.14,165.06a3.41,3.41,0,0,1-.33-.73c0-.06.2-.19.31-.3C80.13,164.37,80.13,164.72,80.14,165.06Z"/><path class="cls-2" d="M91.07,267.64l1,.07c2.14.41,3.49-1.14,5.1-2a15,15,0,0,1,3.36,1.94c3.54,3.47,5.57,1.51,7.62-1.71.92-1.44.13-3.8,2.42-4.46,1,1.72-.73,4.71,2.55,5.33l1,.92c-.64,3.31.5,5.3,4.09,5.46-.9,2.4-3.08,1.25-4.69,1.69-2.29-1.61-4.39-2.18-5.8,1.05-2.45-.89-4.72-2.53-7.55-1.9a9.89,9.89,0,0,0-9.06-4.25C91.11,269,91.09,268.34,91.07,267.64Z"/><path class="cls-2" d="M112.91,285.66c-2.8-.67-1.32-5.48-5.07-5.21-.42-.94-1-1.88-.08-2.85l5.16,0Q112.91,281.65,112.91,285.66Z"/><path class="cls-3" d="M112.92,277.64l-5.16,0c0-.57,0-1.14,0-1.71,1.41-3.23,3.51-2.66,5.8-1.05Z"/><path class="cls-2" d="M121.17,269.79a1.69,1.69,0,0,1,1.63-1.28C122.63,269.41,122,269.68,121.17,269.79Z"/><path class="cls-4" d="M110.6,261.44c-2.29.66-1.5,3-2.42,4.46-2.05,3.22-4.08,5.18-7.62,1.71a15,15,0,0,0-3.36-1.94c-.13-2.74.39-5.62-1.66-8-.1-1.32-.21-2.64-.31-4,2.06-1.42-.55-5.69,3.17-5.78,4.11-.1,8.58-1.59,12.19,1.87C110.16,253.71,109.75,257.57,110.6,261.44Z"/><path class="cls-4" d="M126.66,261.11c-2.49.08-4.44,1.57-6.59,2.55,0-1.36.1-2.68,1.31-3.53,2.57-1.8,1.58-4.42,1.53-6.77a2.45,2.45,0,0,0-2.57-2.46c-1.76-.09-2.11,1.08-2.28,2.54-.38,3.23-.26,6.7-1.46,9.62-1.52,3.69,1,2.35,2.43,2.62-.51,3.37-3.19,1.5-4.88,2l-1-.92c-.24-5.25,3.21-9.73,3.14-14.95,2-4.6,4.88-5.08,8.56-1.83,1.2,1,2.71.82,4.1,1.1C129,254.61,130.36,258.44,126.66,261.11Z"/><path class="cls-3" d="M116.29,251.82c.07,5.22-3.38,9.7-3.14,14.95-3.28-.62-1.58-3.61-2.55-5.33-.85-3.87-.44-7.73,0-11.6C113.28,248.25,116.23,245.91,116.29,251.82Z"/><path class="cls-4" d="M96,239.86c1.53-3.07,4.43-1.79,6.81-2.16C101.87,242.51,98.78,240.63,96,239.86Z"/><path class="cls-3" d="M95.54,257.71c2,2.34,1.53,5.22,1.66,8-1.61.9-3,2.45-5.1,2-.87-3.39,3.62-6.32.88-9.88Z"/><path class="cls-5" d="M119,265.68c-1.41-.27-4,1.07-2.43-2.62,1.2-2.92,1.08-6.39,1.46-9.62.17-1.46.52-2.63,2.28-2.54a2.45,2.45,0,0,1,2.57,2.46c0,2.35,1,5-1.53,6.77-1.21.85-1.36,2.17-1.31,3.53Z"/></svg>