<svg id="圖層_2" data-name="圖層 2" xmlns="http://www.w3.org/2000/svg" xmlns:xlink="http://www.w3.org/1999/xlink" viewBox="0 0 527.84 595.28"><defs><style>.cls-1{fill:#ec739e;}.cls-2{fill:none;stroke:#efefef;stroke-linecap:round;stroke-width:2px;}.cls-2,.cls-5{stroke-miterlimit:10;}.cls-3{opacity:0.2;}.cls-4{fill:#efefef;}.cls-5{fill:#727171;stroke:#231815;stroke-width:0.25px;}.cls-6{fill:url(#未命名漸層_88);}.cls-7{fill:url(#未命名漸層_46);}.cls-8{fill:url(#未命名漸層_44);}.cls-9{fill:url(#未命名漸層_88-2);}.cls-10{fill:url(#未命名漸層_44-2);}.cls-11{fill:#231815;}.cls-12{fill:#fff;}.cls-13{fill:url(#未命名漸層_106);}.cls-14{fill:url(#未命名漸層_106-2);}.cls-15{fill:#971e23;}.cls-16{fill:#e83828;}.cls-17{fill:#dcdddd;}</style><linearGradient id="未命名漸層_88" x1="164.9" y1="273.93" x2="296.61" y2="273.93" gradientUnits="userSpaceOnUse"><stop offset="0" stop-color="#c8392d"/><stop offset="0.42" stop-color="#d34036"/><stop offset="1" stop-color="#e94e4a"/></linearGradient><radialGradient id="未命名漸層_46" cx="140.81" cy="249.49" r="175.22" gradientUnits="userSpaceOnUse"><stop offset="0" stop-color="#ec708a"/><stop offset="0.22" stop-color="#ec748c"/><stop offset="0.42" stop-color="#ee7e91"/><stop offset="0.61" stop-color="#f0919b"/><stop offset="0.8" stop-color="#f2aaa8"/><stop offset="0.94" stop-color="#f5c3b4"/><stop offset="1" stop-color="#fbd8c4"/></radialGradient><linearGradient id="未命名漸層_44" x1="282.3" y1="223.26" x2="290.61" y2="181.72" gradientUnits="userSpaceOnUse"><stop offset="0" stop-color="#ec708a"/><stop offset="0.15" stop-color="#ed7b8f"/><stop offset="0.42" stop-color="#f0989e"/><stop offset="0.75" stop-color="#f5c3b4"/><stop offset="0.83" stop-color="#f4bcb1"/><stop offset="0.96" stop-color="#f2a9a7"/><stop offset="1" stop-color="#f1a2a3"/></linearGradient><linearGradient id="未命名漸層_88-2" x1="81.13" y1="291.97" x2="152.8" y2="281.06" xlink:href="#未命名漸層_88"/><linearGradient id="未命名漸層_44-2" x1="68.22" y1="234.63" x2="78.08" y2="174.39" xlink:href="#未命名漸層_44"/><radialGradient id="未命名漸層_106" cx="211.83" cy="178.29" r="12.86" gradientUnits="userSpaceOnUse"><stop offset="0" stop-color="#036eb8"/><stop offset="0.13" stop-color="#0672bb" stop-opacity="0.93"/><stop offset="0.26" stop-color="#0a79bf" stop-opacity="0.82"/><stop offset="0.39" stop-color="#0f7fc4" stop-opacity="0.71"/><stop offset="0.66" stop-color="#1c90cf" stop-opacity="0.42"/><stop offset="1" stop-color="#2ea7e0" stop-opacity="0"/></radialGradient><radialGradient id="未命名漸層_106-2" cx="-826.64" cy="178.29" r="12.86" gradientTransform="matrix(-0.91, 0, 0, 1, -511.32, 0)" xlink:href="#未命名漸層_106"/></defs><title>藍紅</title><path class="cls-1" d="M284.61,575.34c18.48-9.82,38.43-21.26,45.75-40.88.89-2.38,1.57-5,.9-7.45-2.51-9.14-16.68-4.9-25.32-8.79-6.47-2.91-9.39-11-8.38-18s5.1-13.2,9.42-18.83c9-11.78,20.25-26.65,13.32-39.79-1.08-2.07-2.61-4-2.89-6.31s.86-4.76,2-6.92a362.58,362.58,0,0,1,66.11-89.31c9.13-9,18.89-17.74,25.33-28.85,5.66-9.76,8.88-21.46,17.64-28.57,3.19-2.6,7.21-4.72,8.59-8.59,1.49-4.17-.67-8.63-2-12.85-5.63-18.33,5.06-37.28,15.32-53.47L516,103.28c6-9.46,11.54-23.14,3.15-30.56-3.5-3.1-9-4.39-10.62-8.78-1.14-3.07.16-6.46,1.49-9.46a324.75,324.75,0,0,1,30.45-54H-.25V595.8H269.58C273.25,588,276.35,579.73,284.61,575.34Z"/><line class="cls-2" x1="115.36" y1="-17.94" x2="-67.53" y2="207.93"/><line class="cls-2" x1="363.54" y1="-55.26" x2="180.65" y2="170.6"/><line class="cls-2" x1="174.51" y1="283.77" x2="-8.38" y2="509.63"/><line class="cls-2" x1="485.69" y1="-117.02" x2="302.8" y2="108.85"/><g class="cls-3"><path class="cls-4" d="M182.79,467.68a18,18,0,0,1-14-29.23l440.72-552a18,18,0,0,1,25.3-2.83,18,18,0,0,1,2.83,25.29L196.87,460.91A18,18,0,0,1,182.79,467.68Z"/></g><g class="cls-3"><path class="cls-4" d="M-180.14,502a16,16,0,0,1-10-3.52,16.08,16.08,0,0,1-2.55-22.62L202-18a16.14,16.14,0,0,1,22.66-2.53,16.07,16.07,0,0,1,2.54,22.62L-167.53,495.9A16.09,16.09,0,0,1-180.14,502Z"/></g><g class="cls-3"><path class="cls-4" d="M31.09,827.08a18,18,0,0,1-14-29.23l440.72-552a18,18,0,1,1,28.13,22.46L45.17,820.31A18,18,0,0,1,31.09,827.08Z"/></g><g class="cls-3"><path class="cls-4" d="M115,377.8l1.69-1.58s0,0-.06,0Z"/><path class="cls-4" d="M114,379.85l.5-.53a.45.45,0,0,1-.14.07Z"/><path class="cls-4" d="M116.67,376.22c-.24,0-1.11.55-.32-.31,1-.83,3-2.48,4-3.29s0,0-.06-.06l2.09-1.56.14-.18a1.1,1.1,0,0,1-.37.34l-2.33,1.63a75.91,75.91,0,0,0-7.55,6.62C110.65,381.09,111.08,381.18,116.67,376.22Z"/><path class="cls-4" d="M109.79,383.68c1.57-1.59,3.13-3.19,4.7-4.79.38-.59,1-1.32.38-.92A51.38,51.38,0,0,0,109.79,383.68Z"/><path class="cls-4" d="M-174.85,738.14c8-11.25,15.52-22.64,22.38-34,16.25-21.16,31.31-42,42-63.1,4.54-9.4,12.41-21,19.95-32.88s14.65-24.09,17.38-35a51.68,51.68,0,0,0-4.23,4.68,68.5,68.5,0,0,0,3.09-8.32c9.79-13.66,19.79-27,30.28-40s21.52-25.7,33.23-38.27c3.45-3.75,4.9-7.49,8.44-11.16s7-7.46,10.46-11.14a.36.36,0,0,0-.37-.07c3.57-3.84,7.18-7.62,10.77-11.42s7.22-7.57,10.91-11.31c7.33-7.54,14.87-15,22.78-22.57,7.59-6.93,15.83-13.35,24-19.82,3.08-2.41,3.79-1.84,6-3.34,8.94-5.84,15.4-10.41,24.66-17.62l.23.19c1.34-1.17,2.62-2.16,3.66-3-1.88,2-5.22,5.53-6.61,7.39s-.85,2,4.65-3h0l-1.51,1.68-.17.18h0a36.66,36.66,0,0,0-4.59,6.11l4.52-4.94c-.17.41-.22.72,0,.65l-.31.49-1.2,1.37a3.14,3.14,0,0,0-.25.73c-3.39,4.76-8.8,12.19-7.1,11.3,1.13-.83,3.47-4.42,6.33-8.32.22-.2.47-.43.71-.68-1.91,2.54-1.7,2.71-1.31,2.62s1-.45-.1,1.14c-3,4.11-5.86,8.32-8.86,12.43-12.24,16.7-22.53,30.8-33.75,47.86l-1.49,2.23c-5.49,8.23-10.95,15.78-17,23.26.12-.69.28-1.38.47-2.08a179.11,179.11,0,0,0-13.89,18.74c-10.06,16.37-19.9,32.91-31.93,49.32-12.73,17.09-24.51,33.93-36.6,52,4.54-7.69,9.16-15.3,14.49-22.65,2.57-3.15,5.13-6.29,7.47-9.46-2.67,3.09-5.14,6.24-7.47,9.46-9.93,12.11-20.61,24.15-24,36.92-1.21.7-1.67.34-2.47,1.31C-56.9,623-63,629.46-66.17,636.73c.45.37-2,3.27-.31,3-2.26,3.08-4.84,6.3-7.37,9.57s-5,6.54-7.12,9.76a41.38,41.38,0,0,0-4.49,9.09c-8,11.08-16.16,21.89-24.87,32.63s-17.92,21.39-28.11,32.05c-5.17,5.2-11.54,10.88-17.25,15.77,7.49-7.93,15-16.25,22.44-24.88,8.22-7.54,15.84-15,20-22.81,1.06-1.75,2.12-3.48,3.2-5.21-7.61,9.6-15.39,19-23.18,28l-7.4,6.69c-2.5,2.23-5,4.47-7.39,6.73l.23-.32c3.39-3.86,6.81-7.75,10.18-11.74,7.27-6.73,14-13.42,18.35-20.31.54-.86,1.07-1.73,1.51-2.6,1-1.75,2.1-3.5,3.17-5.23-4.66,5.95-9.39,11.8-14.13,17.55-3,3.56-5.91,7.11-8.9,10.59-2.13,2-4.3,4-6.49,6,.15-.28.31-.57.43-.83a11.33,11.33,0,0,0,1.57-5.57c.05-2-.57-3.61-2.36-2.61-6.69,7.16-14.49,16-20.84,22.8-3.16,3.43-6,6.37-7.94,8.46l-2.37,2.42a6.6,6.6,0,0,1-.91.84c-.45,0,.66-1.45,2.52-3.73s4.46-5.37,7-8.48c5.16-6.2,10.21-12.48,9.63-12.13q-2.12,1.9-4.17,3.86c1-1.49,1.94-3,2.76-4.37,2.29-3,6-6.58,7.1-9a76.88,76.88,0,0,1,7.84-11.83,123.28,123.28,0,0,0,8.72-12.35c3.06-5.7,6.46-12.75,9.72-19.91-.77-.63,2-3.28.44-2.92,4.5-5.58,9.74-12,9.25-16.36l.26-.46a7.27,7.27,0,0,0,.92-1.82c7.86-9,10.7-17.39,15.7-27.26,2.09-3.09,4.28-6.18,6.7-9.24-1.58,2-4.38,4.63-5.52,7l-1.18,2.26c-5.38,8-9.92,16.19-14.71,24.11-.22.78-.57,2-1,3.15-.44.5-.87,1-1.33,1.49a5.24,5.24,0,0,1,.15.79c-4.29,7.81-10.08,15.88-13.66,22.6-7.59,12-17.78,23.07-27,34.09q6-9,11.46-17.91c-4.83,7.25-9.38,14.09-13.81,20.72l-2.32,2.82-4.81,5.92c1.62-1.74,3.21-3.49,4.78-5.23L-169,734.07c-7.54,10.28-15.61,20.4-24,30.3s-17.14,19.57-25.85,29.1c.29-.43.62-.91,1-1.44,8.12-9.42,16.36-18.73,21.95-27.28-4.54,5.55-7.45,9.57-11.89,14.89,0-.06-.18-.08.14-.55-2.69,3.51-5.92,7.55-9.16,11.39.89-1.34,1.86-2.88,2.77-4.46,1.42-2.13,3.74-5.15,6-8.26l14.51-19.42c4.78-6.39,9.52-12.78,14.15-19.47,8.86-11.43,17.82-22.77,26.46-34C-160.71,716.73-167.85,727.61-174.85,738.14Zm264-334.68c-.86,1-1.71,2-2.56,3.06l.54-.33A14.69,14.69,0,0,0,89.14,403.46Zm-21,21.27c6.43-6,13.87-14.77,21.58-22.8,0-.08,0-.14,0-.17C82.88,408.19,75.2,416.71,68.19,424.73ZM37.82,445l.25-.07-.16-.1Zm-89.73,126.5c4.13-9.73,12.2-19.54,19.43-30,2.43-2.93,3.11-7.27,6.39-11.16,3.66-5.22,5.28-8.8,8.16-13l-3.35,2.2c6.21-6.43,7.06-12.28,13.78-18.27-.41-.33-.39-1.95.46-2.89,3.83-5.07,8.9-9.15,11.56-13.53,3.89-5,8.25-9.66,11-14,.88-.93,1.54-3.65,3-5.77,2-2.36,4.1-4.66,6.2-6.95-.19,0-.37,0-.54.05A54.34,54.34,0,0,0,19,463.81C14.37,469.87,9,477,4.21,482.88-8,497.52-18.1,512.22-27.89,527.17c-2,3.26-3.62,6.89-5.63,10.15-2.79,5.1-6.5,10.27-9.75,15.2s-6,9.67-6.8,13.9C-50.42,567.77-52,569.75-51.91,571.47Zm10.82,27A203.09,203.09,0,0,1-18,564.62,125.91,125.91,0,0,0-5.8,545.06c3.59-7.31,5.42-13.59,1.26-13.69.74,8.7-12.17,25.27-23.53,39.65S-49.1,597.7-41.09,598.5Zm-61,87a113.09,113.09,0,0,1,9.93-13.21Q-97,678.92-102.07,685.48Zm18.08-55c-7.36,15.28-18.29,29.31-27.36,43.21-3.53,5.32-8.06,10.23-12.32,15.16s-8.21,9.9-10.76,15.19l1.06.86.49-1.23c3.17-3.18,6.16-5.38,8.95-7.93l-.33.57.69-.89a35,35,0,0,0,5.32-6.07l2.21-3.56c9.81-12.49,19.86-25.44,26.36-38.68,4.41-7.86,7-15.55,11.31-23.53C-80,625.56-82.82,628.16-84,630.49Z"/></g><line class="cls-2" x1="491.56" y1="88.12" x2="56.2" y2="625.78"/><path class="cls-5" d="M133.34,342c-23.17,0-38.12-6-55.24-13.82-12.64-5.79-21-10.62-26.15-18.25-7.08-10.4-5.58-23-3.48-32.87A61.35,61.35,0,0,1,62.1,249.56a52.35,52.35,0,0,1-9.63-4.88c-15.38-9.52-22.74-28.83-18.74-49.2a56.17,56.17,0,0,1,10.69-22.87v-.15c0-67.85,56-123,124.76-123a125,125,0,0,1,87.12,35,121.6,121.6,0,0,1,37.43,80.89c6,6.84,18.6,23.76,13.93,40.7-3.09,11.18-12.55,19.24-28.15,24q-2.43,4.51-5.24,8.84c13.33,7.49,33.05,22.94,32.86,48.74-.07,9.35-3.58,31.1-34.53,31.1h0A115.53,115.53,0,0,1,255.11,317l-1.41-.22h-2c-1.2,0-1.52,0-13.75-2.41-11.79-2.33-37.5-8.4-53.72-12.29,1.07,6.91,2.1,17.24-4.53,26-5.36,7.09-14.13,11.25-26.83,12.72A171.76,171.76,0,0,1,133.34,342Z"/><path class="cls-6" d="M258.59,241s38.25,13.38,38,44.77-40.16,18.46-46.85,18.92c0,0,7.16,1.62-10.38-1.84s-67.56-15.64-67.56-15.64l-1.21-3.4s-16.11-25.28,5.79-30.35S258.59,241,258.59,241Z"/><ellipse class="cls-7" cx="168.67" cy="170.72" rx="114.76" ry="113.05"/><path class="cls-8" d="M283.43,167.67s39.74,39.42-11.33,52.08"/><path class="cls-9" d="M81.35,244.08a50.75,50.75,0,0,0-23.61,33.34c-5.08,23.77,2.31,30,24,39.93s37.39,15.46,69.47,11.77,21.7-25.85,21.7-34.39-4.52-23.44-24.47-27.93C100.21,256,98.86,250.08,81.35,244.08Z"/><path class="cls-10" d="M62.93,165.37S46.49,178,43,195.66s3.28,32,14.19,38.77,17.31,7.45,35,1.39,7.27-40.33,4.51-47.26-5.2-15.92-15.41-23.19S62.93,165.37,62.93,165.37Z"/><path class="cls-11" d="M185.82,131.25c0,3.49,2.5,6.06,5.57,7.32,3.26,1.33,7,1.83,10.37,2.61l21.69,5c3.13.72,4.47-4.1,1.33-4.82l-19.28-4.41-9.36-2.14c-1.83-.42-5.32-1.05-5.32-3.52,0-3.22-5-3.23-5,0Z"/><ellipse class="cls-11" cx="212.5" cy="158.02" rx="10.82" ry="18.61"/><path class="cls-12" d="M208.26,142.34c-1.68,1.74-2.2,7.42-2.2,10.3,0,5.21,2.14,9.44,6.44,9.44s6.43-4.23,6.43-9.44c0-2.88.29-6.13-1.39-7.86A85.56,85.56,0,0,1,208.26,142.34Z"/><path class="cls-13" d="M206.36,168.66s5.6,11.25,12.73,0"/><path class="cls-11" d="M254.43,131.25c0,1.79-1.17,2.78-2.77,3.33-2.25.78-4.54,1.44-6.81,2.16l-14.5,4.58c-3.06,1-1.76,5.79,1.32,4.82l16.85-5.32c2.42-.76,5.25-1.31,7.37-2.77a8.23,8.23,0,0,0,3.54-6.8c0-3.22-5-3.23-5,0Z"/><ellipse class="cls-11" cx="241.6" cy="158.02" rx="9.86" ry="18.61"/><path class="cls-12" d="M245.47,142.34c1.53,1.74,2,7.42,2,10.3,0,5.21-1.95,9.44-5.87,9.44s-5.86-4.23-5.86-9.44c0-2.88-.26-6.13,1.27-7.86A73.1,73.1,0,0,0,245.47,142.34Z"/><path class="cls-14" d="M247.2,168.66s-5.11,11.25-11.61,0"/><ellipse class="cls-15" cx="224.7" cy="207.93" rx="16.66" ry="14.21"/><path class="cls-16" d="M232.63,220.43s-3.86-13.05-23.4-7.22C209.23,213.21,214.29,226.69,232.63,220.43Z"/><path class="cls-17" d="M268.72,589.84c.1,0,.09.22-.75,1.61.27-.56.5-1.08.75-1.61-.09-.07-.29-.05,0-.81-1.24,2.89-2.45,6-3.92,8.86a27.8,27.8,0,0,1-5.45,7.74c-.47.65-.93,1.31-1.36,2a26.93,26.93,0,0,0,7.38-9.21c1.93-3.62,3.48-7.54,5.33-11.37a38.51,38.51,0,0,1,7.14-10.76l2.42-2.17,2.65-1.82c1.62-1,3.15-1.93,4.63-2.9l-3.16,1.72c-.51.28-1,.53-1.51.84l-1.63,1a13.28,13.28,0,0,0-1.55,1.07l-1.4,1.2a23.27,23.27,0,0,0-2.5,2.57C272.72,581.37,270.75,585.41,268.72,589.84Z"/><path class="cls-17" d="M349.34,371.09c6.51-8.66,12.16-16.35,18.18-23.92-6.71,7.74-13.21,15.83-19,23.69S337.69,386.34,333.71,393Q341.06,381.82,349.34,371.09Z"/><path class="cls-17" d="M397.7,312c-3.78,4.5-7.73,8.56-11.57,12.57-1.92,2-3.81,4-5.67,6s-3.64,4.06-5.4,6.05c7.5-8,15.24-15,21.18-22.37C396.76,313.46,397.24,312.67,397.7,312Z"/><path class="cls-17" d="M389.5,322.88c-4.1,4.14-8.11,8.11-11.76,12.2l-2.71,3-2.57,3c-1.71,2-3.33,4-4.94,6.05l2.84-3.28,2.87-3.21c1.89-2.14,3.82-4.2,5.7-6.25C382.71,330.31,386.35,326.52,389.5,322.88Z"/><path class="cls-17" d="M319.19,510.31a40.5,40.5,0,0,1,9.4,1.26,19.72,19.72,0,0,1,6.54,3.13,16.51,16.51,0,0,1,3.89,4,18.72,18.72,0,0,1,1.89,3.68,12.72,12.72,0,0,1,.61,1.43,17.8,17.8,0,0,1,1.39,6.81,18.28,18.28,0,0,0-.67-7.06,21.38,21.38,0,0,0-1.91-4.39,17.4,17.4,0,0,0-3-3.75,20.56,20.56,0,0,0-8.34-4.74,33.85,33.85,0,0,0-5-1.06c-.86-.1-1.72-.22-2.58-.28l-1.3-.11-1.11-.07c-2-.09-3.7-.14-5.16-.26-1.92-.05-3.26-.24-3.85-.28a.8.8,0,0,0-.31,0,1.06,1.06,0,0,0-.31,0,1.08,1.08,0,0,1,.24.18.68.68,0,0,1,.26.15,13.48,13.48,0,0,0,3.47.87C315,510,317,510.13,319.19,510.31Z"/><path class="cls-17" d="M340.91,522.37a13.32,13.32,0,0,0-2.6-3.61c-.51-.45-.54-.35-.29,0l.54.86c.23.36.49.78.74,1.26a24.5,24.5,0,0,1,1.43,3.15c.56,1.64.85,3.12,1,3.41s.14,0,.13-.58a13.22,13.22,0,0,0-.46-3.06C341.25,523.4,341.1,522.91,340.91,522.37Z"/><path class="cls-17" d="M296.15,497.39c.09-.42.19-.85.31-1.26a31.22,31.22,0,0,1,1.1-3.6A29.37,29.37,0,0,0,296.15,497.39Z"/><path class="cls-17" d="M332.59,412c-1.72,3-3.44,6-5,9-.82,1.52-1.63,3-2.39,4.57L322.92,430l2.35-4.55c.79-1.56,1.63-3.09,2.46-4.62,1.63-3.08,3.35-6.07,5-9,3.38-5.85,6.66-11.42,9.73-16.44-1,1.46-2.12,2.81-3.09,4.27-.78,1.58-1.79,3.53-3,5.63S334,409.72,332.59,412Z"/><path class="cls-17" d="M331.4,530.17a9.11,9.11,0,0,0,0-2.76,7.41,7.41,0,0,0-1.46-3.3,7.6,7.6,0,0,0-2.87-2.19,21.3,21.3,0,0,0-7-1.42c-2.3-.16-4.8-.21-7.21-.42a24.85,24.85,0,0,1-7.28-1.53,14.51,14.51,0,0,1-5.31-3.92,17.69,17.69,0,0,1-3.23-5.69,21.67,21.67,0,0,1-1.23-6.38,23.71,23.71,0,0,1,.69-6.43,42.41,42.41,0,0,1,6.46-12.87c1.34-1.94,2.76-3.78,4.12-5.58s2.69-3.64,4-5.48a70,70,0,0,0,6.59-11.34A26.1,26.1,0,0,0,320.1,449a16,16,0,0,0-1.44-5.52l-.6-1.28-.37-.64-.47-.75a22.21,22.21,0,0,1-1.82-3.44,9.27,9.27,0,0,1-.7-3.78,12.27,12.27,0,0,1,.75-3.78,31.24,31.24,0,0,1,1.55-3.51l1.43-2.87c3.79-7.63,7.71-15,11.69-22.09,3.48-6.26,8-13.48,13.18-21s11.15-15.45,17.38-23.11,12.74-15.1,19-21.91,11.89-12.86,15.63-18.33c-1.94,2.06-3.88,4-5.78,5.95a88.89,88.89,0,0,0,6.74-8.68A71.32,71.32,0,0,0,400.8,308a58.88,58.88,0,0,0,3.7-6.62c2.37-4.8,4.58-10.42,8.09-16.32a46.9,46.9,0,0,1,6.6-8.72,27,27,0,0,1,2.11-2c.73-.66,1.51-1.3,2.17-1.8l1.83-1.39.75-.57.28-.22.07-.07a2.17,2.17,0,0,0,.86-1.49,2.51,2.51,0,0,0-.11-.86l-.22-.7-.62-1.82c-.24-.7-.5-1.42-.77-2.28s-.5-1.79-.74-2.69-.51-1.81-.64-2.74l-.43-2.77a23.75,23.75,0,0,1-.26-2.78c-.05-.92-.11-1.85-.14-2.77l.08-2.74.06-1.37c0-.45.09-.89.13-1.34A68.52,68.52,0,0,1,428.91,224a138,138,0,0,1,8.77-17c1.58-2.63,3.22-5.27,4.81-7.77l4.77-7.54c3.79-6,6.13-10.77,9.91-16.75s7.54-12,11.27-18c0,0-.11,0-.25.15l22.91-37.07,11.47-18.77,2.89-4.74.62-1c.19-.33.39-.66.57-1,.35-.67.74-1.34,1.05-2A30.8,30.8,0,0,0,510.49,85a13.67,13.67,0,0,0,.33-2.54,2.45,2.45,0,0,1,0-.38v-.19a.31.31,0,0,1-.05-.1.62.62,0,0,1,0-.19h0s0,0,0,0,.05,0,0,0,0,0,0,0l-.15-.11c-.27-.19-.68-.46-1.35-.86-.94-.56-2.73-1.57-4.11-2.55a25,25,0,0,1-3.95-3.32,20.7,20.7,0,0,1-3-4,21.14,21.14,0,0,1-1.9-4.65,20.87,20.87,0,0,1-.12-10,31.89,31.89,0,0,1,1.56-5c.31-.8.69-1.67,1-2.39l.59-1.31c2.27-5,3-4.67,4.76-7.9,3.64-6.37,7-11.83,10.55-17.42s7.29-11.29,11.9-18l.49.31c1.3-2.14,2.57-4,3.65-5.49-1.31,3.84-4.4,10-5.56,13.19-.58,1.58-.7,2.38.07,1.72s2.45-2.77,5.59-6.93h0c-.57,1-1.09,1.91-1.56,2.78l-.19.29h0a56.73,56.73,0,0,0-4.44,9.87c1.58-2.69,3.2-5.37,4.87-8-.08.64,0,1.11.35,1l-.31.77c-.74,1.17-1.33,2.17-1.33,2.17a4.3,4.3,0,0,0-.14,1.1c-1.77,3.69-4.09,8.39-5.71,12s-2.52,6-1.59,5.11c1.25-1.47,3.73-6.85,6.93-12.76.27-.31.56-.68.85-1.06-4.29,7.7,1.17.69-1.31,5.34-3.49,6.09-6.61,12.38-9.69,18.67-1.59,3.2-3.06,6.38-4.47,9.52l-.52,1.17-.42.95c-.27.64-.51,1.27-.72,1.92a8.44,8.44,0,0,0-.4,4,5.92,5.92,0,0,0,2,3.36,18.69,18.69,0,0,0,3.29,2.2l1,.58,1.13.68A22.52,22.52,0,0,1,520.7,70c.39.32.72.7,1.08,1a10.54,10.54,0,0,1,1,1.11,14.7,14.7,0,0,1,1.61,2.54c.22.46.46.9.64,1.37l.46,1.44a7.48,7.48,0,0,1,.33,1.44l.24,1.45a24,24,0,0,1-.17,5.63,39.92,39.92,0,0,1-3.07,10.29c-.72,1.62-1.49,3.21-2.34,4.77s-1.78,3.12-2.65,4.55l-5.41,8.92-1.94,3.18c-7.13,11.72-14,22.67-21.33,33.93.34-.8.71-1.62,1.1-2.46-5.88,9.05-11.71,18.17-17.24,27.46L452.57,211c-1.68,2.87-3.34,5.74-4.87,8.66s-3,5.86-4.26,8.86A55.31,55.31,0,0,0,438.68,247a30.12,30.12,0,0,0,.87,9.46c.22.77.35,1.51.63,2.29l.87,2.54a29.56,29.56,0,0,1,1.66,7,14.18,14.18,0,0,1-1.29,7.49,17.92,17.92,0,0,1-4.85,5.94l-.76.63-.62.49-1.15.87c-.74.56-1.41,1.07-2,1.55a24.13,24.13,0,0,0-3.14,3.17c-3.94,4.66-6.56,11.15-9.74,18a82.94,82.94,0,0,1-5.7,10.48,91.65,91.65,0,0,1-7.21,9.59c2.06-2.5,4.06-5.11,5.91-7.87a74.13,74.13,0,0,0,5-8.67c2.92-5.89,5.09-11.67,8-16.62a34.7,34.7,0,0,1,4.35-5.86c.41-.4.79-.84,1.22-1.21s.82-.75,1.28-1.11c.9-.73,2-1.52,3.2-2.43-1.25.93-2.39,1.71-3.31,2.44-.45.37-.86.75-1.29,1.12s-.81.81-1.22,1.22a32.41,32.41,0,0,0-4.23,5.83c-2.56,4.23-4.7,9.18-7.22,14.22a85.08,85.08,0,0,1-4.22,7.53c-1.54,2.45-3.21,4.73-4.9,6.91-3.39,4.37-6.93,8.24-10.22,11.88s-6.37,7-8.95,10.23a26.5,26.5,0,0,0-2.73,2.24c-8.57,8.61-16.74,17.66-22.69,26.23.13.11-3.1,4.18-1.71,3.07a302.65,302.65,0,0,0-18.76,27c-1.15,1.92-2.26,3.88-3.32,5.85s-2,4-3,6l-3.34,6.07-3.21,6.13L328,432.5a2.26,2.26,0,0,0-.17,1.46,2.16,2.16,0,0,0,.35.63l.22.28a18.63,18.63,0,0,1,1.16,2.08,29.7,29.7,0,0,1,3.14,10.56A33.35,33.35,0,0,1,332,457.9l-.26,1.22-.33,1.14-.69,2.28-.81,2.13c-.27.72-.55,1.43-.86,2.08a89.67,89.67,0,0,1-8.27,14.32c-1.47,2.16-3,4.23-4.42,6.23s-2.57,3.63-3.62,5.36a20.93,20.93,0,0,0-3.39,8.89,7.94,7.94,0,0,0,.38,2.94,4.22,4.22,0,0,0,1.05,1.79c.21.18.22.13.25.14a16.22,16.22,0,0,0,2.88.56c.79.1,1.73.18,2.75.26l3.9.31c4.46.39,8.89,1.23,12.49,3.12a19.69,19.69,0,0,1,8.42,8,19.73,19.73,0,0,0-8.55-7.8,32.94,32.94,0,0,0-12.14-2.81l-1.5-.1-.86,0-1.63-.07c-1,0-2-.09-2.82-.16a19.2,19.2,0,0,1-3.31-.48.84.84,0,0,1-.53-.2,3.24,3.24,0,0,1-.88-1,8.53,8.53,0,0,1-1-4.24c0-.22,0-.38.09-.65s.08-.52.16-.79a14,14,0,0,1,.47-1.63,24.56,24.56,0,0,1,1.54-3.49,62.18,62.18,0,0,1,5-7.62c4.26-5.73,8.48-11.77,11.38-18.28.37-.72.68-1.53,1-2.3s.67-1.54,1-2.38l.85-2.48.73-2.62a59.34,59.34,0,0,1-6.19,14c-2.42,4.11-5,7.84-7.56,11.36l-1.86,2.57c-.57.8-1.1,1.57-1.62,2.34a47.38,47.38,0,0,0-2.66,4.45,24,24,0,0,0-1.69,4.08,15.86,15.86,0,0,0-.44,1.85,10.73,10.73,0,0,0-.16,1.61,9.13,9.13,0,0,0,.63,4.37,5.23,5.23,0,0,0,.8,1.34,2.33,2.33,0,0,0,.66.55,13.93,13.93,0,0,0,4,.88h-.43a17.86,17.86,0,0,1-3.71-.59,2.5,2.5,0,0,1-.64-.28,3,3,0,0,1-.77-.71,7.44,7.44,0,0,1-1.4-2.95,11.23,11.23,0,0,1,.47-5.41,29.06,29.06,0,0,1,3-6.45c.67-1.11,1.42-2.25,2.2-3.39s1.6-2.25,2.53-3.55c1.79-2.51,3.54-5,5.13-7.64.79-1.27,1.55-2.63,2.25-3.91a77.7,77.7,0,0,0,4.19-8.69,89.42,89.42,0,0,1-8.74,15.1c-1.56,2.26-3.18,4.47-4.65,6.51a61,61,0,0,0-3.7,5.73,24.66,24.66,0,0,0-2.65,6.51,13.07,13.07,0,0,0-.34,2.75,10,10,0,0,0,.3,2.44,8.55,8.55,0,0,0,.88,2.67,4.93,4.93,0,0,0,1.17,1.52,1.69,1.69,0,0,0-.34-.08c-.2-.16-.64-.27-1.15-.62a12.88,12.88,0,0,1-1.66-1.27,4.87,4.87,0,0,0-1.33-1c-.33-.08-.55.22-.42,1.1a9.8,9.8,0,0,0,1.7,3.15,6.82,6.82,0,0,0,2.41,1.87,19,19,0,0,0,5.29,1.11c1.1.11,2.28.19,3.52.27l2.07.14c.95.08,1.9.17,2.83.29A22.23,22.23,0,0,1,332.45,517a13.69,13.69,0,0,1,3.57,3.59,14.66,14.66,0,0,1,2,4.5,17.06,17.06,0,0,1,.08,7.25,38.73,38.73,0,0,1-2.23,6.7l-.6,1.56c-.21.4-.4.8-.6,1.18l-1,2c-.67,1.33-1.45,2.44-2.08,3.51a31.81,31.81,0,0,1-1.87,2.73c-.57.78-1.05,1.47-1.48,2l-1,1.17a2.82,2.82,0,0,1-.37.39c-.25.13.14-.49,1-1.65.44-.58.91-1.37,1.5-2.24s1.27-1.86,1.9-3a41.84,41.84,0,0,0,2.05-3.76l1-2.14a11.82,11.82,0,0,0,.57-1.38l.56-1.51c1.75-4,2.64-8.43,1.65-12.48a13.2,13.2,0,0,0-2.25-4.7,12.4,12.4,0,0,0-3.7-3.26,21.56,21.56,0,0,0-8.25-2.57c-1.26-.17-2.41-.25-3.4-.32l-1.16-.06-.8,0c-.93,0-1.35,0-1.16,0l4.49.51a32.51,32.51,0,0,1,5.3,1.06,32.18,32.18,0,0,0-5-.68c-.82,0-1.68-.09-2.41-.1H317c-3.36-.12-7.12-.57-9.27-1.52A12.39,12.39,0,0,1,304.9,512a11.84,11.84,0,0,1-3.75-6.3,16.64,16.64,0,0,1,.19-8.42,33.49,33.49,0,0,1,3.83-8.69c1.69-2.87,3.7-5.62,5.72-8.6a124.9,124.9,0,0,0,7.44-12.6c2.23-4.68,4.25-9.92,4.38-15.37-.1,0-.12-.35-.11-.83s-.07-1.09-.09-1.65c0-1.12-.27-2-.32-1.09a19.79,19.79,0,0,0-2.07-7.22c-1.19-2.2-2.89-4.35-3.08-6.78a13.78,13.78,0,0,1,1.46-6.3,28.35,28.35,0,0,0,1.52-4.25l.32-.66c.34-.62.75-1.54,1.19-2.52,4.1-7.26,7.58-13.42,11-19.42s6.78-11.81,10.88-18.22c1.5-2.13,3-4.31,4.59-6.44s3.19-4.3,4.9-6.44c-2.23,2.79-5.61,6.95-7.56,9.95l-1.93,2.93c-3.83,5.59-7.4,11.14-10.7,16.76-1.69,2.79-3.25,5.62-4.85,8.42s-3.1,5.63-4.56,8.49c-.41,1-1.08,2.53-1.73,4l-1.36,2.43c0,.23-.08.48-.15.75l-2,4.26a15.4,15.4,0,0,0-1.51,4.84,8.36,8.36,0,0,0,1.09,4.89c.4.75.85,1.46,1.3,2.17a15.34,15.34,0,0,1,1.14,2,21.16,21.16,0,0,1,.93,2.07c.22.72.46,1.43.66,2.15l.36,2.19c.07.73.06,1.46.1,2.19a30.37,30.37,0,0,1-1.33,8.17,57,57,0,0,1-6.83,13.27c-1.41,2.09-2.89,4.15-4.41,6.18s-3.1,4-4.56,6.09c-2.91,4.12-5.51,8.57-6.66,13.47a19.26,19.26,0,0,0,2,14.4A19.66,19.66,0,0,1,297.58,498c.86-4.91,3.16-9.41,5.74-13.53-3.31,5.09-5.94,10.71-6.23,16.58a20,20,0,0,0,1.48,8.39,15.87,15.87,0,0,0,2.05,3.64,13,13,0,0,0,2.91,2.88,12.07,12.07,0,0,0,1.19.83c.42.26.86.46,1.29.69a18.13,18.13,0,0,0,1.95.72,52.1,52.1,0,0,0,10.45,1.45,61.63,61.63,0,0,1-9.65-1.44,57.91,57.91,0,0,0,9.69.88,47.85,47.85,0,0,1,5.2.48,14.73,14.73,0,0,1,5,1.59,8.43,8.43,0,0,1,2.67,2.41,9,9,0,0,1,1.4,3.36,14.06,14.06,0,0,1-.69,6.69c-.36,1.1-.83,2.17-1.25,3.26a15.52,15.52,0,0,1-.67,1.61l-.73,1.47a51,51,0,0,1-7.24,10.78,77.76,77.76,0,0,1-9.33,9,119.53,119.53,0,0,1-10.49,7.52c-3.61,2.34-7.32,4.47-11,6.55l-5.59,3c-.8.52-1.61,1-2.4,1.53s-1.48,1.18-2.15,1.85a35.77,35.77,0,0,0-6.56,9.84c-1.83,3.69-3.47,7.63-5.67,11.44.14-.76.33-1.61.56-2.52,2-3.95,3.58-8,5.53-11.66a29.14,29.14,0,0,1,7.3-9.46,36.34,36.34,0,0,1,5-3.17c1.75-1,3.46-2,5.13-3,3.32-2,6.46-4.1,9.32-6.21-4.22,2.68-7.88,4.81-11.5,6.91l-5.49,3.13-1.33.86a11,11,0,0,0-1.33.93,22.93,22.93,0,0,0-2.49,2.28c-.07-.08-.25-.13.24-.76a32.81,32.81,0,0,0-5.4,8c-1.54,3-2.87,6.3-4.36,9.5.52-2.26,1.07-4.74,1.72-7.23a29.81,29.81,0,0,1,1.14-2.77l.75-1.53c.27-.52.59-1,.9-1.58A31.16,31.16,0,0,1,276.7,580a19.44,19.44,0,0,1,1.32-1.56,13.78,13.78,0,0,1,1.45-1.51l1.72-1.47c.62-.42,1.26-.82,1.89-1.23l1-.6.93-.51,1.86-1q3.71-2.05,7.32-4.15A143.76,143.76,0,0,0,308,559a72.89,72.89,0,0,0,11.95-11l1.3-1.56c.43-.53.8-1.09,1.2-1.63s.8-1.09,1.18-1.65l1.06-1.73a36.89,36.89,0,0,0,1.93-3.55l.45-.89c.13-.27.23-.55.34-.83l.66-1.67a12.24,12.24,0,0,0,1.25-6.26,6.58,6.58,0,0,0-1.15-2.88,6.45,6.45,0,0,0-2.39-2,18.35,18.35,0,0,0-6-1.44l-1.55-.14-1.81-.15c-1.22-.1-2.44-.21-3.68-.36a25.89,25.89,0,0,1-7.52-1.86,14.82,14.82,0,0,1-5.24-4,18.1,18.1,0,0,1-3.15-5.58,22,22,0,0,1-.64-12.33,22.29,22.29,0,0,0-.4,6.41,21.56,21.56,0,0,0,1.47,6.12,17.7,17.7,0,0,0,3.28,5.26,14.06,14.06,0,0,0,5,3.53,25.48,25.48,0,0,0,7.61,1.58c2.48.2,5,.24,7.25.4a19.86,19.86,0,0,1,6.83,1.43,7.51,7.51,0,0,1,2.75,2.14,7.64,7.64,0,0,1,1.42,3.17A9.34,9.34,0,0,1,331.4,530.17ZM511.13,39.54c-.74,1.69-1.5,3.44-2.21,5.2l.49-.71A30.46,30.46,0,0,0,511.13,39.54ZM517.07,78c-.24-.36-.45-.76-.74-1.12a11.62,11.62,0,0,0-1-1,13.35,13.35,0,0,0-1.52-1.07l-1-.59-1.44-.86a21.51,21.51,0,0,1-5.72-4.55,12.06,12.06,0,0,1-2.85-6.86,18.67,18.67,0,0,1,1.26-7.7c.23-.64.47-1.27.74-1.9l.67-1.58,1.16-2.7c1.57-3.6,3.21-7.21,4.91-10.75,0-.1,0-.17-.07-.19-1.53,2.92-3,6.06-4.56,9.34-.38.82-.74,1.66-1.11,2.49s-.76,1.74-1.15,2.61a25.93,25.93,0,0,0-2.25,7.63,12.75,12.75,0,0,0,1.42,7.66,15.88,15.88,0,0,0,5.53,5.64c1.11.72,2.39,1.45,3.36,2,.78.43,1.44.82,2,1.2l.4.27.32.26c.21.18.38.38.58.56l.3.27c.09.11.15.22.23.33S516.93,77.74,517.07,78Zm-19.29,36,.21-.21-.09,0Zm-87.5,190.16c1.34-3.18,2.69-6.66,4.39-10.34a52.74,52.74,0,0,1,6.68-11.24,34.27,34.27,0,0,1,5.1-5.12c.93-.74,1.82-1.4,2.63-2,.4-.3.82-.64,1-.83s.55-.48.81-.73a6.52,6.52,0,0,0,2.07-3.7,9.3,9.3,0,0,0-.59-4.24c-.33-1.11-.81-2.31-1.33-3.64s-1-2.89-1.49-4.44a20.22,20.22,0,0,1-.57-2.44c-.15-.83-.38-1.69-.46-2.59s-.16-1.8-.23-2.75a23.61,23.61,0,0,1,0-2.91c0-.63,0-1.24,0-1.83l.16-1.72c.11-1.12.19-2.2.38-3.2s.31-2,.5-2.93l.6-2.72a69.57,69.57,0,0,1,3.33-10.22c-.91,1.66-1.7,3.41-2.51,5.15,2.44-6.27,4.59-10.93,6.85-15.5A117.86,117.86,0,0,1,446,200.13c-.16-.11.45-1.81,1.4-3.3,4.56-7.57,9.63-14.84,13.08-21,4.57-7.57,9.29-15,12.75-21.21.95-1.5,2.34-4.79,4.07-7.89l6.77-11-.41.36c-1.89,3-3.78,6-5.57,9.07-5.36,9.17-11.64,19.83-17.15,28.89l-10.18,16.74c-3.33,5.55-6.59,10.87-9.85,16.53A136.4,136.4,0,0,0,432.1,225a65.94,65.94,0,0,0-4.82,20.06c0,1.53,0,3.07,0,4.6l.22,2.31a19.85,19.85,0,0,0,.31,2.3,38.59,38.59,0,0,0,1,4.53,45,45,0,0,0,1.4,4.29c.37,1,.73,1.86,1,2.71l.35,1c.09.28.18.56.25.85a5.67,5.67,0,0,1-.15,3.59,7.86,7.86,0,0,1-2.32,2.87c-1.28,1.09-3.2,2.39-5,4.07a38.07,38.07,0,0,0-7.81,10.4,60.63,60.63,0,0,0-3.82,9C412.2,299.29,410.71,302.45,410.28,304.15ZM406,325.37a91.77,91.77,0,0,0,8.58-12.53c2.56-4.56,4.46-9.21,6.45-13.49a51.85,51.85,0,0,1,6.71-11.44c.34-.39.65-.79,1-1.15l1-1.07c.75-.66,1.43-1.3,2.28-1.92s1.84-1.36,2.75-2a27.36,27.36,0,0,0,3.31-2.92,13.15,13.15,0,0,0,3.59-7.56,16,16,0,0,0-.3-5.11,26.26,26.26,0,0,0-.7-2.63c-.24-.74-.49-1.45-.74-2.14-.49-1.38-1-2.64-1.33-3.87l-.55-1.88c-.15-.64-.24-1.29-.38-1.94a34.26,34.26,0,0,1-.5-3.91c-.09-.65,0-1.31-.06-1.95s-.05-1.29,0-1.93a78.21,78.21,0,0,1,1.75-12.57c.6-2.9.59-4.22-.59-2.81-.07.56-.18,1.18-.32,1.86s-.24,1.45-.41,2.26-.35,1.69-.48,2.63-.39,1.91-.48,3a43.68,43.68,0,0,0,.11,14.46l.17,1,.27,1c.18.65.36,1.32.54,2,.4,1.33,1,2.74,1.48,4.3l.39,1.22c.14.47.26.93.38,1.4a18.6,18.6,0,0,1,.47,2.88,12,12,0,0,1-.87,5.77A14.19,14.19,0,0,1,436,279c-.36.34-.75.67-1.14,1l-.59.48-.52.4-2,1.48a27.27,27.27,0,0,0-3.36,2.88l-.76.78-.72.83c-.49.54-.92,1.13-1.37,1.72-3.51,4.73-5.87,10.31-8.27,15.35-1.19,2.53-2.36,4.95-3.59,7.17s-2.45,4.2-3.6,5.9c-2.27,3.44-4.11,5.88-4.92,7.33S404.51,326.2,406,325.37Zm-78.67,110a3.22,3.22,0,0,1-.8-1.43,3.08,3.08,0,0,1,.25-1.68c.06-.16.09-.23.2-.47l.63-1.24c.42-.84.86-1.68,1.3-2.54.87-1.72,1.82-3.45,2.83-5.24-.87,1.66-1.75,3.31-2.58,5l-1.26,2.51-.63,1.25c-.28.54-.25.52-.33.69a3.5,3.5,0,0,0-.33,1.67A3.14,3.14,0,0,0,327.32,435.32Zm26.74-59.7c-6.44,9.5-12.92,19.45-18.95,29.66-3,5.13-5.93,10.26-8.63,15.47-1.39,2.58-2.67,5.21-4,7.79l-.46.92-.34.74a14,14,0,0,0-.58,1.52,5.7,5.7,0,0,0-.18,3.14,8.2,8.2,0,0,0,1,2.22l.65,1c.23.38.62,1,.9,1.59l.83,1.83c.13.31.28.61.4.93l.28,1,.54,2,.28,2,.12,1v3l-.24,2-.12,1-.21.94-.44,1.88c-.17.61-.38,1.2-.57,1.81-.36,1.22-.87,2.33-1.33,3.48a81.93,81.93,0,0,1-6.91,12.2c-1.23,1.88-2.47,3.67-3.65,5.43s-2.37,3.47-3.35,5.09l.47.35.86-1.47c3.86-4.85,7.25-8.8,10.28-13.47l-.46.86.85-1.46a42,42,0,0,0,5.19-11.35,33.15,33.15,0,0,0,1.06-6.83,25.22,25.22,0,0,0-1.53-10.26l-1.09-2.39a9.83,9.83,0,0,0-.6-1.12l-.47-.78A9.74,9.74,0,0,1,322.5,435a4.43,4.43,0,0,1,0-2.55,13.59,13.59,0,0,1,1-2.42c1.22-2.39,2.44-4.86,3.7-7.25,5-9.6,10.26-18.81,15.3-27.38,1.57-2.64,3.16-5.13,4.66-7.63s3.05-4.9,4.62-7.29,3.12-4.8,4.8-7.2,3.39-4.82,5.24-7.3l-3.95,4.73C356.43,372.43,355.07,374.17,354.06,375.62Z"/><path class="cls-17" d="M305.54,517l.58.27c3.35,1.34,7.07,1.49,10.78,1.69,1.81.09,3.94.18,5.92.47a16,16,0,0,1,5.78,1.78,8.42,8.42,0,0,1,2.73,2.41,9.22,9.22,0,0,1,1.45,3.32,13.42,13.42,0,0,1-.36,6,25,25,0,0,1-1,3c-.38,1-.7,2-1.14,2.94a52,52,0,0,1-5.78,9.71,68.8,68.8,0,0,1-7.87,8.54,116.59,116.59,0,0,1-19.21,13.75c-3.41,2-6.88,3.94-10.35,5.81-.43.24-.89.47-1.29.71l-1.08.69-1.09.68-1,.83-1,.83-.88,1c-.29.32-.59.63-.88,1l-.79,1.07a52.83,52.83,0,0,0-5.3,9.73,94.73,94.73,0,0,1-5.32,10.68c0,1.13.38,1.58,1.55.86a96.24,96.24,0,0,0,6-11.53,44.31,44.31,0,0,1,5.63-9.51c.58-.58,1.1-1.24,1.7-1.78l.92-.76a5.11,5.11,0,0,1,1-.73l1-.64a13.19,13.19,0,0,1,1.14-.68l2.75-1.49c3.67-2,7.34-4.1,11-6.32a107.78,107.78,0,0,0,20.57-15.82,60.28,60.28,0,0,0,8.37-10.48l.91-1.44c.29-.49.54-1,.81-1.5l.8-1.51.43-.81c.16-.31.27-.65.41-1l1.61-3.94a21.55,21.55,0,0,0,1-4c0-.33,0-.67,0-1a14.59,14.59,0,0,0-.43-3.82,11.52,11.52,0,0,0-4.7-6.7,20,20,0,0,0-8.7-2.84c-.8-.1-1.62-.17-2.44-.24l-2.17-.14c-1.28-.08-2.53-.15-3.74-.26a22.4,22.4,0,0,1-6.52-1.32A11.17,11.17,0,0,1,301.7,508a16.53,16.53,0,0,1-1.12-4.53,18.55,18.55,0,0,1,.1-4.59A30.89,30.89,0,0,1,305,487.46c1.07-1.84,2.26-3.65,3.51-5.44s2.55-3.63,3.79-5.49A93,93,0,0,0,319.08,465,34,34,0,0,0,322.71,452a30.39,30.39,0,0,1-2.55,9.27,63.16,63.16,0,0,1-4.5,8.35c-1.68,2.67-3.5,5.21-5.35,7.73s-3.79,4.95-5.53,7.48a47.64,47.64,0,0,0-4.56,7.95,25.61,25.61,0,0,0-2.23,8.76,19.4,19.4,0,0,0,1.62,8.82A13.64,13.64,0,0,0,305.54,517Z"/><path class="cls-17" d="M375.06,336.57c-4.86,5.17-9.64,10.46-14.26,16a332.42,332.42,0,0,0-31.91,45.62A349.68,349.68,0,0,1,352,365.54C360.27,355,367.11,345.78,375.06,336.57Z"/><path class="cls-17" d="M321.79,411c2.3-4.37,4.65-8.62,7.1-12.8q-7.81,12.48-14.51,25.49l-.94,1.81c-.4.8-.79,1.62-1.12,2.45a16.59,16.59,0,0,0-1.25,5.16,12.67,12.67,0,0,0,.74,5.21,24.39,24.39,0,0,0,2.41,4.75,9.86,9.86,0,0,1,.68,1.24c.16.37.33.73.5,1.1a16.49,16.49,0,0,1,.68,2.27q.07.6.18,1.2a10.21,10.21,0,0,1,0,1.24,16.73,16.73,0,0,1-.17,2.61A29,29,0,0,1,313.9,460a56,56,0,0,1-4,7.42c-1.54,2.46-3.21,4.91-5,7.36l-2.71,3.74c-.94,1.31-1.87,2.65-2.76,4a50.07,50.07,0,0,0-4.73,9.13,29.64,29.64,0,0,0-2,10.8,24.22,24.22,0,0,0,2.85,10.95,19.74,19.74,0,0,0,3.59,4.71,17.48,17.48,0,0,0,5.08,3.38,24.21,24.21,0,0,0,5.88,1.55c1.88.27,3.67.38,5.4.48l4.34.21a18,18,0,0,1,3.6.57,6.33,6.33,0,0,1,2.84,1.57,5.43,5.43,0,0,1,1.46,2.84,6.68,6.68,0,0,1,.09,1.26,6.85,6.85,0,0,0,0-1.28,5.46,5.46,0,0,0-3-4.21,15.49,15.49,0,0,0-5.24-1.27l-1.36-.13-1.8-.15c-1.22-.1-2.47-.21-3.75-.36a27.54,27.54,0,0,1-8-2,17.1,17.1,0,0,1-7.8-7.48,23,23,0,0,1-2.17-15.05,31.25,31.25,0,0,1,1.32-4.76,43.51,43.51,0,0,1,4.32-8.47c1.65-2.59,3.52-5.05,5.26-7.34s3.45-4.6,5-6.93a72.11,72.11,0,0,0,4.33-7.07,37.48,37.48,0,0,0,3.05-7.27,21,21,0,0,0,.91-7.18,16.33,16.33,0,0,0-2-6.43l-1.19-2a21.71,21.71,0,0,1-1.25-2.39,10.7,10.7,0,0,1-.93-5.2,15.67,15.67,0,0,1,1.4-5.13c.18-.41.37-.82.56-1.22l.54-1.09.93-1.84c4.9-9.83,10-19.24,15.25-28.19.45-.81,1-1.68,1.5-2.52a342.25,342.25,0,0,0-18,30.84L314.6,426a27.92,27.92,0,0,0-1.26,2.8,14.1,14.1,0,0,0-1,5.94,13.9,13.9,0,0,0,1.84,5.71c.24.45.5.89.76,1.32l.66,1.1a12.75,12.75,0,0,1,.73,1.49,13.42,13.42,0,0,1,1.25,6.31,24.2,24.2,0,0,1-1.49,7,19.4,19.4,0,0,0,1.17-9.68,10.65,10.65,0,0,0-.21-1.1l-.34-1.05-.15-.53c-.07-.17-.17-.33-.25-.5l-.48-1a8,8,0,0,0-.58-1l-.51-.83-.56-.93a17.82,17.82,0,0,1-1.77-3.94,13.24,13.24,0,0,1,.53-8.49c.25-.69.53-1.36.84-2s.69-1.42.88-1.79l1.39-2.79c.92-1.86,1.85-3.71,2.82-5.54S320.78,412.76,321.79,411Z"/><path class="cls-17" d="M300.24,512.24a13.89,13.89,0,0,0,3.29,3.74,14.13,14.13,0,0,0,1.22.79c.42.23.87.42,1.3.63a18.06,18.06,0,0,0,2.71.83,18.59,18.59,0,0,1-2.65-1l-.57-.3A13.19,13.19,0,0,1,300.24,512.24Z"/><path class="cls-17" d="M320.73,470.62l.39-.6a55.93,55.93,0,0,0,4-8.38,34.08,34.08,0,0,0,2.24-9.8c0-1.21,0-2.46-.11-3.69l-.3-1.87a10.84,10.84,0,0,0-.41-1.86,20.4,20.4,0,0,0-1.3-3.58l-.83-1.72c-.28-.54-.65-1.13-.88-1.49a7.64,7.64,0,0,1-1.65-3.63,8.08,8.08,0,0,1,1-4,9,9,0,0,0-1.13,3.6,6.11,6.11,0,0,0,1.19,3.49l.52.84a15.77,15.77,0,0,1,.8,1.44,33.43,33.43,0,0,1,1.36,3.14l.49,1.64a9.64,9.64,0,0,1,.39,1.65l.25,1.67.12.83,0,.82a32.25,32.25,0,0,1-1.94,12A64.12,64.12,0,0,1,320.73,470.62Z"/><path class="cls-17" d="M331.13,427.11l3.36-6c.41-1,.84-1.92,1.27-2.88-.83,1.38-1.66,2.78-2.46,4.19Z"/><path class="cls-17" d="M389.67,344.05a350.67,350.67,0,0,0-52.2,70.4l-1.71,3.78c9.7-16.37,20.39-32,30.64-46.18l3.52-4.94c1.27-1.76,2.55-3.51,3.71-4.8,5.33-6.21,10.65-12.19,16.09-17.93s11.19-11.46,16.53-17.94c-5.18,6.13-10.81,11.58-16.14,17.14Z"/></svg>