<svg id="圖層_2" data-name="圖層 2" xmlns="http://www.w3.org/2000/svg" viewBox="0 0 573.15 595.28"><defs><style>.cls-1{fill:#3b4d9f;}.cls-2{fill:none;stroke:#efefef;stroke-linecap:round;stroke-miterlimit:10;stroke-width:2px;}.cls-3{opacity:0.2;}.cls-4{fill:#efefef;}.cls-5{fill:#727171;}.cls-6{fill:#232424;}.cls-7{fill:#c0c0bf;}.cls-8{fill:#151717;}.cls-9{fill:#090808;}.cls-10{fill:#dcdddd;}</style></defs><title>藍紅</title><path class="cls-1" d="M572.42,0H271.23a324.7,324.7,0,0,0-30.44,54c-1.33,3-2.64,6.39-1.5,9.46,1.63,4.38,7.12,5.68,10.62,8.78,8.39,7.42,2.85,21.1-3.15,30.56L181.21,206.23c-10.26,16.19-21,35.14-15.32,53.47,1.3,4.22,3.45,8.68,2,12.84-1.38,3.88-5.41,6-8.6,8.6-8.76,7.11-12,18.81-17.63,28.57-6.45,11.11-16.21,19.83-25.34,28.85a362.83,362.83,0,0,0-66.11,89.31c-1.13,2.16-2.27,4.49-2,6.91s1.8,4.25,2.89,6.31c6.92,13.14-4.28,28-13.32,39.8-4.33,5.63-8.41,11.8-9.42,18.83s1.9,15.07,8.37,18c8.64,3.89,22.81-.35,25.32,8.79.68,2.45,0,5.07-.9,7.45C53.82,553.56,33.88,565,15.39,574.82,7.13,579.21,4,587.46.36,595.28H572.42Z"/><line class="cls-2" x1="428.4" y1="131.15" x2="245.51" y2="357.01"/><line class="cls-2" x1="243.65" y1="473.27" x2="60.76" y2="699.13"/><line class="cls-2" x1="649.82" y1="461.18" x2="466.93" y2="687.04"/><g class="cls-3"><path class="cls-4" d="M490.51,568.59s0,0-.06.09l-.34.44.4-.53s0,0,.14-.24c-1.38,1.88-3,4-4.61,6.14-.21.27-.4.54-.59.78,4-5.17,8-10.31,11.05-14.7Z"/><path class="cls-4" d="M485.15,575.68l-.42.52Z"/><path class="cls-4" d="M553.14,481.16a55.17,55.17,0,0,0,5-10.29c-3.78,6.69-8,13.27-10.76,18.49C549.26,486.63,551.18,483.89,553.14,481.16Z"/><path class="cls-4" d="M565.28,453.81a39.77,39.77,0,0,0-6.35,11.6L565,455C565.09,454.62,565.2,454.21,565.28,453.81Z"/><path class="cls-4" d="M563.6,459.57a55.51,55.51,0,0,0-5.49,11.3A84.66,84.66,0,0,0,563.6,459.57Z"/><path class="cls-4" d="M520,540.47c-1.89,2.33-3.11,3.68-3.82,4.44-.23.4-.54.92-1,1.61l.38-.37q3.17-3.42,6.39-6.94c.82-1,1.59-2,2.18-2.83Z"/><path class="cls-4" d="M516.22,544.91c1.94-3.46-2.77,2.94,0,0Z"/><path class="cls-4" d="M523.8,526.09l.28-.36.75-1.11Z"/><path class="cls-4" d="M551.09,500.43c-1.67,2-3.3,4.1-4.88,6.16a139.51,139.51,0,0,0,9.21-12.1c-.43.5-1,.88-1.48,1.38A17.3,17.3,0,0,1,551.09,500.43Z"/><path class="cls-4" d="M511.64,543c4.39-5.77,8.56-11.55,12.44-17.27,8.55-11.08,16.64-21.88,22.57-32.68,2.53-4.81,6.58-11,10.4-17.31s7.34-12.92,8.54-18.81a30.43,30.43,0,0,0-2,2.64A37.39,37.39,0,0,0,565,455c9-15.38,17.78-30.5,27.59-45.7,1.46-2.25,1.6-4.71,3-7l4.14-7a.32.32,0,0,0-.27-.09,327.32,327.32,0,0,0,15.36-30.23c2.43-4.89,5.64-9.16,8.47-13.73,1-1.72,2.71-.38,3.84-1.18,5-2.85,8.88-4.82,13.08-9.13l1.32,1.07a5.26,5.26,0,0,1,1.36-2c3.41,6.46.77,13.72,8.75,10.23h0c-.11.46-.19.88-.27,1.3l-.07.1,0,0a9.93,9.93,0,0,0,.58,5.63l2.13-2.79a5.75,5.75,0,0,0,1.69,1.68,5.34,5.34,0,0,1,.16.53l-.59.75a7.76,7.76,0,0,0,.77,1.11c0,3.92-2.11,8.43.23,9.13,1.36.18,2-2.17,3.06-4.58a3.05,3.05,0,0,0,.75-.05c-1.69,2.92,3,2.45,2.17,4.33-1.73,2-3,4.4-4.76,6.43a231.74,231.74,0,0,0-18.46,24.51l-.79,1.17a81.44,81.44,0,0,1-9.69,11.59c0-.43,0-.86,0-1.3a54.19,54.19,0,0,0-7.79,9.43,195.43,195.43,0,0,1-17.61,25.19c-7.26,8.5-13.93,17-20.88,25.91,2.65-3.82,5.28-7.64,8.3-11.31,1.47-1.57,2.91-3.14,4.24-4.71-1.52,1.52-2.91,3.1-4.24,4.71-5.64,6-11.47,12.14-13.79,18.4-.65.36-.86.19-1.31.67-3.19,3.43-6.54,6.72-8.52,10.26.19.15-1.19,1.62-.36,1.43-2.58,3.06-5.8,6.45-8.24,9.62a27.79,27.79,0,0,0-2.83,4.38c-9.22,11-18.67,21.5-29.44,32.62-2.7,2.74-5.93,5.82-8.76,8.51,3.93-4.16,7.94-8.48,12-12.89,4.21-4,8.23-7.92,10.84-11.68l1.92-2.55c-4.26,4.83-8.53,9.59-12.76,14.23-2.49,2.38-5.06,4.81-7.51,7.24l.13-.16,5.47-6.05a104,104,0,0,0,9.82-10.51c.32-.42.63-.85.92-1.26l1.89-2.56q-3.89,4.5-7.79,8.9l-4.84,5.43-3.29,3.22.27-.4c.88-1,2.36-4.61.7-3.39-3.48,3.79-7.58,8.4-10.86,12l-4.08,4.51-1.2,1.31-.44.46c-.34.16,2.43-3,5.17-6.28s5.45-6.47,5.19-6.25l-2.08,2.12c.57-.74,1.12-1.48,1.6-2.17,1.25-1.56,3.11-3.49,3.82-4.63,2.53-4,6.21-7.83,9.25-12.23,1.83-2.82,3.92-6.26,5.92-9.79-.26-.21,1.14-1.66.45-1.35,2.36-2.93,5.11-6.31,5.24-8.27l.15-.24a5.51,5.51,0,0,0,.53-.92c4-4.78,5.85-8.93,8.59-14,1.09-1.63,2.22-3.27,3.45-4.9a32.2,32.2,0,0,0-2.81,3.73l-.64,1.17c-2.82,4.22-5.31,8.41-7.93,12.47-.15.38-.4,1-.66,1.54l-.68.8a2.16,2.16,0,0,1,0,.36c-2.42,3.95-5.53,8.13-7.63,11.48-4.23,6.09-9.46,12-14.26,17.83q3.33-4.56,6.42-9.08c-2.65,3.71-5.18,7.19-7.64,10.56l-1.22,1.48-2.52,3.1,2.43-2.8-4.39,5.92c-8.19,10.57-17.16,21.06-25.94,31.36.17-.22.36-.46.55-.72,4.17-5,8.39-10,11.56-14.29l-6.27,7.79s-.06,0,.13-.25c-1.45,1.82-3.15,3.93-4.83,6,.51-.68,1.07-1.44,1.62-2.21.84-1.1,2-2.65,3.26-4.23,5.3-6.84,10.37-13.23,15.46-20.07l13.94-17.8C519.53,532.14,515.55,537.66,511.64,543ZM641.51,360.35c-.23.7-.44,1.43-.64,2.18l.48,0A2.66,2.66,0,0,0,641.51,360.35ZM632,372.68c3.38-3.16,6-8.78,8.75-14.05a1.74,1.74,0,0,0-.29-.31C637.19,362,634.7,367.72,632,372.68Zm-18.31,8.7h.18l-.17-.13Zm-37.46,74.18c2-5.23,6-10.6,9.42-16.4,1.19-1.61,1.28-4.1,2.84-6.27,1.69-2.93,2.28-5,3.54-7.43l-1.73,1.17c3-3.58,2.75-7.21,6-10.57a1.73,1.73,0,0,1-.16-1.84c1.58-3,4.11-5.25,5-8,1.57-3,3.45-5.78,4.28-8.54.38-.55.11-2.48.51-3.88.76-1.47,1.58-2.91,2.38-4.35l-.39-.06a18.32,18.32,0,0,0-2,3.57,114.18,114.18,0,0,1-5.41,11.92c-5,8.85-9,17.56-13.32,26.1-.88,1.86-1.49,3.94-2.39,5.78-2.46,5.74-7,11.48-7.71,16.06C576.91,453.57,576.11,454.64,576.18,455.56Zm5.29,13.86a108.86,108.86,0,0,1,13-17,52.78,52.78,0,0,0,6.72-10c1.91-3.81,2.64-7.29,0-7.67,1.05,5.1-6.19,13.41-12.4,20.76S577.37,469.09,581.47,469.42Zm-34.85,43.34c1.74-2.18,3.41-4.3,5.62-6.6Q549.46,509.48,546.62,512.76Zm12.46-26.45c-4.27,7.69-10.2,14.89-15.3,21.91-2,2.69-4.36,5.27-6.6,7.85a62.45,62.45,0,0,0-6,7.71l.33.26.33-.58c1.63-1.7,3.07-3,4.49-4.33l-.19.28.37-.45a27.24,27.24,0,0,0,2.83-3.16l1.29-1.77c5.33-6.4,10.87-13,14.76-19.54,2.55-3.93,4.23-7.72,6.63-11.78A29.28,29.28,0,0,0,559.08,486.31Z"/><path class="cls-4" d="M519.58,533.6q-2.58,3.48-5.26,6.94l-4.06,5.39c-3.29,4.23-7,8.66-10.85,13.16L487.93,572.5c-.2.27-.2.32.1,0,4.18-4.64,8.38-9.27,12.52-13.95s8.25-9.37,12.47-14l.17-.23c3.13-4.33,9-10.73,12.9-16.16s7.78-10.85,11.35-16.53C531.37,519.15,525.77,526.4,519.58,533.6Z"/><path class="cls-4" d="M558.93,465.41l-4,6.87c-3.67,6.5-6.83,12.35-10.08,18.31,2.74-4.09,5.51-8.19,8.36-12.27C555.83,474.08,557.25,469.8,558.93,465.41Z"/><path class="cls-4" d="M542.15,495.42l2.65-4.83-12.06,18.13c-6.35,10.08-13,20-19.67,29.76l-2.31,3.28c6.67-8.76,13.4-17.46,19.65-26a211.92,211.92,0,0,0,16.43-25.41l.51-1-15,21.88C535.7,506,539,500.79,542.15,495.42Z"/><path class="cls-4" d="M521.24,531.36c-.41.49-.82,1-1.22,1.48l-1.31,1.78.87-1Z"/><path class="cls-4" d="M536.36,519.13l.18-.17,4.12-4.93c1.75-2.41,3.61-4.91,5.55-7.44C542.55,511.05,538.93,515.46,536.36,519.13Z"/><path class="cls-4" d="M552.36,508.32c.48-.48,1.42-1.43,1.9-1.9l.58-1.1-1.36,1.33Z"/><path class="cls-4" d="M576.87,477.53c-7.26,9.32-14.2,18-21.26,26.36l-.77,1.43c5.29-5.19,10.32-10.55,14-16.27a32.66,32.66,0,0,1,2.47-4,154.15,154.15,0,0,0,11.07-14.6L577,477.33Z"/></g><g class="cls-3"><path class="cls-4" d="M213.76,700.5a18,18,0,0,1-14.06-29.23l440.72-552a18,18,0,0,1,28.14,22.46L227.84,693.73A18,18,0,0,1,213.76,700.5Z"/></g><g class="cls-3"><path class="cls-4" d="M341.15,271.64c.05,0,0,.14-.72,1l.72-1c0-.05-.13,0,.17-.54-2.42,3.74-5.33,8-8.18,12.19-.35.56-.7,1.09-1,1.57,7.16-10.19,14.62-20.14,19.78-29.06C347.77,261.72,345.14,266,341.15,271.64Z"/><path class="cls-4" d="M331.59,285.67l-.76,1C331.52,285.78,331.59,285.67,331.59,285.67Z"/><path class="cls-4" d="M458.59,103.48c4.32-6.38,7-12.9,9.63-19.49-7.63,12.41-16.08,24.63-21.13,34.73Q452.72,111,458.59,103.48Z"/><path class="cls-4" d="M483.33,52.67c-6.8,6.71-10.59,13.72-13.65,20.85,4.27-6.32,8.66-12.49,13-18.65C482.88,54.14,483.15,53.39,483.33,52.67Z"/><path class="cls-4" d="M479.57,63.18C474.09,69.92,471.13,77,468.22,84A177.18,177.18,0,0,0,479.57,63.18Z"/><path class="cls-4" d="M404.68,223.92a78.56,78.56,0,0,1-7,8.65c-.29.89-.72,2-1.37,3.51l.78-.68c4-4.31,8.06-8.76,12.09-13.28a48.13,48.13,0,0,0,3.69-5.78C410.1,218.85,407.37,221.39,404.68,223.92Z"/><path class="cls-4" d="M397.65,232.57c1.21-3.81-.15-2.43-1.11-.78S394.93,235.31,397.65,232.57Z"/><path class="cls-4" d="M404,190.14l.54-.7,1.33-2.19Z"/><path class="cls-4" d="M459.57,144.14c-3.07,4-6,8.05-8.85,12.11,6.2-8.08,12.4-16.28,16.56-23.85-.81,1-2.06,1.6-2.87,2.58A25.69,25.69,0,0,1,459.57,144.14Z"/><path class="cls-4" d="M382.11,223.42c8.05-11.25,15.52-22.64,22.39-34,16.24-21.15,31.31-42,42-63.09,4.53-9.4,12.41-21,19.94-32.88s14.65-24.1,17.38-35a58.06,58.06,0,0,0-4.23,4.68,70.19,70.19,0,0,0,3.1-8.31c9.78-13.67,19.78-27,30.27-40s21.52-25.7,33.23-38.28c3.46-3.74,4.9-7.48,8.44-11.15s7-7.46,10.47-11.15c-.07-.08-.2-.1-.38-.06,3.57-3.85,7.19-7.62,10.77-11.43s7.22-7.56,10.92-11.3c7.33-7.54,14.86-15,22.78-22.57,7.58-6.94,15.82-13.35,24-19.83,3.09-2.4,3.79-1.83,6-3.34,8.94-5.83,15.4-10.41,24.67-17.61l.22.18c1.35-1.16,2.62-2.15,3.66-3-1.88,2-5.21,5.53-6.61,7.39s-.85,2,4.65-3h0l-1.5,1.68-.18.18h0a36.25,36.25,0,0,0-4.59,6.11c1.5-1.65,3-3.29,4.52-4.94-.16.41-.22.71.06.64l-.32.5-1.2,1.37a3.14,3.14,0,0,0-.25.73c-3.39,4.76-8.8,12.19-7.1,11.3,1.14-.83,3.47-4.42,6.33-8.33.23-.19.47-.43.71-.67-1.91,2.54-1.69,2.71-1.3,2.62s1-.45-.11,1.14c-3,4.1-5.86,8.32-8.86,12.43-12.24,16.7-22.53,30.79-33.75,47.85l-1.49,2.24c-5.49,8.23-10.94,15.78-17,23.26.12-.69.29-1.38.47-2.08a180.54,180.54,0,0,0-13.89,18.74C576.17.91,566.33,17.46,554.3,33.87c-12.73,17.09-24.51,33.93-36.59,52,4.53-7.69,9.16-15.3,14.48-22.65,2.58-3.15,5.14-6.29,7.47-9.46-2.66,3.09-5.14,6.24-7.47,9.46-9.93,12.1-20.6,24.15-24,36.92-1.21.7-1.66.34-2.47,1.31-5.65,6.87-11.8,13.33-14.92,20.6.45.37-2,3.27-.32,3-2.26,3.08-4.84,6.3-7.37,9.57s-5,6.54-7.12,9.76a40.7,40.7,0,0,0-4.48,9.09c-8,11.08-16.17,21.89-24.87,32.63s-17.93,21.39-28.12,32c-5.17,5.2-11.54,10.88-17.25,15.76,7.49-7.92,15-16.24,22.44-24.87,8.22-7.54,15.85-15,20-22.81,1.05-1.75,2.11-3.48,3.19-5.21-7.61,9.6-15.39,19-23.18,28l-7.4,6.69c-2.5,2.22-5,4.47-7.38,6.73l.22-.32c3.39-3.87,6.82-7.75,10.18-11.74,7.27-6.74,14-13.42,18.36-20.32.54-.86,1.06-1.72,1.51-2.59,1-1.75,2.1-3.5,3.17-5.23q-7,8.91-14.14,17.55c-3,3.56-5.91,7.11-8.9,10.59-2.13,2-4.3,4-6.49,6,.15-.27.31-.56.43-.83a11.25,11.25,0,0,0,1.57-5.56c.06-2-.57-3.61-2.35-2.61-6.7,7.16-14.5,16-20.85,22.8-3.15,3.43-5.95,6.37-7.94,8.46L381.33,241a5,5,0,0,1-.91.83c-.44.05.67-1.44,2.53-3.72s4.45-5.38,7-8.48c5.15-6.2,10.2-12.49,9.63-12.14-1.42,1.27-2.81,2.57-4.18,3.87,1-1.49,1.95-3,2.76-4.37,2.29-3,6-6.58,7.1-9a77.7,77.7,0,0,1,7.84-11.84,120.5,120.5,0,0,0,8.73-12.34c3.06-5.71,6.45-12.75,9.71-19.91-.77-.63,2-3.28.44-2.92,4.5-5.59,9.74-12,9.26-16.36l.26-.46a7.85,7.85,0,0,0,.91-1.82c7.86-9,10.71-17.39,15.71-27.26,2.08-3.1,4.28-6.18,6.69-9.24-1.58,2-4.38,4.63-5.52,7l-1.17,2.26c-5.39,8-9.93,16.18-14.71,24.1-.22.79-.58,2-1,3.16-.43.5-.87,1-1.33,1.49a5.27,5.27,0,0,1,.16.79c-4.29,7.81-10.09,15.88-13.67,22.6-7.59,12-17.78,23.07-27,34.09q6-9,11.45-17.91l-13.8,20.72L395.91,207l-4.82,5.91q2.43-2.61,4.78-5.22L388,219.35c-7.54,10.28-15.6,20.4-24,30.3s-17.15,19.56-25.86,29.09l1-1.43c8.11-9.42,16.35-18.73,21.95-27.28-4.54,5.55-7.46,9.57-11.89,14.89-.06-.06-.19-.08.14-.56-2.7,3.52-5.93,7.56-9.17,11.4.89-1.35,1.86-2.88,2.78-4.46,1.41-2.13,3.73-5.15,5.95-8.26l14.51-19.42c4.78-6.4,9.52-12.78,14.15-19.48,8.86-11.43,17.82-22.76,26.46-34C396.25,202,389.11,212.89,382.11,223.42Zm264-334.69c-.85,1-1.71,2-2.56,3.07l.54-.34A13.55,13.55,0,0,0,646.1-111.27ZM625.15-90c6.44-6,13.87-14.77,21.59-22.8a.25.25,0,0,0,0-.17C639.84-106.53,632.17-98,625.15-90ZM594.78-69.76l.25-.06-.15-.1ZM505.05,56.75c4.14-9.73,12.21-19.54,19.43-30,2.44-2.93,3.12-7.27,6.39-11.16,3.66-5.22,5.29-8.8,8.16-13l-3.34,2.2c6.2-6.43,7-12.28,13.77-18.27-.41-.33-.39-2,.46-2.89,3.84-5.07,8.91-9.15,11.56-13.54,3.89-5,8.25-9.65,11-14,.88-.93,1.54-3.65,3-5.77,2-2.36,4.1-4.67,6.2-6.95l-.54,0A52.2,52.2,0,0,0,576-50.91c-4.65,6-10,13.15-14.8,19.07C549-17.2,538.86-2.5,529.07,12.45c-2,3.25-3.61,6.88-5.62,10.15-2.79,5.1-6.51,10.27-9.76,15.19s-6,9.67-6.79,13.91C506.54,53.05,505,55,505.05,56.75Zm10.82,27A203.09,203.09,0,0,1,539,49.9a126.35,126.35,0,0,0,12.18-19.56c3.58-7.31,5.41-13.59,1.25-13.69.74,8.7-12.16,25.27-23.53,39.65S507.86,83,515.87,83.78Zm-61,87a112.87,112.87,0,0,1,9.94-13.2C461.55,162,458.25,166.39,454.89,170.75Zm18.08-55c-7.35,15.28-18.28,29.31-27.36,43.21-3.53,5.32-8.06,10.23-12.31,15.16s-8.21,9.9-10.76,15.19l1,.86.49-1.24c3.17-3.17,6.16-5.37,9-7.92l-.34.57.69-.89a35.09,35.09,0,0,0,5.32-6.08l2.22-3.55c9.8-12.49,19.85-25.44,26.35-38.68,4.41-7.87,7-15.55,11.31-23.53C477,110.84,474.14,113.44,473,115.77Z"/><path class="cls-4" d="M397.58,205.78q-4.66,6.81-9.62,13.57c-2.44,3.56-4.87,7.09-7.3,10.62-6,8.25-13.22,16.64-20.67,25.07s-15.17,16.89-22.68,24.9c-.33.56-.3.69.4.24,8.73-8.24,17.27-16.63,25.5-25.26s16.23-17.46,24.57-26l.3-.47a168,168,0,0,1,11.33-14.94c4.41-5.43,9-11.09,12.36-16.55,6.3-11.24,13.68-21.62,19.79-33-5.79,7.11-11.25,14.21-16.8,21.19S403.59,199,397.58,205.78Z"/><path class="cls-4" d="M469.68,73.52c-2.8,4.13-5.64,8.27-8.42,12.5-7.57,11.93-13.73,23-19.89,34.35q4.08-5.72,8.24-11.41t8.53-11.3C463.5,89.8,466.16,81.62,469.68,73.52Z"/><path class="cls-4" d="M436.44,129.67c1.66-3.15,3.3-6.22,4.93-9.3-8,11.34-15.71,22.79-23.32,34.28-11.76,19.49-23.71,38.84-35.57,58.25q-2.06,3.28-4.16,6.46c12.55-16.84,25.4-33.39,37.19-49.78s22.49-32.64,30.63-49c.29-.6.64-1.26.95-1.89-10,13.68-19.52,27.57-28.92,41.47C424.38,150.11,430.51,140,436.44,129.67Z"/><path class="cls-4" d="M400.58,201.37l-2.35,2.81-2.36,3.51,1.71-1.91Z"/><path class="cls-4" d="M433,181l.35-.32,7.54-9.63c3-4.85,6.33-9.82,9.79-14.83C444,165,437.36,173.57,433,181Z"/><path class="cls-4" d="M466.18,162.56c.87-.93,2.58-2.8,3.44-3.75l.8-2.33-2.49,2.6Z"/><path class="cls-4" d="M508.19,100.1c-12.55,18.81-24.41,36.36-36.68,53.35-.38,1-.74,2-1.09,3,9.73-10.18,18.4-21.13,24.31-32.91,1.19-2.3,2.31-6.3,3.95-8.24,7.32-9.55,13.14-19.57,19-29.5-3.07,4.54-6.13,9.16-9.25,13.88Z"/></g><line class="cls-2" x1="514.26" y1="-67.78" x2="78.9" y2="469.88"/><line class="cls-2" x1="737.37" y1="-60.9" x2="302.01" y2="476.76"/><line class="cls-2" x1="757.61" y1="143.73" x2="322.25" y2="681.4"/><path class="cls-5" d="M440.67,473.27c-8.76-.08-18.15-.12-30.44-.12h-60.7c-11.89,0-21,0-29.52.07h-.22A22.77,22.77,0,0,1,304.44,468c-6.27-5.28-13.21-10.82-21.83-17.46-6.64-5.11-8.27-12.38-4.36-19.45,3-5.37,2.43-8.36-2.34-12.78a76.37,76.37,0,0,1-9.69-11.51c-1.48-2-2.87-3.91-4.31-5.63a14,14,0,0,1-1.59-16.45c15.2-28.4,30.25-56.61,44.73-83.84a19.39,19.39,0,0,1,7.58-7.62c1.72-1,3.44-2,5.1-2.89A73.94,73.94,0,0,0,328,283.93a32.25,32.25,0,0,1,21-7.25,53.84,53.84,0,0,1,10,1.05c7.45,1.42,15.47,2.63,23.84,3.61a19.38,19.38,0,0,1,12,5.75c1.75,1.76,3.52,3.5,5.29,5.23,3.57,3.51,7.27,7.15,10.8,11,5.17,5.63,11.81,9.89,18.84,14.39,2.63,1.69,5.35,3.44,8,5.29,4.73,3.25,9.69,6.48,14.48,9.6,4.47,2.92,9.1,5.93,13.63,9a18.46,18.46,0,0,1,7.58,10.3c4.44,15.3,9.15,30.83,13.71,45.84l1.85,6.09c1.63,5.36.78,10.39-2.6,15.39C476,434.59,465.65,450.34,456,465.08a17.12,17.12,0,0,1-15.09,8.19Z"/><path class="cls-6" d="M379.35,465.83c-20.31,0-40.62-.06-60.93.05a12.53,12.53,0,0,1-8.63-3q-11.54-9.54-23.38-18.69c-3-2.33-4.35-4.94-2.39-8.35,5.42-9.44,3.26-17.1-4.37-24.43C274.89,406.87,271.3,401.1,267,396c-1.94-2.33-2.19-4.37-.72-7.12q22.57-42.09,44.94-84.27a13.89,13.89,0,0,1,5.55-5.46c5.87-3.43,11.94-6.62,17.41-10.62,6.38-4.66,12.94-5.61,20.55-4.11,8.94,1.77,18.05,2.69,27.09,4,2.48.36,5,.85,6.71,2.83,19.78,23.41,46.37,38,71.21,54.78A16.75,16.75,0,0,1,467,356q7.14,25.08,15,50a9.26,9.26,0,0,1-1.35,8.77Q464.79,438.3,449.13,462a7.88,7.88,0,0,1-7.36,3.88C421,465.78,400.16,465.83,379.35,465.83Zm.51-2.66c20.3,0,40.6-.09,60.9.1a7.17,7.17,0,0,0,6.86-3.67c10.08-15.37,20.2-30.72,30.49-46,1.55-2.3,2.1-4.3,1.31-6.89-5.26-17.33-10.55-34.65-15.59-52a8.65,8.65,0,0,0-3.61-4.83c-9.3-6.34-18.88-12.27-28.15-18.65-9.76-6.71-20.4-12.23-28.58-21.16-5.05-5.51-10.55-10.62-15.82-15.94a9.42,9.42,0,0,0-6-2.86c-8.21-1-16.41-2.17-24.53-3.71s-15.78-1.51-22.89,4.18c-5,4-10.94,6.8-16.49,10.08a9.36,9.36,0,0,0-3.84,3.7q-22.32,42-44.74,83.87c-1.06,2-1.13,3.43.44,5.31,4.47,5.34,8.07,11.55,13.12,16.23,8.14,7.53,9.52,15.52,4.3,25-1.61,2.9-.82,4.74,1.71,6.68,7.49,5.77,14.92,11.64,22.17,17.72,2.76,2.33,5.61,3,9.08,2.94C339.92,463.12,359.89,463.17,379.86,463.17Z"/><path class="cls-7" d="M379.86,463.17c-20,0-39.94-.05-59.9.06-3.47,0-6.32-.61-9.08-2.94-7.25-6.08-14.68-12-22.17-17.72-2.53-1.94-3.32-3.78-1.71-6.68,5.22-9.44,3.84-17.43-4.3-25-5.05-4.68-8.65-10.89-13.12-16.23-1.57-1.88-1.5-3.33-.44-5.31q22.42-41.91,44.74-83.87a9.36,9.36,0,0,1,3.84-3.7c5.55-3.28,11.5-6.09,16.49-10.08,7.11-5.69,14.63-5.74,22.89-4.18s16.32,2.75,24.53,3.71a9.42,9.42,0,0,1,6,2.86c5.27,5.32,10.77,10.43,15.82,15.94,8.18,8.93,18.82,14.45,28.58,21.16,9.27,6.38,18.85,12.31,28.15,18.65a8.65,8.65,0,0,1,3.61,4.83c5,17.39,10.33,34.71,15.59,52,.79,2.59.24,4.59-1.31,6.89-10.29,15.24-20.41,30.59-30.49,46a7.17,7.17,0,0,1-6.86,3.67C420.46,463.08,400.16,463.17,379.86,463.17Zm-39.48-57.88c-2,0-4-.05-6,0-1.21,0-2.51.43-2.27,1.95s1.48.84,2.41.71c5.16-.74,10.13.14,15.24,1,6.67,1.13,13.9,1.7,20.19-.69,7.56-2.88,14.71-2.55,22.19-1a10.27,10.27,0,0,0,6.27-.85c1.16-.5,1.69-1,1.29-2.13s-1.31-.5-2-.17c-3.43,1.73-6.75.16-10.07-.36-5-.78-10.21-1.42-14.74.7-4.26,2-8.64,1.59-12.89,2.54C353.23,408.52,347.05,404.4,340.38,405.29Zm2.7-72.18c-.2-3.13-1.9-5.58-6-5.75-3.78-.16-5.86,1.87-6.24,5.51-.42,4,1.78,6.2,5.58,6.68C340.09,340,342.86,337.44,343.08,333.11Zm39.56,6.49c4.05-.1,6.67-2.85,6.34-6.49s-2.26-5.79-6.09-5.76c-4.05,0-6.07,2.25-6.09,6.2C376.77,337.67,379.39,339.24,382.64,339.6Z"/><path class="cls-8" d="M340.38,405.29c6.67-.89,12.85,3.23,19.66,1.7,4.25-.95,8.63-.54,12.89-2.54,4.53-2.12,9.75-1.48,14.74-.7,3.32.52,6.64,2.09,10.07.36.66-.33,1.52-1.09,2,.17s-.13,1.63-1.29,2.13a10.27,10.27,0,0,1-6.27.85c-7.48-1.53-14.63-1.86-22.19,1-6.29,2.39-13.52,1.82-20.19.69-5.11-.86-10.08-1.74-15.24-1-.93.13-2.18.71-2.41-.71s1.06-1.91,2.27-1.95C336.39,405.24,338.39,405.29,340.38,405.29Z"/><path class="cls-9" d="M343.08,333.11c-.22,4.33-3,6.89-6.62,6.44-3.8-.48-6-2.65-5.58-6.68.38-3.64,2.46-5.67,6.24-5.51C341.18,327.53,342.88,330,343.08,333.11Z"/><path class="cls-9" d="M382.64,339.6c-3.25-.36-5.87-1.93-5.84-6.05,0-3.95,2-6.16,6.09-6.2,3.83,0,5.76,2.16,6.09,5.76S386.69,339.5,382.64,339.6Z"/><path class="cls-10" d="M263.3,5.43c1.73-2.62,3.48-5.21,5.28-7.79.18-1.06.6-2.4-.32-1.88A59.13,59.13,0,0,0,263.3,5.43Z"/><path class="cls-10" d="M0,589.84c.1,0,.09.22-.74,1.61.26-.56.49-1.08.74-1.61-.09-.07-.29-.05,0-.81-1.24,2.89-2.45,6-3.92,8.86a27.8,27.8,0,0,1-5.45,7.74c-.47.65-.93,1.31-1.36,2a26.93,26.93,0,0,0,7.38-9.21C-1.45,594.75.1,590.83,2,587a38.51,38.51,0,0,1,7.14-10.76l2.42-2.17,2.65-1.82c1.63-1,3.15-1.93,4.63-2.9l-3.16,1.72c-.51.28-1,.53-1.51.84l-1.63,1A14.18,14.18,0,0,0,10.94,574l-1.4,1.2A23.27,23.27,0,0,0,7,577.78C4,581.37,2,585.41,0,589.84Z"/><path class="cls-10" d="M80.6,371.09c6.51-8.66,12.16-16.35,18.18-23.92-6.71,7.74-13.21,15.83-19,23.69S69,386.34,65,393Q72.32,381.82,80.6,371.09Z"/><path class="cls-10" d="M129,312c-3.78,4.5-7.73,8.56-11.57,12.57-1.92,2-3.81,4-5.67,6s-3.64,4.06-5.4,6.05c7.5-8,15.24-15,21.18-22.37C128,313.46,128.5,312.67,129,312Z"/><path class="cls-10" d="M120.76,322.88c-4.1,4.14-8.11,8.11-11.76,12.2l-2.71,3-2.57,3c-1.71,2-3.33,4-4.94,6.05l2.84-3.28,2.87-3.21c1.89-2.14,3.82-4.2,5.7-6.25C114,330.31,117.61,326.52,120.76,322.88Z"/><path class="cls-10" d="M50.45,510.31a40.42,40.42,0,0,1,9.4,1.26,19.72,19.72,0,0,1,6.54,3.13,16.51,16.51,0,0,1,3.89,4,18.18,18.18,0,0,1,1.89,3.68,12.72,12.72,0,0,1,.61,1.43,17.8,17.8,0,0,1,1.39,6.81,18.28,18.28,0,0,0-.67-7.06,21.38,21.38,0,0,0-1.91-4.39,17.4,17.4,0,0,0-3-3.75,20.56,20.56,0,0,0-8.34-4.74,33.85,33.85,0,0,0-5-1.06c-.86-.1-1.71-.22-2.58-.28l-1.3-.11-1.11-.07c-2-.09-3.7-.14-5.16-.26-1.92-.05-3.26-.24-3.85-.28a.8.8,0,0,0-.31,0,1.06,1.06,0,0,0-.31,0,1.08,1.08,0,0,1,.24.18.68.68,0,0,1,.26.15,13.48,13.48,0,0,0,3.47.87C46.27,510,48.22,510.13,50.45,510.31Z"/><path class="cls-10" d="M72.17,522.37a13.1,13.1,0,0,0-2.6-3.61c-.51-.45-.54-.35-.29,0l.54.86c.23.36.49.78.74,1.26A24.5,24.5,0,0,1,72,524.08c.56,1.64.85,3.12,1,3.41s.14,0,.14-.58a14,14,0,0,0-.47-3.06C72.52,523.4,72.36,522.91,72.17,522.37Z"/><path class="cls-10" d="M27.41,497.39c.09-.42.19-.85.31-1.26a31.22,31.22,0,0,1,1.1-3.6A29.37,29.37,0,0,0,27.41,497.39Z"/><path class="cls-10" d="M63.85,412c-1.72,3-3.44,6-5,9-.82,1.52-1.63,3-2.39,4.57L54.18,430l2.35-4.55c.79-1.56,1.63-3.09,2.46-4.62,1.63-3.08,3.35-6.07,5-9,3.38-5.85,6.66-11.42,9.73-16.44-1,1.46-2.12,2.81-3.09,4.27-.78,1.58-1.79,3.53-3,5.63S65.22,409.72,63.85,412Z"/><path class="cls-10" d="M62.66,530.17a9.11,9.11,0,0,0,0-2.76,7.41,7.41,0,0,0-1.46-3.3,7.52,7.52,0,0,0-2.87-2.19,21.3,21.3,0,0,0-7-1.42c-2.3-.16-4.8-.21-7.21-.42a24.85,24.85,0,0,1-7.28-1.53,14.51,14.51,0,0,1-5.31-3.92,17.69,17.69,0,0,1-3.23-5.69A21.67,21.67,0,0,1,27,502.56a23.71,23.71,0,0,1,.69-6.43,42.41,42.41,0,0,1,6.46-12.87c1.34-1.94,2.76-3.78,4.12-5.58s2.69-3.64,4-5.48a70,70,0,0,0,6.59-11.34A26.1,26.1,0,0,0,51.36,449a16.25,16.25,0,0,0-1.43-5.52l-.61-1.28-.37-.64-.47-.75a22.21,22.21,0,0,1-1.82-3.44,9.27,9.27,0,0,1-.7-3.78,12.27,12.27,0,0,1,.75-3.78,31.24,31.24,0,0,1,1.55-3.51l1.43-2.87c3.79-7.63,7.71-15,11.69-22.09,3.48-6.26,8-13.48,13.18-21s11.15-15.45,17.38-23.11,12.74-15.1,19-21.91,11.89-12.86,15.63-18.33c-1.94,2.06-3.88,4-5.78,5.95a88.89,88.89,0,0,0,6.74-8.68,73.59,73.59,0,0,0,4.57-6.25,60.46,60.46,0,0,0,3.69-6.62c2.37-4.8,4.58-10.42,8.09-16.32a46.9,46.9,0,0,1,6.6-8.72,25.44,25.44,0,0,1,2.12-2c.72-.66,1.5-1.3,2.16-1.8l1.83-1.39.75-.57.28-.22.07-.07a2.17,2.17,0,0,0,.86-1.49,2.51,2.51,0,0,0-.11-.86l-.22-.7-.62-1.82c-.24-.7-.5-1.42-.77-2.28s-.5-1.79-.74-2.69-.51-1.81-.64-2.74l-.43-2.77a23.75,23.75,0,0,1-.26-2.78c0-.92-.11-1.85-.14-2.77l.08-2.74.06-1.37c0-.45.09-.89.13-1.34A68.52,68.52,0,0,1,160.17,224a138,138,0,0,1,8.77-17c1.58-2.63,3.22-5.27,4.81-7.77s3.18-5,4.77-7.54c3.79-6,6.13-10.77,9.92-16.75l11.26-18s-.11,0-.25.15l22.91-37.07,11.47-18.77,2.89-4.74.62-1c.19-.33.39-.66.57-1,.35-.67.74-1.34,1.05-2A30.8,30.8,0,0,0,241.75,85a13.67,13.67,0,0,0,.33-2.54,2.45,2.45,0,0,1,0-.38v-.19a.18.18,0,0,1,0-.1.43.43,0,0,1,0-.19s0,0,0,0,0,0,0,0,.05,0,0,0,0,0,0,0l-.15-.11c-.27-.19-.68-.46-1.35-.86-.94-.56-2.73-1.57-4.11-2.55a25,25,0,0,1-4-3.32,20.7,20.7,0,0,1-3-4,21.14,21.14,0,0,1-1.9-4.65,20.87,20.87,0,0,1-.12-10,31.89,31.89,0,0,1,1.56-5c.31-.8.69-1.67,1-2.39l.59-1.31c2.27-5,3-4.67,4.76-7.9,3.64-6.37,7-11.83,10.55-17.42s7.29-11.29,11.9-18l.5.31c1.29-2.14,2.57-4,3.64-5.49-1.31,3.84-4.4,10-5.56,13.19-.58,1.58-.7,2.38.08,1.72A66.14,66.14,0,0,0,262,6.76h0c-.57,1-1.09,1.91-1.56,2.78l-.19.29h0a56.73,56.73,0,0,0-4.44,9.87c1.58-2.69,3.2-5.37,4.87-8-.08.64-.05,1.11.35,1l-.3.77c-.75,1.17-1.34,2.17-1.34,2.17a4.8,4.8,0,0,0-.14,1.1c-1.77,3.69-4.09,8.39-5.71,12s-2.52,6-1.59,5.11c1.25-1.47,3.73-6.85,6.93-12.76.27-.31.56-.68.85-1.06-4.28,7.7,1.17.69-1.31,5.34-3.49,6.09-6.61,12.38-9.69,18.67-1.58,3.2-3.06,6.38-4.47,9.52l-.52,1.17-.42.95c-.27.64-.51,1.27-.72,1.92a8.44,8.44,0,0,0-.4,4,5.92,5.92,0,0,0,2,3.36,18.69,18.69,0,0,0,3.29,2.2l1,.58,1.14.68A23.57,23.57,0,0,1,252,70c.39.32.72.7,1.08,1a10.54,10.54,0,0,1,1,1.11,14.7,14.7,0,0,1,1.61,2.54c.22.46.46.9.64,1.37l.46,1.44a7.48,7.48,0,0,1,.33,1.44l.24,1.45a24,24,0,0,1-.17,5.63,39.92,39.92,0,0,1-3.07,10.29c-.72,1.62-1.49,3.21-2.34,4.77s-1.78,3.12-2.65,4.55l-5.41,8.92-1.94,3.18c-7.13,11.72-14,22.67-21.33,33.93.34-.8.71-1.62,1.1-2.46-5.88,9.05-11.71,18.17-17.24,27.46L183.83,211c-1.67,2.87-3.34,5.74-4.87,8.66s-3,5.86-4.26,8.86A55.31,55.31,0,0,0,169.94,247a30.12,30.12,0,0,0,.87,9.46c.22.77.35,1.51.63,2.29l.87,2.54a28.61,28.61,0,0,1,1.66,7,14.18,14.18,0,0,1-1.29,7.49,17.92,17.92,0,0,1-4.85,5.94l-.76.63-.62.49-1.15.87c-.74.56-1.41,1.07-2,1.55a24.13,24.13,0,0,0-3.14,3.17c-3.94,4.66-6.56,11.15-9.74,18a82.94,82.94,0,0,1-5.7,10.48,91.65,91.65,0,0,1-7.21,9.59c2.06-2.5,4.06-5.11,5.91-7.87a74.13,74.13,0,0,0,5-8.67c2.92-5.89,5.09-11.67,8-16.62a34.7,34.7,0,0,1,4.35-5.86c.41-.4.79-.84,1.22-1.21s.82-.75,1.28-1.11c.9-.73,2-1.52,3.2-2.43-1.25.93-2.39,1.71-3.3,2.44-.46.37-.87.75-1.3,1.12s-.81.81-1.22,1.22a32.41,32.41,0,0,0-4.23,5.83c-2.56,4.23-4.7,9.18-7.22,14.22A85.08,85.08,0,0,1,145,315c-1.54,2.45-3.21,4.73-4.9,6.91-3.39,4.37-6.93,8.24-10.22,11.88s-6.37,7-8.95,10.23a26.5,26.5,0,0,0-2.73,2.24c-8.57,8.61-16.74,17.66-22.69,26.23.13.11-3.1,4.18-1.71,3.07a300.48,300.48,0,0,0-18.75,27c-1.16,1.92-2.27,3.88-3.33,5.85s-2,4-3,6l-3.34,6.07-3.21,6.13-2.92,5.85a2.32,2.32,0,0,0-.17,1.46,2.16,2.16,0,0,0,.35.63l.22.28A18.63,18.63,0,0,1,60.82,437,29.7,29.7,0,0,1,64,447.51a33.35,33.35,0,0,1-.72,10.39L63,459.12l-.33,1.14L62,462.54l-.81,2.13c-.27.72-.55,1.43-.86,2.08A89.67,89.67,0,0,1,52,481.07c-1.47,2.16-3,4.23-4.42,6.23S45,490.93,44,492.66c-2.07,3.39-3.24,6.53-3.39,8.89a7.94,7.94,0,0,0,.38,2.94A4.22,4.22,0,0,0,42,506.28c.21.18.22.13.25.14a16.22,16.22,0,0,0,2.88.56c.79.1,1.73.18,2.75.26l3.9.31c4.46.39,8.89,1.23,12.49,3.12a19.69,19.69,0,0,1,8.42,8,19.67,19.67,0,0,0-8.55-7.8A32.94,32.94,0,0,0,52,508.09l-1.5-.1-.86,0L48,507.88c-1,0-2-.09-2.82-.16a19.38,19.38,0,0,1-3.31-.48.85.85,0,0,1-.53-.2,3.24,3.24,0,0,1-.88-1,8.53,8.53,0,0,1-1-4.24c0-.22,0-.38.09-.65s.08-.52.16-.79a14,14,0,0,1,.47-1.63,24.56,24.56,0,0,1,1.54-3.49,62.18,62.18,0,0,1,5-7.62c4.26-5.73,8.48-11.77,11.38-18.28.37-.72.68-1.53,1-2.3s.67-1.54.95-2.38l.86-2.48.72-2.62a59.34,59.34,0,0,1-6.19,14c-2.42,4.11-5,7.84-7.56,11.36L46,487.43c-.57.8-1.1,1.57-1.62,2.34a47.38,47.38,0,0,0-2.66,4.45,24,24,0,0,0-1.69,4.08,14,14,0,0,0-.43,1.85,9.7,9.7,0,0,0-.17,1.61,9.13,9.13,0,0,0,.63,4.37,5.23,5.23,0,0,0,.8,1.34,2.33,2.33,0,0,0,.66.55,13.93,13.93,0,0,0,4,.88h-.43a17.86,17.86,0,0,1-3.71-.59,2.5,2.5,0,0,1-.64-.28,3,3,0,0,1-.77-.71,7.44,7.44,0,0,1-1.4-2.95,11.23,11.23,0,0,1,.47-5.41,29.06,29.06,0,0,1,3-6.45c.67-1.11,1.42-2.25,2.21-3.39s1.59-2.25,2.52-3.55c1.79-2.51,3.54-5,5.13-7.64.8-1.27,1.55-2.63,2.25-3.91a79.52,79.52,0,0,0,4.2-8.69,90.13,90.13,0,0,1-8.75,15.1c-1.56,2.26-3.18,4.47-4.65,6.51a61,61,0,0,0-3.7,5.73,24.27,24.27,0,0,0-2.64,6.51,13.15,13.15,0,0,0-.35,2.75,10,10,0,0,0,.3,2.44,8.55,8.55,0,0,0,.88,2.67,4.93,4.93,0,0,0,1.17,1.52,1.69,1.69,0,0,0-.34-.08c-.2-.16-.64-.27-1.15-.62a12.88,12.88,0,0,1-1.66-1.27,4.87,4.87,0,0,0-1.33-1c-.33-.08-.55.22-.42,1.1a9.8,9.8,0,0,0,1.7,3.15,6.82,6.82,0,0,0,2.41,1.87,19,19,0,0,0,5.29,1.11c1.1.11,2.28.19,3.52.27l2.07.14c1,.08,1.9.17,2.83.29A22.23,22.23,0,0,1,63.71,517a13.69,13.69,0,0,1,3.57,3.59,14.66,14.66,0,0,1,2,4.5,17.06,17.06,0,0,1,.08,7.25,37.89,37.89,0,0,1-2.23,6.7l-.6,1.56c-.2.4-.4.8-.6,1.18-.36.71-.7,1.39-1,2-.67,1.33-1.45,2.44-2.08,3.51A31.81,31.81,0,0,1,60.92,550c-.57.78-1.05,1.47-1.48,2l-1,1.17a2.82,2.82,0,0,1-.37.39c-.25.13.14-.49,1-1.65.44-.58.91-1.37,1.5-2.24s1.27-1.86,1.9-3a41.84,41.84,0,0,0,2.05-3.76l1-2.14a11.82,11.82,0,0,0,.57-1.38l.56-1.51c1.75-4,2.64-8.43,1.65-12.48a13.2,13.2,0,0,0-2.25-4.7,12.4,12.4,0,0,0-3.7-3.26,21.56,21.56,0,0,0-8.25-2.57c-1.26-.17-2.41-.25-3.4-.32l-1.16-.06-.8,0c-.93,0-1.35,0-1.16,0l4.49.51A32.51,32.51,0,0,1,57.4,516a32.18,32.18,0,0,0-5-.68c-.82,0-1.68-.09-2.41-.1H48.24c-3.36-.12-7.12-.57-9.27-1.52A12.39,12.39,0,0,1,36.16,512a11.84,11.84,0,0,1-3.75-6.3,16.64,16.64,0,0,1,.19-8.42,33.83,33.83,0,0,1,3.83-8.69c1.69-2.87,3.7-5.62,5.72-8.6a123.05,123.05,0,0,0,7.44-12.6c2.23-4.68,4.25-9.92,4.38-15.37-.1,0-.11-.35-.11-.83s-.06-1.09-.09-1.65c0-1.12-.27-2-.32-1.09a19.79,19.79,0,0,0-2.07-7.22c-1.19-2.2-2.89-4.35-3.08-6.78a13.78,13.78,0,0,1,1.46-6.3,29.79,29.79,0,0,0,1.53-4.25l.31-.66c.34-.62.75-1.54,1.19-2.52,4.1-7.26,7.58-13.42,11-19.42s6.78-11.81,10.88-18.22c1.5-2.13,3-4.31,4.59-6.44s3.19-4.3,4.9-6.44c-2.23,2.79-5.61,6.95-7.56,9.95l-1.93,2.93c-3.83,5.59-7.4,11.14-10.7,16.76-1.69,2.79-3.25,5.62-4.85,8.42s-3.1,5.63-4.56,8.49c-.41,1-1.08,2.53-1.73,4l-1.36,2.43c0,.23-.08.48-.14.75l-2.06,4.26A15.4,15.4,0,0,0,47.72,433a8.36,8.36,0,0,0,1.09,4.89c.4.75.85,1.46,1.3,2.17a15.34,15.34,0,0,1,1.14,2,21.16,21.16,0,0,1,.93,2.07c.22.72.46,1.43.66,2.15s.24,1.47.36,2.19.06,1.46.1,2.19A30.37,30.37,0,0,1,52,458.83a57,57,0,0,1-6.83,13.27c-1.41,2.09-2.89,4.15-4.41,6.18s-3.1,4-4.56,6.09c-2.91,4.12-5.5,8.57-6.65,13.47a19.25,19.25,0,0,0,2,14.4A19.66,19.66,0,0,1,28.84,498c.86-4.91,3.16-9.41,5.74-13.53-3.31,5.09-5.94,10.71-6.23,16.58a20,20,0,0,0,1.48,8.39,15.87,15.87,0,0,0,2.05,3.64A13,13,0,0,0,34.79,516a12.07,12.07,0,0,0,1.19.83c.42.26.86.46,1.29.69a18.13,18.13,0,0,0,1.95.72,52.1,52.1,0,0,0,10.45,1.45A61.81,61.81,0,0,1,40,518.23a57.91,57.91,0,0,0,9.69.88,47.85,47.85,0,0,1,5.2.48,14.73,14.73,0,0,1,5,1.59,8.43,8.43,0,0,1,2.67,2.41,9,9,0,0,1,1.4,3.36,14.06,14.06,0,0,1-.69,6.69c-.36,1.1-.83,2.17-1.25,3.26a15.52,15.52,0,0,1-.67,1.61L60.59,540a51,51,0,0,1-7.24,10.78,77,77,0,0,1-9.33,9,119.53,119.53,0,0,1-10.49,7.52c-3.61,2.34-7.32,4.47-11,6.55l-5.59,3c-.8.52-1.61,1-2.4,1.53s-1.48,1.18-2.15,1.85a35.77,35.77,0,0,0-6.56,9.84C4,593.79,2.32,597.73.12,601.54c.14-.76.33-1.61.56-2.52,2-3.95,3.58-8,5.53-11.66a29.14,29.14,0,0,1,7.3-9.46,36.34,36.34,0,0,1,5-3.17c1.75-1,3.46-2,5.13-3,3.32-2,6.46-4.1,9.32-6.21-4.22,2.68-7.88,4.81-11.5,6.91l-5.49,3.13-1.33.86a11,11,0,0,0-1.33.93,22.93,22.93,0,0,0-2.49,2.28c-.07-.08-.25-.13.24-.76a32.81,32.81,0,0,0-5.4,8c-1.54,3-2.87,6.3-4.36,9.5.52-2.26,1.07-4.74,1.72-7.23a29.81,29.81,0,0,1,1.14-2.77l.75-1.53c.27-.52.59-1,.9-1.58A31.16,31.16,0,0,1,8,580a17.7,17.7,0,0,1,1.33-1.56A12.81,12.81,0,0,1,10.73,577l1.72-1.47c.62-.42,1.26-.82,1.89-1.23l1-.6.93-.51,1.86-1q3.7-2.05,7.32-4.15a143.76,143.76,0,0,0,13.84-9,72.89,72.89,0,0,0,12-11l1.3-1.56c.43-.53.8-1.09,1.2-1.63s.8-1.09,1.18-1.65l1.06-1.73a34.82,34.82,0,0,0,1.93-3.55l.45-.89c.13-.27.23-.55.34-.83l.66-1.67a12.24,12.24,0,0,0,1.25-6.26,6.58,6.58,0,0,0-1.15-2.88,6.45,6.45,0,0,0-2.39-2,18.29,18.29,0,0,0-6-1.44l-1.55-.14-1.81-.15c-1.21-.1-2.44-.21-3.68-.36a25.89,25.89,0,0,1-7.52-1.86,14.82,14.82,0,0,1-5.24-4,18.1,18.1,0,0,1-3.15-5.58,22,22,0,0,1-.64-12.33,22.29,22.29,0,0,0-.4,6.41,21.56,21.56,0,0,0,1.47,6.12,17.7,17.7,0,0,0,3.28,5.26,14.06,14.06,0,0,0,5,3.53,25.48,25.48,0,0,0,7.61,1.58c2.48.2,5,.24,7.25.4a20,20,0,0,1,6.84,1.43,7.56,7.56,0,0,1,2.74,2.14,7.64,7.64,0,0,1,1.42,3.17A9.34,9.34,0,0,1,62.66,530.17ZM242.39,39.54c-.74,1.69-1.5,3.44-2.21,5.2l.49-.71A30.46,30.46,0,0,0,242.39,39.54ZM248.33,78c-.24-.36-.45-.76-.74-1.12a11.62,11.62,0,0,0-1-1,13.35,13.35,0,0,0-1.52-1.07l-1-.59-1.45-.86A21.51,21.51,0,0,1,237,68.75a12.13,12.13,0,0,1-2.85-6.86,18.67,18.67,0,0,1,1.26-7.7c.23-.64.47-1.27.74-1.9l.67-1.58,1.16-2.7c1.57-3.6,3.21-7.21,4.91-10.75,0-.1,0-.17-.07-.19-1.53,2.92-3.05,6.06-4.56,9.34-.38.82-.74,1.66-1.11,2.49s-.76,1.74-1.15,2.61a25.93,25.93,0,0,0-2.25,7.63,12.75,12.75,0,0,0,1.42,7.66,15.88,15.88,0,0,0,5.53,5.64c1.11.72,2.39,1.45,3.36,2,.78.43,1.44.82,2,1.2l.4.27.33.26c.2.18.37.38.57.56l.3.27c.09.11.15.22.23.33S248.19,77.74,248.33,78ZM229,114l.21-.21-.09,0Zm-87.5,190.16c1.34-3.18,2.69-6.66,4.39-10.34a52.74,52.74,0,0,1,6.68-11.24,34.27,34.27,0,0,1,5.1-5.12c.93-.74,1.82-1.4,2.63-2,.4-.3.82-.64,1-.83s.55-.48.81-.73a6.52,6.52,0,0,0,2.07-3.7,9.3,9.3,0,0,0-.59-4.24c-.33-1.11-.81-2.31-1.33-3.64s-1-2.89-1.49-4.44a22.32,22.32,0,0,1-.57-2.44c-.15-.83-.38-1.69-.46-2.59s-.16-1.8-.23-2.75a23.61,23.61,0,0,1,0-2.91c0-.63,0-1.24,0-1.83l.16-1.72c.11-1.12.19-2.2.38-3.2s.31-2,.5-2.93l.6-2.72a69.57,69.57,0,0,1,3.33-10.22c-.91,1.66-1.7,3.41-2.51,5.15,2.44-6.27,4.59-10.93,6.85-15.5a117.86,117.86,0,0,1,8.25-14.05c-.16-.11.45-1.81,1.4-3.3,4.56-7.57,9.63-14.84,13.08-21,4.57-7.57,9.29-15,12.75-21.21.95-1.5,2.34-4.79,4.07-7.89l6.77-11-.41.36c-1.89,3-3.78,6-5.57,9.07-5.36,9.17-11.64,19.83-17.15,28.89L182,190.74c-3.33,5.55-6.59,10.87-9.85,16.53A137.69,137.69,0,0,0,163.36,225a65.94,65.94,0,0,0-4.82,20.06c0,1.53,0,3.07,0,4.6l.22,2.31a19.85,19.85,0,0,0,.31,2.3,38.59,38.59,0,0,0,1,4.53,45,45,0,0,0,1.4,4.29c.37,1,.73,1.86,1,2.71l.35,1c.09.28.18.56.25.85a5.67,5.67,0,0,1-.15,3.59,7.86,7.86,0,0,1-2.32,2.87c-1.28,1.09-3.2,2.39-5,4.07a38.07,38.07,0,0,0-7.81,10.4,60.63,60.63,0,0,0-3.82,9C143.46,299.29,142,302.45,141.54,304.15Zm-4.29,21.22a90,90,0,0,0,8.58-12.53c2.56-4.56,4.46-9.21,6.45-13.49A51.85,51.85,0,0,1,159,287.91c.34-.39.65-.79,1-1.15l1-1.07c.75-.66,1.43-1.3,2.28-1.92s1.84-1.36,2.75-2a27.36,27.36,0,0,0,3.31-2.92,13.15,13.15,0,0,0,3.59-7.56,16,16,0,0,0-.3-5.11,26.26,26.26,0,0,0-.7-2.63c-.23-.74-.49-1.45-.74-2.14-.49-1.38-1-2.64-1.33-3.87l-.55-1.88c-.15-.64-.24-1.29-.37-1.94a32.17,32.17,0,0,1-.51-3.91c-.09-.65,0-1.31-.06-1.95s-.05-1.29,0-1.93a78.21,78.21,0,0,1,1.75-12.57c.6-2.9.6-4.22-.59-2.81-.07.56-.18,1.18-.32,1.86s-.24,1.45-.41,2.26-.35,1.69-.48,2.63-.39,1.91-.48,3a43.68,43.68,0,0,0,.11,14.46l.17,1,.27,1c.18.65.36,1.32.54,2,.4,1.33,1,2.74,1.48,4.3l.39,1.22c.14.47.26.93.38,1.4a18.6,18.6,0,0,1,.47,2.88,11.92,11.92,0,0,1-.87,5.77,14.06,14.06,0,0,1-3.53,4.77c-.36.34-.75.67-1.13,1l-.6.48-.52.4-2,1.48a28,28,0,0,0-3.36,2.88l-.76.78-.72.83c-.49.54-.92,1.13-1.36,1.72-3.51,4.73-5.88,10.31-8.28,15.35-1.19,2.53-2.36,4.95-3.59,7.17s-2.45,4.2-3.6,5.9c-2.26,3.44-4.11,5.88-4.92,7.33S135.77,326.2,137.25,325.37Zm-78.67,110a3.22,3.22,0,0,1-.8-1.43,3.08,3.08,0,0,1,.25-1.68c.06-.16.09-.23.2-.47l.63-1.24,1.3-2.54c.87-1.72,1.82-3.45,2.83-5.24-.87,1.66-1.75,3.31-2.58,5l-1.26,2.51-.63,1.25c-.28.54-.25.52-.33.69a3.5,3.5,0,0,0-.33,1.67A3.14,3.14,0,0,0,58.58,435.32Zm26.74-59.7c-6.44,9.5-12.92,19.45-18.95,29.66-3,5.13-5.93,10.26-8.63,15.47-1.39,2.58-2.67,5.21-4,7.79l-.46.92-.34.74a14,14,0,0,0-.58,1.52,5.7,5.7,0,0,0-.18,3.14,8.2,8.2,0,0,0,1,2.22l.65,1c.23.38.62,1,.9,1.59l.83,1.83c.13.31.28.61.4.93l.28,1,.54,2,.28,2,.12,1v3l-.24,2-.12,1-.21.94-.44,1.88c-.17.61-.38,1.2-.57,1.81-.36,1.22-.87,2.33-1.33,3.48a81.93,81.93,0,0,1-6.91,12.2c-1.23,1.88-2.47,3.67-3.65,5.43s-2.37,3.47-3.35,5.09l.47.35.86-1.47c3.86-4.85,7.25-8.8,10.28-13.47l-.46.86.85-1.46a42,42,0,0,0,5.19-11.35,33.15,33.15,0,0,0,1.06-6.83,25.22,25.22,0,0,0-1.53-10.26L56,439.19a9.83,9.83,0,0,0-.6-1.12l-.47-.78A9.74,9.74,0,0,1,53.76,435a4.43,4.43,0,0,1,0-2.55,13.59,13.59,0,0,1,1-2.42c1.23-2.39,2.45-4.86,3.7-7.25,5-9.6,10.26-18.81,15.3-27.38,1.57-2.64,3.16-5.13,4.66-7.63s3-4.9,4.62-7.29,3.12-4.8,4.8-7.2,3.39-4.82,5.24-7.3l-4,4.73C87.7,372.43,86.33,374.17,85.32,375.62Z"/><path class="cls-10" d="M36.8,517l.58.27c3.35,1.34,7.07,1.49,10.78,1.69,1.81.09,3.94.18,5.92.47a16,16,0,0,1,5.78,1.78,8.42,8.42,0,0,1,2.73,2.41A9.22,9.22,0,0,1,64,526.91a13.42,13.42,0,0,1-.36,6,25,25,0,0,1-1,3c-.38,1-.7,2-1.14,2.94a52,52,0,0,1-5.78,9.71,68.8,68.8,0,0,1-7.87,8.54A116.59,116.59,0,0,1,28.7,570.84c-3.41,2-6.88,3.94-10.35,5.81-.43.24-.89.47-1.29.71l-1.08.69-1.09.68-1,.83-1,.83-.88,1c-.29.32-.59.63-.88,1l-.79,1.07a52.83,52.83,0,0,0-5.3,9.73A94.73,94.73,0,0,1-.25,603.79c0,1.13.38,1.58,1.55.86a94.81,94.81,0,0,0,6.05-11.53A44.31,44.31,0,0,1,13,583.61c.58-.58,1.1-1.24,1.7-1.78l.92-.76a5.11,5.11,0,0,1,1-.73l1-.64A13.19,13.19,0,0,1,18.7,579l2.75-1.49c3.67-2,7.34-4.1,11-6.32A107.78,107.78,0,0,0,53,555.39a60.28,60.28,0,0,0,8.37-10.48l.91-1.44c.29-.49.54-1,.81-1.5l.8-1.51.43-.81c.16-.31.27-.65.41-1l1.61-3.94a21.55,21.55,0,0,0,1-4c0-.33,0-.67,0-1a14.59,14.59,0,0,0-.43-3.82,11.55,11.55,0,0,0-4.69-6.7,20.07,20.07,0,0,0-8.71-2.84c-.8-.1-1.62-.17-2.44-.24L48.94,516c-1.28-.08-2.53-.15-3.74-.26a22.4,22.4,0,0,1-6.52-1.32A11.17,11.17,0,0,1,33,508a16.89,16.89,0,0,1-1.12-4.53,18.55,18.55,0,0,1,.1-4.59,30.89,30.89,0,0,1,4.28-11.44c1.07-1.84,2.26-3.65,3.51-5.44s2.55-3.63,3.79-5.49A93,93,0,0,0,50.34,465,34,34,0,0,0,54,452a30.67,30.67,0,0,1-2.54,9.27,64.41,64.41,0,0,1-4.51,8.35c-1.68,2.67-3.5,5.21-5.35,7.73s-3.79,4.95-5.53,7.48a47.64,47.64,0,0,0-4.56,7.95,25.61,25.61,0,0,0-2.23,8.76,19.4,19.4,0,0,0,1.62,8.82A13.69,13.69,0,0,0,36.8,517Z"/><path class="cls-10" d="M106.32,336.57c-4.86,5.17-9.64,10.46-14.26,16a332.42,332.42,0,0,0-31.91,45.62,349.68,349.68,0,0,1,23.1-32.61C91.53,355,98.37,345.78,106.32,336.57Z"/><path class="cls-10" d="M53.05,411c2.3-4.37,4.65-8.62,7.1-12.8q-7.82,12.48-14.51,25.49l-.94,1.81c-.4.8-.79,1.62-1.12,2.45a16.87,16.87,0,0,0-1.25,5.16,12.67,12.67,0,0,0,.74,5.21A25,25,0,0,0,45.48,443a9.86,9.86,0,0,1,.68,1.24c.16.37.33.73.5,1.1a16.49,16.49,0,0,1,.68,2.27q.07.6.18,1.2a10.21,10.21,0,0,1,0,1.24,16.73,16.73,0,0,1-.17,2.61A29,29,0,0,1,45.16,460a56,56,0,0,1-4,7.42c-1.54,2.46-3.21,4.91-5,7.36l-2.71,3.74c-.94,1.31-1.86,2.65-2.76,4A50.07,50.07,0,0,0,26,491.64a29.64,29.64,0,0,0-2,10.8,24.22,24.22,0,0,0,2.85,10.95,19.74,19.74,0,0,0,3.59,4.71,17.48,17.48,0,0,0,5.08,3.38A24.33,24.33,0,0,0,41.35,523c1.88.27,3.67.38,5.4.48l4.34.21a17.87,17.87,0,0,1,3.6.57,6.33,6.33,0,0,1,2.84,1.57A5.43,5.43,0,0,1,59,528.7a6.68,6.68,0,0,1,.09,1.26,6.85,6.85,0,0,0,0-1.28,5.46,5.46,0,0,0-3-4.21,15.49,15.49,0,0,0-5.24-1.27l-1.36-.13-1.8-.15c-1.22-.1-2.47-.21-3.75-.36a27.54,27.54,0,0,1-8-2,17.1,17.1,0,0,1-7.8-7.48,23,23,0,0,1-2.17-15.05,31.25,31.25,0,0,1,1.32-4.76,44.07,44.07,0,0,1,4.32-8.47c1.65-2.59,3.52-5.05,5.26-7.34s3.45-4.6,5-6.93a72.11,72.11,0,0,0,4.33-7.07,37.48,37.48,0,0,0,3.05-7.27,21,21,0,0,0,.91-7.18,16.33,16.33,0,0,0-2-6.43l-1.19-2a21.71,21.71,0,0,1-1.25-2.39,10.7,10.7,0,0,1-.93-5.2,15.67,15.67,0,0,1,1.4-5.13c.18-.41.37-.82.56-1.22l.54-1.09.93-1.84c4.91-9.83,10-19.24,15.25-28.19.45-.81,1-1.68,1.5-2.52a342.25,342.25,0,0,0-18,30.84L45.86,426a27.92,27.92,0,0,0-1.26,2.8,14.1,14.1,0,0,0-1,5.94,13.9,13.9,0,0,0,1.84,5.71c.24.45.5.89.76,1.32l.66,1.1a12.75,12.75,0,0,1,.73,1.49,13.42,13.42,0,0,1,1.25,6.31,24.2,24.2,0,0,1-1.49,7A19.4,19.4,0,0,0,48.52,448c-.08-.36-.09-.74-.2-1.1L48,445.87l-.15-.53c-.07-.17-.17-.33-.25-.5l-.48-1a7,7,0,0,0-.58-1L46,442l-.56-.93a17.82,17.82,0,0,1-1.77-3.94,13.24,13.24,0,0,1,.53-8.49c.25-.69.53-1.36.84-2s.69-1.42.88-1.79L47.31,422c.92-1.86,1.85-3.71,2.82-5.54S52,412.76,53.05,411Z"/><path class="cls-10" d="M31.5,512.24A13.89,13.89,0,0,0,34.79,516a14.13,14.13,0,0,0,1.22.79c.42.23.87.42,1.3.63a18.42,18.42,0,0,0,2.71.83,18.59,18.59,0,0,1-2.65-1l-.57-.3A13.19,13.19,0,0,1,31.5,512.24Z"/><path class="cls-10" d="M52,470.62l.39-.6a57,57,0,0,0,4-8.38,34.41,34.41,0,0,0,2.23-9.8c0-1.21,0-2.46-.11-3.69l-.3-1.87a10,10,0,0,0-.41-1.86,20.4,20.4,0,0,0-1.3-3.58l-.83-1.72c-.28-.54-.65-1.13-.88-1.49A7.64,7.64,0,0,1,53.15,434a8.08,8.08,0,0,1,1-4,9,9,0,0,0-1.13,3.6,6.11,6.11,0,0,0,1.19,3.49l.52.84a15.77,15.77,0,0,1,.8,1.44,33.43,33.43,0,0,1,1.36,3.14l.49,1.64a9.64,9.64,0,0,1,.39,1.65l.25,1.67.12.83,0,.82a32.25,32.25,0,0,1-1.94,12A64.12,64.12,0,0,1,52,470.62Z"/><path class="cls-10" d="M62.39,427.11l3.36-6c.41-1,.84-1.92,1.27-2.88-.83,1.38-1.66,2.78-2.46,4.19Z"/><path class="cls-10" d="M120.93,344.05a350.67,350.67,0,0,0-52.2,70.4L67,418.23c9.7-16.37,20.39-32,30.64-46.18l3.52-4.94c1.27-1.76,2.55-3.51,3.71-4.8,5.33-6.21,10.65-12.19,16.09-17.93s11.19-11.46,16.53-17.94c-5.18,6.13-10.81,11.58-16.14,17.14Z"/><g class="cls-3"><path class="cls-4" d="M-237.65,8a17.91,17.91,0,0,1-11.22-3.93,18,18,0,0,1-2.83-25.3L189-573.26a18,18,0,0,1,25.3-2.84,18,18,0,0,1,2.83,25.3l-440.72,552A17.93,17.93,0,0,1-237.65,8Z"/></g></svg>